<svg xmlns="http://www.w3.org/2000/svg" viewBox="0 0 2000 1250" width="2000" height="1250" preserveAspectRatio="xMidYMid meet" style="width: 100%; height: 100%; transform: translate3d(0px, 0px, 0px); content-visibility: visible;"><defs><clipPath id="__lottie_element_20"><rect width="2000" height="1250" x="0" y="0"/></clipPath></defs><g clip-path="url(#__lottie_element_20)"><g transform="matrix(0.28147411346435547,0.5524240732192993,-0.5524240732192993,0.28147411346435547,1023.0013427734375,599.947998046875)" opacity="1" style="display: block;"><g opacity="1" transform="matrix(1,0,0,1,0,0)"><path stroke-linecap="round" stroke-linejoin="round" fill-opacity="0" stroke="rgb(255,255,255)" stroke-opacity="1" stroke-width="74" d=" M-210,54 C-210,54 197,54 197,54"/></g></g><g transform="matrix(-0.20777089893817902,0.5841500163078308,-0.5841500163078308,-0.20777089893817902,1121.0958251953125,620.1171875)" opacity="1" style="display: block;"><g opacity="1" transform="matrix(1,0,0,1,0,0)"><path stroke-linecap="round" stroke-linejoin="round" fill-opacity="0" stroke="rgb(255,255,255)" stroke-opacity="1" stroke-width="74" d=" M8,54 C8,54 197,54 197,54"/></g></g><g transform="matrix(0.6128843426704407,0.09366343170404434,-0.09366343170404434,0.6128843426704407,932.9404907226562,672.4276733398438)" opacity="1" style="display: block;"><g opacity="1" transform="matrix(1,0,0,1,0,0)"><path stroke-linecap="round" stroke-linejoin="round" fill-opacity="0" stroke="rgb(255,255,255)" stroke-opacity="1" stroke-width="74" d=" M8,54 C8,54 197,54 197,54"/></g></g><g transform="matrix(4.886209964752197,0,0,4.886209964752197,385.10467529296875,816.751953125)" opacity="1" style="display: block;"><g opacity="1" transform="matrix(1,0,0,1,0,0)"><g opacity="1" transform="matrix(1,0,0,1,0,0)"><path fill="rgb(214,214,214)" fill-opacity="1" d=" M92.9000015258789,26.56999969482422 C92.1500015258789,31.389999389648438 88.4800033569336,31.389999389648438 84.93000030517578,31.389999389648438 C84.93000030517578,31.389999389648438 82.9000015258789,31.389999389648438 82.9000015258789,31.389999389648438 C82.9000015258789,31.389999389648438 84.33000183105469,22.389999389648438 84.33000183105469,22.389999389648438 C84.33000183105469,22.389999389648438 84.31999969482422,22.389999389648438 84.31999969482422,22.389999389648438 C84.4000015258789,21.850000381469727 84.87999725341797,21.440000534057617 85.43000030517578,21.440000534057617 C85.43000030517578,21.440000534057617 86.36000061035156,21.440000534057617 86.36000061035156,21.440000534057617 C88.77999877929688,21.440000534057617 91.06999969482422,21.440000534057617 92.25,22.81999969482422 C92.94999694824219,23.639999389648438 93.16000366210938,24.8700008392334 92.88999938964844,26.56999969482422 C92.88999938964844,26.56999969482422 92.9000015258789,26.56999969482422 92.9000015258789,26.56999969482422z M91.3499984741211,13.989999771118164 C91.3499984741211,13.989999771118164 77.91999816894531,13.989999771118164 77.91999816894531,13.989999771118164 C77,13.989999771118164 76.20999908447266,14.649999618530273 76.06999969482422,15.5600004196167 C76.06999969482422,15.5600004196167 70.63999938964844,50 70.63999938964844,50 C70.58999633789062,50.290000915527344 70.66999816894531,50.599998474121094 70.83999633789062,50.84000015258789 C71.0199966430664,51.08000183105469 71.27999877929688,51.2400016784668 71.56999969482422,51.279998779296875 C71.62999725341797,51.290000915527344 71.69000244140625,51.290000915527344 71.75,51.279998779296875 C71.75,51.279998779296875 78.16999816894531,51.279998779296875 78.16999816894531,51.279998779296875 C78.16999816894531,51.279998779296875 78.16000366210938,51.279998779296875 78.16000366210938,51.279998779296875 C79.08000183105469,51.279998779296875 79.87000274658203,50.61000061035156 80.01000213623047,49.70000076293945 C80.01000213623047,49.70000076293945 81.47000122070312,40.41999816894531 81.47000122070312,40.41999816894531 C81.61000061035156,39.5099983215332 82.4000015258789,38.84000015258789 83.31999969482422,38.84000015258789 C83.31999969482422,38.84000015258789 87.55999755859375,38.84000015258789 87.55999755859375,38.84000015258789 C96.41000366210938,38.84000015258789 101.5199966430664,34.560001373291016 102.86000061035156,26.09000015258789 C103.45999908447266,22.3799991607666 102.86000061035156,19.459999084472656 101.13999938964844,17.420000076293945 C99.2300033569336,15.170000076293945 95.83999633789062,13.989999771118164 91.3499984741211,13.989999771118164 C91.3499984741211,13.989999771118164 91.3499984741211,13.989999771118164 91.3499984741211,13.989999771118164z"/></g><g opacity="1" transform="matrix(1,0,0,1,0,0)"><path fill="rgb(214,214,214)" fill-opacity="1" d=" M122.75,38.91999816894531 C122.75,38.91999816894531 122.75,38.93000030517578 122.75,38.93000030517578 C122.2300033569336,42.52000045776367 119.12000274658203,45.150001525878906 115.5,45.06999969482422 C112.76000213623047,45.36000061035156 110.30999755859375,43.36000061035156 110.0199966430664,40.630001068115234 C109.95999908447266,40.02000045776367 110.0199966430664,39.400001525878906 110.18000030517578,38.810001373291016 C110.69000244140625,35.22999954223633 113.76000213623047,32.58000183105469 117.37999725341797,32.619998931884766 C119,32.529998779296875 120.58000183105469,33.18000030517578 121.66999816894531,34.380001068115234 C122.68000030517578,35.66999816894531 123.06999969482422,37.33000183105469 122.75,38.93000030517578 C122.75,38.93000030517578 122.75,38.91999816894531 122.75,38.91999816894531z M131.75,26.40999984741211 C131.75,26.40999984741211 125.31999969482422,26.40999984741211 125.31999969482422,26.40999984741211 C124.7699966430664,26.40999984741211 124.30000305175781,26.809999465942383 124.20999908447266,27.350000381469727 C124.20999908447266,27.350000381469727 123.91999816894531,29.149999618530273 123.91999816894531,29.149999618530273 C123.91999816894531,29.149999618530273 123.47000122070312,28.5 123.47000122070312,28.5 C122.08000183105469,26.479999542236328 118.97000122070312,25.799999237060547 115.87999725341797,25.799999237060547 C108.7699966430664,25.799999237060547 102.70999908447266,31.190000534057617 101.5199966430664,38.7400016784668 C100.83999633789062,42.220001220703125 101.70999908447266,45.83000183105469 103.91000366210938,48.61000061035156 C105.87000274658203,50.91999816894531 108.69000244140625,51.88999938964844 112.0199966430664,51.88999938964844 C112.0199966430664,51.88999938964844 112.01000213623047,51.88999938964844 112.01000213623047,51.88999938964844 C115.3499984741211,51.93000030517578 118.56999969482422,50.59000015258789 120.91000366210938,48.209999084472656 C120.91000366210938,48.209999084472656 120.62999725341797,50 120.62999725341797,50 C120.54000091552734,50.61000061035156 120.94999694824219,51.18000030517578 121.55999755859375,51.279998779296875 C121.55999755859375,51.279998779296875 127.5,51.279998779296875 127.5,51.279998779296875 C128.4199981689453,51.279998779296875 129.1999969482422,50.61000061035156 129.33999633789062,49.70000076293945 C129.33999633789062,49.70000076293945 132.82000732421875,27.690000534057617 132.82000732421875,27.690000534057617 C132.9199981689453,27.079999923706055 132.5,26.510000228881836 131.88999938964844,26.40999984741211 C131.88999938964844,26.40999984741211 131.75,26.40999984741211 131.75,26.40999984741211z"/></g><g opacity="1" transform="matrix(1,0,0,1,0,0)"><path fill="rgb(214,214,214)" fill-opacity="1" d=" M166.3000030517578,26.40999984741211 C166.3000030517578,26.40999984741211 159.8300018310547,26.40999984741211 159.8300018310547,26.40999984741211 C159.2100067138672,26.40999984741211 158.63999938964844,26.709999084472656 158.2899932861328,27.229999542236328 C158.2899932861328,27.229999542236328 149.3699951171875,40.36000061035156 149.3699951171875,40.36000061035156 C149.3699951171875,40.36000061035156 145.6199951171875,27.75 145.6199951171875,27.75 C145.6199951171875,27.75 145.6199951171875,27.739999771118164 145.6199951171875,27.739999771118164 C145.3800048828125,26.950000762939453 144.66000366210938,26.420000076293945 143.83999633789062,26.40999984741211 C143.83999633789062,26.40999984741211 137.47999572753906,26.40999984741211 137.47999572753906,26.40999984741211 C136.86000061035156,26.40999984741211 136.36000061035156,26.899999618530273 136.36000061035156,27.520000457763672 C136.36000061035156,27.639999389648438 136.3800048828125,27.770000457763672 136.4199981689453,27.889999389648438 C136.4199981689453,27.889999389648438 143.5,48.75 143.5,48.75 C143.5,48.75 136.80999755859375,58.20000076293945 136.80999755859375,58.20000076293945 C136.80999755859375,58.20000076293945 136.82000732421875,58.20000076293945 136.82000732421875,58.20000076293945 C136.55999755859375,58.540000915527344 136.52000427246094,59.0099983215332 136.7100067138672,59.38999938964844 C136.91000366210938,59.77000045776367 137.3000030517578,60 137.72999572753906,60 C137.72999572753906,60 144.17999267578125,60 144.17999267578125,60 C144.77999877929688,59.9900016784668 145.33999633789062,59.689998626708984 145.67999267578125,59.20000076293945 C145.67999267578125,59.20000076293945 167.25,28.170000076293945 167.25,28.170000076293945 C167.60000610351562,27.65999984741211 167.47000122070312,26.969999313354492 166.97000122070312,26.610000610351562 C166.77000427246094,26.469999313354492 166.5399932861328,26.40999984741211 166.3000030517578,26.40999984741211 C166.3000030517578,26.40999984741211 166.3000030517578,26.40999984741211 166.3000030517578,26.40999984741211z"/></g><g opacity="1" transform="matrix(1,0,0,1,0,0)"><path fill="rgb(255,255,255)" fill-opacity="1" d=" M189.50999450683594,26.56999969482422 C188.75999450683594,31.389999389648438 185.08999633789062,31.389999389648438 181.52999877929688,31.389999389648438 C181.52999877929688,31.389999389648438 179.5,31.389999389648438 179.5,31.389999389648438 C179.5,31.389999389648438 180.92999267578125,22.389999389648438 180.92999267578125,22.389999389648438 C180.92999267578125,22.389999389648438 180.92999267578125,22.389999389648438 180.92999267578125,22.389999389648438 C181.02000427246094,21.84000015258789 181.49000549316406,21.440000534057617 182.0399932861328,21.440000534057617 C182.0399932861328,21.440000534057617 183,21.440000534057617 183,21.440000534057617 C185.4199981689453,21.440000534057617 187.7100067138672,21.440000534057617 188.88999938964844,22.81999969482422 C189.58999633789062,23.639999389648438 189.80999755859375,24.8700008392334 189.5399932861328,26.56999969482422 C189.5399932861328,26.56999969482422 189.50999450683594,26.56999969482422 189.50999450683594,26.56999969482422z M187.9600067138672,13.989999771118164 C187.9600067138672,13.989999771118164 174.52000427246094,13.989999771118164 174.52000427246094,13.989999771118164 C173.61000061035156,13.989999771118164 172.8300018310547,14.649999618530273 172.69000244140625,15.5600004196167 C172.69000244140625,15.5600004196167 167.25,50 167.25,50 C167.1999969482422,50.290000915527344 167.27999877929688,50.59000015258789 167.4499969482422,50.83000183105469 C167.6300048828125,51.06999969482422 167.8800048828125,51.22999954223633 168.1699981689453,51.279998779296875 C168.22999572753906,51.290000915527344 168.2899932861328,51.290000915527344 168.35000610351562,51.279998779296875 C168.35000610351562,51.279998779296875 175.25,51.279998779296875 175.25,51.279998779296875 C175.88999938964844,51.279998779296875 176.44000244140625,50.810001373291016 176.5399932861328,50.18000030517578 C176.5399932861328,50.18000030517578 178.07000732421875,40.43000030517578 178.07000732421875,40.43000030517578 C178.2100067138672,39.52000045776367 179,38.849998474121094 179.9199981689453,38.849998474121094 C179.9199981689453,38.849998474121094 184.16000366210938,38.849998474121094 184.16000366210938,38.849998474121094 C193.00999450683594,38.849998474121094 198.1199951171875,34.58000183105469 199.4600067138672,26.100000381469727 C200.05999755859375,22.399999618530273 199.4600067138672,19.479999542236328 197.74000549316406,17.43000030517578 C195.83999633789062,15.170000076293945 192.4600067138672,13.989999771118164 187.9600067138672,13.989999771118164 C187.9600067138672,13.989999771118164 187.9600067138672,13.989999771118164 187.9600067138672,13.989999771118164z"/></g><g opacity="1" transform="matrix(1,0,0,1,0,0)"><path fill="rgb(255,255,255)" fill-opacity="1" d=" M219.52000427246094,38.93000030517578 C219,42.52000045776367 215.8800048828125,45.15999984741211 212.25,45.06999969482422 C210.6199951171875,45.25 209,44.599998474121094 207.92999267578125,43.349998474121094 C206.8699951171875,42.099998474121094 206.5,40.400001525878906 206.92999267578125,38.810001373291016 C207.42999267578125,35.22999954223633 210.50999450683594,32.58000183105469 214.1300048828125,32.619998931884766 C215.75,32.529998779296875 217.32000732421875,33.18000030517578 218.41000366210938,34.380001068115234 C219.42999267578125,35.65999984741211 219.85000610351562,37.31999969482422 219.52000427246094,38.93000030517578 C219.52000427246094,38.93000030517578 219.52000427246094,38.93000030517578 219.52000427246094,38.93000030517578z M228.47999572753906,26.40999984741211 C228.47999572753906,26.40999984741211 222.0500030517578,26.40999984741211 222.0500030517578,26.40999984741211 C221.5,26.40999984741211 221.0399932861328,26.809999465942383 220.9499969482422,27.350000381469727 C220.9499969482422,27.350000381469727 220.66000366210938,29.149999618530273 220.66000366210938,29.149999618530273 C220.66000366210938,29.149999618530273 220.2100067138672,28.5 220.2100067138672,28.5 C218.82000732421875,26.479999542236328 215.7100067138672,25.799999237060547 212.6199951171875,25.799999237060547 C205.50999450683594,25.799999237060547 199.4499969482422,31.190000534057617 198.25999450683594,38.7400016784668 C197.5800018310547,42.220001220703125 198.4499969482422,45.83000183105469 200.66000366210938,48.61000061035156 C202.6199951171875,50.91999816894531 205.42999267578125,51.88999938964844 208.77000427246094,51.88999938964844 C208.77000427246094,51.88999938964844 208.75999450683594,51.88999938964844 208.75999450683594,51.88999938964844 C212.10000610351562,51.91999816894531 215.32000732421875,50.59000015258789 217.66000366210938,48.209999084472656 C217.66000366210938,48.209999084472656 217.3699951171875,50 217.3699951171875,50 C217.27999877929688,50.61000061035156 217.69000244140625,51.18000030517578 218.3000030517578,51.279998779296875 C218.3000030517578,51.279998779296875 224.25,51.279998779296875 224.25,51.279998779296875 C225.1699981689453,51.279998779296875 225.9499969482422,50.61000061035156 226.08999633789062,49.70000076293945 C226.08999633789062,49.70000076293945 229.57000732421875,27.690000534057617 229.57000732421875,27.690000534057617 C229.6199951171875,27.389999389648438 229.5399932861328,27.09000015258789 229.36000061035156,26.850000381469727 C229.17999267578125,26.610000610351562 228.9199981689453,26.459999084472656 228.6199951171875,26.40999984741211 C228.6199951171875,26.40999984741211 228.47999572753906,26.40999984741211 228.47999572753906,26.40999984741211z"/></g><g opacity="1" transform="matrix(1,0,0,1,0,0)"><g opacity="1" transform="matrix(1,0,0,1,0,0)"><path fill="rgb(255,255,255)" fill-opacity="1" d=" M236.05999755859375,14.930000305175781 C236.05999755859375,14.930000305175781 230.5500030517578,50 230.5500030517578,50 C230.5,50.290000915527344 230.57000732421875,50.599998474121094 230.75,50.84000015258789 C230.9199981689453,51.08000183105469 231.19000244140625,51.2400016784668 231.47999572753906,51.279998779296875 C231.5399932861328,51.290000915527344 231.60000610351562,51.290000915527344 231.66000366210938,51.279998779296875 C231.66000366210938,51.279998779296875 237.1999969482422,51.279998779296875 237.1999969482422,51.279998779296875 C238.1199951171875,51.279998779296875 238.89999389648438,50.61000061035156 239.0399932861328,49.70000076293945 C239.0399932861328,49.70000076293945 244.5,15.289999961853027 244.5,15.289999961853027 C244.5500030517578,15 244.47999572753906,14.6899995803833 244.3000030517578,14.449999809265137 C244.1300048828125,14.210000038146973 243.86000061035156,14.039999961853027 243.57000732421875,14 C243.57000732421875,14 237.19000244140625,14 237.19000244140625,14 C236.63999938964844,13.989999771118164 236.16000366210938,14.380000114440918 236.05999755859375,14.930000305175781 C236.05999755859375,14.930000305175781 236.05999755859375,14.930000305175781 236.05999755859375,14.930000305175781z"/></g></g><g opacity="1" transform="matrix(1,0,0,1,0,0)"><path fill="rgb(38,58,127)" fill-opacity="1" d=" M14.25,57.9900016784668 C14.25,57.9900016784668 15.279999732971191,51.400001525878906 15.279999732971191,51.400001525878906 C15.279999732971191,51.400001525878906 13.029999732971191,51.349998474121094 13.029999732971191,51.349998474121094 C13.029999732971191,51.349998474121094 2.0899999141693115,51.349998474121094 2.0899999141693115,51.349998474121094 C2.0899999141693115,51.349998474121094 9.680000305175781,2.7799999713897705 9.680000305175781,2.7799999713897705 C9.699999809265137,2.630000114440918 9.770000457763672,2.5 9.890000343322754,2.4000000953674316 C10,2.299999952316284 10.149999618530273,2.25 10.289999961853027,2.25 C10.289999961853027,2.25 28.719999313354492,2.25 28.719999313354492,2.25 C34.83000183105469,2.25 39.04999923706055,3.5299999713897705 41.25,6.070000171661377 C42.22999954223633,7.150000095367432 42.91999816894531,8.449999809265137 43.2599983215332,9.869999885559082 C43.599998474121094,11.600000381469727 43.599998474121094,13.390000343322754 43.2599983215332,15.119999885559082 C43.2599983215332,15.119999885559082 43.2599983215332,16.610000610351562 43.2599983215332,16.610000610351562 C43.2599983215332,16.610000610351562 44.29999923706055,17.200000762939453 44.29999923706055,17.200000762939453 C45.09000015258789,17.610000610351562 45.79999923706055,18.149999618530273 46.38999938964844,18.809999465942383 C47.29999923706055,19.90999984741211 47.88999938964844,21.239999771118164 48.08000183105469,22.649999618530273 C48.31999969482422,24.510000228881836 48.2400016784668,26.389999389648438 47.84000015258789,28.219999313354492 C47.45000076293945,30.43000030517578 46.689998626708984,32.56999969482422 45.59000015258789,34.529998779296875 C44.68000030517578,36.08000183105469 43.459999084472656,37.43000030517578 42,38.47999954223633 C40.540000915527344,39.5 38.900001525878906,40.2400016784668 37.16999816894531,40.66999816894531 C35.209999084472656,41.15999984741211 33.189998626708984,41.400001525878906 31.170000076293945,41.380001068115234 C31.170000076293945,41.380001068115234 29.690000534057617,41.380001068115234 29.690000534057617,41.380001068115234 C27.559999465942383,41.38999938964844 25.75,42.939998626708984 25.43000030517578,45.04999923706055 C25.43000030517578,45.04999923706055 25.329999923706055,45.63999938964844 25.329999923706055,45.63999938964844 C25.329999923706055,45.63999938964844 23.510000228881836,57.25 23.510000228881836,57.25 C23.510000228881836,57.25 23.43000030517578,57.66999816894531 23.43000030517578,57.66999816894531 C23.420000076293945,57.7599983215332 23.3799991607666,57.849998474121094 23.309999465942383,57.90999984741211 C23.260000228881836,57.95000076293945 23.190000534057617,57.9900016784668 23.1200008392334,57.9900016784668 C23.1200008392334,57.9900016784668 14.25,57.9900016784668 14.25,57.9900016784668z"/></g><g opacity="1" transform="matrix(1,0,0,1,0,0)"><path fill="rgb(255,255,255)" fill-opacity="1" d=" M45.22999954223633,15.430000305175781 C45.16999816894531,15.779999732971191 45.11000061035156,16.18000030517578 45.040000915527344,16.520000457763672 C42.59000015258789,29.09000015258789 34.220001220703125,33.439998626708984 23.520000457763672,33.439998626708984 C23.520000457763672,33.439998626708984 18.059999465942383,33.439998626708984 18.059999465942383,33.439998626708984 C16.75,33.439998626708984 15.640000343322754,34.400001525878906 15.4399995803833,35.689998626708984 C15.4399995803833,35.689998626708984 12.649999618530273,53.369998931884766 12.649999618530273,53.369998931884766 C12.649999618530273,53.369998931884766 11.859999656677246,58.38999938964844 11.859999656677246,58.38999938964844 C11.800000190734863,58.7599983215332 11.890000343322754,59.13999938964844 12.109999656677246,59.439998626708984 C12.329999923706055,59.7400016784668 12.65999984741211,59.95000076293945 13.029999732971191,60 C13.100000381469727,60.0099983215332 13.180000305175781,60.0099983215332 13.25,60 C13.25,60 22.90999984741211,60 22.90999984741211,60 C24.049999237060547,60 25.020000457763672,59.16999816894531 25.200000762939453,58.040000915527344 C25.200000762939453,58.040000915527344 25.299999237060547,57.54999923706055 25.299999237060547,57.54999923706055 C25.299999237060547,57.54999923706055 27.110000610351562,46 27.110000610351562,46 C27.110000610351562,46 27.229999542236328,45.380001068115234 27.229999542236328,45.380001068115234 C27.40999984741211,44.25 28.389999389648438,43.40999984741211 29.530000686645508,43.40999984741211 C29.530000686645508,43.40999984741211 30.979999542236328,43.40999984741211 30.979999542236328,43.40999984741211 C40.34000015258789,43.40999984741211 47.66999816894531,39.61000061035156 49.810001373291016,28.610000610351562 C50.70000076293945,24 50.25,20.18000030517578 47.869998931884766,17.479999542236328 C47.119998931884766,16.639999389648438 46.22999954223633,15.949999809265137 45.22999954223633,15.430000305175781 C45.22999954223633,15.430000305175781 45.22999954223633,15.430000305175781 45.22999954223633,15.430000305175781z"/></g><g opacity="1" transform="matrix(1,0,0,1,0,0)"><path fill="rgb(214,214,214)" fill-opacity="1" d=" M43.07099914550781,13.640000343322754 C42.683998107910156,13.520999908447266 42.297000885009766,13.413000106811523 41.86899948120117,13.315999984741211 C41.441001892089844,13.218999862670898 41.05400085449219,13.144000053405762 40.61600112915039,13.067999839782715 C40.61600112915039,13.067999839782715 40.61600112915039,13.067999839782715 40.61600112915039,13.067999839782715 C38.97600173950195,12.79800033569336 37.314998626708984,12.668999671936035 35.665000915527344,12.680000305175781 C35.665000915527344,12.680000305175781 20.709999084472656,12.680000305175781 20.709999084472656,12.680000305175781 C19.538999557495117,12.680000305175781 18.530000686645508,13.595999717712402 18.347000122070312,14.826000213623047 C18.347000122070312,14.826000213623047 15.137999534606934,36.19300079345703 15.137999534606934,36.19300079345703 C15.137999534606934,36.19300079345703 15.045999526977539,36.819000244140625 15.045999526977539,36.819000244140625 C15.260000228881836,35.41699981689453 16.584999084472656,34.73699951171875 17.909000396728516,34.73699951171875 C17.909000396728516,34.73699951171875 23.511999130249023,34.73699951171875 23.511999130249023,34.73699951171875 C34.52399826049805,34.73699951171875 42.979000091552734,29.645999908447266 45.505001068115234,15.947999954223633 C45.505001068115234,15.947999954223633 45.505001068115234,15.947999954223633 45.505001068115234,15.947999954223633 C45.59700012207031,15.505999565124512 45.59700012207031,14.925000190734863 45.617000579833984,14.482999801635742 C44.96500015258789,14.159000396728516 44.32400131225586,14.006999969482422 43.63100051879883,13.802000045776367 C43.63100051879883,13.802000045776367 43.07099914550781,13.640000343322754 43.07099914550781,13.640000343322754z"/></g><g opacity="1" transform="matrix(1,0,0,1,0,0)"><path fill="rgb(214,214,214)" fill-opacity="1" d=" M18.969999313354492,15.329999923706055 C19.1299991607666,14.210000038146973 20.079999923706055,13.369999885559082 21.219999313354492,13.359999656677246 C21.219999313354492,13.359999656677246 35.7599983215332,13.359999656677246 35.7599983215332,13.359999656677246 C37.36000061035156,13.34000015258789 38.959999084472656,13.460000038146973 40.54999923706055,13.710000038146973 C40.959999084472656,13.779999732971191 41.369998931884766,13.859999656677246 41.7599983215332,13.949999809265137 C42.150001525878906,14.039999961853027 42.5099983215332,14.140000343322754 42.91999816894531,14.25 C42.91999816894531,14.25 43.459999084472656,14.420000076293945 43.459999084472656,14.420000076293945 C43.459999084472656,14.420000076293945 43.459999084472656,14.40999984741211 43.459999084472656,14.40999984741211 C44.15999984741211,14.640000343322754 44.83000183105469,14.930000305175781 45.470001220703125,15.270000457763672 C46.220001220703125,10.59000015258789 45.470001220703125,7.409999847412109 42.959999084472656,4.53000020980835 C40.20000076293945,1.3600000143051147 35.25,0 28.84000015258789,0 C28.84000015258789,0 10.34000015258789,0 10.34000015258789,0 C9.029999732971191,0 7.929999828338623,0.9599999785423279 7.730000019073486,2.25 C7.730000019073486,2.25 0,51.56999969482422 0,51.56999969482422 C-0.07000000029802322,51.9900016784668 0.03999999910593033,52.43000030517578 0.28999999165534973,52.77000045776367 C0.5400000214576721,53.11000061035156 0.9200000166893005,53.34000015258789 1.340000033378601,53.400001525878906 C1.4199999570846558,53.40999984741211 1.5099999904632568,53.40999984741211 1.590000033378601,53.400001525878906 C1.590000033378601,53.400001525878906 13.010000228881836,53.400001525878906 13.010000228881836,53.400001525878906 C13.010000228881836,53.400001525878906 15.880000114440918,35.029998779296875 15.880000114440918,35.029998779296875 C15.880000114440918,35.029998779296875 18.969999313354492,15.329999923706055 18.969999313354492,15.329999923706055z"/></g></g></g><g transform="matrix(0.26930001378059387,0,0,0.2692199945449829,114,80)" opacity="1" style="display: block;"><g opacity="1" transform="matrix(1,0,0,1,0,0)"><g opacity="1" transform="matrix(1,0,0,1,0,0)"><path fill="rgb(255,255,255)" fill-opacity="1" d=" M1294.949951171875,570.8800048828125 C1294.949951171875,570.8800048828125 1468.5,570.8800048828125 1468.5,570.8800048828125 C1468.5,570.8800048828125 1379.6600341796875,333.9800109863281 1379.6600341796875,333.9800109863281 C1379.6600341796875,333.9800109863281 1294.949951171875,570.8800048828125 1294.949951171875,570.8800048828125z M1208.5699462890625,813.52001953125 C1208.5699462890625,813.52001953125 1094.25,813.52001953125 1094.25,813.52001953125 C1094.25,813.52001953125 1322.9200439453125,196.6199951171875 1322.9200439453125,196.6199951171875 C1322.9200439453125,196.6199951171875 1447.93994140625,196.6199951171875 1447.93994140625,196.6199951171875 C1447.93994140625,196.6199951171875 1684.8299560546875,813.52001953125 1684.8299560546875,813.52001953125 C1684.8299560546875,813.52001953125 1559.800048828125,813.52001953125 1559.800048828125,813.52001953125 C1559.800048828125,813.52001953125 1505.52001953125,669.5700073242188 1505.52001953125,669.5700073242188 C1505.52001953125,669.5700073242188 1259.5699462890625,669.5800170898438 1259.5699462890625,669.5800170898438 C1259.5699462890625,669.5800170898438 1208.5699462890625,813.52001953125 1208.5699462890625,813.52001953125z"/></g><g opacity="1" transform="matrix(1,0,0,1,0,0)"><path fill="rgb(255,255,255)" fill-opacity="1" d=" M1891.5,746.8900146484375 C1944.969970703125,746.8900146484375 1981.1600341796875,697.5399780273438 1981.1600341796875,605.4199829101562 C1981.1700439453125,516.5800170898438 1944.97998046875,467.25 1891.5,467.25 C1838.02001953125,467.25 1795.27001953125,516.5999755859375 1795.27001953125,605.4400024414062 C1795.280029296875,697.5499877929688 1838.050048828125,746.8900146484375 1891.5,746.8900146484375 C1891.5,746.8900146484375 1891.5,746.8900146484375 1891.5,746.8900146484375z M1984.449951171875,813.52001953125 C1984.449951171875,813.52001953125 1984.449951171875,694.27001953125 1984.449951171875,694.27001953125 C1968.8199462890625,774.0599975585938 1926.050048828125,821.77001953125 1844.6199951171875,821.77001953125 C1760.72998046875,821.77001953125 1676.8299560546875,754.3300170898438 1676.8299560546875,605.4500122070312 C1676.8299560546875,461.5 1760.72998046875,394.04998779296875 1844.6199951171875,394.04998779296875 C1926.050048828125,394.04998779296875 1968.8199462890625,440.95001220703125 1984.449951171875,519.9099731445312 C1984.449951171875,519.9099731445312 1984.449951171875,196.66000366210938 1984.449951171875,196.66000366210938 C1984.449951171875,196.66000366210938 2091.3798828125,196.66000366210938 2091.3798828125,196.66000366210938 C2091.3798828125,196.66000366210938 2091.3798828125,813.52001953125 2091.3798828125,813.52001953125 C2091.3798828125,813.52001953125 1984.449951171875,813.52001953125 1984.449951171875,813.52001953125z"/></g><g opacity="1" transform="matrix(1,0,0,1,0,0)"><path fill="rgb(255,255,255)" fill-opacity="1" d=" M2382.64990234375,813.52001953125 C2382.64990234375,813.52001953125 2308.6201171875,813.52001953125 2308.6201171875,813.52001953125 C2308.6201171875,813.52001953125 2131.780029296875,402.25 2131.780029296875,402.25 C2131.780029296875,402.25 2249.39990234375,402.25 2249.39990234375,402.25 C2249.39990234375,402.25 2354.679931640625,670.4000244140625 2354.679931640625,670.4000244140625 C2354.679931640625,670.4000244140625 2461.610107421875,402.25 2461.610107421875,402.25 C2461.610107421875,402.25 2565.25,402.25 2565.25,402.25 C2565.25,402.25 2382.64990234375,813.52001953125 2382.64990234375,813.52001953125z"/></g><g opacity="1" transform="matrix(1,0,0,1,0,0)"><path fill="rgb(255,255,255)" fill-opacity="1" d=" M2771.659912109375,394.0299987792969 C2857.159912109375,394.0299987792969 2936.989990234375,448.32000732421875 2956.72998046875,533.8599853515625 C2956.72998046875,533.8599853515625 2858.85009765625,570.0499877929688 2858.85009765625,570.0499877929688 C2844.860107421875,494.3699951171875 2810.320068359375,463.1199951171875 2765.10009765625,463.1199951171875 C2709.989990234375,463.1199951171875 2673.800048828125,514.1300048828125 2673.800048828125,607.0700073242188 C2673.800048828125,706.5900268554688 2717.39990234375,751.02001953125 2765.929931640625,751.02001953125 C2816.110107421875,751.02001953125 2842.429931640625,712.3499755859375 2858.8798828125,635.8599853515625 C2858.8798828125,635.8599853515625 2956.760009765625,672.0499877929688 2956.760009765625,672.0499877929688 C2941.1298828125,763.3499755859375 2858.8798828125,821.75 2771.68994140625,821.75 C2652.43994140625,821.75 2554.530029296875,733.739990234375 2554.530029296875,607.0700073242188 C2554.5,482.0400085449219 2652.389892578125,394.0299987792969 2771.659912109375,394.0299987792969 C2771.659912109375,394.0299987792969 2771.659912109375,394.0299987792969 2771.659912109375,394.0299987792969z"/></g><g opacity="1" transform="matrix(1,0,0,1,0,0)"><path fill="rgb(255,255,255)" fill-opacity="1" d=" M3527.419921875,512.47998046875 C3527.419921875,534.6900024414062 3547.989990234375,546.219970703125 3613.7900390625,560.1799926757812 C3719.070068359375,582.3900146484375 3754.43994140625,620.25 3754.43994140625,688.5 C3754.43994140625,760.0599975585938 3709.199951171875,821.75 3594.8701171875,821.75 C3509.320068359375,821.75 3450.1201171875,789.6699829101562 3419.669921875,724.6900024414062 C3419.669921875,724.6900024414062 3492.8798828125,683.5700073242188 3492.8798828125,683.5700073242188 C3513.449951171875,723.0499877929688 3551.280029296875,740.3200073242188 3597.340087890625,740.3200073242188 C3640.93994140625,740.3200073242188 3658.2099609375,726.3300170898438 3658.2099609375,704.1199951171875 C3658.2099609375,680.27001953125 3637.639892578125,666.2899780273438 3571.840087890625,652.3099975585938 C3476.429931640625,632.5700073242188 3431.18994140625,596.3699951171875 3431.18994140625,519.8800048828125 C3431.18994140625,437.6300048828125 3498.639892578125,394.0299987792969 3581.7099609375,394.0299987792969 C3650.81005859375,394.0299987792969 3715.7900390625,419.5299987792969 3746.219970703125,491.1000061035156 C3746.219970703125,491.1000061035156 3673.010009765625,528.1099853515625 3673.010009765625,528.1099853515625 C3652.43994140625,488.6300048828125 3622.010009765625,473.82000732421875 3585.820068359375,473.82000732421875 C3547.159912109375,473.82000732421875 3527.419921875,489.44000244140625 3527.419921875,512.47998046875 C3527.419921875,512.47998046875 3527.419921875,512.47998046875 3527.419921875,512.47998046875z"/></g><g opacity="1" transform="matrix(1,0,0,1,0,0)"><g opacity="1" transform="matrix(1,0,0,1,0,0)"><path fill="rgb(255,255,255)" fill-opacity="1" d=" M3914.72998046875,813.52001953125 C3914.72998046875,813.52001953125 3807.800048828125,813.52001953125 3807.800048828125,813.52001953125 C3807.800048828125,813.52001953125 3807.800048828125,196.6199951171875 3807.800048828125,196.6199951171875 C3807.800048828125,196.6199951171875 3914.72998046875,196.6199951171875 3914.72998046875,196.6199951171875 C3914.72998046875,196.6199951171875 3914.72998046875,537.1199951171875 3914.72998046875,537.1199951171875 C3930.360107421875,445.82000732421875 3973.1201171875,394 4054.550048828125,394 C4118.7099609375,394 4177.93994140625,437.6000061035156 4177.93994140625,523.1400146484375 C4177.93994140625,523.1400146484375 4177.93994140625,813.52001953125 4177.93994140625,813.52001953125 C4177.93994140625,813.52001953125 4071,813.52001953125 4071,813.52001953125 C4071,813.52001953125 4071,563.47998046875 4071,563.47998046875 C4071,544.5599975585938 4065.239990234375,527.280029296875 4054.550048828125,510.010009765625 C4043.85009765625,492.739990234375 4026.580078125,484.510009765625 4002.72998046875,484.510009765625 C3936.929931640625,484.510009765625 3914.719970703125,551.1300048828125 3914.719970703125,583.2100219726562 C3914.719970703125,583.2100219726562 3914.72998046875,813.52001953125 3914.72998046875,813.52001953125z"/></g></g><g opacity="1" transform="matrix(1,0,0,1,0,0)"><g opacity="1" transform="matrix(1,0,0,1,0,0)"><path fill="rgb(255,255,255)" fill-opacity="1" d=" M3114.25,693.75 C3114.25,709.1300048828125 3118.919921875,721.47998046875 3128.239990234375,730.8200073242188 C3137.56005859375,740.1599731445312 3150.75,744.8300170898438 3167.77001953125,744.8099975585938 C3174.909912109375,744.8099975585938 3183.27001953125,743.1699829101562 3192.8798828125,739.8800048828125 C3192.8798828125,739.8800048828125 3192.889892578125,739.8800048828125 3192.889892578125,739.8800048828125 C3202.8798828125,736.3800048828125 3212.2099609375,731.219970703125 3220.5,724.6300048828125 C3229.2900390625,717.77001953125 3237.530029296875,709.1199951171875 3245.2099609375,698.6900024414062 C3252.89990234375,688.260009765625 3258.659912109375,675.9000244140625 3262.5,661.6300048828125 C3262.5,661.6300048828125 3262.5,595.8300170898438 3262.5,595.8300170898438 C3203.739990234375,613.9400024414062 3164.360107421875,622.6500244140625 3144.320068359375,636.9199829101562 C3124.280029296875,651.1900024414062 3114.25,670.1400146484375 3114.25,693.75 C3114.25,693.75 3114.25,693.75 3114.25,693.75z M3099.429931640625,557.8599853515625 C3099.429931640625,557.8599853515625 3001.429931640625,521.6199951171875 3001.429931640625,521.6199951171875 C3006.3701171875,499.6700134277344 3014.8701171875,480.6000061035156 3026.929931640625,464.3999938964844 C3038.7900390625,448.4200134277344 3053.6201171875,434.8800048828125 3070.60009765625,424.5 C3087.60009765625,414.07000732421875 3106.81005859375,406.3900146484375 3128.239990234375,401.44000244140625 C3150.39990234375,396.4100036621094 3173.06005859375,393.9200134277344 3195.780029296875,394.0199890136719 C3257.800048828125,394.0199890136719 3302.27001953125,403.8999938964844 3329.179931640625,423.6700134277344 C3356.090087890625,443.44000244140625 3369.5400390625,476.0899963378906 3369.5400390625,521.6599731445312 C3369.5400390625,521.6599731445312 3369.5400390625,723.4099731445312 3369.5400390625,723.4099731445312 C3369.5400390625,723.4099731445312 3369.530029296875,813.97998046875 3369.530029296875,813.97998046875 C3369.530029296875,813.97998046875 3262.090087890625,813.97998046875 3262.090087890625,813.97998046875 C3262.090087890625,813.97998046875 3262.47998046875,748.9199829101562 3262.47998046875,748.9199829101562 C3262.47998046875,748.9199829101562 3262.47998046875,729.97998046875 3262.47998046875,729.97998046875 C3262.47998046875,729.97998046875 3228.159912109375,772.0399780273438 3228.159912109375,772.0399780273438 C3211.969970703125,792.0700073242188 3190.179931640625,806.8200073242188 3165.570068359375,814.4099731445312 C3164.659912109375,814.6900024414062 3163.739990234375,814.9600219726562 3162.820068359375,815.2100219726562 C3146.320068359375,819.8699951171875 3130.679931640625,822.2100219726562 3115.889892578125,822.2100219726562 C3080.18994140625,822.2100219726562 3051.510009765625,812.4600219726562 3029.830078125,792.9600219726562 C3008.14990234375,773.4600219726562 2997.31005859375,746.7100219726562 2997.31005859375,712.7100219726562 C2997.31005859375,681.9600219726562 3004.030029296875,659.030029296875 3017.47998046875,643.9400024414062 C3030.929931640625,628.8499755859375 3049.449951171875,617.1799926757812 3073.070068359375,608.9400024414062 C3096.669921875,600.7100219726562 3124.669921875,593.2999877929688 3157.070068359375,586.7100219726562 C3189.469970703125,580.1199951171875 3224.610107421875,569.9500122070312 3262.5,556.219970703125 C3262.5,556.219970703125 3262.5,538.9199829101562 3262.5,538.9199829101562 C3262.5,516.9600219726562 3257,500.7699890136719 3246,490.3399963378906 C3235,479.9100036621094 3216.8798828125,474.69000244140625 3191.64990234375,474.69000244140625 C3160.89990234375,474.69000244140625 3139.89990234375,481.1400146484375 3128.64990234375,494.04998779296875 C3117.39990234375,506.95001220703125 3107.659912109375,528.219970703125 3099.429931640625,557.8599853515625 C3099.429931640625,557.8599853515625 3099.429931640625,557.8599853515625 3099.429931640625,557.8599853515625z"/></g></g><g opacity="1" transform="matrix(1,0,0,1,0,0)"><path fill="rgb(255,255,255)" fill-opacity="1" d=" M688.4299926757812,374.55999755859375 C688.4299926757812,374.55999755859375 834.1900024414062,374.55999755859375 834.1900024414062,374.55999755859375 C834.1900024414062,374.55999755859375 847.4299926757812,339.32000732421875 847.4299926757812,339.32000732421875 C847.4299926757812,339.32000732421875 674.8900146484375,339.32000732421875 674.8900146484375,339.32000732421875 C674.8900146484375,339.32000732421875 661.2999877929688,303.9100036621094 661.2999877929688,303.9100036621094 C661.2999877929688,303.9100036621094 860.72998046875,303.9100036621094 860.72998046875,303.9100036621094 C860.72998046875,303.9100036621094 873.969970703125,268.6600036621094 873.969970703125,268.6600036621094 C873.969970703125,268.6600036621094 647.760009765625,268.6600036621094 647.760009765625,268.6600036621094 C647.760009765625,268.6600036621094 634.2899780273438,233.5800018310547 634.2899780273438,233.5800018310547 C634.2899780273438,233.5800018310547 887.1500244140625,233.5800018310547 887.1500244140625,233.5800018310547 C887.1500244140625,233.5800018310547 900.3900146484375,198.3300018310547 900.3900146484375,198.3300018310547 C900.3900146484375,198.3300018310547 620.75,198.3300018310547 620.75,198.3300018310547 C620.75,198.3300018310547 620.75,198.32000732421875 620.75,198.32000732421875 C620.75,198.32000732421875 544.5700073242188,0 544.5700073242188,0 C544.5700073242188,0 355.7300109863281,0 355.7300109863281,0 C355.7300109863281,0 279.5799865722656,198.32000732421875 279.5799865722656,198.32000732421875 C279.5799865722656,198.32000732421875 279.5799865722656,198.3300018310547 279.5799865722656,198.3300018310547 C279.5799865722656,198.3300018310547 0,198.3300018310547 0,198.3300018310547 C0,198.3300018310547 13.25,233.5800018310547 13.25,233.5800018310547 C13.25,233.5800018310547 436.92999267578125,233.5800018310547 436.92999267578125,233.5800018310547 C436.92999267578125,233.5800018310547 450.0799865722656,198.5500030517578 450.0799865722656,198.5500030517578 C450.0799865722656,198.5500030517578 450.1600036621094,198.3300018310547 450.1600036621094,198.3300018310547 C450.1600036621094,198.3300018310547 516.3699951171875,374.55999755859375 516.3699951171875,374.55999755859375 C516.3699951171875,374.55999755859375 549.469970703125,462.67999267578125 549.469970703125,462.67999267578125 C549.469970703125,462.67999267578125 350.8599853515625,462.67999267578125 350.8599853515625,462.67999267578125 C350.8599853515625,462.67999267578125 383.9599914550781,374.55999755859375 383.9599914550781,374.55999755859375 C383.9599914550781,374.55999755859375 397.2099914550781,339.32000732421875 397.2099914550781,339.32000732421875 C397.2099914550781,339.32000732421875 52.959999084472656,339.32000732421875 52.959999084472656,339.32000732421875 C52.959999084472656,339.32000732421875 66.19999694824219,374.55999755859375 66.19999694824219,374.55999755859375 C66.19999694824219,374.55999755859375 211.91000366210938,374.55999755859375 211.91000366210938,374.55999755859375 C211.91000366210938,374.55999755859375 178.07000732421875,462.67999267578125 178.07000732421875,462.67999267578125 C178.07000732421875,462.67999267578125 0,462.67999267578125 0,462.67999267578125 C0,462.67999267578125 13.25,497.92999267578125 13.25,497.92999267578125 C13.25,497.92999267578125 562.719970703125,497.92999267578125 562.719970703125,497.92999267578125 C562.719970703125,497.92999267578125 575.9000244140625,533.010009765625 575.9000244140625,533.010009765625 C575.9000244140625,533.010009765625 26.420000076293945,533.010009765625 26.420000076293945,533.010009765625 C26.420000076293945,533.010009765625 39.66999816894531,568.25 39.66999816894531,568.25 C39.66999816894531,568.25 589.1400146484375,568.25 589.1400146484375,568.25 C589.1400146484375,568.25 602.4500122070312,603.6599731445312 602.4500122070312,603.6599731445312 C602.4500122070312,603.6599731445312 52.959999084472656,603.6599731445312 52.959999084472656,603.6599731445312 C52.959999084472656,603.6599731445312 66.19999694824219,638.9000244140625 66.19999694824219,638.9000244140625 C66.19999694824219,638.9000244140625 110.37999725341797,638.9000244140625 110.37999725341797,638.9000244140625 C110.37999725341797,638.9000244140625 42.66999816894531,815.2000122070312 42.66999816894531,815.2000122070312 C42.66999816894531,815.2000122070312 218.41000366210938,815.2000122070312 218.41000366210938,815.2000122070312 C218.41000366210938,815.2000122070312 284.6499938964844,638.9000244140625 284.6499938964844,638.9000244140625 C284.6499938964844,638.9000244140625 615.6799926757812,638.9000244140625 615.6799926757812,638.9000244140625 C615.6799926757812,638.9000244140625 681.8900146484375,815.1199951171875 681.8900146484375,815.1199951171875 C681.8900146484375,815.1199951171875 857.5599975585938,815.2000122070312 857.5599975585938,815.2000122070312 C857.5599975585938,815.2000122070312 789.8900146484375,638.9000244140625 789.8900146484375,638.9000244140625 C789.8900146484375,638.9000244140625 834.1799926757812,638.9000244140625 834.1799926757812,638.9000244140625 C834.1799926757812,638.9000244140625 847.4299926757812,603.6599731445312 847.4299926757812,603.6599731445312 C847.4299926757812,603.6599731445312 776.3599853515625,603.6599731445312 776.3599853515625,603.6599731445312 C776.3599853515625,603.6599731445312 762.77001953125,568.25 762.77001953125,568.25 C762.77001953125,568.25 860.719970703125,568.25 860.719970703125,568.25 C860.719970703125,568.25 873.9600219726562,533.010009765625 873.9600219726562,533.010009765625 C873.9600219726562,533.010009765625 749.239990234375,533.010009765625 749.239990234375,533.010009765625 C749.239990234375,533.010009765625 735.780029296875,497.92999267578125 735.780029296875,497.92999267578125 C735.780029296875,497.92999267578125 887.1400146484375,497.92999267578125 887.1400146484375,497.92999267578125 C887.1400146484375,497.92999267578125 900.3800048828125,462.67999267578125 900.3800048828125,462.67999267578125 C900.3800048828125,462.67999267578125 722.25,462.67999267578125 722.25,462.67999267578125 C722.25,462.67999267578125 688.4299926757812,374.55999755859375 688.4299926757812,374.55999755859375z"/></g><g opacity="1" transform="matrix(1,0,0,1,0,0)"><path fill="rgb(255,255,255)" fill-opacity="1" d=" M423.739990234375,268.6600036621094 C423.739990234375,268.6600036621094 26.420000076293945,268.6600036621094 26.420000076293945,268.6600036621094 C26.420000076293945,268.6600036621094 39.66999816894531,303.9100036621094 39.66999816894531,303.9100036621094 C39.66999816894531,303.9100036621094 410.5,303.9100036621094 410.5,303.9100036621094 C410.5,303.9100036621094 423.739990234375,268.6600036621094 423.739990234375,268.6600036621094z"/></g><g opacity="1" transform="matrix(1,0,0,1,0,0)"><path fill="rgb(255,255,255)" fill-opacity="1" d=" M944.8800048828125,756.22998046875 C944.8800048828125,756.22998046875 935.0700073242188,756.22998046875 935.0700073242188,756.22998046875 C935.0700073242188,756.22998046875 935.0700073242188,770.25 935.0700073242188,770.25 C935.0700073242188,770.25 945.47998046875,770.25 945.47998046875,770.25 C951.0800170898438,770.25 953.8800048828125,767.780029296875 953.8800048828125,762.8499755859375 C953.8800048828125,758.4400024414062 950.8800048828125,756.22998046875 944.8800048828125,756.22998046875 C944.8800048828125,756.22998046875 944.8800048828125,756.22998046875 944.8800048828125,756.22998046875z M948.280029296875,775.239990234375 C948.280029296875,775.239990234375 935.0700073242188,775.239990234375 935.0700073242188,775.239990234375 C935.0700073242188,775.239990234375 935.0700073242188,794.6500244140625 935.0700073242188,794.6500244140625 C935.0700073242188,794.6500244140625 927.6699829101562,794.6500244140625 927.6699829101562,794.6500244140625 C927.6699829101562,794.6500244140625 927.6699829101562,750.4000244140625 927.6699829101562,750.4000244140625 C927.6699829101562,750.4000244140625 945.0800170898438,750.4000244140625 945.0800170898438,750.4000244140625 C956.1500244140625,750.4000244140625 961.6900024414062,754.2000122070312 961.6900024414062,761.8099975585938 C961.6900024414062,767.4199829101562 958.9600219726562,770.9500122070312 953.489990234375,772.4099731445312 C958.1699829101562,773.47998046875 960.5,776.5499877929688 960.489990234375,781.6199951171875 C960.489990234375,781.6199951171875 960.489990234375,785.22998046875 960.489990234375,785.22998046875 C960.489990234375,786.8400268554688 960.72998046875,787.9000244140625 961.1900024414062,788.4299926757812 C961.6500244140625,788.9600219726562 962.760009765625,789.22998046875 964.5,789.22998046875 C964.5,789.22998046875 965.2999877929688,789.22998046875 965.2999877929688,789.22998046875 C965.2999877929688,789.22998046875 965.2999877929688,794.6300048828125 965.2999877929688,794.6300048828125 C965.2999877929688,794.6300048828125 960.7000122070312,794.6300048828125 960.7000122070312,794.6300048828125 C955.6300048828125,794.6300048828125 953.0900268554688,792.5 953.0900268554688,788.22998046875 C953.0900268554688,788.22998046875 953.0900268554688,779.8499755859375 953.0900268554688,779.8499755859375 C953.0900268554688,776.780029296875 951.489990234375,775.25 948.280029296875,775.25 C948.280029296875,775.25 948.280029296875,775.239990234375 948.280029296875,775.239990234375z M969.4400024414062,799.9400024414062 C976.5,792.77001953125 979.9400024414062,784.0399780273438 979.9400024414062,773.6199951171875 C979.9400024414062,763.2000122070312 976.469970703125,754.4600219726562 969.4400024414062,747.3699951171875 C962.4099731445312,740.280029296875 953.75,736.6099853515625 943.4500122070312,736.6099853515625 C933.1500244140625,736.6099853515625 924.52001953125,740.2000122070312 917.4600219726562,747.3699951171875 C910.4000244140625,754.5399780273438 906.9600219726562,763.1699829101562 906.9600219726562,773.6199951171875 C906.9600219726562,784.0700073242188 910.4299926757812,792.77001953125 917.4600219726562,799.9400024414062 C924.2899780273438,806.9099731445312 933.6900024414062,810.77001953125 943.4500122070312,810.5900268554688 C953.75,810.5900268554688 962.3800048828125,807 969.4299926757812,799.9400024414062 C969.4299926757812,799.9400024414062 969.4400024414062,799.9400024414062 969.4400024414062,799.9400024414062z M943.4500122070312,816.75 C931.239990234375,816.75 921.0399780273438,812.6099853515625 912.6400146484375,804.3200073242188 C904.3900146484375,795.9099731445312 900.2100219726562,785.719970703125 900.2100219726562,773.6199951171875 C900.2100219726562,761.52001953125 904.3499755859375,751.3300170898438 912.6400146484375,743.030029296875 C921.0399780273438,734.6300048828125 931.239990234375,730.489990234375 943.4500122070312,730.489990234375 C955.6599731445312,730.489990234375 965.8499755859375,734.6300048828125 974.1400146484375,743.030029296875 C982.5499877929688,751.3300170898438 986.6900024414062,761.52001953125 986.6900024414062,773.6199951171875 C986.6900024414062,785.719970703125 982.5499877929688,795.9099731445312 974.1400146484375,804.3200073242188 C965.8499755859375,812.6099853515625 955.6599731445312,816.75 943.4500122070312,816.75 C943.4500122070312,816.75 943.4500122070312,816.75 943.4500122070312,816.75z"/></g></g></g></g></svg>