<svg height="8" width="8" xmlns="http://www.w3.org/2000/svg"><clipPath id="a"><path d="M1440 0v1024H0V0z"/></clipPath><clipPath id="b"><path d="M.576 0a.57.57 0 01.406.175L4 3.194 7.018.175a.57.57 0 11.806.807L4.806 4l3.018 3.018a.57.57 0 11-.806.806L4 4.806.982 7.824a.57.57 0 11-.807-.806L3.194 4 .175.982A.57.57 0 01.576 0z"/></clipPath><g clip-path="url(#a)" transform="translate(-1400 -664)"><g clip-path="url(#b)" transform="translate(1400 664)"><path d="M0 0h7.997v8H0z" fill="#1b293b"/></g></g></svg>