<svg xmlns="http://www.w3.org/2000/svg" width="112" height="112" viewBox="0 0 112 112"><defs><style>.a{fill:#f19b3e;}.b{fill:#e6bc6e;}.c{fill:#ffceb6;}.d{fill:#e27f9a;}.e{fill:#313766;}.f{fill:#222747;}.g{fill:#f29c3e;}.h{fill:#cc8335;}.i{fill:#ffd17b;}.j{fill:#f4ac1c;}.k{fill:#b36f42;}.l{fill:#ffd9c7;}.m{fill:#ffbfa1;}.n{fill:#bf6b82;}</style></defs><g transform="translate(0)"><path class="a" d="M40,272v52.824H51.319l5.66-39.618v39.618H70.185V272Z" transform="translate(-36.227 -212.824)"/><path class="b" d="M345.958,324.824V272H312v52.824h11.319l5.66-39.618,3.773,39.618Z" transform="translate(-241.504 -212.824)"/><path class="c" d="M95.689,99.773v9.433H86.256l-8.374,6.98a10.585,10.585,0,0,1-13.392.132l-1.743-1.394-4.79-3.832V137.5H27.773V116.047A11.521,11.521,0,0,1,35.52,96h21.2a7.545,7.545,0,0,1,5.334,2.209l9.11,9.11,13.5-6.749a7.562,7.562,0,0,1,3.375-.8Z" transform="translate(-24 -78.852)"/><path class="c" d="M248.038,118.02v31.711H217.853V127.092l-2.811,4.919-1.559,2.726a11.035,11.035,0,0,1-17.783,1.908l-3.08-3.422-3.82-4.245,5.605-8.379,5.193,4.249,5.049,4.129,9.079-13.619a7.551,7.551,0,0,1,6.28-3.36h22.011a6.02,6.02,0,0,1,6.02,6.021Z" transform="translate(-147.357 -91.052)"/><path class="d" d="M306.834,118.1v32.129H276.649V127.291l-2.811,4.984-8.1-6.563,6.782-10.307a7.525,7.525,0,0,1,6.28-3.4h22.011a6.06,6.06,0,0,1,6.02,6.1Z" transform="translate(-206.153 -91.052)"/><path class="e" d="M68.468,104.727l-5.721,10.424-4.79-3.878V138H27.773V116.287a11.755,11.755,0,0,1-3-12.831A11.525,11.525,0,0,1,35.52,96h21.2a7.5,7.5,0,0,1,5.334,2.236Z" transform="translate(-24 -78.852)"/><path class="f" d="M1.886,0A1.886,1.886,0,0,1,3.773,1.886V7.543A1.886,1.886,0,0,1,0,7.543V1.886A1.886,1.886,0,0,1,1.886,0Z" transform="matrix(0.614, -0.789, 0.789, 0.614, 8.265, 28.077)"/><rect class="f" width="3.773" height="7.218" rx="1.887" transform="translate(2.591 38.725) rotate(-50.598)"/><path class="g" d="M105,128l1.318,13.183-5.947-4.626.856-8.558Z" transform="translate(-81.912 -103.301)"/><path class="h" d="M97.887,109.66,96,105.887,99.772,104l3.774,1.886-1.886,3.773Z" transform="translate(-78.591 -85.011)"/><path class="i" d="M357.661,144l1.887,18.866-3.773,3.773L352,162.867,353.888,144Z" transform="translate(-272.693 -115.481)"/><path class="j" d="M353.888,125.66,352,121.887,355.774,120l3.773,1.887-1.886,3.773Z" transform="translate(-272.693 -97.213)"/><path class="c" d="M432.979,134.082V161.05a5.661,5.661,0,0,1-5.66,5.66h-3.773v-7.546l-2.658,1.328a1.732,1.732,0,0,1-2.214-2.509l2.985-4.478V134.639l-2.346-5.476L416,121.433V112h4.148a7.547,7.547,0,0,1,7.09,4.965l2.866,7.883,2.419,6.655A7.526,7.526,0,0,1,432.979,134.082Z" transform="translate(-320.979 -90.994)"/><path class="d" d="M423.991,124.847,413.2,129.163l-3.313-7.73H408V112h6.035a7.547,7.547,0,0,1,7.09,4.965Z" transform="translate(-314.866 -91.095)"/><path class="f" d="M93.3,103.546a1.887,1.887,0,0,1-2.667,0l-4.879-4.877-4.879,4.877a1.886,1.886,0,0,1-2.667-2.667L83.087,96h5.337l4.879,4.879A1.887,1.887,0,0,1,93.3,103.546Z" transform="translate(-65.004 -78.907)"/><path class="c" d="M88,39.995v9.434a5.66,5.66,0,0,0,5.66,5.66h0a5.66,5.66,0,0,0,5.66-5.66V39.995Z" transform="translate(-72.905 -36.223)"/><path class="k" d="M87.017,29.66l.553.553a4.554,4.554,0,0,0,3.221,1.334,5.66,5.66,0,0,0,5.66-5.66V24H87.032a5.256,5.256,0,0,0-4.7,7.607l.913,1.826Z" transform="translate(-68.151 -24)"/><path class="c" d="M100.808,128.711l-12.9,15.475a11.427,11.427,0,0,1-16.017,1.528l-8.244-6.744,7.525-9.407,9.537,7.417,2.573-2.894L95.8,120l3.768,2.827.6.45a3.774,3.774,0,0,1,.634,5.433Z" transform="translate(-54.3 -97.172)"/><path class="l" d="M164.37,133.14l3.253,2.168L164.1,140a3.773,3.773,0,0,1-5.111.876,3.058,3.058,0,0,1-.75-4.379l1.984-2.646a3.058,3.058,0,0,1,4.143-.71Z" transform="translate(-125.301 -106.837)"/><path class="m" d="M206.043,141.762l-.1.145-5.289-4.326a5.618,5.618,0,0,0-.167-3.852,1.917,1.917,0,0,0-3.3-.409,1.824,1.824,0,0,0-.193,1.821,1.9,1.9,0,0,1,.14.527,1.871,1.871,0,0,1-.424,1.427l-5.229,6.275a1.887,1.887,0,1,0,2.9,2.416l4.195-5.033,6.592,5.393a1.886,1.886,0,0,0,2.764-.414l1.25-1.876a1.887,1.887,0,0,0-3.139-2.093Z" transform="translate(-150.535 -106.771)"/><path class="n" d="M349.3,119.546a1.887,1.887,0,0,1-2.667,0l-4.879-4.877-4.879,4.877a1.886,1.886,0,1,1-2.667-2.667L339.089,112h5.334l4.879,4.879A1.887,1.887,0,0,1,349.3,119.546Z" transform="translate(-258.614 -91.109)"/><path class="c" d="M344,55.995v9.434a5.66,5.66,0,0,0,11.319,0V55.995Z" transform="translate(-266.553 -48.45)"/><path class="k" d="M349.206,49.427l-3.773-3.773a6.826,6.826,0,0,1-6.105,3.773h-1.441l-1.4-2.806a4.579,4.579,0,0,1,4.1-6.626h5.935a4.579,4.579,0,0,1,4.1,6.626Z" transform="translate(-260.412 -36.223)"/><path class="n" d="M411.3,153.981a1.887,1.887,0,1,1,3.468-1.486l1.827,4.262a1.887,1.887,0,0,1-3.468,1.486" transform="translate(-317.272 -121.118)"/></g></svg>