<svg xmlns="http://www.w3.org/2000/svg" width="155.455" height="32" viewBox="0 0 155.455 32"><defs><style>.a{fill:#222;}.b{fill:#d7d7d7;}.c{fill:#363636;}.d{fill:#fff;}</style></defs><g transform="translate(-0.001)"><path class="a" d="M117.426,60H57.781A3.753,3.753,0,0,1,54,56.273V31.727A3.753,3.753,0,0,1,57.781,28h59.645Z" transform="translate(-53.999 -28)"/><path class="b" d="M232.134,60H143.885V28h88.249a3.752,3.752,0,0,1,3.78,3.727V56.285A3.75,3.75,0,0,1,232.134,60Z" transform="translate(-80.458 -28)"/><path class="c" d="M162.551,49.295a12.463,12.463,0,0,1-.485,2.6,6.5,6.5,0,0,1-1.082,2.147,5.007,5.007,0,0,1-1.853,1.468,6.342,6.342,0,0,1-2.761.546,7.366,7.366,0,0,1-3.171-.619,5.356,5.356,0,0,1-2.114-1.8,8.006,8.006,0,0,1-1.169-2.911,18.78,18.78,0,0,1-.373-3.942,15.926,15.926,0,0,1,.4-3.687,7.877,7.877,0,0,1,1.231-2.8,5.68,5.68,0,0,1,2.114-1.771,7.005,7.005,0,0,1,3.06-.619,6.76,6.76,0,0,1,2.923.546,5.036,5.036,0,0,1,1.816,1.419,5.627,5.627,0,0,1,.97,1.989,15.623,15.623,0,0,1,.423,2.232h-3.209c-.075-.388-.162-.764-.261-1.116a2.654,2.654,0,0,0-.423-.922,2.052,2.052,0,0,0-.771-.619,3.02,3.02,0,0,0-1.306-.23,3.984,3.984,0,0,0-1.666.315,2.427,2.427,0,0,0-1.094,1.019,5.471,5.471,0,0,0-.6,1.856,18.2,18.2,0,0,0-.174,2.838A12.8,12.8,0,0,0,153.223,50a4.3,4.3,0,0,0,.7,1.65,2.218,2.218,0,0,0,1.094.813,4.494,4.494,0,0,0,1.443.218,2.946,2.946,0,0,0,1.293-.243,1.8,1.8,0,0,0,.759-.691,3.659,3.659,0,0,0,.435-1.067c.112-.412.211-.873.323-1.395h3.283Zm13.618,6.417h-3.383V48.179h-5.1v7.533H164.3V38.257h3.383V44.77h5.1V38.257h3.383Zm14.264,0h-3.544l-.933-3.6h-4.5l-.92,3.6h-3.42l4.9-17.454h3.358Zm-5.323-6.853-1.393-5.616-1.43,5.616Zm15.259,6.853L195.2,45.086V55.711h-3.383V38.257h3.321l5.211,10.553V38.257H203.7V55.711Zm18.593,0h-2.748V53.94a3.149,3.149,0,0,1-.747,1.031,3.779,3.779,0,0,1-.97.631,4.327,4.327,0,0,1-1.094.315A6.906,6.906,0,0,1,212.3,56a6.261,6.261,0,0,1-3.122-.7,5.551,5.551,0,0,1-2.015-1.941,8.517,8.517,0,0,1-1.082-2.935,19.713,19.713,0,0,1-.324-3.639q0-8.879,6.84-8.879a6.928,6.928,0,0,1,2.86.534,5.23,5.23,0,0,1,1.9,1.419,5.544,5.544,0,0,1,1.044,2.026,8.8,8.8,0,0,1,.324,2.353h-3.458a8.268,8.268,0,0,0-.075-1.092,2.55,2.55,0,0,0-.336-.995,1.922,1.922,0,0,0-.808-.716,3.273,3.273,0,0,0-1.468-.279,3.617,3.617,0,0,0-1.579.3,2.481,2.481,0,0,0-1.057.958,4.8,4.8,0,0,0-.6,1.7,14.4,14.4,0,0,0-.187,2.5,19.425,19.425,0,0,0,.162,2.753,5.089,5.089,0,0,0,.572,1.844,2.5,2.5,0,0,0,1.082,1.031,3.916,3.916,0,0,0,1.716.327,3.507,3.507,0,0,0,1.132-.182,2.432,2.432,0,0,0,.932-.57,2.691,2.691,0,0,0,.622-.995,3.957,3.957,0,0,0,.2-1.456H212.4V46.153h6.591v9.558Zm13.468,0H221.089V38.257h11.143v3.384h-7.761v3.214h7.139v3.384h-7.139V52.3h7.96v3.408Z" transform="translate(-82.123 -30.916)"/><path class="d" d="M76.51,50.306A6.84,6.84,0,0,1,76,53.18a3.942,3.942,0,0,1-1.318,1.625,4.476,4.476,0,0,1-1.791.74,10.7,10.7,0,0,1-1.94.182H64.645V38.273h6.94a4.791,4.791,0,0,1,2.189.437,3.642,3.642,0,0,1,1.356,1.14,4.223,4.223,0,0,1,.684,1.565,7.161,7.161,0,0,1,.162,1.686q-.037,2.383-1.231,3.239a2.831,2.831,0,0,1,1.281,1.31,5.994,5.994,0,0,1,.485,2.656Zm-3.88-7.144a2.826,2.826,0,0,0-.2-1.225.8.8,0,0,0-.8-.4H68.04v3.481h3.271a1.079,1.079,0,0,0,1.032-.5,2.842,2.842,0,0,0,.286-1.358ZM73.1,50.33a4.074,4.074,0,0,0-.124-1.152,1.877,1.877,0,0,0-.311-.667.863.863,0,0,0-.423-.315,1.441,1.441,0,0,0-.448-.073H68.04v4.185h3.47a1.47,1.47,0,0,0,1.244-.461A2.543,2.543,0,0,0,73.1,50.33Zm17.013,5.4H78.748V38.273H89.916v3.384H82.131v3.214h7.163v3.384H82.131v4.063h7.984Zm13.158-5.155q0,5.513-6.081,5.519a5.95,5.95,0,0,1-4.5-1.625c-1.032-1.092-1.542-2.765-1.542-5.034h3.3a8.964,8.964,0,0,0,.174,1.383,2.7,2.7,0,0,0,.473,1.08,2.236,2.236,0,0,0,.871.7,3.247,3.247,0,0,0,1.38.255,3.192,3.192,0,0,0,1.99-.5,2.4,2.4,0,0,0,.622-1.929,1.855,1.855,0,0,0-.248-1.08,1.675,1.675,0,0,0-.771-.522,7.6,7.6,0,0,0-1.442-.34,17.64,17.64,0,0,1-1.928-.412,12.1,12.1,0,0,1-1.555-.546,3.588,3.588,0,0,1-2.089-2.317,7.617,7.617,0,0,1-.3-2.353A5.515,5.515,0,0,1,91.894,41a4.176,4.176,0,0,1,.721-1.334,3.927,3.927,0,0,1,1.032-.885,5.5,5.5,0,0,1,1.206-.522,6.316,6.316,0,0,1,1.231-.243c.411-.036.8-.061,1.132-.061a6.555,6.555,0,0,1,2.848.534,4.466,4.466,0,0,1,1.7,1.383,4.821,4.821,0,0,1,.821,1.916A11.29,11.29,0,0,1,102.8,43.9H99.567c-.05-.291-.087-.619-.124-.97a2.535,2.535,0,0,0-.236-.922,1.533,1.533,0,0,0-.585-.619,2.557,2.557,0,0,0-1.343-.279,4.626,4.626,0,0,0-1.181.121,1.732,1.732,0,0,0-.722.364,1.24,1.24,0,0,0-.361.631,3.964,3.964,0,0,0-.1.922,1.233,1.233,0,0,0,.286.91,2.476,2.476,0,0,0,1.069.473c.548.146,1.094.267,1.654.364s1.094.218,1.617.352a6.907,6.907,0,0,1,1.455.546,3.774,3.774,0,0,1,1.181.934,4.27,4.27,0,0,1,.8,1.528,7.3,7.3,0,0,1,.3,2.317Zm12.349-8.927h-4.091V55.727h-3.4V41.645h-4.091V38.273h11.565v3.372Z" transform="translate(-57.132 -30.931)"/></g></svg>