<svg width="24" height="24" viewBox="0 0 24 24" fill="none" xmlns="http://www.w3.org/2000/svg">
<path d="M16.5509 2.07391C15.8235 2.14476 15.1326 2.42615 14.5627 2.88364C13.9928 3.34112 13.5687 3.95486 13.3422 4.64969C13.1429 5.23041 13.1429 5.26541 13.1165 11.1713C13.0994 15.2128 13.1251 17.2943 13.1879 17.6757C13.2842 18.1128 13.4297 18.5377 13.6215 18.9422C14.3065 20.3643 15.4601 20.9972 17.3509 20.9972C17.7984 21.004 18.2456 20.9691 18.6866 20.8929C19.2018 20.7754 19.6856 20.548 20.1047 20.2262C20.5239 19.9044 20.8686 19.4959 21.1153 19.0286C21.5403 18.135 21.6153 17.6671 21.6617 15.7428L21.7053 13.9478H19.0052L18.9795 15.6992C18.9538 17.33 18.9359 17.485 18.7652 17.7635C18.5765 18.0412 18.3031 18.2503 17.9857 18.3597C17.6684 18.4691 17.3242 18.473 17.0045 18.3707C16.7423 18.3019 16.5055 18.159 16.3224 17.9591C16.1394 17.7592 16.0178 17.5108 15.9723 17.2435C15.8509 16.6721 15.8509 6.6283 15.9723 5.92614C15.9994 5.71931 16.0698 5.5205 16.1788 5.34267C16.2879 5.16483 16.4331 5.01195 16.6052 4.89397C16.7959 4.74683 16.9695 4.71182 17.4623 4.71182C18.1995 4.71182 18.4859 4.86826 18.7481 5.3797C18.9624 5.80471 18.9738 5.90899 18.9909 7.33974L18.9995 8.49334L20.3524 8.46763L21.7053 8.44191L21.6967 7.2276C21.6881 5.19826 21.3496 4.01324 20.526 3.16036C19.9851 2.69636 19.348 2.35822 18.6605 2.17034C17.9731 1.98246 17.2526 1.94952 16.5509 2.07391Z" fill="#A1A5C6"/>
<path d="M2.01714 11.5357L2.04286 21.0145H4.86149C5.96157 21.0631 7.06377 21.0225 8.15728 20.8931C8.91063 20.7276 9.60016 20.3481 10.143 19.8002C11.0623 18.8373 11.3224 17.7623 11.2531 15.2908C11.2938 14.5418 11.2083 13.7914 11.0002 13.0708C10.8053 12.3102 10.3275 11.6526 9.66446 11.2321L9.11802 10.885L9.48231 10.6507C9.84119 10.4019 10.146 10.0832 10.3785 9.71357C10.611 9.34395 10.7664 8.93114 10.8352 8.49994C10.9564 7.3364 10.9564 6.1634 10.8352 4.99986C10.7451 4.4907 10.5451 4.00733 10.249 3.58344C9.9529 3.15955 9.56792 2.80533 9.12087 2.54551C8.27086 2.1205 7.8287 2.06836 4.79363 2.06836H2L2.01714 11.5357ZM7.25512 4.95343C7.46668 5.08586 7.63307 5.2794 7.73227 5.50844C7.91442 5.88131 7.93156 6.05488 7.94013 7.09562C7.94013 8.47423 7.87942 8.82138 7.57584 9.1771C7.21155 9.61068 6.8994 9.72353 5.92795 9.7671L5.03435 9.81068V4.73914L6.01438 4.77414C6.43571 4.75212 6.85726 4.81303 7.25512 4.95343ZM7.44584 12.7236C7.70458 12.842 7.90683 13.0568 8.00942 13.3222C8.183 13.6951 8.20014 13.8686 8.20014 15.5508C8.20014 17.2937 8.19157 17.3894 8.00085 17.6844C7.70584 18.1616 7.31583 18.283 6.07223 18.283H5.03507V12.4465L6.05866 12.49C6.53317 12.4574 7.00868 12.5372 7.44655 12.7229L7.44584 12.7236Z" fill="#A1A5C6"/>
</svg>
