<svg xmlns="http://www.w3.org/2000/svg" viewBox="0 0 2000 1250" width="2000" height="1250" preserveAspectRatio="xMidYMid meet" style="width: 100%; height: 100%; transform: translate3d(0px, 0px, 0px); content-visibility: visible;"><defs><clipPath id="__lottie_element_2"><rect width="2000" height="1250" x="0" y="0"/></clipPath></defs><g clip-path="url(#__lottie_element_2)"><g transform="matrix(0.28147411346435547,0.5524240732192993,-0.5524240732192993,0.28147411346435547,1019.6604614257812,593.3911743164062)" opacity="1" style="display: block;"><g opacity="1" transform="matrix(1,0,0,1,0,0)"><path stroke-linecap="round" stroke-linejoin="round" fill-opacity="0" stroke="rgb(255,255,255)" stroke-opacity="1" stroke-width="74" d=" M-210,54 C-210,54 197,54 197,54"/></g></g><g transform="matrix(-0.1915905475616455,0.5896550416946411,-0.5896550416946411,-0.1915905475616455,1114.86474609375,611.6021118164062)" opacity="1" style="display: block;"><g opacity="1" transform="matrix(1,0,0,1,0,0)"><path stroke-linecap="round" stroke-linejoin="round" fill-opacity="0" stroke="rgb(255,255,255)" stroke-opacity="1" stroke-width="74" d=" M8,54 C8,54 197,54 197,54"/></g></g><g style="display: block;" transform="matrix(0.5896550416946411,0.1915905475616455,-0.1915905475616455,0.5896550416946411,939.4638061523438,647.8336181640625)" opacity="1"><g opacity="1" transform="matrix(1,0,0,1,0,0)"><path stroke-linecap="round" stroke-linejoin="round" fill-opacity="0" stroke="rgb(255,255,255)" stroke-opacity="1" stroke-width="74" d=" M8,54 C8,54 197,54 197,54"/></g></g><g transform="matrix(4.886209964752197,0,0,4.886209964752197,385.10467529296875,815.8575439453125)" opacity="1" style="display: block;"><g opacity="1" transform="matrix(1,0,0,1,0,0)"><g opacity="1" transform="matrix(1,0,0,1,0,0)"><path fill="rgb(214,214,214)" fill-opacity="1" d=" M92.9000015258789,26.56999969482422 C92.1500015258789,31.389999389648438 88.4800033569336,31.389999389648438 84.93000030517578,31.389999389648438 C84.93000030517578,31.389999389648438 82.9000015258789,31.389999389648438 82.9000015258789,31.389999389648438 C82.9000015258789,31.389999389648438 84.33000183105469,22.389999389648438 84.33000183105469,22.389999389648438 C84.33000183105469,22.389999389648438 84.31999969482422,22.389999389648438 84.31999969482422,22.389999389648438 C84.4000015258789,21.850000381469727 84.87999725341797,21.440000534057617 85.43000030517578,21.440000534057617 C85.43000030517578,21.440000534057617 86.36000061035156,21.440000534057617 86.36000061035156,21.440000534057617 C88.77999877929688,21.440000534057617 91.06999969482422,21.440000534057617 92.25,22.81999969482422 C92.94999694824219,23.639999389648438 93.16000366210938,24.8700008392334 92.88999938964844,26.56999969482422 C92.88999938964844,26.56999969482422 92.9000015258789,26.56999969482422 92.9000015258789,26.56999969482422z M91.3499984741211,13.989999771118164 C91.3499984741211,13.989999771118164 77.91999816894531,13.989999771118164 77.91999816894531,13.989999771118164 C77,13.989999771118164 76.20999908447266,14.649999618530273 76.06999969482422,15.5600004196167 C76.06999969482422,15.5600004196167 70.63999938964844,50 70.63999938964844,50 C70.58999633789062,50.290000915527344 70.66999816894531,50.599998474121094 70.83999633789062,50.84000015258789 C71.0199966430664,51.08000183105469 71.27999877929688,51.2400016784668 71.56999969482422,51.279998779296875 C71.62999725341797,51.290000915527344 71.69000244140625,51.290000915527344 71.75,51.279998779296875 C71.75,51.279998779296875 78.16999816894531,51.279998779296875 78.16999816894531,51.279998779296875 C78.16999816894531,51.279998779296875 78.16000366210938,51.279998779296875 78.16000366210938,51.279998779296875 C79.08000183105469,51.279998779296875 79.87000274658203,50.61000061035156 80.01000213623047,49.70000076293945 C80.01000213623047,49.70000076293945 81.47000122070312,40.41999816894531 81.47000122070312,40.41999816894531 C81.61000061035156,39.5099983215332 82.4000015258789,38.84000015258789 83.31999969482422,38.84000015258789 C83.31999969482422,38.84000015258789 87.55999755859375,38.84000015258789 87.55999755859375,38.84000015258789 C96.41000366210938,38.84000015258789 101.5199966430664,34.560001373291016 102.86000061035156,26.09000015258789 C103.45999908447266,22.3799991607666 102.86000061035156,19.459999084472656 101.13999938964844,17.420000076293945 C99.2300033569336,15.170000076293945 95.83999633789062,13.989999771118164 91.3499984741211,13.989999771118164 C91.3499984741211,13.989999771118164 91.3499984741211,13.989999771118164 91.3499984741211,13.989999771118164z"/></g><g opacity="1" transform="matrix(1,0,0,1,0,0)"><path fill="rgb(214,214,214)" fill-opacity="1" d=" M122.75,38.91999816894531 C122.75,38.91999816894531 122.75,38.93000030517578 122.75,38.93000030517578 C122.2300033569336,42.52000045776367 119.12000274658203,45.150001525878906 115.5,45.06999969482422 C112.76000213623047,45.36000061035156 110.30999755859375,43.36000061035156 110.0199966430664,40.630001068115234 C109.95999908447266,40.02000045776367 110.0199966430664,39.400001525878906 110.18000030517578,38.810001373291016 C110.69000244140625,35.22999954223633 113.76000213623047,32.58000183105469 117.37999725341797,32.619998931884766 C119,32.529998779296875 120.58000183105469,33.18000030517578 121.66999816894531,34.380001068115234 C122.68000030517578,35.66999816894531 123.06999969482422,37.33000183105469 122.75,38.93000030517578 C122.75,38.93000030517578 122.75,38.91999816894531 122.75,38.91999816894531z M131.75,26.40999984741211 C131.75,26.40999984741211 125.31999969482422,26.40999984741211 125.31999969482422,26.40999984741211 C124.7699966430664,26.40999984741211 124.30000305175781,26.809999465942383 124.20999908447266,27.350000381469727 C124.20999908447266,27.350000381469727 123.91999816894531,29.149999618530273 123.91999816894531,29.149999618530273 C123.91999816894531,29.149999618530273 123.47000122070312,28.5 123.47000122070312,28.5 C122.08000183105469,26.479999542236328 118.97000122070312,25.799999237060547 115.87999725341797,25.799999237060547 C108.7699966430664,25.799999237060547 102.70999908447266,31.190000534057617 101.5199966430664,38.7400016784668 C100.83999633789062,42.220001220703125 101.70999908447266,45.83000183105469 103.91000366210938,48.61000061035156 C105.87000274658203,50.91999816894531 108.69000244140625,51.88999938964844 112.0199966430664,51.88999938964844 C112.0199966430664,51.88999938964844 112.01000213623047,51.88999938964844 112.01000213623047,51.88999938964844 C115.3499984741211,51.93000030517578 118.56999969482422,50.59000015258789 120.91000366210938,48.209999084472656 C120.91000366210938,48.209999084472656 120.62999725341797,50 120.62999725341797,50 C120.54000091552734,50.61000061035156 120.94999694824219,51.18000030517578 121.55999755859375,51.279998779296875 C121.55999755859375,51.279998779296875 127.5,51.279998779296875 127.5,51.279998779296875 C128.4199981689453,51.279998779296875 129.1999969482422,50.61000061035156 129.33999633789062,49.70000076293945 C129.33999633789062,49.70000076293945 132.82000732421875,27.690000534057617 132.82000732421875,27.690000534057617 C132.9199981689453,27.079999923706055 132.5,26.510000228881836 131.88999938964844,26.40999984741211 C131.88999938964844,26.40999984741211 131.75,26.40999984741211 131.75,26.40999984741211z"/></g><g opacity="1" transform="matrix(1,0,0,1,0,0)"><path fill="rgb(214,214,214)" fill-opacity="1" d=" M166.3000030517578,26.40999984741211 C166.3000030517578,26.40999984741211 159.8300018310547,26.40999984741211 159.8300018310547,26.40999984741211 C159.2100067138672,26.40999984741211 158.63999938964844,26.709999084472656 158.2899932861328,27.229999542236328 C158.2899932861328,27.229999542236328 149.3699951171875,40.36000061035156 149.3699951171875,40.36000061035156 C149.3699951171875,40.36000061035156 145.6199951171875,27.75 145.6199951171875,27.75 C145.6199951171875,27.75 145.6199951171875,27.739999771118164 145.6199951171875,27.739999771118164 C145.3800048828125,26.950000762939453 144.66000366210938,26.420000076293945 143.83999633789062,26.40999984741211 C143.83999633789062,26.40999984741211 137.47999572753906,26.40999984741211 137.47999572753906,26.40999984741211 C136.86000061035156,26.40999984741211 136.36000061035156,26.899999618530273 136.36000061035156,27.520000457763672 C136.36000061035156,27.639999389648438 136.3800048828125,27.770000457763672 136.4199981689453,27.889999389648438 C136.4199981689453,27.889999389648438 143.5,48.75 143.5,48.75 C143.5,48.75 136.80999755859375,58.20000076293945 136.80999755859375,58.20000076293945 C136.80999755859375,58.20000076293945 136.82000732421875,58.20000076293945 136.82000732421875,58.20000076293945 C136.55999755859375,58.540000915527344 136.52000427246094,59.0099983215332 136.7100067138672,59.38999938964844 C136.91000366210938,59.77000045776367 137.3000030517578,60 137.72999572753906,60 C137.72999572753906,60 144.17999267578125,60 144.17999267578125,60 C144.77999877929688,59.9900016784668 145.33999633789062,59.689998626708984 145.67999267578125,59.20000076293945 C145.67999267578125,59.20000076293945 167.25,28.170000076293945 167.25,28.170000076293945 C167.60000610351562,27.65999984741211 167.47000122070312,26.969999313354492 166.97000122070312,26.610000610351562 C166.77000427246094,26.469999313354492 166.5399932861328,26.40999984741211 166.3000030517578,26.40999984741211 C166.3000030517578,26.40999984741211 166.3000030517578,26.40999984741211 166.3000030517578,26.40999984741211z"/></g><g opacity="1" transform="matrix(1,0,0,1,0,0)"><path fill="rgb(255,255,255)" fill-opacity="1" d=" M189.50999450683594,26.56999969482422 C188.75999450683594,31.389999389648438 185.08999633789062,31.389999389648438 181.52999877929688,31.389999389648438 C181.52999877929688,31.389999389648438 179.5,31.389999389648438 179.5,31.389999389648438 C179.5,31.389999389648438 180.92999267578125,22.389999389648438 180.92999267578125,22.389999389648438 C180.92999267578125,22.389999389648438 180.92999267578125,22.389999389648438 180.92999267578125,22.389999389648438 C181.02000427246094,21.84000015258789 181.49000549316406,21.440000534057617 182.0399932861328,21.440000534057617 C182.0399932861328,21.440000534057617 183,21.440000534057617 183,21.440000534057617 C185.4199981689453,21.440000534057617 187.7100067138672,21.440000534057617 188.88999938964844,22.81999969482422 C189.58999633789062,23.639999389648438 189.80999755859375,24.8700008392334 189.5399932861328,26.56999969482422 C189.5399932861328,26.56999969482422 189.50999450683594,26.56999969482422 189.50999450683594,26.56999969482422z M187.9600067138672,13.989999771118164 C187.9600067138672,13.989999771118164 174.52000427246094,13.989999771118164 174.52000427246094,13.989999771118164 C173.61000061035156,13.989999771118164 172.8300018310547,14.649999618530273 172.69000244140625,15.5600004196167 C172.69000244140625,15.5600004196167 167.25,50 167.25,50 C167.1999969482422,50.290000915527344 167.27999877929688,50.59000015258789 167.4499969482422,50.83000183105469 C167.6300048828125,51.06999969482422 167.8800048828125,51.22999954223633 168.1699981689453,51.279998779296875 C168.22999572753906,51.290000915527344 168.2899932861328,51.290000915527344 168.35000610351562,51.279998779296875 C168.35000610351562,51.279998779296875 175.25,51.279998779296875 175.25,51.279998779296875 C175.88999938964844,51.279998779296875 176.44000244140625,50.810001373291016 176.5399932861328,50.18000030517578 C176.5399932861328,50.18000030517578 178.07000732421875,40.43000030517578 178.07000732421875,40.43000030517578 C178.2100067138672,39.52000045776367 179,38.849998474121094 179.9199981689453,38.849998474121094 C179.9199981689453,38.849998474121094 184.16000366210938,38.849998474121094 184.16000366210938,38.849998474121094 C193.00999450683594,38.849998474121094 198.1199951171875,34.58000183105469 199.4600067138672,26.100000381469727 C200.05999755859375,22.399999618530273 199.4600067138672,19.479999542236328 197.74000549316406,17.43000030517578 C195.83999633789062,15.170000076293945 192.4600067138672,13.989999771118164 187.9600067138672,13.989999771118164 C187.9600067138672,13.989999771118164 187.9600067138672,13.989999771118164 187.9600067138672,13.989999771118164z"/></g><g opacity="1" transform="matrix(1,0,0,1,0,0)"><path fill="rgb(255,255,255)" fill-opacity="1" d=" M219.52000427246094,38.93000030517578 C219,42.52000045776367 215.8800048828125,45.15999984741211 212.25,45.06999969482422 C210.6199951171875,45.25 209,44.599998474121094 207.92999267578125,43.349998474121094 C206.8699951171875,42.099998474121094 206.5,40.400001525878906 206.92999267578125,38.810001373291016 C207.42999267578125,35.22999954223633 210.50999450683594,32.58000183105469 214.1300048828125,32.619998931884766 C215.75,32.529998779296875 217.32000732421875,33.18000030517578 218.41000366210938,34.380001068115234 C219.42999267578125,35.65999984741211 219.85000610351562,37.31999969482422 219.52000427246094,38.93000030517578 C219.52000427246094,38.93000030517578 219.52000427246094,38.93000030517578 219.52000427246094,38.93000030517578z M228.47999572753906,26.40999984741211 C228.47999572753906,26.40999984741211 222.0500030517578,26.40999984741211 222.0500030517578,26.40999984741211 C221.5,26.40999984741211 221.0399932861328,26.809999465942383 220.9499969482422,27.350000381469727 C220.9499969482422,27.350000381469727 220.66000366210938,29.149999618530273 220.66000366210938,29.149999618530273 C220.66000366210938,29.149999618530273 220.2100067138672,28.5 220.2100067138672,28.5 C218.82000732421875,26.479999542236328 215.7100067138672,25.799999237060547 212.6199951171875,25.799999237060547 C205.50999450683594,25.799999237060547 199.4499969482422,31.190000534057617 198.25999450683594,38.7400016784668 C197.5800018310547,42.220001220703125 198.4499969482422,45.83000183105469 200.66000366210938,48.61000061035156 C202.6199951171875,50.91999816894531 205.42999267578125,51.88999938964844 208.77000427246094,51.88999938964844 C208.77000427246094,51.88999938964844 208.75999450683594,51.88999938964844 208.75999450683594,51.88999938964844 C212.10000610351562,51.91999816894531 215.32000732421875,50.59000015258789 217.66000366210938,48.209999084472656 C217.66000366210938,48.209999084472656 217.3699951171875,50 217.3699951171875,50 C217.27999877929688,50.61000061035156 217.69000244140625,51.18000030517578 218.3000030517578,51.279998779296875 C218.3000030517578,51.279998779296875 224.25,51.279998779296875 224.25,51.279998779296875 C225.1699981689453,51.279998779296875 225.9499969482422,50.61000061035156 226.08999633789062,49.70000076293945 C226.08999633789062,49.70000076293945 229.57000732421875,27.690000534057617 229.57000732421875,27.690000534057617 C229.6199951171875,27.389999389648438 229.5399932861328,27.09000015258789 229.36000061035156,26.850000381469727 C229.17999267578125,26.610000610351562 228.9199981689453,26.459999084472656 228.6199951171875,26.40999984741211 C228.6199951171875,26.40999984741211 228.47999572753906,26.40999984741211 228.47999572753906,26.40999984741211z"/></g><g opacity="1" transform="matrix(1,0,0,1,0,0)"><g opacity="1" transform="matrix(1,0,0,1,0,0)"><path fill="rgb(255,255,255)" fill-opacity="1" d=" M236.05999755859375,14.930000305175781 C236.05999755859375,14.930000305175781 230.5500030517578,50 230.5500030517578,50 C230.5,50.290000915527344 230.57000732421875,50.599998474121094 230.75,50.84000015258789 C230.9199981689453,51.08000183105469 231.19000244140625,51.2400016784668 231.47999572753906,51.279998779296875 C231.5399932861328,51.290000915527344 231.60000610351562,51.290000915527344 231.66000366210938,51.279998779296875 C231.66000366210938,51.279998779296875 237.1999969482422,51.279998779296875 237.1999969482422,51.279998779296875 C238.1199951171875,51.279998779296875 238.89999389648438,50.61000061035156 239.0399932861328,49.70000076293945 C239.0399932861328,49.70000076293945 244.5,15.289999961853027 244.5,15.289999961853027 C244.5500030517578,15 244.47999572753906,14.6899995803833 244.3000030517578,14.449999809265137 C244.1300048828125,14.210000038146973 243.86000061035156,14.039999961853027 243.57000732421875,14 C243.57000732421875,14 237.19000244140625,14 237.19000244140625,14 C236.63999938964844,13.989999771118164 236.16000366210938,14.380000114440918 236.05999755859375,14.930000305175781 C236.05999755859375,14.930000305175781 236.05999755859375,14.930000305175781 236.05999755859375,14.930000305175781z"/></g></g><g opacity="1" transform="matrix(1,0,0,1,0,0)"><path fill="rgb(38,58,127)" fill-opacity="1" d=" M14.25,57.9900016784668 C14.25,57.9900016784668 15.279999732971191,51.400001525878906 15.279999732971191,51.400001525878906 C15.279999732971191,51.400001525878906 13.029999732971191,51.349998474121094 13.029999732971191,51.349998474121094 C13.029999732971191,51.349998474121094 2.0899999141693115,51.349998474121094 2.0899999141693115,51.349998474121094 C2.0899999141693115,51.349998474121094 9.680000305175781,2.7799999713897705 9.680000305175781,2.7799999713897705 C9.699999809265137,2.630000114440918 9.770000457763672,2.5 9.890000343322754,2.4000000953674316 C10,2.299999952316284 10.149999618530273,2.25 10.289999961853027,2.25 C10.289999961853027,2.25 28.719999313354492,2.25 28.719999313354492,2.25 C34.83000183105469,2.25 39.04999923706055,3.5299999713897705 41.25,6.070000171661377 C42.22999954223633,7.150000095367432 42.91999816894531,8.449999809265137 43.2599983215332,9.869999885559082 C43.599998474121094,11.600000381469727 43.599998474121094,13.390000343322754 43.2599983215332,15.119999885559082 C43.2599983215332,15.119999885559082 43.2599983215332,16.610000610351562 43.2599983215332,16.610000610351562 C43.2599983215332,16.610000610351562 44.29999923706055,17.200000762939453 44.29999923706055,17.200000762939453 C45.09000015258789,17.610000610351562 45.79999923706055,18.149999618530273 46.38999938964844,18.809999465942383 C47.29999923706055,19.90999984741211 47.88999938964844,21.239999771118164 48.08000183105469,22.649999618530273 C48.31999969482422,24.510000228881836 48.2400016784668,26.389999389648438 47.84000015258789,28.219999313354492 C47.45000076293945,30.43000030517578 46.689998626708984,32.56999969482422 45.59000015258789,34.529998779296875 C44.68000030517578,36.08000183105469 43.459999084472656,37.43000030517578 42,38.47999954223633 C40.540000915527344,39.5 38.900001525878906,40.2400016784668 37.16999816894531,40.66999816894531 C35.209999084472656,41.15999984741211 33.189998626708984,41.400001525878906 31.170000076293945,41.380001068115234 C31.170000076293945,41.380001068115234 29.690000534057617,41.380001068115234 29.690000534057617,41.380001068115234 C27.559999465942383,41.38999938964844 25.75,42.939998626708984 25.43000030517578,45.04999923706055 C25.43000030517578,45.04999923706055 25.329999923706055,45.63999938964844 25.329999923706055,45.63999938964844 C25.329999923706055,45.63999938964844 23.510000228881836,57.25 23.510000228881836,57.25 C23.510000228881836,57.25 23.43000030517578,57.66999816894531 23.43000030517578,57.66999816894531 C23.420000076293945,57.7599983215332 23.3799991607666,57.849998474121094 23.309999465942383,57.90999984741211 C23.260000228881836,57.95000076293945 23.190000534057617,57.9900016784668 23.1200008392334,57.9900016784668 C23.1200008392334,57.9900016784668 14.25,57.9900016784668 14.25,57.9900016784668z"/></g><g opacity="1" transform="matrix(1,0,0,1,0,0)"><path fill="rgb(255,255,255)" fill-opacity="1" d=" M45.22999954223633,15.430000305175781 C45.16999816894531,15.779999732971191 45.11000061035156,16.18000030517578 45.040000915527344,16.520000457763672 C42.59000015258789,29.09000015258789 34.220001220703125,33.439998626708984 23.520000457763672,33.439998626708984 C23.520000457763672,33.439998626708984 18.059999465942383,33.439998626708984 18.059999465942383,33.439998626708984 C16.75,33.439998626708984 15.640000343322754,34.400001525878906 15.4399995803833,35.689998626708984 C15.4399995803833,35.689998626708984 12.649999618530273,53.369998931884766 12.649999618530273,53.369998931884766 C12.649999618530273,53.369998931884766 11.859999656677246,58.38999938964844 11.859999656677246,58.38999938964844 C11.800000190734863,58.7599983215332 11.890000343322754,59.13999938964844 12.109999656677246,59.439998626708984 C12.329999923706055,59.7400016784668 12.65999984741211,59.95000076293945 13.029999732971191,60 C13.100000381469727,60.0099983215332 13.180000305175781,60.0099983215332 13.25,60 C13.25,60 22.90999984741211,60 22.90999984741211,60 C24.049999237060547,60 25.020000457763672,59.16999816894531 25.200000762939453,58.040000915527344 C25.200000762939453,58.040000915527344 25.299999237060547,57.54999923706055 25.299999237060547,57.54999923706055 C25.299999237060547,57.54999923706055 27.110000610351562,46 27.110000610351562,46 C27.110000610351562,46 27.229999542236328,45.380001068115234 27.229999542236328,45.380001068115234 C27.40999984741211,44.25 28.389999389648438,43.40999984741211 29.530000686645508,43.40999984741211 C29.530000686645508,43.40999984741211 30.979999542236328,43.40999984741211 30.979999542236328,43.40999984741211 C40.34000015258789,43.40999984741211 47.66999816894531,39.61000061035156 49.810001373291016,28.610000610351562 C50.70000076293945,24 50.25,20.18000030517578 47.869998931884766,17.479999542236328 C47.119998931884766,16.639999389648438 46.22999954223633,15.949999809265137 45.22999954223633,15.430000305175781 C45.22999954223633,15.430000305175781 45.22999954223633,15.430000305175781 45.22999954223633,15.430000305175781z"/></g><g opacity="1" transform="matrix(1,0,0,1,0,0)"><path fill="rgb(214,214,214)" fill-opacity="1" d=" M43.07099914550781,13.640000343322754 C42.683998107910156,13.520999908447266 42.297000885009766,13.413000106811523 41.86899948120117,13.315999984741211 C41.441001892089844,13.218999862670898 41.05400085449219,13.144000053405762 40.61600112915039,13.067999839782715 C40.61600112915039,13.067999839782715 40.61600112915039,13.067999839782715 40.61600112915039,13.067999839782715 C38.97600173950195,12.79800033569336 37.314998626708984,12.668999671936035 35.665000915527344,12.680000305175781 C35.665000915527344,12.680000305175781 20.709999084472656,12.680000305175781 20.709999084472656,12.680000305175781 C19.538999557495117,12.680000305175781 18.530000686645508,13.595999717712402 18.347000122070312,14.826000213623047 C18.347000122070312,14.826000213623047 15.137999534606934,36.19300079345703 15.137999534606934,36.19300079345703 C15.137999534606934,36.19300079345703 15.045999526977539,36.819000244140625 15.045999526977539,36.819000244140625 C15.260000228881836,35.41699981689453 16.584999084472656,34.73699951171875 17.909000396728516,34.73699951171875 C17.909000396728516,34.73699951171875 23.511999130249023,34.73699951171875 23.511999130249023,34.73699951171875 C34.52399826049805,34.73699951171875 42.979000091552734,29.645999908447266 45.505001068115234,15.947999954223633 C45.505001068115234,15.947999954223633 45.505001068115234,15.947999954223633 45.505001068115234,15.947999954223633 C45.59700012207031,15.505999565124512 45.59700012207031,14.925000190734863 45.617000579833984,14.482999801635742 C44.96500015258789,14.159000396728516 44.32400131225586,14.006999969482422 43.63100051879883,13.802000045776367 C43.63100051879883,13.802000045776367 43.07099914550781,13.640000343322754 43.07099914550781,13.640000343322754z"/></g><g opacity="1" transform="matrix(1,0,0,1,0,0)"><path fill="rgb(214,214,214)" fill-opacity="1" d=" M18.969999313354492,15.329999923706055 C19.1299991607666,14.210000038146973 20.079999923706055,13.369999885559082 21.219999313354492,13.359999656677246 C21.219999313354492,13.359999656677246 35.7599983215332,13.359999656677246 35.7599983215332,13.359999656677246 C37.36000061035156,13.34000015258789 38.959999084472656,13.460000038146973 40.54999923706055,13.710000038146973 C40.959999084472656,13.779999732971191 41.369998931884766,13.859999656677246 41.7599983215332,13.949999809265137 C42.150001525878906,14.039999961853027 42.5099983215332,14.140000343322754 42.91999816894531,14.25 C42.91999816894531,14.25 43.459999084472656,14.420000076293945 43.459999084472656,14.420000076293945 C43.459999084472656,14.420000076293945 43.459999084472656,14.40999984741211 43.459999084472656,14.40999984741211 C44.15999984741211,14.640000343322754 44.83000183105469,14.930000305175781 45.470001220703125,15.270000457763672 C46.220001220703125,10.59000015258789 45.470001220703125,7.409999847412109 42.959999084472656,4.53000020980835 C40.20000076293945,1.3600000143051147 35.25,0 28.84000015258789,0 C28.84000015258789,0 10.34000015258789,0 10.34000015258789,0 C9.029999732971191,0 7.929999828338623,0.9599999785423279 7.730000019073486,2.25 C7.730000019073486,2.25 0,51.56999969482422 0,51.56999969482422 C-0.07000000029802322,51.9900016784668 0.03999999910593033,52.43000030517578 0.28999999165534973,52.77000045776367 C0.5400000214576721,53.11000061035156 0.9200000166893005,53.34000015258789 1.340000033378601,53.400001525878906 C1.4199999570846558,53.40999984741211 1.5099999904632568,53.40999984741211 1.590000033378601,53.400001525878906 C1.590000033378601,53.400001525878906 13.010000228881836,53.400001525878906 13.010000228881836,53.400001525878906 C13.010000228881836,53.400001525878906 15.880000114440918,35.029998779296875 15.880000114440918,35.029998779296875 C15.880000114440918,35.029998779296875 18.969999313354492,15.329999923706055 18.969999313354492,15.329999923706055z"/></g></g></g><g transform="matrix(1.7833000421524048,0,0,1.7833000421524048,82.25199890136719,133.08099365234375)" opacity="1" style="display: block;"><g opacity="1" transform="matrix(1,0,0,1,0,0)"><g opacity="1" transform="matrix(1,0,0,1,0,0)"><g opacity="1" transform="matrix(1,0,0,1,0,0)"><path fill="rgb(255,255,255)" fill-opacity="1" d=" M51.02000045776367,48.2400016784668 C55,49.29999923706055 63.65999984741211,51.619998931884766 65.16999816894531,45.56999969482422 C66.70999908447266,39.380001068115234 58.279998779296875,37.5099983215332 54.16999816894531,36.599998474121094 C53.709999084472656,36.5 53.29999923706055,36.400001525878906 52.959999084472656,36.31999969482422 C52.959999084472656,36.31999969482422 50.060001373291016,47.9900016784668 50.060001373291016,47.9900016784668 C50.33000183105469,48.060001373291016 50.65999984741211,48.13999938964844 51.02000045776367,48.2400016784668 C51.02000045776367,48.2400016784668 51.02000045776367,48.2400016784668 51.02000045776367,48.2400016784668z M46.52000045776367,67.04000091552734 C51.290000915527344,68.30000305175781 61.70000076293945,71.05000305175781 63.36000061035156,64.38999938964844 C65.05999755859375,57.59000015258789 54.959999084472656,55.31999969482422 50.029998779296875,54.209999084472656 C49.47999954223633,54.09000015258789 48.9900016784668,53.97999954223633 48.59000015258789,53.880001068115234 C48.59000015258789,53.880001068115234 45.380001068115234,66.73999786376953 45.380001068115234,66.73999786376953 C45.709999084472656,66.81999969482422 46.09000015258789,66.93000030517578 46.52000045776367,67.04000091552734 C46.52000045776367,67.04000091552734 46.52000045776367,67.04000091552734 46.52000045776367,67.04000091552734z M65,32.22999954223633 C72.37999725341797,34.77000045776367 77.7699966430664,38.59000015258789 76.70999908447266,45.66999816894531 C75.94000244140625,50.86000061035156 73.06999969482422,53.369998931884766 69.25,54.25 C74.48999786376953,56.97999954223633 77.16000366210938,61.15999984741211 74.62000274658203,68.41999816894531 C71.45999908447266,77.43000030517578 63.970001220703125,78.18000030517578 54.0099983215332,76.30000305175781 C54.0099983215332,76.30000305175781 51.59000015258789,85.98999786376953 51.59000015258789,85.98999786376953 C51.59000015258789,85.98999786376953 45.75,84.54000091552734 45.75,84.54000091552734 C45.75,84.54000091552734 48.13999938964844,74.9800033569336 48.13999938964844,74.9800033569336 C46.619998931884766,74.5999984741211 45.06999969482422,74.19999694824219 43.47999954223633,73.7699966430664 C43.47999954223633,73.7699966430664 41.09000015258789,83.37999725341797 41.09000015258789,83.37999725341797 C41.09000015258789,83.37999725341797 35.25,81.91999816894531 35.25,81.91999816894531 C35.25,81.91999816894531 37.66999816894531,72.20999908447266 37.66999816894531,72.20999908447266 C37.119998931884766,72.06999969482422 36.56999969482422,71.91999816894531 36.02000045776367,71.77999877929688 C35.189998626708984,71.56999969482422 34.36000061035156,71.33999633789062 33.5099983215332,71.12999725341797 C33.5099983215332,71.12999725341797 25.90999984741211,69.23999786376953 25.90999984741211,69.23999786376953 C25.90999984741211,69.23999786376953 28.799999237060547,62.54999923706055 28.799999237060547,62.54999923706055 C28.799999237060547,62.54999923706055 33.11000061035156,63.689998626708984 33.04999923706055,63.61000061035156 C34.70000076293945,64.0199966430664 35.439998626708984,62.939998626708984 35.72999954223633,62.220001220703125 C35.72999954223633,62.220001220703125 39.54999923706055,46.90999984741211 39.54999923706055,46.90999984741211 C39.689998626708984,46.95000076293945 39.83000183105469,46.970001220703125 39.970001220703125,47.0099983215332 C40.040000915527344,47.029998779296875 40.099998474121094,47.040000915527344 40.16999816894531,47.060001373291016 C39.939998626708984,46.970001220703125 39.720001220703125,46.900001525878906 39.560001373291016,46.86000061035156 C39.560001373291016,46.86000061035156 42.290000915527344,35.93000030517578 42.290000915527344,35.93000030517578 C42.36000061035156,34.689998626708984 41.93000030517578,33.119998931884766 39.560001373291016,32.529998779296875 C39.650001525878906,32.470001220703125 35.31999969482422,31.479999542236328 35.31999969482422,31.479999542236328 C35.31999969482422,31.479999542236328 36.880001068115234,25.239999771118164 36.880001068115234,25.239999771118164 C36.880001068115234,25.239999771118164 44.93000030517578,27.25 44.93000030517578,27.25 C44.93000030517578,27.25 44.91999816894531,27.280000686645508 44.91999816894531,27.280000686645508 C46.130001068115234,27.579999923706055 47.380001068115234,27.8700008392334 48.650001525878906,28.15999984741211 C48.650001525878906,28.15999984741211 51.04999923706055,18.559999465942383 51.04999923706055,18.559999465942383 C51.04999923706055,18.559999465942383 56.88999938964844,20.020000457763672 56.88999938964844,20.020000457763672 C56.88999938964844,20.020000457763672 54.540000915527344,29.43000030517578 54.540000915527344,29.43000030517578 C56.11000061035156,29.790000915527344 57.68000030517578,30.149999618530273 59.220001220703125,30.530000686645508 C59.220001220703125,30.530000686645508 61.54999923706055,21.18000030517578 61.54999923706055,21.18000030517578 C61.54999923706055,21.18000030517578 67.38999938964844,22.639999389648438 67.38999938964844,22.639999389648438 C67.38999938964844,22.639999389648438 65,32.22999954223633 65,32.22999954223633z M40.349998474121094,104.91000366210938 C68.87999725341797,112.0199966430664 97.7699966430664,94.66999816894531 104.87999725341797,66.13999938964844 C111.98999786376953,37.61000061035156 94.63999938964844,8.710000038146973 66.11000061035156,1.600000023841858 C37.59000015258789,-5.510000228881836 8.699999809265137,11.850000381469727 1.590000033378601,40.380001068115234 C-5.53000020980835,68.91000366210938 11.829999923706055,97.80000305175781 40.349998474121094,104.91000366210938 C40.349998474121094,104.91000366210938 40.349998474121094,104.91000366210938 40.349998474121094,104.91000366210938z"/></g></g><g opacity="1" transform="matrix(1,0,0,1,0,0)"><g opacity="1" transform="matrix(1,0,0,1,0,0)"><path fill="rgb(255,255,255)" fill-opacity="1" d=" M138.52000427246094,89.91999816894531 C141.66000366210938,89.91999816894531 144.6300048828125,89.13999938964844 147.41000366210938,87.62000274658203 C150.1999969482422,86.0999984741211 152.60000610351562,84.05000305175781 154.6199951171875,81.48999786376953 C156.63999938964844,78.91999816894531 158.25,76.02999877929688 159.41000366210938,72.80000305175781 C160.57000732421875,69.56999969482422 161.16000366210938,66.19000244140625 161.16000366210938,62.68000030517578 C161.16000366210938,58.369998931884766 160.44000244140625,55 159,52.56999969482422 C157.57000732421875,50.150001525878906 154.91000366210938,48.939998626708984 151.0500030517578,48.939998626708984 C149.77999877929688,48.939998626708984 148.16000366210938,49.18000030517578 146.13999938964844,49.61000061035156 C144.11000061035156,50.06999969482422 142.3000030517578,51.02000045776367 140.6699981689453,52.45000076293945 C140.6699981689453,52.45000076293945 131.7899932861328,89.37000274658203 131.7899932861328,89.37000274658203 C132.3300018310547,89.45999908447266 132.7899932861328,89.55000305175781 133.1999969482422,89.63999938964844 C133.58999633789062,89.7300033569336 134.02999877929688,89.79000091552734 134.47000122070312,89.83999633789062 C134.92999267578125,89.88999938964844 135.4499969482422,89.91999816894531 136.08999633789062,89.91999816894531 C136.72999572753906,89.91999816894531 137.52999877929688,89.91999816894531 138.52000427246094,89.91999816894531 C138.52000427246094,89.91999816894531 138.52000427246094,89.91999816894531 138.52000427246094,89.91999816894531z M156.02999877929688,32.220001220703125 C160.35000610351562,32.220001220703125 164.07000732421875,33 167.2100067138672,34.52000045776367 C170.36000061035156,36.060001373291016 172.97000122070312,38.119998931884766 175.0500030517578,40.720001220703125 C177.11000061035156,43.33000183105469 178.6300048828125,46.380001068115234 179.6199951171875,49.880001068115234 C180.60000610351562,53.38999938964844 181.10000610351562,57.15999984741211 181.10000610351562,61.20000076293945 C181.10000610351562,67.4000015258789 179.9600067138672,73.2699966430664 177.6699981689453,78.79000091552734 C175.3800048828125,84.31999969482422 172.25999450683594,89.12999725341797 168.3000030517578,93.22000122070312 C164.33999633789062,97.30999755859375 159.6699981689453,100.52999877929688 154.27999877929688,102.91000366210938 C148.89999389648438,105.29000091552734 143.0500030517578,106.4800033569336 136.77000427246094,106.4800033569336 C135.9600067138672,106.4800033569336 134.5399932861328,106.45999908447266 132.52000427246094,106.41999816894531 C130.5,106.37999725341797 128.19000244140625,106.16999816894531 125.58999633789062,105.81999969482422 C122.9800033569336,105.45999908447266 120.22000122070312,104.91999816894531 117.30000305175781,104.19999694824219 C114.38999938964844,103.48999786376953 111.61000061035156,102.48999786376953 109,101.2300033569336 C109,101.2300033569336 132.32000732421875,3.259999990463257 132.32000732421875,3.259999990463257 C132.32000732421875,3.259999990463257 153.1999969482422,0.019999999552965164 153.1999969482422,0.019999999552965164 C153.1999969482422,0.019999999552965164 144.86000061035156,34.790000915527344 144.86000061035156,34.790000915527344 C146.64999389648438,33.9900016784668 148.44000244140625,33.36000061035156 150.24000549316406,32.90999984741211 C152.0399932861328,32.459999084472656 153.97000122070312,32.220001220703125 156.02999877929688,32.220001220703125 C156.02999877929688,32.220001220703125 156.02999877929688,32.220001220703125 156.02999877929688,32.220001220703125z"/></g></g><g opacity="1" transform="matrix(1,0,0,1,0,0)"><path fill="rgb(255,255,255)" fill-opacity="1" d=" M212.4600067138672,25.09000015258789 C209.6699981689453,25.09000015258789 207.14999389648438,24.260000228881836 204.91000366210938,22.600000381469727 C202.64999389648438,20.950000762939453 201.5399932861328,18.40999984741211 201.5399932861328,14.979999542236328 C201.5399932861328,13.100000381469727 201.9199981689453,11.34000015258789 202.67999267578125,9.670000076293945 C203.4499969482422,8.010000228881836 204.4600067138672,6.570000171661377 205.72000122070312,5.349999904632568 C206.97999572753906,4.139999866485596 208.42999267578125,3.180000066757202 210.08999633789062,2.450000047683716 C211.75999450683594,1.7300000190734863 213.5399932861328,1.3799999952316284 215.42999267578125,1.3799999952316284 C218.2100067138672,1.3799999952316284 220.7100067138672,2.2100000381469727 222.9600067138672,3.869999885559082 C225.1999969482422,5.539999961853027 226.3300018310547,8.069999694824219 226.3300018310547,11.479999542236328 C226.3300018310547,13.369999885559082 225.9499969482422,15.149999618530273 225.17999267578125,16.809999465942383 C224.4199981689453,18.469999313354492 223.4199981689453,19.90999984741211 222.16000366210938,21.1299991607666 C220.91000366210938,22.34000015258789 219.42999267578125,23.299999237060547 217.77999877929688,24.020000457763672 C216.11000061035156,24.75 214.33999633789062,25.09000015258789 212.4600067138672,25.09000015258789 C212.4600067138672,25.09000015258789 212.4600067138672,25.09000015258789 212.4600067138672,25.09000015258789z M202.75,104.61000061035156 C202.75,104.61000061035156 182.80999755859375,104.61000061035156 182.80999755859375,104.61000061035156 C182.80999755859375,104.61000061035156 199.64999389648438,33.72999954223633 199.64999389648438,33.72999954223633 C199.64999389648438,33.72999954223633 219.72999572753906,33.72999954223633 219.72999572753906,33.72999954223633 C219.72999572753906,33.72999954223633 202.75,104.61000061035156 202.75,104.61000061035156z"/></g><g opacity="1" transform="matrix(1,0,0,1,0,0)"><g opacity="1" transform="matrix(1,0,0,1,0,0)"><path fill="rgb(255,255,255)" fill-opacity="1" d=" M237.2100067138672,16.06999969482422 C237.2100067138672,16.06999969482422 258.1099853515625,12.829999923706055 258.1099853515625,12.829999923706055 C258.1099853515625,12.829999923706055 252.97999572753906,33.720001220703125 252.97999572753906,33.720001220703125 C252.97999572753906,33.720001220703125 275.3500061035156,33.720001220703125 275.3500061035156,33.720001220703125 C275.3500061035156,33.720001220703125 271.30999755859375,50.15999984741211 271.30999755859375,50.15999984741211 C271.30999755859375,50.15999984741211 249.07000732421875,50.15999984741211 249.07000732421875,50.15999984741211 C249.07000732421875,50.15999984741211 243.14999389648438,74.95999908447266 243.14999389648438,74.95999908447266 C242.60000610351562,77.02999877929688 242.3000030517578,78.95999908447266 242.2100067138672,80.75 C242.11000061035156,82.55000305175781 242.33999633789062,84.0999984741211 242.8800048828125,85.4000015258789 C243.4199981689453,86.70999908447266 244.3699951171875,87.72000122070312 245.77000427246094,88.43000030517578 C247.16000366210938,89.1500015258789 249.16000366210938,89.51000213623047 251.77000427246094,89.51000213623047 C253.9199981689453,89.51000213623047 256.010009765625,89.30999755859375 258.0400085449219,88.9000015258789 C260.04998779296875,88.5 262.0899963378906,87.94999694824219 264.1600036621094,87.22000122070312 C264.1600036621094,87.22000122070312 265.6499938964844,102.58999633789062 265.6499938964844,102.58999633789062 C262.95001220703125,103.58000183105469 260.0299987792969,104.43000030517578 256.8900146484375,105.13999938964844 C253.74000549316406,105.87000274658203 250.02000427246094,106.22000122070312 245.7100067138672,106.22000122070312 C239.50999450683594,106.22000122070312 234.6999969482422,105.29000091552734 231.27999877929688,103.45999908447266 C227.86000061035156,101.62000274658203 225.4499969482422,99.0999984741211 224,95.91000366210938 C222.57000732421875,92.7300033569336 221.94000244140625,89.05999755859375 222.1199951171875,84.93000030517578 C222.3000030517578,80.79000091552734 222.9199981689453,76.44999694824219 224,71.86000061035156 C224,71.86000061035156 237.2100067138672,16.06999969482422 237.2100067138672,16.06999969482422z"/></g></g><g opacity="1" transform="matrix(1,0,0,1,0,0)"><g opacity="1" transform="matrix(1,0,0,1,0,0)"><path fill="rgb(255,255,255)" fill-opacity="1" d=" M274.4700012207031,76.30000305175781 C274.4700012207031,70.19000244140625 275.4599914550781,64.44000244140625 277.42999267578125,59.04999923706055 C279.3999938964844,53.65999984741211 282.239990234375,48.939998626708984 285.92999267578125,44.88999938964844 C289.6000061035156,40.86000061035156 294.07000732421875,37.66999816894531 299.3399963378906,35.33000183105469 C304.5799865722656,33 310.45001220703125,31.81999969482422 316.9200134277344,31.81999969482422 C320.9700012207031,31.81999969482422 324.5899963378906,32.20000076293945 327.7699890136719,32.970001220703125 C330.9700012207031,33.7400016784668 333.8500061035156,34.75 336.4700012207031,36 C336.4700012207031,36 329.5899963378906,51.63999938964844 329.5899963378906,51.63999938964844 C327.7900085449219,50.90999984741211 325.92999267578125,50.27000045776367 324,49.689998626708984 C322.07000732421875,49.099998474121094 319.7200012207031,48.810001373291016 316.92999267578125,48.810001373291016 C310.2699890136719,48.810001373291016 305.010009765625,51.11000061035156 301.0899963378906,55.68000030517578 C297.19000244140625,60.2599983215332 295.2200012207031,66.41999816894531 295.2200012207031,74.1500015258789 C295.2200012207031,78.7300033569336 296.2099914550781,82.44000244140625 298.19000244140625,85.2699966430664 C300.1600036621094,88.11000061035156 303.82000732421875,89.51000213623047 309.1099853515625,89.51000213623047 C311.7200012207031,89.51000213623047 314.239990234375,89.23999786376953 316.6499938964844,88.70999908447266 C319.0799865722656,88.16999816894531 321.2300109863281,87.4800033569336 323.1199951171875,86.68000030517578 C323.1199951171875,86.68000030517578 324.6099853515625,102.72000122070312 324.6099853515625,102.72000122070312 C322.0899963378906,103.69999694824219 319.30999755859375,104.58999633789062 316.260009765625,105.36000061035156 C313.20001220703125,106.11000061035156 309.55999755859375,106.48999786376953 305.3399963378906,106.48999786376953 C299.7699890136719,106.48999786376953 295.04998779296875,105.68000030517578 291.19000244140625,104.06999969482422 C287.3299865722656,102.44000244140625 284.1300048828125,100.2699966430664 281.6199951171875,97.52999877929688 C279.1000061035156,94.77999877929688 277.2799987792969,91.56999969482422 276.1600036621094,87.88999938964844 C275.0400085449219,84.20999908447266 274.4700012207031,80.33999633789062 274.4700012207031,76.30000305175781 C274.4700012207031,76.30000305175781 274.4700012207031,76.30000305175781 274.4700012207031,76.30000305175781z"/></g></g><g opacity="1" transform="matrix(1,0,0,1,0,0)"><g opacity="1" transform="matrix(1,0,0,1,0,0)"><path fill="rgb(255,255,255)" fill-opacity="1" d=" M373.0400085449219,48.810001373291016 C370.0799865722656,48.810001373291016 367.4700012207031,49.66999816894531 365.2300109863281,51.369998931884766 C362.9800109863281,53.08000183105469 361.1000061035156,55.2400016784668 359.5799865722656,57.84000015258789 C358.0400085449219,60.45000076293945 356.8999938964844,63.29999923706055 356.1300048828125,66.4000015258789 C355.3699951171875,69.5 355,72.43000030517578 355,75.22000122070312 C355,79.72000122070312 355.7200012207031,83.22000122070312 357.1499938964844,85.73999786376953 C358.6000061035156,88.25 361.19000244140625,89.51000213623047 364.9599914550781,89.51000213623047 C367.92999267578125,89.51000213623047 370.5400085449219,88.66000366210938 372.7900085449219,86.94999694824219 C375.0199890136719,85.25 376.9100036621094,83.08999633789062 378.44000244140625,80.4800033569336 C379.9700012207031,77.87999725341797 381.1199951171875,75.0199966430664 381.8900146484375,71.91999816894531 C382.6400146484375,68.83000183105469 383.0199890136719,65.87999725341797 383.0199890136719,63.09000015258789 C383.0199890136719,58.61000061035156 382.29998779296875,55.099998474121094 380.8599853515625,52.58000183105469 C379.4200134277344,50.06999969482422 376.80999755859375,48.810001373291016 373.0400085449219,48.810001373291016 C373.0400085449219,48.810001373291016 373.0400085449219,48.810001373291016 373.0400085449219,48.810001373291016z M363.07000732421875,106.48999786376953 C358.30999755859375,106.48999786376953 354.17999267578125,105.7699966430664 350.6700134277344,104.33000183105469 C347.1700134277344,102.88999938964844 344.2799987792969,100.87999725341797 341.989990234375,98.2699966430664 C339.69000244140625,95.66999816894531 337.9800109863281,92.58999633789062 336.79998779296875,89.04000091552734 C335.6199951171875,85.48999786376953 335.04998779296875,81.55000305175781 335.04998779296875,77.25 C335.04998779296875,71.8499984741211 335.92999267578125,66.44999694824219 337.67999267578125,61.06999969482422 C339.4200134277344,55.68000030517578 342.010009765625,50.83000183105469 345.42999267578125,46.52000045776367 C348.8299865722656,42.20000076293945 353.0199890136719,38.68000030517578 357.9599914550781,35.93000030517578 C362.8900146484375,33.20000076293945 368.55999755859375,31.81999969482422 374.92999267578125,31.81999969482422 C379.6099853515625,31.81999969482422 383.7200012207031,32.54999923706055 387.2699890136719,33.9900016784668 C390.80999755859375,35.41999816894531 393.7300109863281,37.45000076293945 396.0299987792969,40.04999923706055 C398.30999755859375,42.65999984741211 400.0400085449219,45.7400016784668 401.20001220703125,49.290000915527344 C402.3800048828125,52.83000183105469 402.9599914550781,56.77000045776367 402.9599914550781,61.06999969482422 C402.9599914550781,66.45999908447266 402.1099853515625,71.8499984741211 400.4100036621094,77.25 C398.7099914550781,82.62000274658203 396.17999267578125,87.4800033569336 392.8599853515625,91.80000305175781 C389.5400085449219,96.11000061035156 385.3800048828125,99.63999938964844 380.3900146484375,102.37999725341797 C375.4100036621094,105.12000274658203 369.6300048828125,106.48999786376953 363.07000732421875,106.48999786376953 C363.07000732421875,106.48999786376953 363.07000732421875,106.48999786376953 363.07000732421875,106.48999786376953z"/></g></g><g opacity="1" transform="matrix(1,0,0,1,0,0)"><path fill="rgb(255,255,255)" fill-opacity="1" d=" M434.3800048828125,25.09000015258789 C431.6000061035156,25.09000015258789 429.07000732421875,24.260000228881836 426.8399963378906,22.600000381469727 C424.5899963378906,20.950000762939453 423.4700012207031,18.40999984741211 423.4700012207031,14.979999542236328 C423.4700012207031,13.100000381469727 423.8599853515625,11.34000015258789 424.6199951171875,9.670000076293945 C425.3800048828125,8.010000228881836 426.3900146484375,6.570000171661377 427.6499938964844,5.349999904632568 C428.8999938964844,4.139999866485596 430.3800048828125,3.180000066757202 432.0299987792969,2.450000047683716 C433.69000244140625,1.7300000190734863 435.4599914550781,1.3799999952316284 437.3399963378906,1.3799999952316284 C440.1300048828125,1.3799999952316284 442.6499938964844,2.2100000381469727 444.8900146484375,3.869999885559082 C447.1400146484375,5.539999961853027 448.2699890136719,8.069999694824219 448.2699890136719,11.479999542236328 C448.2699890136719,13.369999885559082 447.8699951171875,15.149999618530273 447.1199951171875,16.809999465942383 C446.3699951171875,18.469999313354492 445.3500061035156,19.90999984741211 444.0899963378906,21.1299991607666 C442.82000732421875,22.34000015258789 441.3800048828125,23.299999237060547 439.7200012207031,24.020000457763672 C438.04998779296875,24.75 436.2699890136719,25.09000015258789 434.3800048828125,25.09000015258789 C434.3800048828125,25.09000015258789 434.3800048828125,25.09000015258789 434.3800048828125,25.09000015258789z M424.69000244140625,104.61000061035156 C424.69000244140625,104.61000061035156 404.7300109863281,104.61000061035156 404.7300109863281,104.61000061035156 C404.7300109863281,104.61000061035156 421.57000732421875,33.72999954223633 421.57000732421875,33.72999954223633 C421.57000732421875,33.72999954223633 441.6700134277344,33.72999954223633 441.6700134277344,33.72999954223633 C441.6700134277344,33.72999954223633 424.69000244140625,104.61000061035156 424.69000244140625,104.61000061035156z"/></g><g opacity="1" transform="matrix(1,0,0,1,0,0)"><path fill="rgb(255,255,255)" fill-opacity="1" d=" M456.0400085449219,36.95000076293945 C457.55999755859375,36.5099983215332 459.25,35.970001220703125 461.0899963378906,35.38999938964844 C462.92999267578125,34.810001373291016 464.989990234375,34.27000045776367 467.2900085449219,33.790000915527344 C469.57000732421875,33.290000915527344 472.1499938964844,32.88999938964844 474.9700012207031,32.56999969482422 C477.79998779296875,32.25 481.0199890136719,32.09000015258789 484.6000061035156,32.09000015258789 C495.1199951171875,32.09000015258789 502.3699951171875,35.15999984741211 506.3699951171875,41.27000045776367 C510.3699951171875,47.380001068115234 511.05999755859375,55.72999954223633 508.4700012207031,66.33000183105469 C508.4700012207031,66.33000183105469 499.2900085449219,104.5999984741211 499.2900085449219,104.5999984741211 C499.2900085449219,104.5999984741211 479.2099914550781,104.5999984741211 479.2099914550781,104.5999984741211 C479.2099914550781,104.5999984741211 488.1099853515625,67.13999938964844 488.1099853515625,67.13999938964844 C488.6499938964844,64.80000305175781 489.0799865722656,62.529998779296875 489.3900146484375,60.31999969482422 C489.7099914550781,58.130001068115234 489.69000244140625,56.209999084472656 489.32000732421875,54.540000915527344 C488.9599914550781,52.88999938964844 488.1300048828125,51.529998779296875 486.8299865722656,50.47999954223633 C485.5199890136719,49.45000076293945 483.5299987792969,48.939998626708984 480.8299865722656,48.939998626708984 C478.2300109863281,48.939998626708984 475.5799865722656,49.220001220703125 472.8800048828125,49.7599983215332 C472.8800048828125,49.7599983215332 459.80999755859375,104.5999984741211 459.80999755859375,104.5999984741211 C459.80999755859375,104.5999984741211 439.7300109863281,104.5999984741211 439.7300109863281,104.5999984741211 C439.7300109863281,104.5999984741211 456.0400085449219,36.95000076293945 456.0400085449219,36.95000076293945z"/></g></g></g></g></svg>