<svg height="16" width="16" xmlns="http://www.w3.org/2000/svg"><clipPath id="a"><path d="M7.761 0c4.28 0 7.762 3.134 7.762 6.985 0 .25-.016.498-.044.741-.463 4.286-4.868 7.315-5.746 7.878l-.42.269c-.775.426-.76-.356-.775-.35v-1.589C3.912 14.364 0 11.067 0 6.985 0 3.134 3.482 0 7.761 0zM5.045 6.21h-.776a.388.388 0 00-.388.387v.776c0 .215.174.388.388.388h.776a.388.388 0 00.388-.388v-.776a.388.388 0 00-.388-.388zm3.104 0h-.776a.388.388 0 00-.388.387v.776c0 .215.174.388.388.388h.776a.388.388 0 00.389-.388v-.776a.388.388 0 00-.389-.388zm3.105 0h-.776a.388.388 0 00-.388.387v.776c0 .215.174.388.388.388h.776a.388.388 0 00.388-.388v-.776a.388.388 0 00-.388-.388z"/></clipPath><g clip-path="url(#a)" transform="translate(.25)"><path d="M0 0h15.523v16H0z"/></g></svg>