<svg xmlns="http://www.w3.org/2000/svg" width="205" height="201" viewBox="0 0 205 201"><defs><style>.a{fill:#f5f5f5;}.b{fill:#3bb54a;}.c{fill:#0e9347;}.d{fill:#89c763;}.e{fill:#6f707e;}.f{fill:#595a66;}.g{fill:#494a52;}</style></defs><g transform="translate(-626 -2354)"><g transform="translate(17)"><rect class="a" width="205" height="201" rx="19" transform="translate(609 2354)"/><g transform="translate(652 2398)"><path class="b" d="M69.811,15V95.028a8.883,8.883,0,0,0-8.875,8.892H29.875A8.883,8.883,0,0,0,21,95.028V15Z" transform="translate(14.59 0.531)"/><path class="c" d="M83.743,15v88.9a8.261,8.261,0,0,1-.334,2.356,8.9,8.9,0,0,1-8.565,6.534H25.9A8.9,8.9,0,0,1,17,103.9V15h8.9V95.013a8.9,8.9,0,0,1,8.9,8.89H65.945a8.9,8.9,0,0,1,8.9-8.89V15Z" transform="translate(9.624 0.531)"/><ellipse class="d" cx="15.421" cy="13.493" rx="15.421" ry="13.493" transform="translate(44.812 39.984)"/><path class="e" d="M124.991,16.875v6.656a8.881,8.881,0,0,0-8.888-8.875H13.888A8.881,8.881,0,0,0,5,23.531V16.875A8.881,8.881,0,0,1,13.888,8H116.1A8.881,8.881,0,0,1,124.991,16.875Z" transform="translate(-5 -8)"/><path class="f" d="M124.991,19.875V37.624A8.881,8.881,0,0,1,116.1,46.5H98.326V19.875H31.665V46.5H13.888A8.881,8.881,0,0,1,5,37.624V19.875A8.881,8.881,0,0,1,13.888,11H116.1A8.881,8.881,0,0,1,124.991,19.875Z" transform="translate(-5 -4.344)"/><g transform="translate(17.749 15.531)"><path class="g" d="M13,15h8.875V26.093H13Z" transform="translate(-13 -15)"/><path class="g" d="M47,15h8.875V26.093H47Z" transform="translate(28.618 -15)"/></g></g></g></g></svg>