<svg width="40" height="40" viewBox="0 0 40 40" fill="none" xmlns="http://www.w3.org/2000/svg">
<path d="M28.1668 11.8334C27.8335 9.83337 26.8335 8.1667 25.1668 6.83337C23.1668 5.33337 20.6668 4.6667 18.1668 5.33337L6.16683 8.00004C4.50016 8.33337 3.3335 9.83337 3.3335 11.5V25C3.3335 29.6667 7.00016 33.3334 11.6668 33.3334H26.6668C31.3335 33.3334 35.0002 29.6667 35.0002 25V20C35.0002 16 32.0002 12.5 28.1668 11.8334ZM6.8335 11.3334L18.8335 8.50004C19.3335 8.50004 19.6668 8.33337 20.0002 8.33337C21.1668 8.33337 22.1668 8.6667 23.0002 9.33337C23.6668 10 24.3335 10.6667 24.6668 11.5H6.8335C6.66683 11.6667 6.66683 11.6667 6.66683 11.5C6.66683 11.5 6.66683 11.3334 6.8335 11.3334ZM31.6668 25C31.6668 27.8334 29.5002 30 26.6668 30H11.6668C8.8335 30 6.66683 27.8334 6.66683 25V15H26.6668C29.5002 15 31.6668 17.1667 31.6668 20V25Z" fill="#E6E6E6"/>
</svg>
