<svg xmlns="http://www.w3.org/2000/svg" width="186.638" height="54" viewBox="0 0 186.638 54"><defs><style>.a{fill:#363d71;font-size:22px;font-family:SFUIText-BoldItalic, SF UI Text;font-weight:700;font-style:italic;}.b{fill:#e68e2b;}.c{fill:#ffc107;}.d{fill:#455a64;}.e{fill:#fafafa;}</style></defs><g transform="translate(-913.681 -1902)"><text class="a" transform="translate(1046.319 1937)"><tspan x="-53.834" y="0">Exchange</tspan></text><g transform="translate(674.681 1973.828)"><g transform="translate(239 -71.828)"><path class="b" d="M16.766,0a16.766,16.766,0,0,0,0,33.532,1.117,1.117,0,0,0,.791-.326L33.205,17.557a1.118,1.118,0,0,0,.326-.791A16.784,16.784,0,0,0,16.766,0Z" transform="translate(0)"/><path class="c" d="M168.335,149.333a19,19,0,1,0,19,19A19,19,0,0,0,168.335,149.333Z" transform="translate(-133.336 -133.335)"/><g transform="translate(2.22 2.235)"><path class="d" d="M35.733,373.965a10.393,10.393,0,0,1-9.574-8.007l2.365,1.183a1.118,1.118,0,1,0,1-2L25.052,362.9c-.031-.016-.067-.013-.1-.027a1.136,1.136,0,0,0-.447-.074,1.049,1.049,0,0,0-.107,0q-.052.015-.1.036a1.117,1.117,0,0,0-.691.494c-.018.029-.047.049-.063.081l-2.235,4.471a1.118,1.118,0,0,0,.5,1.5h0a1.1,1.1,0,0,0,.514.109,1.118,1.118,0,0,0,1-.617l.867-1.735A12.481,12.481,0,0,0,35.733,376.2h0a1.118,1.118,0,0,0,0-2.236Z" transform="translate(-21.187 -326.672)"/><path class="d" d="M356.364,28.153a1.118,1.118,0,0,0-1.5.5h0L354,30.389a12.481,12.481,0,0,0-11.546-9.056h0a1.118,1.118,0,0,0,0,2.236,10.393,10.393,0,0,1,9.572,8l-2.365-1.183a1.118,1.118,0,1,0-1,2l4.471,2.235h.047a1.1,1.1,0,0,0,.452.121,1.078,1.078,0,0,0,.577-.161l.02-.018a1.1,1.1,0,0,0,.356-.384c.013-.022.038-.031.049-.054l2.235-4.471a1.118,1.118,0,0,0-.495-1.5Z" transform="translate(-307.437 -21.333)"/></g><path class="e" d="M264.941,224.588v-6.706c2.515.32,4.471,1.692,4.471,3.282a1.118,1.118,0,1,0,2.235,0c0-2.861-2.872-5.142-6.706-5.51v-1.2a1.118,1.118,0,1,0-2.236,0v1.2c-3.834.38-6.706,2.649-6.706,5.51s2.872,5.142,6.706,5.51v6.706c-2.515-.32-4.471-1.692-4.471-3.282a1.118,1.118,0,1,0-2.236,0c0,2.861,2.873,5.142,6.706,5.51v1.2a1.118,1.118,0,1,0,2.235,0v-1.2c3.834-.38,6.706-2.649,6.706-5.51S268.775,224.957,264.941,224.588Zm-6.706-3.431c0-1.589,1.956-2.962,4.471-3.282v6.566C260.191,224.119,258.235,222.746,258.235,221.157Zm6.706,12.223v-6.563c2.515.32,4.471,1.692,4.471,3.282S267.456,233.061,264.941,233.381Z" transform="translate(-228.927 -190.629)"/></g></g></g></svg>