<svg xmlns="http://www.w3.org/2000/svg" width="205" height="201" viewBox="0 0 205 201"><defs><style>.a{fill:#f5f5f5;}.b{fill:#e97b28;}.c{fill:#af5c1e;}.d{fill:#f6963b;}.e{fill:#ffc239;}.f{fill:#ffd55d;}.g{fill:#f4ac1c;}.h{fill:#285559;}.i{fill:#00ab5e;}.j{fill:#008575;}</style></defs><g transform="translate(-1053 -2354)"><g transform="translate(1053 2354)"><rect class="a" width="205" height="201" rx="19" transform="translate(0)"/><g transform="translate(39.999 38)"><g transform="translate(0)"><path class="b" d="M126.02,48V62.469c0,7.991-27.762,14.469-62.01,14.469S2,70.46,2,62.469V48Z" transform="translate(-2 47.082)"/><g transform="translate(59.943 109.551)"><path class="c" d="M31,55h4.134V69.469H31Z" transform="translate(-31 -55)"/></g><path class="c" d="M11,69.6q1.984.453,4.134.868V51H11Z" transform="translate(7.603 50.283)"/><path class="c" d="M51,70.024q2.152-.412,4.134-.868V51.413H51Z" transform="translate(50.283 50.723)"/><ellipse class="d" cx="62.079" cy="14.49" rx="62.079" ry="14.49" transform="translate(0 80.689)"/><g transform="translate(41.481)"><ellipse class="e" cx="20.598" cy="20.74" rx="20.598" ry="20.74" transform="translate(0)"/><path class="f" d="M39.469,2A20.55,20.55,0,0,0,28.3,5.3,20.649,20.649,0,0,0,56.842,33.842,20.649,20.649,0,0,0,39.469,2Z" transform="translate(-18.94 -2)"/><path class="g" d="M36.268,18.469A4.134,4.134,0,1,1,40.4,14.335h4.134a8.259,8.259,0,0,0-6.2-7.974V4H34.2V6.361A8.251,8.251,0,0,0,36.268,22.6a4.134,4.134,0,1,1-4.134,4.134H28a8.259,8.259,0,0,0,6.2,7.974v2.361h4.134V34.711a8.251,8.251,0,0,0-2.067-16.242Z" transform="translate(-15.739 0.134)"/></g><g transform="translate(79.366 64.077)"><path class="h" d="M42.4,51.739l-2-3.619,6.447-3.555A6.21,6.21,0,0,0,49.928,39.2V33h4.134v6.2a10.371,10.371,0,0,1-5.188,8.965Z" transform="translate(-40.397 -33)"/></g><path class="c" d="M27.918,45.888C17.629,47.022,11,48.8,11,50.8,11,54.226,30.434,57,54.407,57s43.407-2.776,43.407-6.2c0-2.336-9.037-4.37-22.388-5.426Z" transform="translate(7.603 44.281)"/><g transform="translate(59.943 41.34)"><path class="h" d="M31,22h4.134V81.943H31Z" transform="translate(-31 -22)"/></g><path class="i" d="M56.8,38v2.067A24.805,24.805,0,0,1,32,64.871Z" transform="translate(30.01 36.412)"/><path class="j" d="M56.8,38A24.805,24.805,0,0,0,32,62.8v2.067Z" transform="translate(30.01 36.412)"/><path class="h" d="M25.314,51.483a18.206,18.206,0,0,1-10.18-16.416V33H11v2.067A22.355,22.355,0,0,0,23.59,55.239l8.129,3.435,1.61-3.807Z" transform="translate(7.603 31.077)"/><path class="j" d="M49.072,64.938,16,36h9.02C38.3,36,49.072,48.956,49.072,64.938Z" transform="translate(15.004 36.344)"/><path class="i" d="M49.072,64.938h-9.02C26.769,64.938,16,51.982,16,36Z" transform="translate(15.004 36.344)"/><g transform="translate(70.177 24.718)"><circle class="e" cx="20.74" cy="20.74" r="20.74" transform="translate(0 0)"/><path class="f" d="M53.469,14A20.55,20.55,0,0,0,42.3,17.3,20.649,20.649,0,0,0,70.842,45.842,20.649,20.649,0,0,0,53.469,14Z" transform="translate(-32.698 -13.914)"/><path class="g" d="M50.268,30.469A4.134,4.134,0,1,1,54.4,26.335h4.134a8.259,8.259,0,0,0-6.2-7.974V16H48.2v2.361A8.251,8.251,0,0,0,50.268,34.6a4.134,4.134,0,1,1-4.134,4.134H42a8.259,8.259,0,0,0,6.2,7.974v2.361h4.134V46.711a8.251,8.251,0,0,0-2.067-16.242Z" transform="translate(-29.497 -11.78)"/></g><g transform="translate(0 24.718)"><circle class="e" cx="20.74" cy="20.74" r="20.74" transform="translate(0 0)"/><path class="f" d="M19.469,14A20.55,20.55,0,0,0,8.3,17.3,20.649,20.649,0,0,0,36.842,45.842,20.649,20.649,0,0,0,19.469,14Z" transform="translate(1.201 -13.914)"/><path class="g" d="M16.268,30.469A4.134,4.134,0,1,1,20.4,26.335h4.134a8.259,8.259,0,0,0-6.2-7.974V16H14.2v2.361A8.251,8.251,0,0,0,16.268,34.6a4.134,4.134,0,1,1-4.134,4.134H8a8.259,8.259,0,0,0,6.2,7.974v2.361h4.134V46.711a8.251,8.251,0,0,0-2.067-16.242Z" transform="translate(4.402 -11.78)"/></g></g></g></g></g></svg>