<svg xmlns="http://www.w3.org/2000/svg" width="134.371" height="135" viewBox="0 0 134.371 135"><defs><style>.a{fill:#363d71;}.a,.b,.c,.d{fill-rule:evenodd;}.b{fill:rgba(84,84,84,0.3);}.c{fill:#f49d3f;}.d{fill:rgba(219,219,219,0.44);}.e{fill:#313766;}</style></defs><path class="a" d="M60.57,5.51,90.88,36.535a17.845,17.845,0,0,1,0,24.82L60.449,92.5a16.868,16.868,0,0,1-24.248,0L5.892,61.479a17.845,17.845,0,0,1,0-24.82L36.323,5.51A16.868,16.868,0,0,1,60.57,5.51Z" transform="translate(-0.87 -0.37)"/><path class="b" d="M135.695,6.208l31.037,31.77a17.13,17.13,0,0,1,0,23.827l-31.28,32.018a16.193,16.193,0,0,1-23.278,0L81.137,62.053a17.131,17.131,0,0,1,0-23.827l31.28-32.018A16.193,16.193,0,0,1,135.695,6.208Z" transform="translate(-63.381 -1.114)"/><path class="c" d="M212.656,8.157l30.431,31.149a17.845,17.845,0,0,1,0,24.82L212.656,95.275a16.867,16.867,0,0,1-24.248,0L157.977,64.126a17.845,17.845,0,0,1,0-24.82L188.408,8.157A16.868,16.868,0,0,1,212.656,8.157Z" transform="translate(-126.882 -2.553)"/><path class="d" d="M288.487,9.208l31.037,31.77a17.131,17.131,0,0,1,0,23.827l-31.28,32.018a16.193,16.193,0,0,1-23.278,0l-31.037-31.77a17.131,17.131,0,0,1,0-23.827l31.28-32.018A16.193,16.193,0,0,1,288.487,9.208Z" transform="translate(-189.975 -3.588)"/><g transform="translate(3.509 119.628)"><path class="e" d="M168.078,15.4c.6,0,.982-.313.982-.832a.86.86,0,0,0-.972-.853H161.9V8.7h5.807c.59,0,.961-.3.961-.821s-.371-.832-.961-.832H161.9V2.341h6.19c.589,0,.972-.324.972-.843s-.382-.843-.972-.843h-6.332c-1.255,0-1.758.454-1.758,1.6V13.8c0,1.145.5,1.6,1.758,1.6Zm12.761.108a.9.9,0,0,0,1.015-.875,1.562,1.562,0,0,0-.393-.9l-4-5.628,3.985-5.855c.317-.465.4-.648.4-.886a.878.878,0,0,0-.961-.875c-.382,0-.589.173-1.015.821l-3.406,5.218h-.1l-3.384-5.218c-.437-.648-.655-.821-1.059-.821a.9.9,0,0,0-1.015.875,1.562,1.562,0,0,0,.393.9l3.832,5.7-3.919,5.78c-.317.465-.4.648-.4.886a.872.872,0,0,0,.961.875c.382,0,.578-.162,1.015-.821l3.417-5.153h.1l3.482,5.153C180.228,15.348,180.436,15.51,180.84,15.51Zm8.657.205a5.813,5.813,0,0,0,4.246-1.556,3.854,3.854,0,0,0,1.234-2.355.782.782,0,0,0-.852-.843c-.4,0-.633.205-.939.745a3.837,3.837,0,0,1-3.613,2.312c-2.565,0-4-1.728-4-4.829V6.867c0-3.068,1.43-4.818,4-4.818a3.843,3.843,0,0,1,3.57,2.355c.306.573.579.745,1,.745a.776.776,0,0,0,.83-.843,3.934,3.934,0,0,0-1.2-2.333A5.763,5.763,0,0,0,189.5.342c-3.69,0-5.829,2.42-5.829,6.514V9.2C183.667,13.338,185.8,15.715,189.5,15.715Zm18.744-.205a.931.931,0,0,0,.961-1.037V1.585a.958.958,0,1,0-1.91,0V6.932h-7.5V1.585a.958.958,0,1,0-1.91,0V14.473a.958.958,0,1,0,1.91,0V8.617h7.5v5.855A.923.923,0,0,0,208.24,15.51Zm14.355.032a.813.813,0,0,0,.917-.821,1.993,1.993,0,0,0-.142-.67L218.884,1.639c-.273-.756-.655-1.1-1.354-1.1s-1.081.346-1.354,1.1L211.69,14.051a2.109,2.109,0,0,0-.142.681.808.808,0,0,0,.906.81c.524,0,.819-.238,1.026-.886l1.255-3.684h5.578l1.255,3.684C221.777,15.294,222.071,15.542,222.6,15.542ZM219.8,9.449h-4.552l2.238-6.568h.076Zm16.265,6.06c.688,0,1.048-.432,1.048-1.232V1.585a.913.913,0,0,0-.928-1.037c-.59,0-.917.4-.917,1.037V12.172h-.1L228.348,1.65c-.447-.681-.786-1.1-1.354-1.1-.721,0-1.081.443-1.081,1.242V14.473c0,.637.328,1.037.917,1.037s.917-.4.917-1.037V3.875h.087l6.888,10.641C235.215,15.272,235.51,15.51,236.066,15.51Zm10.087.205c3.155,0,5.491-2.106,5.491-4.948V9.1c0-.94-.437-1.383-1.4-1.383H246.8c-.6,0-.971.313-.971.832s.371.821.971.821h2.991V10.8c0,1.934-1.419,3.23-3.6,3.23-2.6,0-4.137-1.782-4.137-4.807V6.857c0-3.068,1.463-4.807,4.017-4.807a3.885,3.885,0,0,1,3.591,2.377c.295.54.546.724.961.724a.784.784,0,0,0,.83-.853A4.018,4.018,0,0,0,250.2,1.941a5.666,5.666,0,0,0-4.236-1.6c-3.69,0-5.829,2.42-5.829,6.493V9.222C240.138,13.284,242.387,15.715,246.153,15.715ZM262.7,15.4c.6,0,.982-.313.982-.832a.86.86,0,0,0-.971-.853h-6.19V8.7h5.808c.589,0,.961-.3.961-.821s-.371-.832-.961-.832h-5.808V2.341h6.19c.589,0,.971-.324.971-.843s-.382-.843-.971-.843h-6.332c-1.255,0-1.757.454-1.757,1.6V13.8c0,1.145.5,1.6,1.757,1.6Z" transform="translate(-136.503 -0.342)"/><path class="e" d="M10.406,15.715a.93.93,0,0,0,.965-1.031V1.869a.962.962,0,1,0-1.919,0V7.186H1.919V1.869A.93.93,0,0,0,.954.838.922.922,0,0,0,0,1.869V14.684a.922.922,0,0,0,.954,1.031.93.93,0,0,0,.965-1.031V8.862H9.452v5.822A.922.922,0,0,0,10.406,15.715ZM15.7,2.657a1.149,1.149,0,0,0,1.192-1.168,1.171,1.171,0,0,0-2.341,0A1.145,1.145,0,0,0,15.7,2.657Zm-.063,13.058c.524,0,.92-.335.92-1.037v-9.5c0-.691-.385-1.037-.909-1.037a.91.91,0,0,0-.93,1.037v9.5A.908.908,0,0,0,15.635,15.715Z" transform="translate(0 -0.342)"/></g></svg>