<svg xmlns="http://www.w3.org/2000/svg" width="134.416" height="135" viewBox="0 0 134.416 135"><defs><style>.a{fill:#363d71;}.b,.d{fill:#505781;}.b{opacity:0.295;}.c{fill:#686e92;}.e{fill:#dde9f7;}.f{fill:#f49d3f;}.g{fill:#f1cb86;}.h{fill:#d8aa8b;}.i{fill:#f9ead2;}.j{fill:#0e9347;}.k{fill:#a8f279;}.l{fill:#3bb54a;}.m{fill:#93c8a5;}</style></defs><g transform="translate(0 10.011)"><g transform="translate(19.101 -10.011)"><g transform="translate(0 0)"><path class="a" d="M185.117,87.018,86.768,106.733a3.676,3.676,0,0,1-4.326-2.881L72.829,55.9a3.676,3.676,0,0,1,2.881-4.326l98.348-19.715a3.676,3.676,0,0,1,4.326,2.881L188,82.691a3.676,3.676,0,0,1-2.881,4.326Z" transform="translate(-72.756 -31.781)"/></g><path class="b" d="M199.831,31.855l-2.548.511L206.331,77.5a3.95,3.95,0,0,1-3.1,4.65L107.7,101.3l.511,2.548a3.675,3.675,0,0,0,4.326,2.881L210.89,87.018a3.675,3.675,0,0,0,2.881-4.326l-9.613-47.956a3.675,3.675,0,0,0-4.326-2.881Z" transform="translate(-98.53 -31.782)"/><g transform="translate(0.002 0.002)"><path class="c" d="M178.392,34.753a3.687,3.687,0,0,0-4.34-2.89L75.727,51.573a3.687,3.687,0,0,0-2.89,4.34l3.136,15.646a19.646,19.646,0,0,0,15.209-14.53,1.314,1.314,0,0,1,1.017-.972l19.558-3.921a.526.526,0,0,1,.557.778c-.593,1.051-1.1,2.18-1.75,3.161-1.175,1.764-2.975,3.26-3.66,5.281-.675,1.992-.161,4.27-.3,6.418-.132,2.076-.948,4.267-.52,6.4s2.026,3.843,2.947,5.708c.953,1.929,1.358,4.229,2.748,5.807,1.411,1.6,3.649,2.287,5.413,3.462s3.26,2.976,5.281,3.66c1.992.675,4.269.161,6.417.3,2.076.132,4.267.948,6.4.52s3.843-2.026,5.708-2.947c1.929-.954,4.229-1.358,5.807-2.748,1.6-1.411,2.287-3.649,3.462-5.413s2.975-3.26,3.66-5.28c.675-1.992.161-4.27.3-6.418.132-2.076.948-4.267.52-6.4s-2.026-3.843-2.947-5.708c-.954-1.929-1.358-4.229-2.748-5.807-1.411-1.6-3.649-2.287-5.413-3.462-.982-.654-1.881-1.5-2.834-2.243a.526.526,0,0,1,.214-.933l19.558-3.921a1.314,1.314,0,0,1,1.312.5A19.647,19.647,0,0,0,181.528,50.4Z" transform="translate(-72.764 -31.789)"/></g><g transform="translate(6.548 34.962)"><path class="c" d="M105.16,205.762l98.348-19.715a3.675,3.675,0,0,0,2.881-4.326l-3.139-15.657a19.645,19.645,0,0,0-15.2,14.488,1.314,1.314,0,0,1-1.016.969l-68.423,13.716a1.314,1.314,0,0,1-1.311-.5A19.645,19.645,0,0,0,97.7,187.223l3.139,15.657a3.675,3.675,0,0,0,4.326,2.881Z" transform="translate(-97.695 -166.063)"/></g><g transform="translate(9.175 34.962)"><path class="d" d="M204.682,168.3l1.65,8.232a3.95,3.95,0,0,1-3.1,4.65l-95.531,19.15.511,2.548a3.675,3.675,0,0,0,4.326,2.881l98.348-19.715a3.675,3.675,0,0,0,2.881-4.326l-3.139-15.657A19.621,19.621,0,0,0,204.682,168.3Z" transform="translate(-107.705 -166.063)"/></g><g transform="translate(98.755 0)"><path class="d" d="M451.467,31.855l-2.548.511,3.66,18.257a19.617,19.617,0,0,0,6.353-.229l-3.139-15.657A3.675,3.675,0,0,0,451.467,31.855Z" transform="translate(-448.919 -31.782)"/></g><g transform="translate(40.464 20.159)"><path class="e" d="M244.047,143.559a17.248,17.248,0,1,1,3.415-.341A17.338,17.338,0,0,1,244.047,143.559Zm.063-30.44a13.374,13.374,0,0,0-2.63.262,13.175,13.175,0,1,0,2.63-.262Z" transform="translate(-226.89 -109.167)"/></g></g><g transform="translate(0 49.965)"><path class="f" d="M101.3,269.395,2.954,249.679a3.675,3.675,0,0,1-2.881-4.326L9.686,197.4a3.675,3.675,0,0,1,4.326-2.881l98.348,19.715a3.675,3.675,0,0,1,2.881,4.326l-9.614,47.956A3.675,3.675,0,0,1,101.3,269.395Z" transform="translate(0 -194.443)"/><g transform="translate(0 19.276)"><path class="g" d="M112.361,268.382l-2.548-.511-9.049,45.138a3.95,3.95,0,0,1-4.65,3.1L.583,296.956.073,299.5a3.675,3.675,0,0,0,2.881,4.326L101.3,323.546a3.675,3.675,0,0,0,4.326-2.881l9.614-47.956A3.676,3.676,0,0,0,112.361,268.382Z" transform="translate(0 -267.871)"/></g><g transform="translate(0.002 13.056)"><path class="g" d="M89.159,295.045a1.313,1.313,0,0,1-1.311.5l-19.54-3.917a.526.526,0,0,1-.224-.929c.939-.734,1.828-1.568,2.8-2.214,1.764-1.175,4-1.861,5.413-3.462,1.391-1.578,1.795-3.878,2.748-5.807.922-1.865,2.519-3.572,2.947-5.708s-.388-4.328-.52-6.4c-.136-2.148.377-4.425-.3-6.418-.685-2.021-2.485-3.517-3.66-5.28s-1.861-4-3.462-5.413c-1.578-1.391-3.878-1.795-5.807-2.748-1.865-.922-3.572-2.519-5.708-2.947s-4.328.388-6.4.52c-2.148.136-4.425-.377-6.418.3-2.021.685-3.517,2.485-5.281,3.66s-4,1.861-5.413,3.462c-1.391,1.578-1.795,3.878-2.748,5.807-.922,1.865-2.519,3.572-2.947,5.708s.388,4.328.52,6.4c.136,2.148-.377,4.425.3,6.418.685,2.021,2.485,3.517,3.66,5.28.646.97,1.145,2.082,1.728,3.121a.526.526,0,0,1-.565.77l-19.54-3.917a1.314,1.314,0,0,1-1.016-.969,19.645,19.645,0,0,0-15.2-14.488L.074,282.032a3.676,3.676,0,0,0,2.881,4.326L101.3,306.073a3.676,3.676,0,0,0,4.326-2.881l3.139-15.657A19.645,19.645,0,0,0,89.159,295.045Z" transform="translate(-0.001 -244.178)"/></g><g transform="translate(0 48.361)"><path class="h" d="M102.414,386.481l-1.65,8.232a3.95,3.95,0,0,1-4.65,3.1L.583,378.659l-.511,2.548a3.676,3.676,0,0,0,2.881,4.326L101.3,405.249a3.675,3.675,0,0,0,4.326-2.881l3.139-15.657a19.609,19.609,0,0,0-6.353-.23Z" transform="translate(0 -378.659)"/></g><g transform="translate(40.462 20.472)"><path class="i" d="M171.352,306.221a17.352,17.352,0,0,1-3.414-.341,17.1,17.1,0,1,1,3.414.341Zm-.063-30.44a13.259,13.259,0,1,0,2.63.262A13.392,13.392,0,0,0,171.289,275.78Z" transform="translate(-154.12 -271.829)"/></g><g transform="translate(6.548 0.29)"><path class="g" d="M130.752,214.232,32.4,194.517a3.676,3.676,0,0,0-4.326,2.881l-3.139,15.657a19.646,19.646,0,0,0,19.635-7.546,1.313,1.313,0,0,1,1.312-.5l68.383,13.708a1.314,1.314,0,0,1,1.017.972,19.646,19.646,0,0,0,15.209,14.53l3.139-15.657a3.675,3.675,0,0,0-2.881-4.326Z" transform="translate(-24.938 -194.444)"/></g></g><g transform="translate(106.153 62.773)"><path class="h" d="M410.553,268.382,408,267.871l-3.66,18.257a19.614,19.614,0,0,0,5.951,2.237l3.139-15.657A3.675,3.675,0,0,0,410.553,268.382Z" transform="translate(-404.345 -267.871)"/></g><g transform="translate(14.002 32.056)"><path class="j" d="M157.314,206.809H57.009a3.675,3.675,0,0,1-3.675-3.675v-48.91a3.675,3.675,0,0,1,3.675-3.675H157.314a3.675,3.675,0,0,1,3.675,3.675V170.2l-1.421,3.341,1.421,3.027v26.561A3.675,3.675,0,0,1,157.314,206.809Z" transform="translate(-53.334 -150.548)"/></g><g transform="translate(14.002 32.056)"><path class="k" d="M157.3,150.548h-2.587v46.037a3.95,3.95,0,0,1-3.95,3.95H53.334v2.587a3.687,3.687,0,0,0,3.687,3.687H157.3a3.687,3.687,0,0,0,3.687-3.687V154.235A3.687,3.687,0,0,0,157.3,150.548Z" transform="translate(-53.334 -150.548)"/></g><g transform="translate(14.002 32.056)"><path class="l" d="M143.221,158.935a19.646,19.646,0,0,0,17.769,11.258V154.235a3.687,3.687,0,0,0-3.687-3.687H57.02a3.687,3.687,0,0,0-3.687,3.687v15.957A19.646,19.646,0,0,0,71.1,158.935a1.313,1.313,0,0,1,1.188-.753H92.237a.526.526,0,0,1,.394.873c-.788.914-1.5,1.921-2.338,2.756-1.5,1.5-3.558,2.612-4.627,4.458-1.053,1.82-1,4.155-1.553,6.234-.537,2.01-1.768,4-1.768,6.176s1.231,4.167,1.768,6.176c.556,2.079.5,4.413,1.553,6.234,1.069,1.847,3.128,2.959,4.627,4.458.824.824,1.532,1.816,2.308,2.721a.526.526,0,0,1-.4.866H72.269a1.314,1.314,0,0,1-1.186-.75,19.646,19.646,0,0,0-17.75-11.218v15.957a3.687,3.687,0,0,0,3.687,3.687H157.3a3.687,3.687,0,0,0,3.687-3.687V187.166a19.646,19.646,0,0,0-17.75,11.218,1.314,1.314,0,0,1-1.186.75h-19.93a.526.526,0,0,1-.4-.866c.777-.9,1.485-1.9,2.308-2.721,1.5-1.5,3.558-2.612,4.627-4.458,1.053-1.82,1-4.155,1.553-6.234.537-2.01,1.768-4,1.768-6.177s-1.231-4.167-1.768-6.176c-.556-2.079-.5-4.413-1.553-6.234-1.069-1.847-3.128-2.959-4.627-4.458-.834-.834-1.549-1.842-2.338-2.756a.526.526,0,0,1,.394-.873h19.947A1.314,1.314,0,0,1,143.221,158.935Z" transform="translate(-53.333 -150.548)"/></g><g transform="translate(14.002 68.555)"><path class="m" d="M154.715,291.05v8.4a3.95,3.95,0,0,1-3.95,3.95H53.334v2.587a3.687,3.687,0,0,0,3.687,3.687H157.3a3.687,3.687,0,0,0,3.687-3.687V290.026a19.615,19.615,0,0,0-6.274,1.024Z" transform="translate(-53.334 -290.026)"/></g><g transform="translate(115.384 32.178)"><path class="m" d="M442.094,150.548h-2.587v18.62a19.621,19.621,0,0,0,6.274,1.024V154.235A3.687,3.687,0,0,0,442.094,150.548Z" transform="translate(-439.506 -150.548)"/></g><path class="k" d="M245.8,227.229a13.027,13.027,0,0,1-3.146-1.443.96.96,0,0,1,.537-1.188,2.234,2.234,0,0,1,1.8.217,2.7,2.7,0,0,1,.353.195,1.963,1.963,0,0,0,2.387-3.075,5.5,5.5,0,0,0-2.055-1.122v-.071a1.975,1.975,0,0,0-3.951,0v.185a4.841,4.841,0,0,0-2.992,3.663,4.369,4.369,0,0,0,1.472,4.3,15.46,15.46,0,0,0,4.275,2.067,1.123,1.123,0,0,1,.853,1.35,1.646,1.646,0,0,1-1.647,1.4,3.2,3.2,0,0,1-2.37-.61,1.975,1.975,0,0,0-2.851.775,2.021,2.021,0,0,0,.754,2.574,6.822,6.822,0,0,0,2.5,1.072v.079a1.975,1.975,0,0,0,3.951,0v-.3a5.618,5.618,0,0,0,3.554-4.33A5.061,5.061,0,0,0,245.8,227.229Z" transform="translate(-175.72 -168.8)"/><g transform="translate(50.639 42.998)"><path class="k" d="M210.08,226.6a17.191,17.191,0,1,1,17.19-17.191A17.21,17.21,0,0,1,210.08,226.6Zm0-30.431a13.24,13.24,0,1,0,13.24,13.24A13.256,13.256,0,0,0,210.08,196.17Z" transform="translate(-192.889 -192.22)"/></g></g></svg>