<svg width="24" height="24" viewBox="0 0 24 24" fill="none" xmlns="http://www.w3.org/2000/svg">
<g clip-path="url(#clip0_691_384)">
<path d="M13.4718 6.38434C12.8302 5.90219 10.9308 5.87282 9.97183 6.3403C9.18111 6.70878 8.55483 7.36023 8.21483 8.16791C8.01976 8.81575 7.86392 9.47491 7.74817 10.1418H3.05992V11.8813H7.43083C7.3585 12.3053 7.28558 12.744 7.21325 13.168H2V14.9075H6.95192C6.84329 15.5553 6.78013 16.21 6.76292 16.8667C6.9805 18.2996 7.89575 19.0009 9.53667 19.0009C10.2703 19.0445 10.9984 18.8491 11.613 18.4436C12.2277 18.038 12.6962 17.4439 12.9492 16.7492C13.3575 15.8577 14.4303 9.92211 14.4594 8.51851C14.4734 7.39329 14.285 6.99864 13.4718 6.38434ZM10.9162 12.7857C10.3498 15.9728 10.1177 16.6617 9.74025 16.2794C9.60958 16.1479 9.71108 15.3292 10.1031 12.9906C10.7448 9.34951 10.8579 8.8239 11.1052 8.73639C11.4395 8.59016 11.4972 8.63421 11.4972 9.10168C11.4967 9.36654 11.2353 11.0332 10.9157 12.7874L10.9162 12.7857ZM16.5361 6.14943C16.5361 6.22225 16.0426 9.10227 15.4324 12.5232C14.7907 16.1778 14.4017 18.8241 14.474 18.8969C14.9404 19.0052 15.4213 19.0348 15.8973 18.9844L17.1894 18.9404L17.5814 16.8937C17.8147 15.651 17.9734 15.0514 17.9897 15.3585C18.0043 15.6363 18.0621 16.5572 18.1204 17.4052L18.2073 18.9404L19.5723 18.9844C20.0725 19.0272 20.5761 18.9978 21.068 18.8969C21.0958 17.7307 21.0522 16.5639 20.9373 15.4032L20.704 12.0263L21.8946 9.14866C22.3402 8.17486 22.7098 7.16756 23 6.13592C22.5355 6.01644 22.055 5.97204 21.5767 6.00437H20.2408L19.6575 7.46611C19.5098 7.93591 19.2998 8.38353 19.0333 8.79688C19.054 8.34444 19.1126 7.89456 19.2083 7.45202C19.3004 7.00985 19.3442 6.55889 19.339 6.10715C19.2363 5.94565 16.5355 5.97501 16.5355 6.15061L16.5361 6.14943Z" fill="#A1A5C6"/>
</g>
<defs>
<clipPath id="clip0_691_384">
<rect width="21" height="13" fill="white" transform="translate(2 6)"/>
</clipPath>
</defs>
</svg>
