<svg xmlns="http://www.w3.org/2000/svg" viewBox="0 0 2000 1250" width="2000" height="1250" preserveAspectRatio="xMidYMid meet" style="width: 100%; height: 100%; transform: translate3d(0px, 0px, 0px); content-visibility: visible;"><defs><clipPath id="__lottie_element_2"><rect width="2000" height="1250" x="0" y="0"/></clipPath></defs><g clip-path="url(#__lottie_element_2)"><g transform="matrix(0.28147411346435547,0.5524240732192993,-0.5524240732192993,0.28147411346435547,1041.3486328125,635.9564208984375)" opacity="1" style="display: block;"><g opacity="1" transform="matrix(1,0,0,1,0,0)"><path stroke-linecap="round" stroke-linejoin="round" fill-opacity="0" stroke="rgb(255,255,255)" stroke-opacity="1" stroke-width="74" d=" M-210,54 C-210,54 197,54 197,54"/></g></g><g transform="matrix(-0.20133960247039795,0.5863978266716003,-0.5863978266716003,-0.20133960247039795,1138.2974853515625,655.3355712890625)" opacity="1" style="display: block;"><g opacity="1" transform="matrix(1,0,0,1,0,0)"><path stroke-linecap="round" stroke-linejoin="round" fill-opacity="0" stroke="rgb(255,255,255)" stroke-opacity="1" stroke-width="74" d=" M87.22799682617188,54 C138.9759979248047,54 197,54 197,54"/></g></g><g style="display: block;" transform="matrix(0.28147411346435547,0.5524240732192993,-0.5524240732192993,0.28147411346435547,1041.3486328125,635.9564208984375)" opacity="1"><g opacity="1" transform="matrix(1,0,0,1,0,0)"><path stroke-linecap="round" stroke-linejoin="round" fill-opacity="0" stroke="rgb(255,255,255)" stroke-opacity="1" stroke-width="74" d="M0 0"/></g></g><g transform="matrix(4.886209964752197,0,0,4.886209964752197,385.10467529296875,823.3729248046875)" opacity="1" style="display: block;"><g opacity="1" transform="matrix(1,0,0,1,0,0)"><g opacity="1" transform="matrix(1,0,0,1,0,0)"><path fill="rgb(214,214,214)" fill-opacity="1" d=" M92.9000015258789,26.56999969482422 C92.1500015258789,31.389999389648438 88.4800033569336,31.389999389648438 84.93000030517578,31.389999389648438 C84.93000030517578,31.389999389648438 82.9000015258789,31.389999389648438 82.9000015258789,31.389999389648438 C82.9000015258789,31.389999389648438 84.33000183105469,22.389999389648438 84.33000183105469,22.389999389648438 C84.33000183105469,22.389999389648438 84.31999969482422,22.389999389648438 84.31999969482422,22.389999389648438 C84.4000015258789,21.850000381469727 84.87999725341797,21.440000534057617 85.43000030517578,21.440000534057617 C85.43000030517578,21.440000534057617 86.36000061035156,21.440000534057617 86.36000061035156,21.440000534057617 C88.77999877929688,21.440000534057617 91.06999969482422,21.440000534057617 92.25,22.81999969482422 C92.94999694824219,23.639999389648438 93.16000366210938,24.8700008392334 92.88999938964844,26.56999969482422 C92.88999938964844,26.56999969482422 92.9000015258789,26.56999969482422 92.9000015258789,26.56999969482422z M91.3499984741211,13.989999771118164 C91.3499984741211,13.989999771118164 77.91999816894531,13.989999771118164 77.91999816894531,13.989999771118164 C77,13.989999771118164 76.20999908447266,14.649999618530273 76.06999969482422,15.5600004196167 C76.06999969482422,15.5600004196167 70.63999938964844,50 70.63999938964844,50 C70.58999633789062,50.290000915527344 70.66999816894531,50.599998474121094 70.83999633789062,50.84000015258789 C71.0199966430664,51.08000183105469 71.27999877929688,51.2400016784668 71.56999969482422,51.279998779296875 C71.62999725341797,51.290000915527344 71.69000244140625,51.290000915527344 71.75,51.279998779296875 C71.75,51.279998779296875 78.16999816894531,51.279998779296875 78.16999816894531,51.279998779296875 C78.16999816894531,51.279998779296875 78.16000366210938,51.279998779296875 78.16000366210938,51.279998779296875 C79.08000183105469,51.279998779296875 79.87000274658203,50.61000061035156 80.01000213623047,49.70000076293945 C80.01000213623047,49.70000076293945 81.47000122070312,40.41999816894531 81.47000122070312,40.41999816894531 C81.61000061035156,39.5099983215332 82.4000015258789,38.84000015258789 83.31999969482422,38.84000015258789 C83.31999969482422,38.84000015258789 87.55999755859375,38.84000015258789 87.55999755859375,38.84000015258789 C96.41000366210938,38.84000015258789 101.5199966430664,34.560001373291016 102.86000061035156,26.09000015258789 C103.45999908447266,22.3799991607666 102.86000061035156,19.459999084472656 101.13999938964844,17.420000076293945 C99.2300033569336,15.170000076293945 95.83999633789062,13.989999771118164 91.3499984741211,13.989999771118164 C91.3499984741211,13.989999771118164 91.3499984741211,13.989999771118164 91.3499984741211,13.989999771118164z"/></g><g opacity="1" transform="matrix(1,0,0,1,0,0)"><path fill="rgb(214,214,214)" fill-opacity="1" d=" M122.75,38.91999816894531 C122.75,38.91999816894531 122.75,38.93000030517578 122.75,38.93000030517578 C122.2300033569336,42.52000045776367 119.12000274658203,45.150001525878906 115.5,45.06999969482422 C112.76000213623047,45.36000061035156 110.30999755859375,43.36000061035156 110.0199966430664,40.630001068115234 C109.95999908447266,40.02000045776367 110.0199966430664,39.400001525878906 110.18000030517578,38.810001373291016 C110.69000244140625,35.22999954223633 113.76000213623047,32.58000183105469 117.37999725341797,32.619998931884766 C119,32.529998779296875 120.58000183105469,33.18000030517578 121.66999816894531,34.380001068115234 C122.68000030517578,35.66999816894531 123.06999969482422,37.33000183105469 122.75,38.93000030517578 C122.75,38.93000030517578 122.75,38.91999816894531 122.75,38.91999816894531z M131.75,26.40999984741211 C131.75,26.40999984741211 125.31999969482422,26.40999984741211 125.31999969482422,26.40999984741211 C124.7699966430664,26.40999984741211 124.30000305175781,26.809999465942383 124.20999908447266,27.350000381469727 C124.20999908447266,27.350000381469727 123.91999816894531,29.149999618530273 123.91999816894531,29.149999618530273 C123.91999816894531,29.149999618530273 123.47000122070312,28.5 123.47000122070312,28.5 C122.08000183105469,26.479999542236328 118.97000122070312,25.799999237060547 115.87999725341797,25.799999237060547 C108.7699966430664,25.799999237060547 102.70999908447266,31.190000534057617 101.5199966430664,38.7400016784668 C100.83999633789062,42.220001220703125 101.70999908447266,45.83000183105469 103.91000366210938,48.61000061035156 C105.87000274658203,50.91999816894531 108.69000244140625,51.88999938964844 112.0199966430664,51.88999938964844 C112.0199966430664,51.88999938964844 112.01000213623047,51.88999938964844 112.01000213623047,51.88999938964844 C115.3499984741211,51.93000030517578 118.56999969482422,50.59000015258789 120.91000366210938,48.209999084472656 C120.91000366210938,48.209999084472656 120.62999725341797,50 120.62999725341797,50 C120.54000091552734,50.61000061035156 120.94999694824219,51.18000030517578 121.55999755859375,51.279998779296875 C121.55999755859375,51.279998779296875 127.5,51.279998779296875 127.5,51.279998779296875 C128.4199981689453,51.279998779296875 129.1999969482422,50.61000061035156 129.33999633789062,49.70000076293945 C129.33999633789062,49.70000076293945 132.82000732421875,27.690000534057617 132.82000732421875,27.690000534057617 C132.9199981689453,27.079999923706055 132.5,26.510000228881836 131.88999938964844,26.40999984741211 C131.88999938964844,26.40999984741211 131.75,26.40999984741211 131.75,26.40999984741211z"/></g><g opacity="1" transform="matrix(1,0,0,1,0,0)"><path fill="rgb(214,214,214)" fill-opacity="1" d=" M166.3000030517578,26.40999984741211 C166.3000030517578,26.40999984741211 159.8300018310547,26.40999984741211 159.8300018310547,26.40999984741211 C159.2100067138672,26.40999984741211 158.63999938964844,26.709999084472656 158.2899932861328,27.229999542236328 C158.2899932861328,27.229999542236328 149.3699951171875,40.36000061035156 149.3699951171875,40.36000061035156 C149.3699951171875,40.36000061035156 145.6199951171875,27.75 145.6199951171875,27.75 C145.6199951171875,27.75 145.6199951171875,27.739999771118164 145.6199951171875,27.739999771118164 C145.3800048828125,26.950000762939453 144.66000366210938,26.420000076293945 143.83999633789062,26.40999984741211 C143.83999633789062,26.40999984741211 137.47999572753906,26.40999984741211 137.47999572753906,26.40999984741211 C136.86000061035156,26.40999984741211 136.36000061035156,26.899999618530273 136.36000061035156,27.520000457763672 C136.36000061035156,27.639999389648438 136.3800048828125,27.770000457763672 136.4199981689453,27.889999389648438 C136.4199981689453,27.889999389648438 143.5,48.75 143.5,48.75 C143.5,48.75 136.80999755859375,58.20000076293945 136.80999755859375,58.20000076293945 C136.80999755859375,58.20000076293945 136.82000732421875,58.20000076293945 136.82000732421875,58.20000076293945 C136.55999755859375,58.540000915527344 136.52000427246094,59.0099983215332 136.7100067138672,59.38999938964844 C136.91000366210938,59.77000045776367 137.3000030517578,60 137.72999572753906,60 C137.72999572753906,60 144.17999267578125,60 144.17999267578125,60 C144.77999877929688,59.9900016784668 145.33999633789062,59.689998626708984 145.67999267578125,59.20000076293945 C145.67999267578125,59.20000076293945 167.25,28.170000076293945 167.25,28.170000076293945 C167.60000610351562,27.65999984741211 167.47000122070312,26.969999313354492 166.97000122070312,26.610000610351562 C166.77000427246094,26.469999313354492 166.5399932861328,26.40999984741211 166.3000030517578,26.40999984741211 C166.3000030517578,26.40999984741211 166.3000030517578,26.40999984741211 166.3000030517578,26.40999984741211z"/></g><g opacity="1" transform="matrix(1,0,0,1,0,0)"><path fill="rgb(255,255,255)" fill-opacity="1" d=" M189.50999450683594,26.56999969482422 C188.75999450683594,31.389999389648438 185.08999633789062,31.389999389648438 181.52999877929688,31.389999389648438 C181.52999877929688,31.389999389648438 179.5,31.389999389648438 179.5,31.389999389648438 C179.5,31.389999389648438 180.92999267578125,22.389999389648438 180.92999267578125,22.389999389648438 C180.92999267578125,22.389999389648438 180.92999267578125,22.389999389648438 180.92999267578125,22.389999389648438 C181.02000427246094,21.84000015258789 181.49000549316406,21.440000534057617 182.0399932861328,21.440000534057617 C182.0399932861328,21.440000534057617 183,21.440000534057617 183,21.440000534057617 C185.4199981689453,21.440000534057617 187.7100067138672,21.440000534057617 188.88999938964844,22.81999969482422 C189.58999633789062,23.639999389648438 189.80999755859375,24.8700008392334 189.5399932861328,26.56999969482422 C189.5399932861328,26.56999969482422 189.50999450683594,26.56999969482422 189.50999450683594,26.56999969482422z M187.9600067138672,13.989999771118164 C187.9600067138672,13.989999771118164 174.52000427246094,13.989999771118164 174.52000427246094,13.989999771118164 C173.61000061035156,13.989999771118164 172.8300018310547,14.649999618530273 172.69000244140625,15.5600004196167 C172.69000244140625,15.5600004196167 167.25,50 167.25,50 C167.1999969482422,50.290000915527344 167.27999877929688,50.59000015258789 167.4499969482422,50.83000183105469 C167.6300048828125,51.06999969482422 167.8800048828125,51.22999954223633 168.1699981689453,51.279998779296875 C168.22999572753906,51.290000915527344 168.2899932861328,51.290000915527344 168.35000610351562,51.279998779296875 C168.35000610351562,51.279998779296875 175.25,51.279998779296875 175.25,51.279998779296875 C175.88999938964844,51.279998779296875 176.44000244140625,50.810001373291016 176.5399932861328,50.18000030517578 C176.5399932861328,50.18000030517578 178.07000732421875,40.43000030517578 178.07000732421875,40.43000030517578 C178.2100067138672,39.52000045776367 179,38.849998474121094 179.9199981689453,38.849998474121094 C179.9199981689453,38.849998474121094 184.16000366210938,38.849998474121094 184.16000366210938,38.849998474121094 C193.00999450683594,38.849998474121094 198.1199951171875,34.58000183105469 199.4600067138672,26.100000381469727 C200.05999755859375,22.399999618530273 199.4600067138672,19.479999542236328 197.74000549316406,17.43000030517578 C195.83999633789062,15.170000076293945 192.4600067138672,13.989999771118164 187.9600067138672,13.989999771118164 C187.9600067138672,13.989999771118164 187.9600067138672,13.989999771118164 187.9600067138672,13.989999771118164z"/></g><g opacity="1" transform="matrix(1,0,0,1,0,0)"><path fill="rgb(255,255,255)" fill-opacity="1" d=" M219.52000427246094,38.93000030517578 C219,42.52000045776367 215.8800048828125,45.15999984741211 212.25,45.06999969482422 C210.6199951171875,45.25 209,44.599998474121094 207.92999267578125,43.349998474121094 C206.8699951171875,42.099998474121094 206.5,40.400001525878906 206.92999267578125,38.810001373291016 C207.42999267578125,35.22999954223633 210.50999450683594,32.58000183105469 214.1300048828125,32.619998931884766 C215.75,32.529998779296875 217.32000732421875,33.18000030517578 218.41000366210938,34.380001068115234 C219.42999267578125,35.65999984741211 219.85000610351562,37.31999969482422 219.52000427246094,38.93000030517578 C219.52000427246094,38.93000030517578 219.52000427246094,38.93000030517578 219.52000427246094,38.93000030517578z M228.47999572753906,26.40999984741211 C228.47999572753906,26.40999984741211 222.0500030517578,26.40999984741211 222.0500030517578,26.40999984741211 C221.5,26.40999984741211 221.0399932861328,26.809999465942383 220.9499969482422,27.350000381469727 C220.9499969482422,27.350000381469727 220.66000366210938,29.149999618530273 220.66000366210938,29.149999618530273 C220.66000366210938,29.149999618530273 220.2100067138672,28.5 220.2100067138672,28.5 C218.82000732421875,26.479999542236328 215.7100067138672,25.799999237060547 212.6199951171875,25.799999237060547 C205.50999450683594,25.799999237060547 199.4499969482422,31.190000534057617 198.25999450683594,38.7400016784668 C197.5800018310547,42.220001220703125 198.4499969482422,45.83000183105469 200.66000366210938,48.61000061035156 C202.6199951171875,50.91999816894531 205.42999267578125,51.88999938964844 208.77000427246094,51.88999938964844 C208.77000427246094,51.88999938964844 208.75999450683594,51.88999938964844 208.75999450683594,51.88999938964844 C212.10000610351562,51.91999816894531 215.32000732421875,50.59000015258789 217.66000366210938,48.209999084472656 C217.66000366210938,48.209999084472656 217.3699951171875,50 217.3699951171875,50 C217.27999877929688,50.61000061035156 217.69000244140625,51.18000030517578 218.3000030517578,51.279998779296875 C218.3000030517578,51.279998779296875 224.25,51.279998779296875 224.25,51.279998779296875 C225.1699981689453,51.279998779296875 225.9499969482422,50.61000061035156 226.08999633789062,49.70000076293945 C226.08999633789062,49.70000076293945 229.57000732421875,27.690000534057617 229.57000732421875,27.690000534057617 C229.6199951171875,27.389999389648438 229.5399932861328,27.09000015258789 229.36000061035156,26.850000381469727 C229.17999267578125,26.610000610351562 228.9199981689453,26.459999084472656 228.6199951171875,26.40999984741211 C228.6199951171875,26.40999984741211 228.47999572753906,26.40999984741211 228.47999572753906,26.40999984741211z"/></g><g opacity="1" transform="matrix(1,0,0,1,0,0)"><g opacity="1" transform="matrix(1,0,0,1,0,0)"><path fill="rgb(255,255,255)" fill-opacity="1" d=" M236.05999755859375,14.930000305175781 C236.05999755859375,14.930000305175781 230.5500030517578,50 230.5500030517578,50 C230.5,50.290000915527344 230.57000732421875,50.599998474121094 230.75,50.84000015258789 C230.9199981689453,51.08000183105469 231.19000244140625,51.2400016784668 231.47999572753906,51.279998779296875 C231.5399932861328,51.290000915527344 231.60000610351562,51.290000915527344 231.66000366210938,51.279998779296875 C231.66000366210938,51.279998779296875 237.1999969482422,51.279998779296875 237.1999969482422,51.279998779296875 C238.1199951171875,51.279998779296875 238.89999389648438,50.61000061035156 239.0399932861328,49.70000076293945 C239.0399932861328,49.70000076293945 244.5,15.289999961853027 244.5,15.289999961853027 C244.5500030517578,15 244.47999572753906,14.6899995803833 244.3000030517578,14.449999809265137 C244.1300048828125,14.210000038146973 243.86000061035156,14.039999961853027 243.57000732421875,14 C243.57000732421875,14 237.19000244140625,14 237.19000244140625,14 C236.63999938964844,13.989999771118164 236.16000366210938,14.380000114440918 236.05999755859375,14.930000305175781 C236.05999755859375,14.930000305175781 236.05999755859375,14.930000305175781 236.05999755859375,14.930000305175781z"/></g></g><g opacity="1" transform="matrix(1,0,0,1,0,0)"><path fill="rgb(38,58,127)" fill-opacity="1" d=" M14.25,57.9900016784668 C14.25,57.9900016784668 15.279999732971191,51.400001525878906 15.279999732971191,51.400001525878906 C15.279999732971191,51.400001525878906 13.029999732971191,51.349998474121094 13.029999732971191,51.349998474121094 C13.029999732971191,51.349998474121094 2.0899999141693115,51.349998474121094 2.0899999141693115,51.349998474121094 C2.0899999141693115,51.349998474121094 9.680000305175781,2.7799999713897705 9.680000305175781,2.7799999713897705 C9.699999809265137,2.630000114440918 9.770000457763672,2.5 9.890000343322754,2.4000000953674316 C10,2.299999952316284 10.149999618530273,2.25 10.289999961853027,2.25 C10.289999961853027,2.25 28.719999313354492,2.25 28.719999313354492,2.25 C34.83000183105469,2.25 39.04999923706055,3.5299999713897705 41.25,6.070000171661377 C42.22999954223633,7.150000095367432 42.91999816894531,8.449999809265137 43.2599983215332,9.869999885559082 C43.599998474121094,11.600000381469727 43.599998474121094,13.390000343322754 43.2599983215332,15.119999885559082 C43.2599983215332,15.119999885559082 43.2599983215332,16.610000610351562 43.2599983215332,16.610000610351562 C43.2599983215332,16.610000610351562 44.29999923706055,17.200000762939453 44.29999923706055,17.200000762939453 C45.09000015258789,17.610000610351562 45.79999923706055,18.149999618530273 46.38999938964844,18.809999465942383 C47.29999923706055,19.90999984741211 47.88999938964844,21.239999771118164 48.08000183105469,22.649999618530273 C48.31999969482422,24.510000228881836 48.2400016784668,26.389999389648438 47.84000015258789,28.219999313354492 C47.45000076293945,30.43000030517578 46.689998626708984,32.56999969482422 45.59000015258789,34.529998779296875 C44.68000030517578,36.08000183105469 43.459999084472656,37.43000030517578 42,38.47999954223633 C40.540000915527344,39.5 38.900001525878906,40.2400016784668 37.16999816894531,40.66999816894531 C35.209999084472656,41.15999984741211 33.189998626708984,41.400001525878906 31.170000076293945,41.380001068115234 C31.170000076293945,41.380001068115234 29.690000534057617,41.380001068115234 29.690000534057617,41.380001068115234 C27.559999465942383,41.38999938964844 25.75,42.939998626708984 25.43000030517578,45.04999923706055 C25.43000030517578,45.04999923706055 25.329999923706055,45.63999938964844 25.329999923706055,45.63999938964844 C25.329999923706055,45.63999938964844 23.510000228881836,57.25 23.510000228881836,57.25 C23.510000228881836,57.25 23.43000030517578,57.66999816894531 23.43000030517578,57.66999816894531 C23.420000076293945,57.7599983215332 23.3799991607666,57.849998474121094 23.309999465942383,57.90999984741211 C23.260000228881836,57.95000076293945 23.190000534057617,57.9900016784668 23.1200008392334,57.9900016784668 C23.1200008392334,57.9900016784668 14.25,57.9900016784668 14.25,57.9900016784668z"/></g><g opacity="1" transform="matrix(1,0,0,1,0,0)"><path fill="rgb(255,255,255)" fill-opacity="1" d=" M45.22999954223633,15.430000305175781 C45.16999816894531,15.779999732971191 45.11000061035156,16.18000030517578 45.040000915527344,16.520000457763672 C42.59000015258789,29.09000015258789 34.220001220703125,33.439998626708984 23.520000457763672,33.439998626708984 C23.520000457763672,33.439998626708984 18.059999465942383,33.439998626708984 18.059999465942383,33.439998626708984 C16.75,33.439998626708984 15.640000343322754,34.400001525878906 15.4399995803833,35.689998626708984 C15.4399995803833,35.689998626708984 12.649999618530273,53.369998931884766 12.649999618530273,53.369998931884766 C12.649999618530273,53.369998931884766 11.859999656677246,58.38999938964844 11.859999656677246,58.38999938964844 C11.800000190734863,58.7599983215332 11.890000343322754,59.13999938964844 12.109999656677246,59.439998626708984 C12.329999923706055,59.7400016784668 12.65999984741211,59.95000076293945 13.029999732971191,60 C13.100000381469727,60.0099983215332 13.180000305175781,60.0099983215332 13.25,60 C13.25,60 22.90999984741211,60 22.90999984741211,60 C24.049999237060547,60 25.020000457763672,59.16999816894531 25.200000762939453,58.040000915527344 C25.200000762939453,58.040000915527344 25.299999237060547,57.54999923706055 25.299999237060547,57.54999923706055 C25.299999237060547,57.54999923706055 27.110000610351562,46 27.110000610351562,46 C27.110000610351562,46 27.229999542236328,45.380001068115234 27.229999542236328,45.380001068115234 C27.40999984741211,44.25 28.389999389648438,43.40999984741211 29.530000686645508,43.40999984741211 C29.530000686645508,43.40999984741211 30.979999542236328,43.40999984741211 30.979999542236328,43.40999984741211 C40.34000015258789,43.40999984741211 47.66999816894531,39.61000061035156 49.810001373291016,28.610000610351562 C50.70000076293945,24 50.25,20.18000030517578 47.869998931884766,17.479999542236328 C47.119998931884766,16.639999389648438 46.22999954223633,15.949999809265137 45.22999954223633,15.430000305175781 C45.22999954223633,15.430000305175781 45.22999954223633,15.430000305175781 45.22999954223633,15.430000305175781z"/></g><g opacity="1" transform="matrix(1,0,0,1,0,0)"><path fill="rgb(214,214,214)" fill-opacity="1" d=" M43.07099914550781,13.640000343322754 C42.683998107910156,13.520999908447266 42.297000885009766,13.413000106811523 41.86899948120117,13.315999984741211 C41.441001892089844,13.218999862670898 41.05400085449219,13.144000053405762 40.61600112915039,13.067999839782715 C40.61600112915039,13.067999839782715 40.61600112915039,13.067999839782715 40.61600112915039,13.067999839782715 C38.97600173950195,12.79800033569336 37.314998626708984,12.668999671936035 35.665000915527344,12.680000305175781 C35.665000915527344,12.680000305175781 20.709999084472656,12.680000305175781 20.709999084472656,12.680000305175781 C19.538999557495117,12.680000305175781 18.530000686645508,13.595999717712402 18.347000122070312,14.826000213623047 C18.347000122070312,14.826000213623047 15.137999534606934,36.19300079345703 15.137999534606934,36.19300079345703 C15.137999534606934,36.19300079345703 15.045999526977539,36.819000244140625 15.045999526977539,36.819000244140625 C15.260000228881836,35.41699981689453 16.584999084472656,34.73699951171875 17.909000396728516,34.73699951171875 C17.909000396728516,34.73699951171875 23.511999130249023,34.73699951171875 23.511999130249023,34.73699951171875 C34.52399826049805,34.73699951171875 42.979000091552734,29.645999908447266 45.505001068115234,15.947999954223633 C45.505001068115234,15.947999954223633 45.505001068115234,15.947999954223633 45.505001068115234,15.947999954223633 C45.59700012207031,15.505999565124512 45.59700012207031,14.925000190734863 45.617000579833984,14.482999801635742 C44.96500015258789,14.159000396728516 44.32400131225586,14.006999969482422 43.63100051879883,13.802000045776367 C43.63100051879883,13.802000045776367 43.07099914550781,13.640000343322754 43.07099914550781,13.640000343322754z"/></g><g opacity="1" transform="matrix(1,0,0,1,0,0)"><path fill="rgb(214,214,214)" fill-opacity="1" d=" M18.969999313354492,15.329999923706055 C19.1299991607666,14.210000038146973 20.079999923706055,13.369999885559082 21.219999313354492,13.359999656677246 C21.219999313354492,13.359999656677246 35.7599983215332,13.359999656677246 35.7599983215332,13.359999656677246 C37.36000061035156,13.34000015258789 38.959999084472656,13.460000038146973 40.54999923706055,13.710000038146973 C40.959999084472656,13.779999732971191 41.369998931884766,13.859999656677246 41.7599983215332,13.949999809265137 C42.150001525878906,14.039999961853027 42.5099983215332,14.140000343322754 42.91999816894531,14.25 C42.91999816894531,14.25 43.459999084472656,14.420000076293945 43.459999084472656,14.420000076293945 C43.459999084472656,14.420000076293945 43.459999084472656,14.40999984741211 43.459999084472656,14.40999984741211 C44.15999984741211,14.640000343322754 44.83000183105469,14.930000305175781 45.470001220703125,15.270000457763672 C46.220001220703125,10.59000015258789 45.470001220703125,7.409999847412109 42.959999084472656,4.53000020980835 C40.20000076293945,1.3600000143051147 35.25,0 28.84000015258789,0 C28.84000015258789,0 10.34000015258789,0 10.34000015258789,0 C9.029999732971191,0 7.929999828338623,0.9599999785423279 7.730000019073486,2.25 C7.730000019073486,2.25 0,51.56999969482422 0,51.56999969482422 C-0.07000000029802322,51.9900016784668 0.03999999910593033,52.43000030517578 0.28999999165534973,52.77000045776367 C0.5400000214576721,53.11000061035156 0.9200000166893005,53.34000015258789 1.340000033378601,53.400001525878906 C1.4199999570846558,53.40999984741211 1.5099999904632568,53.40999984741211 1.590000033378601,53.400001525878906 C1.590000033378601,53.400001525878906 13.010000228881836,53.400001525878906 13.010000228881836,53.400001525878906 C13.010000228881836,53.400001525878906 15.880000114440918,35.029998779296875 15.880000114440918,35.029998779296875 C15.880000114440918,35.029998779296875 18.969999313354492,15.329999923706055 18.969999313354492,15.329999923706055z"/></g></g></g><g transform="matrix(1.333299994468689,0,0,1.333299994468689,96,136)" opacity="1" style="display: block;"><g opacity="1" transform="matrix(1,0,0,1,0,0)"><g opacity="1" transform="matrix(1,0,0,1,0,0)"><path fill="rgb(255,255,255)" fill-opacity="1" d=" M121.87999725341797,90.30000305175781 C128.17999267578125,76.27999877929688 134.47000122070312,62.16999816894531 140.77000427246094,48.150001525878906 C147.14999389648438,62.16999816894531 153.60000610351562,76.27999877929688 160.0500030517578,90.30000305175781 C160.0500030517578,90.30000305175781 121.87999725341797,90.30000305175781 121.87999725341797,90.30000305175781z M203.92999267578125,130.8800048828125 C184.64999389648438,88.7300033569336 165.3000030517578,46.5 146.02000427246094,4.269999980926514 C144.97000122070312,1.8700000047683716 143.47000122070312,1.0499999523162842 140.9199981689453,1.0499999523162842 C138.44000244140625,1.1200000047683716 137.39999389648438,2.4700000286102295 136.5,4.420000076293945 C126.5999984741211,25.940000534057617 116.62000274658203,47.47999954223633 106.63999938964844,69 C106.63999938964844,69 105.5199966430664,71.47000122070312 105.5199966430664,71.47000122070312 C105.5199966430664,71.47000122070312 105.44999694824219,71.62000274658203 105.44999694824219,71.62000274658203 C105.44999694824219,71.62000274658203 103.72000122070312,75.44999694824219 103.72000122070312,75.44999694824219 C91.48999786376953,101.7699966430664 80.54000091552734,125.62000274658203 77.98999786376953,131.08999633789062 C76.19000244140625,134.99000549316406 77.69000244140625,137.1699981689453 81.97000122070312,137.1699981689453 C81.97000122070312,137.1699981689453 96.13999938964844,137.1699981689453 96.13999938964844,137.1699981689453 C100.41000366210938,137.1699981689453 101.7699966430664,136.27000427246094 103.33999633789062,132.44000244140625 C103.33999633789062,132.44000244140625 105.5199966430664,127.33999633789062 105.5199966430664,127.33999633789062 C107.47000122070312,122.69000244140625 109.48999786376953,118.04000091552734 111.37000274658203,113.31999969482422 C112.05000305175781,111.58999633789062 112.87000274658203,110.91999816894531 114.88999938964844,110.91999816894531 C131.77000427246094,110.98999786376953 148.63999938964844,110.98999786376953 165.52000427246094,110.91999816894531 C165.52000427246094,110.91999816894531 167.1699981689453,110.91999816894531 167.1699981689453,110.91999816894531 C168.97000122070312,110.91999816894531 169.86000061035156,111.36000061035156 170.5399932861328,113.08999633789062 C172.33999633789062,117.58999633789062 174.2100067138672,122.0199966430664 176.08999633789062,126.5199966430664 C176.08999633789062,126.5199966430664 176.1699981689453,126.58999633789062 176.1699981689453,126.58999633789062 C176.1699981689453,126.58999633789062 176.32000732421875,126.97000122070312 176.32000732421875,126.97000122070312 C176.32000732421875,126.97000122070312 178.7899932861328,132.74000549316406 178.7899932861328,132.74000549316406 C180.05999755859375,135.80999755859375 182.08999633789062,137.5500030517578 185.69000244140625,137.32000732421875 C187.94000244140625,137.08999633789062 197.38999938964844,137.25 199.8699951171875,137.32000732421875 C204.3800048828125,137.25 205.8800048828125,135 203.92999267578125,130.8800048828125 C203.92999267578125,130.8800048828125 203.92999267578125,130.8800048828125 203.92999267578125,130.8800048828125z M636.97998046875,115.05000305175781 C636.22998046875,115.05000305175781 635.5499877929688,115.05000305175781 634.7999877929688,115.05000305175781 C634.7999877929688,115.05000305175781 634.7999877929688,109.12000274658203 634.7999877929688,109.12000274658203 C635.47998046875,109.12000274658203 636.219970703125,109.12000274658203 636.9000244140625,109.12000274658203 C638.6300048828125,109.12000274658203 640.280029296875,109.05000305175781 641.8499755859375,109.19999694824219 C643.6500244140625,109.3499984741211 644.77001953125,110.4000015258789 644.7000122070312,112.19999694824219 C644.6300048828125,113.8499984741211 643.6500244140625,114.97000122070312 641.9299926757812,115.05000305175781 C640.3499755859375,115.05000305175781 638.7000122070312,115.05000305175781 636.97998046875,115.05000305175781 C636.97998046875,115.05000305175781 636.97998046875,115.05000305175781 636.97998046875,115.05000305175781z M642.97998046875,117.06999969482422 C642.97998046875,117.06999969482422 645.0800170898438,120.06999969482422 645.0800170898438,120.06999969482422 C646.3499755859375,121.87000274658203 647.5599975585938,123.5999984741211 648.8300170898438,125.4000015258789 C646.6500244140625,126.30000305175781 645.3699951171875,125.62999725341797 644.5499877929688,123.9000015258789 C644.25,123.30000305175781 643.8099975585938,122.69999694824219 643.4299926757812,122.0999984741211 C643.1300048828125,121.6500015258789 642.75,121.12000274658203 642.4500122070312,120.66999816894531 C640.719970703125,117.73999786376953 638.3200073242188,116.7699966430664 634.7999877929688,117.66999816894531 C634.7999877929688,117.66999816894531 634.7999877929688,125.62000274658203 634.7999877929688,125.62000274658203 C633.97998046875,125.69000244140625 633.1599731445312,125.69999694824219 632.3300170898438,125.8499984741211 C632.3300170898438,125.8499984741211 632.3300170898438,107.0999984741211 632.3300170898438,107.0999984741211 C633.3800048828125,107.0999984741211 634.4299926757812,107.0999984741211 635.47998046875,107.0999984741211 C637.8800048828125,107.02999877929688 640.280029296875,107.0999984741211 642.5999755859375,107.16999816894531 C645.4500122070312,107.31999969482422 647.030029296875,108.97000122070312 647.3300170898438,111.5199966430664 C647.6300048828125,114 646.4299926757812,115.87999725341797 643.72998046875,116.8499984741211 C643.5,116.93000030517578 643.2000122070312,117.06999969482422 642.97998046875,117.06999969482422 C642.97998046875,117.06999969482422 642.97998046875,117.06999969482422 642.97998046875,117.06999969482422z M658.7999877929688,115.56999969482422 C658.4199829101562,126.30000305175781 649.719970703125,134.6999969482422 639.0700073242188,134.47000122070312 C636.52001953125,134.47000122070312 633.969970703125,133.8699951171875 631.6500244140625,132.89999389648438 C629.3300170898438,131.85000610351562 627.1500244140625,130.42999267578125 625.3499755859375,128.5500030517578 C623.5499877929688,126.75 622.2000122070312,124.56999969482422 621.219970703125,122.16999816894531 C620.3200073242188,119.7699966430664 619.8699951171875,117.2300033569336 619.9500122070312,114.75 C620.1799926757812,104.25 629.02001953125,95.91999816894531 639.9000244140625,96.06999969482422 C650.4000244140625,96.2300033569336 659.0999755859375,105.22000122070312 658.7999877929688,115.56999969482422 C658.7999877929688,115.56999969482422 658.7999877929688,115.56999969482422 658.7999877929688,115.56999969482422z M661.5,115.3499984741211 C661.4299926757812,127.41999816894531 651.4500122070312,137.1699981689453 639.2999877929688,137.10000610351562 C627.1500244140625,137.02999877929688 617.25,127.2699966430664 617.25,115.12000274658203 C617.3200073242188,109.2699966430664 619.72998046875,103.7300033569336 623.8499755859375,99.68000030517578 C627.969970703125,95.62999725341797 633.6099853515625,93.30000305175781 639.3800048828125,93.30000305175781 C642.3099975585938,93.30000305175781 645.1500244140625,93.83000183105469 647.8499755859375,94.94999694824219 C650.5499877929688,96.06999969482422 653.030029296875,97.6500015258789 655.0499877929688,99.75 C657.0700073242188,101.7699966430664 658.72998046875,104.26000213623047 659.8499755859375,106.87999725341797 C660.969970703125,109.58000183105469 661.5,112.5 661.5,115.3499984741211 C661.5,115.3499984741211 661.5,115.3499984741211 661.5,115.3499984741211z M275.92999267578125,3.9800000190734863 C266.0299987792969,18.530000686645508 256.1199951171875,33 246.14999389648438,47.47999954223633 C245.85000610351562,47.029998779296875 242.25999450683594,41.849998474121094 237.52999877929688,34.95000076293945 C230.41000366210938,24.600000381469727 223.27999877929688,14.180000305175781 216.0800018310547,3.8299999237060547 C215.3300018310547,2.7100000381469727 213.8300018310547,1.2799999713897705 212.6300048828125,1.2799999713897705 C205.9499969482422,1.0499999523162842 199.27999877929688,0.9700000286102295 192.61000061035156,1.2000000476837158 C189.91000366210938,1.2699999809265137 188.55999755859375,3.819999933242798 189.61000061035156,6.300000190734863 C189.83999633789062,6.820000171661377 201.75999450683594,24.68000030517578 213.91000366210938,42.68000030517578 C213.91000366210938,42.68000030517578 213.97999572753906,42.75 213.97999572753906,42.75 C220.66000366210938,52.72999954223633 227.41000366210938,62.70000076293945 232.2100067138672,69.9800033569336 C233.02999877929688,71.18000030517578 233.41000366210938,72.5999984741211 233.41000366210938,74.02999877929688 C233.41000366210938,93.52999877929688 233.47999572753906,113.02999877929688 233.47999572753906,132.52999877929688 C233.47999572753906,136.1300048828125 234.67999267578125,137.3300018310547 238.27999877929688,137.3300018310547 C238.27999877929688,137.3300018310547 253.2100067138672,137.3300018310547 253.2100067138672,137.3300018310547 C257.3299865722656,137.3300018310547 258.4599914550781,136.2100067138672 258.4599914550781,132.22999572753906 C258.4599914550781,113.18000030517578 258.45001220703125,94.05000305175781 258.3800048828125,75 C258.30999755859375,72.9000015258789 258.9100036621094,70.87999725341797 260.1099853515625,69.2300033569336 C274.05999755859375,48.90999984741211 287.92999267578125,28.579999923706055 301.80999755859375,8.180000305175781 C302.8599853515625,6.610000133514404 303.760009765625,5.110000133514404 302.7900085449219,3.2300000190734863 C301.80999755859375,1.2799999713897705 299.94000244140625,1.2799999713897705 298.1400146484375,1.2799999713897705 C298.1400146484375,1.2799999713897705 295.5,1.2699999809265137 295.5,1.2699999809265137 C295.5,1.2699999809265137 293.3999938964844,1.2699999809265137 293.3999938964844,1.2699999809265137 C289.4200134277344,1.2699999809265137 285.5299987792969,1.2699999809265137 281.54998779296875,1.2000000476837158 C279,0.9800000190734863 277.3599853515625,1.8799999952316284 275.92999267578125,3.9800000190734863 C275.92999267578125,3.9800000190734863 275.92999267578125,3.9800000190734863 275.92999267578125,3.9800000190734863z M24.979999542236328,69.44999694824219 C24.979999542236328,69.44999694824219 32.619998931884766,69.44999694824219 32.619998931884766,69.44999694824219 C37.56999969482422,69.44999694824219 42.529998779296875,69.44999694824219 47.47999954223633,69.44999694824219 C53.779998779296875,69.5199966430664 58.869998931884766,67.05000305175781 62.849998474121094,62.31999969482422 C68.91999816894531,54.88999938964844 70.5,46.43000030517578 68.02999877929688,37.349998474121094 C65.18000030517578,26.93000030517578 57.29999923706055,21.149999618530273 46.5,21.149999618530273 C46.5,21.149999618530273 25.049999237060547,21.149999618530273 25.049999237060547,21.149999618530273 C24.979999542236328,37.349998474121094 24.979999542236328,53.25 24.979999542236328,69.44999694824219 C24.979999542236328,69.44999694824219 24.979999542236328,69.44999694824219 24.979999542236328,69.44999694824219z M24.899999618530273,89.8499984741211 C24.899999618530273,89.8499984741211 24.899999618530273,105.37999725341797 24.899999618530273,105.37999725341797 C24.899999618530273,116.86000061035156 24.899999618530273,129.89999389648438 24.899999618530273,132.97999572753906 C24.899999618530273,135.75 23.540000915527344,137.17999267578125 20.770000457763672,137.17999267578125 C15.220000267028809,137.25 9.670000076293945,137.25 4.119999885559082,137.17999267578125 C1.2699999809265137,137.17999267578125 0,135.8300018310547 0,132.97999572753906 C0,132.97999572753906 0,4.800000190734863 0,4.800000190734863 C0,2.0299999713897705 1.2000000476837158,0.8199999928474426 3.9800000190734863,0.8199999928474426 C8.710000038146973,0.8199999928474426 13.5,0.8199999928474426 18.229999542236328,0.75 C29.6299991607666,0.75 41.02000045776367,0.6800000071525574 52.349998474121094,0.8999999761581421 C75.52999877929688,1.4199999570846558 92.77999877929688,18.450000762939453 93.83000183105469,41.400001525878906 C94.3499984741211,53.630001068115234 92.0199966430664,65.0199966430664 84,74.69999694824219 C75.9000015258789,84.5199966430664 65.11000061035156,89.25 52.43000030517578,89.7699966430664 C45.45000076293945,90.06999969482422 31.290000915527344,89.91999816894531 26.40999984741211,89.8499984741211 C26.40999984741211,89.8499984741211 24.899999618530273,89.8499984741211 24.899999618530273,89.8499984741211z"/></g><g opacity="1" transform="matrix(1,0,0,1,0,0)"><path fill="rgb(255,255,255)" fill-opacity="1" d=" M413.17999267578125,5.619999885559082 C413.17999267578125,1.6399999856948853 414.07000732421875,0.75 418.04998779296875,0.75 C418.04998779296875,0.75 492.82000732421875,0.75 492.82000732421875,0.75 C496.6400146484375,0.75 497.6199951171875,1.7300000190734863 497.6199951171875,5.400000095367432 C497.6199951171875,5.400000095367432 497.6199951171875,16.270000457763672 497.6199951171875,16.270000457763672 C497.6199951171875,19.719999313354492 496.6400146484375,20.770000457763672 493.1199951171875,20.770000457763672 C493.1199951171875,20.770000457763672 441,20.770000457763672 441,20.770000457763672 C437.3999938964844,20.770000457763672 437.3999938964844,20.780000686645508 437.3999938964844,24.299999237060547 C437.3999938964844,34.95000076293945 437.4700012207031,45.599998474121094 437.32000732421875,56.31999969482422 C437.32000732421875,58.41999816894531 438,59.02000045776367 440.1000061035156,59.02000045776367 C454.20001220703125,58.95000076293945 468.29998779296875,58.95000076293945 482.3999938964844,58.95000076293945 C487.5,58.95000076293945 488.25,59.619998931884766 488.25,64.56999969482422 C488.25,64.56999969482422 488.25,74.7699966430664 488.25,74.7699966430664 C488.25,77.83999633789062 487.1300048828125,78.97000122070312 483.9800109863281,78.97000122070312 C476.54998779296875,79.04000091552734 447.29998779296875,79.04000091552734 439.95001220703125,78.97000122070312 C438.1499938964844,78.97000122070312 437.3299865722656,79.3499984741211 437.3299865722656,81.37000274658203 C437.3999938964844,92.55000305175781 437.3999938964844,103.72000122070312 437.3299865722656,114.81999969482422 C437.3299865722656,116.7699966430664 438.07000732421875,117.20999908447266 439.95001220703125,117.20999908447266 C457.42999267578125,117.13999938964844 474.8299865722656,117.13999938964844 492.2300109863281,117.13999938964844 C496.79998779296875,117.13999938964844 497.4800109863281,117.80999755859375 497.4800109863281,122.45999908447266 C497.4800109863281,122.45999908447266 497.4800109863281,132.66000366210938 497.4800109863281,132.66000366210938 C497.4800109863281,136.11000061035156 496.42999267578125,137.16000366210938 493.04998779296875,137.16000366210938 C493.04998779296875,137.16000366210938 418.2799987792969,137.16000366210938 418.2799987792969,137.16000366210938 C413.92999267578125,137.16000366210938 413.17999267578125,136.41000366210938 413.17999267578125,132.13999938964844 C413.1099853515625,111.06999969482422 413.1000061035156,89.98999786376953 413.1000061035156,68.91000366210938 C413.1000061035156,68.91000366210938 413.1000061035156,5.619999885559082 413.1000061035156,5.619999885559082 C413.1000061035156,5.619999885559082 413.17999267578125,5.619999885559082 413.17999267578125,5.619999885559082z M339.67999267578125,59.02000045776367 C339.67999267578125,59.02000045776367 385.3500061035156,59.02000045776367 385.3500061035156,59.02000045776367 C389.25,59.02000045776367 390.3800048828125,60.150001525878906 390.3800048828125,63.900001525878906 C390.3800048828125,63.900001525878906 390.3800048828125,74.55000305175781 390.3800048828125,74.55000305175781 C390.3800048828125,77.93000030517578 389.17999267578125,79.05000305175781 385.79998779296875,79.05000305175781 C385.79998779296875,79.05000305175781 339.75,79.05000305175781 339.75,79.05000305175781 C339.75,79.05000305175781 339.75,117.2300033569336 339.75,117.2300033569336 C339.75,117.2300033569336 394.5,117.2300033569336 394.5,117.2300033569336 C398.70001220703125,117.2300033569336 399.6000061035156,118.12999725341797 399.6000061035156,122.33000183105469 C399.6000061035156,122.33000183105469 399.6000061035156,132.52999877929688 399.6000061035156,132.52999877929688 C399.6000061035156,136.1300048828125 398.4800109863281,137.25 394.79998779296875,137.25 C371.70001220703125,137.25 321.1499938964844,137.32000732421875 319.04998779296875,137.25 C316.6499938964844,137.17999267578125 315.3699951171875,136.27000427246094 315.07000732421875,134.25 C315,133.9499969482422 315,48.150001525878906 315,6.449999809265137 C315,1.5700000524520874 315.82000732421875,0.8299999833106995 320.6199951171875,0.8299999833106995 C320.6199951171875,0.8299999833106995 394.1199951171875,0.8299999833106995 394.1199951171875,0.8299999833106995 C398.7699890136719,0.8299999833106995 399.6000061035156,1.649999976158142 399.6000061035156,6.380000114440918 C399.6000061035156,6.380000114440918 399.6000061035156,16.049999237060547 399.6000061035156,16.049999237060547 C399.6000061035156,19.799999237060547 398.54998779296875,20.860000610351562 394.6499938964844,20.860000610351562 C377.3999938964844,20.790000915527344 340.9599914550781,20.780000686645508 339.67999267578125,20.780000686645508 C339.67999267578125,20.780000686645508 339.67999267578125,59.02000045776367 339.67999267578125,59.02000045776367z M535.0499877929688,64.3499984741211 C536.0999755859375,64.3499984741211 556.27001953125,64.27999877929688 565.5700073242188,64.3499984741211 C569.1699829101562,64.3499984741211 572.7000122070312,63.22999954223633 575.5499877929688,60.97999954223633 C582.9000244140625,55.58000183105469 586.280029296875,45.150001525878906 583.72998046875,36 C581.030029296875,26.25 573.9000244140625,20.850000381469727 563.780029296875,20.850000381469727 C563.780029296875,20.850000381469727 535.0499877929688,20.850000381469727 535.0499877929688,20.850000381469727 C535.0499877929688,20.850000381469727 535.0499877929688,64.3499984741211 535.0499877929688,64.3499984741211z M580.72998046875,82.7300033569336 C581.4099731445312,84 582,85.20999908447266 582.5999755859375,86.33000183105469 C590.4000244140625,100.94999694824219 598.280029296875,115.5 606.0800170898438,130.1999969482422 C606.5999755859375,130.9499969482422 606.969970703125,131.77999877929688 607.2000122070312,132.60000610351562 C607.7999877929688,134.85000610351562 606.4500122070312,136.8000030517578 604.2000122070312,136.8000030517578 C597.3800048828125,136.8699951171875 590.5499877929688,136.8800048828125 583.6500244140625,136.8800048828125 C581.6300048828125,136.8800048828125 580.9600219726562,135.30999755859375 580.280029296875,133.8800048828125 C572.6300048828125,118.19999694824219 564.9000244140625,102.5199966430664 557.3300170898438,86.8499984741211 C556.4299926757812,84.9000015258789 555.2999877929688,84.08000183105469 553.0499877929688,84.1500015258789 C547.7999877929688,84.30000305175781 542.6300048828125,84.30000305175781 537.3800048828125,84.1500015258789 C535.2000122070312,84.08000183105469 534.6099853515625,84.81999969482422 534.6099853515625,87 C534.6799926757812,101.93000030517578 534.6799926757812,116.69999694824219 534.6799926757812,131.6300048828125 C534.6799926757812,136.27999877929688 534.010009765625,136.9499969482422 529.3599853515625,136.9499969482422 C529.3599853515625,136.9499969482422 515.1799926757812,136.9499969482422 515.1799926757812,136.9499969482422 C511.42999267578125,136.9499969482422 510.3800048828125,135.97999572753906 510.3800048828125,132.22999572753906 C510.3800048828125,132.22999572753906 510.3800048828125,5.320000171661377 510.3800048828125,5.320000171661377 C510.3800048828125,1.940000057220459 511.5,0.8199999928474426 514.8800048828125,0.8199999928474426 C532.72998046875,0.8199999928474426 550.5800170898438,0.75 568.4299926757812,0.8199999928474426 C588.3800048828125,0.8899999856948853 604.6599731445312,13.880000114440918 608.1799926757812,32.93000030517578 C611.9299926757812,53.18000030517578 603.4500122070312,71.93000030517578 583.6500244140625,81.37999725341797 C582.5999755859375,81.76000213623047 581.7000122070312,82.19999694824219 580.72998046875,82.7300033569336 C580.72998046875,82.7300033569336 580.72998046875,82.7300033569336 580.72998046875,82.7300033569336z"/></g></g></g></g></svg>