<svg xmlns="http://www.w3.org/2000/svg" width="159.563" height="32" viewBox="0 0 159.563 32"><defs><style>.a{fill:#f01010;}.b{fill:#fff;}</style></defs><path class="a" d="M293.683,21h.43a5.438,5.438,0,0,1,5.2,5.184v.43a5.512,5.512,0,0,1-.731,2.52,5.418,5.418,0,1,1-7.722-7.2A5.494,5.494,0,0,1,293.683,21Zm-3.943,3.661-.093.117c.146.036.3.051.447.1.13.05.132.21.142.327.02.522,0,1.044.01,1.567.168,0,.339,0,.51,0,.016-.642-.029-1.287.022-1.926a1.04,1.04,0,0,1,1.23.458,1.291,1.291,0,0,1-.026,1.075,1.047,1.047,0,0,1-.835.493,10.792,10.792,0,0,1-2.181-.038,5.48,5.48,0,0,0,2.806.088,1.579,1.579,0,0,0,.758-.518,1.165,1.165,0,0,0-.333-1.546,2.593,2.593,0,0,0-1.375-.251A7.347,7.347,0,0,0,289.74,24.661Zm3.211,0-.085.109c.192.066.522.043.552.31.028.642-.047,1.284-.068,1.927a7.6,7.6,0,0,1-.14,1.35c-.056.231-.342.208-.52.266l.062.124a13.376,13.376,0,0,1,1.339,0c.064-.294-.414-.057-.484-.306a3.208,3.208,0,0,1-.035-.866c.009-.714.059-1.425.095-2.138.481,1.131,1.053,2.221,1.529,3.355l.078-.013c.182-.338.316-.7.5-1.04.4-.752.766-1.518,1.147-2.278,0,.958.024,1.916.012,2.873,0,.27-.334.237-.516.274l.053.131c.511-.013,1.024-.026,1.536.008-.007-.281-.414-.082-.5-.326a5.089,5.089,0,0,1-.064-.847c-.018-.83-.088-1.662-.025-2.491.032-.287.372-.265.586-.309l-.063-.121c-.332,0-.665.019-1-.008a6.038,6.038,0,0,1-.558,1.347c-.337.648-.625,1.321-.986,1.956-.349-.688-.678-1.386-1.03-2.072a3.5,3.5,0,0,1-.436-1.233C293.607,24.677,293.278,24.651,292.951,24.658Zm-2.706,2.567a7.722,7.722,0,0,1-.055,1.193c-.055.276-.51.084-.5.377a16.4,16.4,0,0,1,1.681,0c.035-.221-.218-.157-.351-.2a.293.293,0,0,1-.249-.306c-.032-.344-.006-.691-.012-1.035Q290.5,27.245,290.245,27.225Z" transform="translate(-139.75 -21)"/><path class="a" d="M86.724,23.84a4.738,4.738,0,0,1,2.964.009,1.781,1.781,0,0,1,1.108.978.962.962,0,0,1-.768,1.282.937.937,0,0,1-.887-.323A4.176,4.176,0,0,0,88.267,25a2.069,2.069,0,0,0-1.6-.3A2.3,2.3,0,0,0,85.2,26.082a12.984,12.984,0,0,0-.593,4.251c.006.53-.02,1.062.015,1.591a.206.206,0,0,0,.223.218c1.09-.015,2.181,0,3.272-.008a.968.968,0,0,1,.043.867.422.422,0,0,1-.373.249c-.978,0-1.957,0-2.935,0-.242.008-.251.285-.246.465q0,3.224,0,6.448A5.34,5.34,0,0,0,84.7,41.35c.054.191.137.412.345.479a6.973,6.973,0,0,0,1.515.216c.225.167.068.476-.026.677-.711-.034-1.418-.129-2.13-.111-.7,0-1.405,0-2.107,0-.428.022-.854.075-1.282.11a.507.507,0,0,1-.034-.671,3.689,3.689,0,0,0,1.257-.283,1,1,0,0,0,.328-.745,11.871,11.871,0,0,0,.026-1.751c.006-1.918-.013-3.838.012-5.755a.308.308,0,0,0-.307-.269c-.388-.005-.777,0-1.164,0a.619.619,0,0,1-.073-.5c.363-.174.721-.361,1.083-.536a.849.849,0,0,0,.366-.269.874.874,0,0,0,.087-.465,13.257,13.257,0,0,1,.206-2.165,7.837,7.837,0,0,1,1.331-3.535A4.937,4.937,0,0,1,86.724,23.84Z" transform="translate(-47.148 -22.162)"/><path class="a" d="M23.433,26.242c1.778-.164,3.566-.179,5.352-.173a10.414,10.414,0,0,1,4.507.795A4.455,4.455,0,0,1,35.4,29.028a4.874,4.874,0,0,1,.4,2.981,3.845,3.845,0,0,1-1.745,2.774,8.5,8.5,0,0,1-2.159,1.108,10.291,10.291,0,0,1-1.847.416,18.609,18.609,0,0,1-4.486.117A54.363,54.363,0,0,1,20,35.47c1.921.194,3.85.326,5.782.356a23.727,23.727,0,0,0,3.44-.158A5.323,5.323,0,0,0,32.013,34.6,4.086,4.086,0,0,0,33.4,31.558a4.991,4.991,0,0,0-.745-3.1A3.685,3.685,0,0,0,30.22,27a8.106,8.106,0,0,0-1.958-.087.574.574,0,0,0-.5.239,2.148,2.148,0,0,0-.086.954v7.1q-1.08.053-2.161,0,0-2.722,0-5.444a13.988,13.988,0,0,0-.109-1.864.991.991,0,0,0-.793-.8c-.432-.092-.876-.11-1.312-.169C23.106,26.738,23.122,26.295,23.433,26.242Z" transform="translate(-20 -23.261)"/><path class="a" d="M160.512,26.134c.052-.089.158-.054.243-.056a30.122,30.122,0,0,0,4.165-.009,7.85,7.85,0,0,0,.927,3.395c.487,1.15,1.082,2.248,1.631,3.369q.925,1.851,1.85,3.7c.576,1.227,1.143,2.458,1.774,3.657.017.043.1.171.138.066a33.927,33.927,0,0,0,1.865-3.634c1.144-2.364,2.355-4.7,3.474-7.074a10.514,10.514,0,0,0,1.24-3.481c.994.079,1.992.077,2.989.073.463-.01.926-.07,1.39-.057a.741.741,0,0,1,.039.632,5.563,5.563,0,0,0-1.607.26,1.2,1.2,0,0,0-.74.956,13.3,13.3,0,0,0-.1,2.158c0,.914,0,1.828,0,2.742.05,1.6.126,3.194.163,4.792.027.977.053,1.954.1,2.93a12.04,12.04,0,0,0,.12,1.648,1.126,1.126,0,0,0,.862.8,12,12,0,0,0,1.22.135.652.652,0,0,1-.068.666c-.633,0-1.264-.1-1.9-.1-.938,0-1.875,0-2.812,0-.574.027-1.146.075-1.72.109a.771.771,0,0,1-.078-.682,10.564,10.564,0,0,0,1.353-.163.92.92,0,0,0,.7-.691,12.808,12.808,0,0,0,.061-2.172c-.026-3.493-.039-6.987-.074-10.48a25.381,25.381,0,0,0-1.777,3.452c-.538,1.208-1.141,2.384-1.737,3.563-.5,1.024-1.051,2.023-1.57,3.039s-.953,2.061-1.448,3.081c-.168.352-.306.718-.466,1.072a.3.3,0,0,1-.55-.045,23.957,23.957,0,0,0-1.417-3.321c-1.3-2.8-2.645-5.584-3.918-8.4a26.3,26.3,0,0,0-1.141-2.522c-.073.967-.088,1.939-.148,2.907-.174,2.419-.231,4.844-.291,7.268a10.467,10.467,0,0,0,.1,2.382.971.971,0,0,0,.482.8,5.793,5.793,0,0,0,1.637.23.51.51,0,0,1-.043.685,19.165,19.165,0,0,0-2.13-.114c-.959.017-1.92-.044-2.875.056l-.694.056a.731.731,0,0,1-.107-.574c.037-.129.186-.12.294-.138a3.153,3.153,0,0,0,1.445-.4c.453-.362.459-1,.551-1.521.183-1.8.311-3.608.433-5.415.074-1.426.187-2.85.231-4.276.028-.936.079-1.872.109-2.808a2.2,2.2,0,0,0-.338-1.405,1.312,1.312,0,0,0-.713-.361,5.1,5.1,0,0,0-1.173-.206A.573.573,0,0,1,160.512,26.134Z" transform="translate(-82.275 -23.26)"/><path class="a" d="M133.557,35.634c.183.024.4,0,.545.146.048.506-.027,1.019.041,1.524,0,.195.23.179.369.193,1.019.009,2.038,0,3.057,0a.878.878,0,0,1,0,1.112q-1.621.006-3.243,0c-.151,0-.209.162-.242.282a3.726,3.726,0,0,0-.039.762c0,1.554,0,3.108,0,4.663a6.178,6.178,0,0,0,.228,1.714,1.61,1.61,0,0,0,1.081,1.076,2.26,2.26,0,0,0,1.01.086,4.015,4.015,0,0,0,.937-.466c.2-.155.377.161.363.336a1.972,1.972,0,0,1-.7.666,3.947,3.947,0,0,1-2.824.577,2.253,2.253,0,0,1-1.427-.665,2.873,2.873,0,0,1-.618-2.116q.008-3.124,0-6.25c-.019-.225.025-.585-.266-.645-.346-.059-.706.032-1.049-.036a.5.5,0,0,1-.06-.549,3.749,3.749,0,0,0,2.113-1.283A7.961,7.961,0,0,0,133.557,35.634Z" transform="translate(-69.363 -27.805)"/><path class="a" d="M68.61,37.658c.095-.068.213.022.225.124.056.613-.046,1.236.058,1.845a12.66,12.66,0,0,1,1.913-1.362,1.962,1.962,0,0,1,1.522-.16,1.092,1.092,0,0,1,.688.656,1.4,1.4,0,0,1-.3,1.226,1.229,1.229,0,0,1-1.1.287,3.42,3.42,0,0,0-1.41-.583,1.08,1.08,0,0,0-1.056.628,4.07,4.07,0,0,0-.306,1.762c-.008,1.129,0,2.257,0,3.385.008.617-.018,1.235.037,1.851a.876.876,0,0,0,.446.768,7.381,7.381,0,0,0,1.561.225c.173.183.082.476-.03.67-.726-.032-1.45-.129-2.179-.112-.682,0-1.363,0-2.044,0-.425.015-.848.072-1.272.108-.084-.2-.234-.486-.037-.668a3.339,3.339,0,0,0,1.128-.282.826.826,0,0,0,.363-.643,14.747,14.747,0,0,0,.01-1.794c0-1.405,0-2.81,0-4.215a2.914,2.914,0,0,0-.089-1.25c-.177-.379-.642-.455-.881-.775-.061-.122-.066-.324.071-.4C66.838,38.548,67.748,38.149,68.61,37.658Z" transform="translate(-40.176 -28.715)"/><path class="a" d="M224.307,37.861c.161-.076.313-.294.507-.184a.281.281,0,0,1,.1.253,10.419,10.419,0,0,0-.018,1.22c0,.135.166.274.291.186a8.589,8.589,0,0,1,3.088-1.272,3.843,3.843,0,0,1,1.977.192,2.772,2.772,0,0,1,1.6,1.847,7.1,7.1,0,0,1,.168,2.11v3.7a13.11,13.11,0,0,0,.047,1.475.837.837,0,0,0,.382.675,4.691,4.691,0,0,0,1.172.243c.218.176.111.489-.038.673a16.2,16.2,0,0,0-1.666-.111,24.188,24.188,0,0,0-3.34.114.558.558,0,0,1-.07-.673,2.79,2.79,0,0,0,1.28-.38,2.007,2.007,0,0,0,.248-1.163c.012-1.6,0-3.208.006-4.813A2.932,2.932,0,0,0,229.5,40.1a2.044,2.044,0,0,0-1.166-.7,3.354,3.354,0,0,0-2.645.417,1.694,1.694,0,0,0-.722,1.056,7.435,7.435,0,0,0-.078,1.53c0,1.47-.008,2.94.006,4.409a1.88,1.88,0,0,0,.26,1.138c.338.29.812.254,1.22.359a.542.542,0,0,1-.059.677,24.3,24.3,0,0,0-3.34-.114,15.589,15.589,0,0,0-1.609.114.659.659,0,0,1-.07-.661c.4-.131.876-.041,1.234-.3a.718.718,0,0,0,.271-.476,13.825,13.825,0,0,0,.073-2.272q0-1.913,0-3.827c-.007-.341.014-.684-.02-1.024-.022-.473-.485-.723-.826-.965a.311.311,0,0,1-.079-.5A18.7,18.7,0,0,0,224.307,37.861Z" transform="translate(-109.757 -28.721)"/><path class="a" d="M50.16,39.2a5.3,5.3,0,0,1,2.921-.908,4.132,4.132,0,0,1,2.422.77A3.125,3.125,0,0,1,56.794,41.1a2.1,2.1,0,0,1-.108,1.114,2.773,2.773,0,0,1-1.116.142q-2.619.007-5.238,0a1.688,1.688,0,0,0-.677.043c-.2.158-.154.451-.151.678a6.182,6.182,0,0,0,.769,3,3.964,3.964,0,0,0,2.675,1.89,6.064,6.064,0,0,0,1.352.075,3.021,3.021,0,0,0,2.07-1.311,1.2,1.2,0,0,1,.34.057,1.389,1.389,0,0,1,.152.279,4.767,4.767,0,0,1-1.382,1.608,5.161,5.161,0,0,1-5.693.056,4.408,4.408,0,0,1-1.512-1.789,6.631,6.631,0,0,1-.4-4.239A5.751,5.751,0,0,1,50.16,39.2Zm1.023.384a2.776,2.776,0,0,0-1.438,1.91,4.478,4.478,0,0,0,.843.036,35,35,0,0,0,3.6-.1.976.976,0,0,0,.434-.119.773.773,0,0,0,.145-.534,1.34,1.34,0,0,0-.61-1.267A2.792,2.792,0,0,0,51.184,39.587Z" transform="translate(-32.358 -29.02)"/><path class="a" d="M98.372,38.4a4.776,4.776,0,0,1,2.878.327,3.844,3.844,0,0,1,1.573,1.554,2.631,2.631,0,0,1,.191,1.84c-.033.169-.238.174-.372.2a15.14,15.14,0,0,1-1.6.044q-2.2,0-4.405,0a2.8,2.8,0,0,0-.634.013c-.145.033-.2.192-.22.324a6.492,6.492,0,0,0,.662,3.192,3.969,3.969,0,0,0,2.708,2.06,5.959,5.959,0,0,0,1.445.093,3,3,0,0,0,2.037-1.3A.691.691,0,0,1,103,46.8a1.688,1.688,0,0,1,.141.271,5.621,5.621,0,0,1-.911,1.219,3.916,3.916,0,0,1-1.148.765,5.086,5.086,0,0,1-2.08.5,5.473,5.473,0,0,1-2.876-.8,4.231,4.231,0,0,1-1.483-1.645,6.325,6.325,0,0,1-.593-3.78,6.205,6.205,0,0,1,1.266-3.108A5.258,5.258,0,0,1,98.372,38.4ZM97.1,39.837a2.507,2.507,0,0,0-1.069,1.669,5.527,5.527,0,0,0,.861.031,30.688,30.688,0,0,0,3.769-.129c.341-.012.434-.408.419-.685a1.641,1.641,0,0,0-.445-1.068,2.559,2.559,0,0,0-1.96-.509A3.212,3.212,0,0,0,97.1,39.837Z" transform="translate(-53.002 -29.024)"/><path class="a" d="M116.132,38.588a7.228,7.228,0,0,1,3.985-.02c.267.1.6.132.761.4a1.467,1.467,0,0,1-.046,1.664.485.485,0,0,1-.48.142,3.494,3.494,0,0,1-.511-.5,3.4,3.4,0,0,0-2.624-1.026,3.585,3.585,0,0,0-2.917,1.954,5.645,5.645,0,0,0-.476,1.953,4.784,4.784,0,0,0,.595,2.674,4.037,4.037,0,0,0,4.21,2.2,2.812,2.812,0,0,0,1.5-.559,3.81,3.81,0,0,0,.925-1.023.571.571,0,0,1,.5.372,4.182,4.182,0,0,1-1.225,1.614,5.326,5.326,0,0,1-2.032,1,5.643,5.643,0,0,1-4.255-.749,4.748,4.748,0,0,1-1.877-2.664,6.617,6.617,0,0,1,.044-3.646,5.093,5.093,0,0,1,1.127-2.029A5.748,5.748,0,0,1,116.132,38.588Z" transform="translate(-61.004 -29.02)"/><path class="a" d="M205.632,38.343a5.692,5.692,0,0,1,2.455.259,4.888,4.888,0,0,1,2.415,1.68,5.958,5.958,0,0,1,1.083,4.589,5.542,5.542,0,0,1-1.642,3.256,5.076,5.076,0,0,1-2.745,1.321,6.251,6.251,0,0,1-3.568-.393,4.98,4.98,0,0,1-2.349-2.165,5.957,5.957,0,0,1-.64-3.627,5.506,5.506,0,0,1,1.177-2.882A5.661,5.661,0,0,1,205.632,38.343Zm-.194.827a2.467,2.467,0,0,0-1.488.916,4.579,4.579,0,0,0-.961,2.242,7.62,7.62,0,0,0,.5,4.391,3.623,3.623,0,0,0,1.622,1.775,3.189,3.189,0,0,0,1.976.154,2.224,2.224,0,0,0,1.274-.836,5.173,5.173,0,0,0,.922-2.229,8.948,8.948,0,0,0,.094-1.989,6.4,6.4,0,0,0-.962-3.067,3.275,3.275,0,0,0-1.265-1.165A2.966,2.966,0,0,0,205.438,39.17Z" transform="translate(-100.551 -29.023)"/><path class="a" d="M249.253,38.345a4.809,4.809,0,0,1,2.018.165,3.46,3.46,0,0,1,2.048,1.667,2.58,2.58,0,0,1,.326,1.749.509.509,0,0,1-.483.4c-.489.055-.982.029-1.472.037-1.512,0-3.023,0-4.534,0a1.348,1.348,0,0,0-.712.072.848.848,0,0,0-.126.583,6,6,0,0,0,.84,3.125,4.023,4.023,0,0,0,2.807,1.854,3.516,3.516,0,0,0,1.9-.14,3.222,3.222,0,0,0,1.326-1.118.68.68,0,0,1,.376.077,1.218,1.218,0,0,1,.157.254,4.677,4.677,0,0,1-1.9,1.9,4.991,4.991,0,0,1-2.369.593,5.328,5.328,0,0,1-2.681-.74,4.668,4.668,0,0,1-2.007-2.855,6.446,6.446,0,0,1,1.462-6.108A5.276,5.276,0,0,1,249.253,38.345Zm-.312.853a3.446,3.446,0,0,0-1.757,1.1,2.064,2.064,0,0,0-.572,1.206,8.015,8.015,0,0,0,1.059.03,32.266,32.266,0,0,0,3.406-.107c.2-.022.47-.055.517-.3a1.616,1.616,0,0,0-.206-1.254,1.993,1.993,0,0,0-.882-.608A2.836,2.836,0,0,0,248.941,39.2Z" transform="translate(-120.151 -29.022)"/><path class="a" d="M265.877,38.949c.489,0,.977-.062,1.466-.063.192.06.192.32.176.485-.045.2-.287.178-.437.227a2.66,2.66,0,0,0-.853.26,1.429,1.429,0,0,0,.1.86c.353,1.158.794,2.285,1.167,3.437a19.215,19.215,0,0,0,1.063,2.707,10,10,0,0,0,.545-1.06c.464-.94.848-1.916,1.262-2.878q.439-1.042.829-2.1a2.39,2.39,0,0,0,.173-.742c0-.171-.173-.26-.306-.321-.379-.137-.79-.139-1.176-.248a.478.478,0,0,1-.024-.553c.069-.127.235-.059.352-.068.978.08,1.962.055,2.943.058.4,0,.8-.067,1.2-.061a.424.424,0,0,1,.055.635,2.039,2.039,0,0,0-1.228.467,4.035,4.035,0,0,0-.844,1.138c-.612,1.111-1.142,2.264-1.7,3.4-.448.9-.858,1.812-1.307,2.708-.584,1.2-1.114,2.417-1.676,3.624-.525,1.085-1.009,2.188-1.528,3.275a5.8,5.8,0,0,1-.8,1.425,1.616,1.616,0,0,1-1.953.3,1.124,1.124,0,0,1,.161-1.913c.462-.213,1,.015,1.465-.193a2.166,2.166,0,0,0,.66-.8c.374-.6.674-1.247,1-1.876a5.394,5.394,0,0,0,.519-1.623,3.783,3.783,0,0,0-.289-1.655c-.737-2-1.485-4-2.224-6a6.384,6.384,0,0,0-.718-1.646,2.338,2.338,0,0,0-1.452-.614c-.237-.029-.189-.334-.146-.5.064-.242.343-.144.523-.147C263.874,38.974,264.876,38.942,265.877,38.949Z" transform="translate(-128.082 -29.412)"/><path class="a" d="M28.125,46.023a10.792,10.792,0,0,0,2.162.108c0,.832,0,1.665,0,2.5a11.038,11.038,0,0,0,.091,2.173,1.25,1.25,0,0,0,.746.984,7.851,7.851,0,0,0,1.679.253.7.7,0,0,1-.052.682q-.971-.05-1.941-.108c-1.042-.006-2.084,0-3.125,0-.575.026-1.148.075-1.722.11-.109-.2-.206-.524.012-.68a6.82,6.82,0,0,0,1.306-.245,1.117,1.117,0,0,0,.688-.767,14.853,14.853,0,0,0,.159-2.592Q28.124,47.229,28.125,46.023Z" transform="translate(-22.606 -32.526)"/><path class="b" d="M290.134,27.564a7.348,7.348,0,0,1,1.08-.055,2.593,2.593,0,0,1,1.375.251,1.165,1.165,0,0,1,.333,1.546,1.576,1.576,0,0,1-.758.518,5.48,5.48,0,0,1-2.806-.088,10.788,10.788,0,0,0,2.181.038,1.047,1.047,0,0,0,.835-.493,1.292,1.292,0,0,0,.026-1.075,1.04,1.04,0,0,0-1.23-.458c-.051.639-.007,1.284-.022,1.926-.171,0-.342,0-.51,0-.006-.522.01-1.044-.009-1.567-.01-.117-.012-.278-.142-.327-.147-.047-.3-.061-.447-.1Z" transform="translate(-140.145 -23.903)"/><path class="b" d="M296.345,27.592c.327-.007.656.019.984-.013a3.5,3.5,0,0,0,.437,1.233c.352.686.681,1.384,1.03,2.072.361-.635.649-1.308.986-1.956a6.069,6.069,0,0,0,.558-1.347c.33.027.663.006.995.008l.063.121c-.214.044-.554.022-.586.309-.063.829.007,1.662.025,2.491a5.092,5.092,0,0,0,.064.847c.081.244.489.045.5.326-.512-.034-1.025-.021-1.535-.008-.014-.033-.04-.1-.054-.131.182-.038.515,0,.516-.274.013-.958-.009-1.916-.012-2.873-.382.76-.751,1.526-1.147,2.278-.181.34-.315.7-.5,1.04l-.078.013c-.476-1.134-1.048-2.224-1.529-3.355-.036.712-.085,1.424-.095,2.138a3.208,3.208,0,0,0,.035.866c.07.248.548.012.484.306a13.377,13.377,0,0,0-1.339,0l-.062-.124c.177-.058.464-.035.52-.266a7.6,7.6,0,0,0,.14-1.35c.021-.642.1-1.285.068-1.927-.03-.268-.36-.244-.552-.31Z" transform="translate(-143.145 -23.934)"/><path class="b" d="M291.221,32.237q.253.02.511.025c.007.345-.02.691.012,1.035a.294.294,0,0,0,.249.306c.133.048.386-.017.351.2a16.386,16.386,0,0,0-1.681,0c-.008-.294.448-.1.5-.377A7.719,7.719,0,0,0,291.221,32.237Z" transform="translate(-140.726 -26.149)"/><path d="M227.818,65.486a1.931,1.931,0,0,1,1.821-.3c-.026.283-.053.566-.078.848a1.016,1.016,0,0,0-.917.083,1.375,1.375,0,0,0-.289,1.065h.962c0,.274,0,.549,0,.824h-.95q0,1.768,0,3.536h-1.1q0-1.768,0-3.536h-.591q0-.412,0-.824h.587A2.188,2.188,0,0,1,227.818,65.486Z" transform="translate(-112.185 -41.348)"/><path d="M162.633,65.845h1.1q0,1.623,0,3.247a4.911,4.911,0,0,1-.2,1.856,1.527,1.527,0,0,1-.9.887,3.087,3.087,0,0,1-1.831.009c.044-.3.09-.594.134-.891a1.756,1.756,0,0,0,1.244-.022,1.289,1.289,0,0,0,.449-1.134C162.635,68.48,162.631,67.162,162.633,65.845Z" transform="translate(-82.804 -41.686)"/><path d="M187.853,67.163l1.074-.313q0,.559,0,1.118h1.049c0,.275,0,.549,0,.824h-1.048c0,.654,0,1.307,0,1.961a.81.81,0,0,0,.25.693,1.19,1.19,0,0,0,.746.036c0,.279.009.557.017.836a1.948,1.948,0,0,1-1.582-.114,1.446,1.446,0,0,1-.5-1.205c-.009-.735,0-1.471,0-2.206h-.628q0-.412,0-.824h.628Q187.851,67.565,187.853,67.163Z" transform="translate(-94.588 -42.135)"/><path d="M252.055,67.163c.358-.1.716-.208,1.075-.312,0,.373,0,.745,0,1.118h1.047q0,.412,0,.824H253.13c0,.655,0,1.31,0,1.965a.81.81,0,0,0,.249.688,1.179,1.179,0,0,0,.747.037c0,.279.01.558.017.837a1.942,1.942,0,0,1-1.59-.122,1.445,1.445,0,0,1-.494-1.191c-.011-.738,0-1.476,0-2.214h-.625q0-.412,0-.824h.625Q252.054,67.565,252.055,67.163Z" transform="translate(-123.226 -42.135)"/><path d="M180.267,68.938a2.438,2.438,0,0,1,2.15,0q-.108.39-.214.779a1.828,1.828,0,0,0-1.183-.209.436.436,0,0,0-.35.464c.015.243.258.362.453.448a3.129,3.129,0,0,1,1.125.594,1.269,1.269,0,0,1,.164,1.531,1.488,1.488,0,0,1-.954.629,3,3,0,0,1-1.963-.237q.107-.4.216-.8a2.422,2.422,0,0,0,1.287.3.633.633,0,0,0,.455-.218.474.474,0,0,0-.1-.629,5.9,5.9,0,0,0-.915-.42,1.416,1.416,0,0,1-.786-.818A1.276,1.276,0,0,1,180.267,68.938Z" transform="translate(-91.14 -42.955)"/><path d="M201.036,69a1.857,1.857,0,0,1,1.358-.286,1.746,1.746,0,0,1,1.187.838,2.812,2.812,0,0,1,.31,1.886,2.168,2.168,0,0,1-.858,1.467,1.733,1.733,0,0,1-2.341-.246c.011.764,0,1.529,0,2.294h-1.1c-.016-2.055.037-4.112-.036-6.166h.968c.017.226.036.452.053.679A2.34,2.34,0,0,1,201.036,69Zm.355.618a1.135,1.135,0,0,0-.694,1.117,2.045,2.045,0,0,0,.2,1.247,1.016,1.016,0,0,0,1.342.266,1.32,1.32,0,0,0,.552-1,1.785,1.785,0,0,0-.317-1.356A.984.984,0,0,0,201.391,69.622Z" transform="translate(-100.091 -42.956)"/><path d="M210.43,69.393a2.073,2.073,0,0,1,2.693-.372,2.4,2.4,0,0,1,.736,2.255c-.979,0-1.958,0-2.936,0a1.117,1.117,0,0,0,.668.994,2.893,2.893,0,0,0,1.9-.059c.05.253.1.507.159.76a4.21,4.21,0,0,1-1.871.253,2.126,2.126,0,0,1-1.344-.624,2.181,2.181,0,0,1-.553-1.411A2.608,2.608,0,0,1,210.43,69.393Zm.843.328a1.5,1.5,0,0,0-.349.783q.969,0,1.939,0a1.451,1.451,0,0,0-.227-.742A.918.918,0,0,0,211.272,69.721Z" transform="translate(-104.692 -42.952)"/><path d="M221.592,68.855a1.316,1.316,0,0,1,.836-.148c0,.347,0,.693,0,1.041a1.284,1.284,0,0,0-.85.115,1.146,1.146,0,0,0-.492,1.006c-.007.761,0,1.522,0,2.283h-1.1c-.015-1.453.033-2.908-.037-4.36h.957q.019.434.038.868A1.664,1.664,0,0,1,221.592,68.855Z" transform="translate(-109.185 -42.958)"/><path d="M234.2,69.058a2.052,2.052,0,0,1,2.46.069,2.507,2.507,0,0,1,.608,2.147c-.979,0-1.958,0-2.937,0a1.118,1.118,0,0,0,.658.991,2.875,2.875,0,0,0,1.906-.056c.051.254.106.507.16.762a4.241,4.241,0,0,1-1.878.253,2.1,2.1,0,0,1-1.4-.7,2.387,2.387,0,0,1-.476-1.784A2.32,2.32,0,0,1,234.2,69.058Zm.478.668a1.509,1.509,0,0,0-.347.778q.97,0,1.94,0a1.417,1.417,0,0,0-.234-.751A.917.917,0,0,0,234.68,69.726Z" transform="translate(-115.135 -42.952)"/><path d="M243.677,69.257a2.782,2.782,0,0,1,2.739-.369c-.066.275-.132.55-.194.826a1.866,1.866,0,0,0-1.467-.024,1.5,1.5,0,0,0-.123,2.47,1.854,1.854,0,0,0,1.623.047q.074.405.154.809a3.248,3.248,0,0,1-1.9.155,1.992,1.992,0,0,1-1.39-1.15A2.465,2.465,0,0,1,243.677,69.257Z" transform="translate(-119.431 -42.955)"/><path d="M169.455,68.868h1.1c0,.842-.007,1.685,0,2.527.01.388.137.879.561,1a.92.92,0,0,0,1.151-.874c.007-.885,0-1.77,0-2.656h1.1c.013,1.453-.03,2.908.035,4.36h-.966c-.019-.225-.037-.45-.053-.675a1.71,1.71,0,0,1-.775.657,1.589,1.589,0,0,1-1.712-.31,2.125,2.125,0,0,1-.451-1.438C169.453,70.6,169.456,69.733,169.455,68.868Z" transform="translate(-86.662 -43.035)"/></svg>