<svg xmlns="http://www.w3.org/2000/svg" width="1159.903" height="451.203" viewBox="0 0 1159.903 451.203"><defs><style>.a{fill:#f7cb99;}.b{fill:#e68e2b;}.c{fill:#1d2a54;}.d{fill:#f19b3e;}</style></defs><g transform="translate(-140.049 -1642.382)"><g transform="translate(204.613 1876.267) rotate(-19)"><path class="a" d="M142.991,0H627.857C647.321,0,663.1,2.389,663.1,5.335s-15.779,5.335-35.244,5.335H142.991C-97.071,10.671,8.983-.016,142.991,0Z" transform="translate(5.86 4.323)"/><path class="b" d="M5.34,53.354a5.335,5.335,0,0,1-3.206-9.6L24.9,26.677,2.134,9.6a5.335,5.335,0,1,1,6.4-8.537L36.992,22.409a5.335,5.335,0,0,1,0,8.537L8.537,52.287A5.312,5.312,0,0,1,5.34,53.354Z" transform="translate(629.834 -17.019)"/></g><g transform="translate(-18417.951 14854.74)"><g transform="translate(10)"><g transform="translate(0.34 2)"><path class="c" d="M398.939,239.421h-1.367V238.2a5.974,5.974,0,0,1-3.6-1.221,3.6,3.6,0,0,1-1.313-2.881h2.793a1.715,1.715,0,0,0,.63,1.221,2.662,2.662,0,0,0,1.489.595v-3.632l-1.025-.245a5.1,5.1,0,0,1-2.686-1.411,3.589,3.589,0,0,1-.918-2.524,3.721,3.721,0,0,1,1.221-2.9,5.6,5.6,0,0,1,3.408-1.28V222.6h1.367v1.328a5.478,5.478,0,0,1,3.262,1.3,3.711,3.711,0,0,1,1.25,2.8h-2.725a1.665,1.665,0,0,0-.517-1.162,2.166,2.166,0,0,0-1.27-.606v3.477l1.045.215q3.741.8,3.74,3.945a3.8,3.8,0,0,1-1.245,2.978,5.917,5.917,0,0,1-3.54,1.309Zm-3.164-11.591a1.333,1.333,0,0,0,.459,1.03,2.79,2.79,0,0,0,1.338.591v-3.2a2.051,2.051,0,0,0-1.294.484,1.408,1.408,0,0,0-.5,1.1m5.176,6.4q0-1.329-2.012-1.7v3.4a2.47,2.47,0,0,0,1.48-.508,1.479,1.479,0,0,0,.532-1.191" transform="translate(18558 -13202.123)"/><path class="c" d="M414.956,237.317a7.972,7.972,0,0,1-8.233,0,3.521,3.521,0,0,1-1.572-2.978,3.43,3.43,0,0,1,.845-2.31,4.029,4.029,0,0,1,2.261-1.294v-.175a3.259,3.259,0,0,1-1.846-1.1,2.989,2.989,0,0,1-.693-1.963,3.316,3.316,0,0,1,1.44-2.768,6.82,6.82,0,0,1,7.363,0,3.314,3.314,0,0,1,1.441,2.768,2.982,2.982,0,0,1-.689,1.958,3.292,3.292,0,0,1-1.85,1.109v.175a3.827,3.827,0,0,1,2.26,1.246,3.428,3.428,0,0,1,.855,2.329,3.545,3.545,0,0,1-1.582,3m-6.011-1.685a3.261,3.261,0,0,0,3.784,0,2.043,2.043,0,0,0,0-3.135,3.261,3.261,0,0,0-3.784,0,2.053,2.053,0,0,0,0,3.135m.3-6.46a2.615,2.615,0,0,0,3.188,0,1.881,1.881,0,0,0,0-2.793,2.615,2.615,0,0,0-3.188,0,1.893,1.893,0,0,0,0,2.793" transform="translate(18558 -13202.123)"/><path class="c" d="M427.433,236.5a5.268,5.268,0,0,1-8.213,0,8.876,8.876,0,0,1-1.489-5.463,8.775,8.775,0,0,1,1.489-5.435,5.294,5.294,0,0,1,8.209,0,10.687,10.687,0,0,1,0,10.893m-6.025-1.733a2.068,2.068,0,0,0,3.838.005,8.121,8.121,0,0,0,.688-3.735,7.946,7.946,0,0,0-.688-3.7,2.077,2.077,0,0,0-3.833.005,7.891,7.891,0,0,0-.693,3.692,8.127,8.127,0,0,0,.688,3.73" transform="translate(18558 -13202.123)"/><path class="c" d="M439.924,236.5a5.268,5.268,0,0,1-8.213,0,8.876,8.876,0,0,1-1.489-5.463,8.775,8.775,0,0,1,1.489-5.435,5.294,5.294,0,0,1,8.209,0,10.687,10.687,0,0,1,0,10.893m-6.025-1.733a2.068,2.068,0,0,0,3.838.005,8.121,8.121,0,0,0,.688-3.735,7.946,7.946,0,0,0-.688-3.7,2.077,2.077,0,0,0-3.833.005,7.891,7.891,0,0,0-.693,3.692,8.127,8.127,0,0,0,.688,3.73" transform="translate(18558 -13202.123)"/><path class="c" d="M446.3,238.1V226.882h-.176l-3.457,2.383v-2.744l3.643-2.51h2.939V238.1Z" transform="translate(18558 -13202.123)"/><path class="c" d="M456.72,224.773h2.842v2.666H461.8v2.236h-2.236v4.844a1.4,1.4,0,0,0,.337,1.035,1.455,1.455,0,0,0,1.059.332,7.677,7.677,0,0,0,.84-.039v2.168a7.459,7.459,0,0,1-1.426.127,4.5,4.5,0,0,1-2.807-.683,2.755,2.755,0,0,1-.845-2.266v-5.518h-1.68v-2.236h1.68Z" transform="translate(18558 -13202.123)"/><path class="c" d="M471.551,236.843a5.816,5.816,0,0,1-7.784,0,6.712,6.712,0,0,1,.01-8.247,5.776,5.776,0,0,1,7.764,0,6.712,6.712,0,0,1,.01,8.247m-3.892-.83a2.045,2.045,0,0,0,1.758-.864,4.11,4.11,0,0,0,.625-2.437,4.064,4.064,0,0,0-.63-2.422,2.208,2.208,0,0,0-3.511,0,5.052,5.052,0,0,0-.005,4.859,2.042,2.042,0,0,0,1.763.864" transform="translate(18558 -13202.123)"/><path class="c" d="M484.263,239.421H482.9V238.2a5.974,5.974,0,0,1-3.6-1.221,3.6,3.6,0,0,1-1.313-2.881h2.793a1.715,1.715,0,0,0,.63,1.221,2.662,2.662,0,0,0,1.489.595v-3.632l-1.025-.245a5.1,5.1,0,0,1-2.686-1.411,3.589,3.589,0,0,1-.918-2.524,3.721,3.721,0,0,1,1.221-2.9,5.6,5.6,0,0,1,3.408-1.28V222.6h1.367v1.328a5.478,5.478,0,0,1,3.262,1.3,3.711,3.711,0,0,1,1.25,2.8H486.05a1.665,1.665,0,0,0-.517-1.162,2.166,2.166,0,0,0-1.27-.606v3.477l1.045.215q3.741.8,3.74,3.945a3.8,3.8,0,0,1-1.245,2.978,5.917,5.917,0,0,1-3.54,1.309ZM481.1,227.83a1.333,1.333,0,0,0,.459,1.03,2.79,2.79,0,0,0,1.338.591v-3.2a2.051,2.051,0,0,0-1.294.484,1.408,1.408,0,0,0-.5,1.1m5.176,6.4q0-1.329-2.012-1.7v3.4a2.47,2.47,0,0,0,1.48-.508,1.479,1.479,0,0,0,.532-1.191" transform="translate(18558 -13202.123)"/><path class="c" d="M494.059,238.1V226.882h-.176l-3.457,2.383v-2.744l3.643-2.51h2.939V238.1Z" transform="translate(18558 -13202.123)"/><path class="c" d="M505.037,238.464a5.563,5.563,0,0,1-3.726-1.226,4.129,4.129,0,0,1-1.518-3.138h2.724a2.1,2.1,0,0,0,.831,1.416,2.731,2.731,0,0,0,1.709.537,2.517,2.517,0,0,0,1.85-.7,2.489,2.489,0,0,0,.708-1.847,2.542,2.542,0,0,0-.713-1.875,2.483,2.483,0,0,0-1.836-.713,2.633,2.633,0,0,0-2.412,1.271h-2.637l.7-8.174h8.857v2.45h-6.572l-.313,3.623h.176a3.386,3.386,0,0,1,2.988-1.377,4.378,4.378,0,0,1,3.286,1.328,4.693,4.693,0,0,1,1.285,3.4,4.751,4.751,0,0,1-1.485,3.636,5.476,5.476,0,0,1-3.906,1.392" transform="translate(18558 -13202.123)"/><path class="c" d="M521.312,236.5a5.268,5.268,0,0,1-8.213,0,8.876,8.876,0,0,1-1.489-5.463A8.775,8.775,0,0,1,513.1,225.6a5.294,5.294,0,0,1,8.209,0,10.687,10.687,0,0,1,0,10.893m-6.025-1.733a2.068,2.068,0,0,0,3.838.005,8.121,8.121,0,0,0,.688-3.735,7.946,7.946,0,0,0-.688-3.7,2.077,2.077,0,0,0-3.833.005,7.9,7.9,0,0,0-.693,3.692,8.127,8.127,0,0,0,.688,3.73" transform="translate(18558 -13202.123)"/><path class="c" d="M533.8,236.5a5.268,5.268,0,0,1-8.213,0,8.876,8.876,0,0,1-1.489-5.463,8.775,8.775,0,0,1,1.489-5.435,5.294,5.294,0,0,1,8.209,0,10.687,10.687,0,0,1,0,10.893m-6.025-1.733a2.068,2.068,0,0,0,3.838.005,8.121,8.121,0,0,0,.688-3.735,7.946,7.946,0,0,0-.688-3.7,2.077,2.077,0,0,0-3.833.005,7.9,7.9,0,0,0-.693,3.692,8.126,8.126,0,0,0,.688,3.73" transform="translate(18558 -13202.123)"/><path class="c" d="M546.295,236.5a5.268,5.268,0,0,1-8.213,0,8.869,8.869,0,0,1-1.489-5.463,8.768,8.768,0,0,1,1.489-5.435,5.294,5.294,0,0,1,8.209,0,10.687,10.687,0,0,1,0,10.893m-6.025-1.733a2.068,2.068,0,0,0,3.838.005,8.121,8.121,0,0,0,.688-3.735,7.946,7.946,0,0,0-.688-3.7,2.077,2.077,0,0,0-3.833.005,7.89,7.89,0,0,0-.693,3.692,8.126,8.126,0,0,0,.688,3.73" transform="translate(18558 -13202.123)"/></g><rect class="c" width="173.898" height="189.437" transform="translate(18942 -12950.594)"/><g transform="translate(0.193 5)"><path class="d" d="M421.084,297.679h-9.278L429.9,279l13.184-16.553h9.3l-18.457,18.824Zm-.391-17.847a7.68,7.68,0,0,1-5.774-2.2,8.148,8.148,0,0,1-2.136-5.933,10.2,10.2,0,0,1,2.71-7.214,8.819,8.819,0,0,1,6.738-2.917,7.823,7.823,0,0,1,5.823,2.184,8.022,8.022,0,0,1,2.16,5.9,10.226,10.226,0,0,1-2.734,7.251,8.907,8.907,0,0,1-6.787,2.929m1.391-12.988a2.584,2.584,0,0,0-2.172,1.4,6.115,6.115,0,0,0-.9,3.382,3.755,3.755,0,0,0,.513,2.124,1.619,1.619,0,0,0,1.416.757,2.581,2.581,0,0,0,2.173-1.429,6.279,6.279,0,0,0,.9-3.429,3.665,3.665,0,0,0-.5-2.076,1.628,1.628,0,0,0-1.429-.732m19.629,31.738a7.707,7.707,0,0,1-5.774-2.184,8.107,8.107,0,0,1-2.136-5.921,10.235,10.235,0,0,1,2.71-7.239,8.822,8.822,0,0,1,6.738-2.917,7.82,7.82,0,0,1,5.823,2.184,8.019,8.019,0,0,1,2.161,5.9,10.2,10.2,0,0,1-2.747,7.251,8.918,8.918,0,0,1-6.775,2.929m1.392-12.988a2.584,2.584,0,0,0-2.173,1.416,6.178,6.178,0,0,0-.9,3.394,3.761,3.761,0,0,0,.5,2.111,1.619,1.619,0,0,0,1.429.745,2.552,2.552,0,0,0,2.16-1.429,6.344,6.344,0,0,0,.891-3.429,3.665,3.665,0,0,0-.5-2.076,1.606,1.606,0,0,0-1.4-.732" transform="translate(18558 -13202.123)"/><path class="d" d="M467.888,298.632q-6.1,0-9.631-3.773t-3.528-10.315a30.99,30.99,0,0,1,1.331-9.239,23.18,23.18,0,0,1,3.65-7.313,17.065,17.065,0,0,1,5.578-4.76,14.673,14.673,0,0,1,6.995-1.735q6.128,0,9.68,3.761t3.552,10.278a30.862,30.862,0,0,1-1.342,9.252,23.385,23.385,0,0,1-3.675,7.336,17.061,17.061,0,0,1-5.6,4.774,14.75,14.75,0,0,1-7.007,1.734m-4.15-13.5a8.779,8.779,0,0,0,1.135,4.835,3.58,3.58,0,0,0,3.162,1.732,5.507,5.507,0,0,0,4.138-2.319,17.279,17.279,0,0,0,3.149-6.213,28.07,28.07,0,0,0,1.185-8.216,8.525,8.525,0,0,0-1.148-4.784,3.646,3.646,0,0,0-3.2-1.709,5.484,5.484,0,0,0-4.126,2.308,17.141,17.141,0,0,0-3.125,6.175,28.126,28.126,0,0,0-1.172,8.191" transform="translate(18558 -13202.123)"/><path class="d" d="M488.546,298.485a4.942,4.942,0,0,1-3.577-1.306,4.23,4.23,0,0,1-1.355-3.162,4.748,4.748,0,0,1,1.343-3.467,4.8,4.8,0,0,1,3.589-1.367,4.938,4.938,0,0,1,3.577,1.307,4.23,4.23,0,0,1,1.355,3.161,4.744,4.744,0,0,1-1.343,3.467,4.806,4.806,0,0,1-3.589,1.367" transform="translate(18558 -13202.123)"/><path class="d" d="M512.059,298.631a16.345,16.345,0,0,1-6.86-1.392,11.441,11.441,0,0,1-4.773-3.857,9.418,9.418,0,0,1-1.721-5.518c0-.146.016-.479.048-1h8.106v.025a4.719,4.719,0,0,0,1.684,3.478,5.955,5.955,0,0,0,4,1.331,5.866,5.866,0,0,0,4.408-1.842,6.327,6.327,0,0,0,1.769-4.554,5.1,5.1,0,0,0-1.44-3.809,5.17,5.17,0,0,0-3.785-1.416,7,7,0,0,0-5.1,2.417H500.34l5.908-20.044h23.243l-1.514,6.983H511.815l-2.417,7.617h.439a10.333,10.333,0,0,1,14.38.013,10.025,10.025,0,0,1,2.857,7.311,13.55,13.55,0,0,1-4.2,10.241,15,15,0,0,1-10.815,4.017" transform="translate(18558 -13202.123)"/></g></g><g transform="translate(11)"><g transform="translate(1.128 2)"><path class="c" d="M589.981,167.667h-1.367v-1.22a5.974,5.974,0,0,1-3.6-1.221,3.6,3.6,0,0,1-1.313-2.881h2.793a1.707,1.707,0,0,0,.63,1.221,2.662,2.662,0,0,0,1.489.6v-3.632l-1.025-.245a5.091,5.091,0,0,1-2.686-1.411,3.589,3.589,0,0,1-.918-2.524,3.718,3.718,0,0,1,1.221-2.9,5.6,5.6,0,0,1,3.408-1.28v-1.328h1.367v1.328a5.478,5.478,0,0,1,3.262,1.3,3.715,3.715,0,0,1,1.25,2.8h-2.725a1.665,1.665,0,0,0-.517-1.162,2.165,2.165,0,0,0-1.27-.606v3.477l1.045.215q3.739.8,3.74,3.945a3.8,3.8,0,0,1-1.245,2.978,5.917,5.917,0,0,1-3.54,1.309Zm-3.164-11.591a1.333,1.333,0,0,0,.459,1.03,2.79,2.79,0,0,0,1.338.591v-3.2a2.049,2.049,0,0,0-1.294.484,1.405,1.405,0,0,0-.5,1.1m5.176,6.4q0-1.329-2.012-1.7v3.4a2.475,2.475,0,0,0,1.48-.508,1.482,1.482,0,0,0,.532-1.191" transform="translate(18558 -13202.123)"/><path class="c" d="M599.777,166.349V155.128H599.6l-3.457,2.383v-2.744l3.643-2.51h2.939v14.092Z" transform="translate(18558 -13202.123)"/><path class="c" d="M610.755,166.71a5.569,5.569,0,0,1-3.726-1.226,4.135,4.135,0,0,1-1.518-3.139h2.724a2.1,2.1,0,0,0,.831,1.416,2.733,2.733,0,0,0,1.709.537,2.511,2.511,0,0,0,1.85-.7,2.483,2.483,0,0,0,.708-1.846,2.535,2.535,0,0,0-.713-1.875,2.48,2.48,0,0,0-1.836-.713,2.634,2.634,0,0,0-2.412,1.27h-2.637l.7-8.174H615.3v2.451h-6.572l-.313,3.623h.176a3.388,3.388,0,0,1,2.988-1.377,4.371,4.371,0,0,1,3.286,1.328,4.687,4.687,0,0,1,1.285,3.4,4.753,4.753,0,0,1-1.485,3.637,5.477,5.477,0,0,1-3.906,1.392" transform="translate(18558 -13202.123)"/><path class="c" d="M627.03,164.742a5.268,5.268,0,0,1-8.213,0,8.876,8.876,0,0,1-1.489-5.463,8.775,8.775,0,0,1,1.489-5.435,5.294,5.294,0,0,1,8.209.005,10.687,10.687,0,0,1,0,10.893m-6.025-1.733a2.068,2.068,0,0,0,3.838.005,8.122,8.122,0,0,0,.688-3.735,7.946,7.946,0,0,0-.688-3.7,2.077,2.077,0,0,0-3.833.005,7.9,7.9,0,0,0-.693,3.692,8.127,8.127,0,0,0,.688,3.73" transform="translate(18558 -13202.123)"/><path class="c" d="M639.522,164.742a5.268,5.268,0,0,1-8.213,0,8.869,8.869,0,0,1-1.489-5.463,8.768,8.768,0,0,1,1.489-5.435,5.294,5.294,0,0,1,8.209.005,10.687,10.687,0,0,1,0,10.893m-6.025-1.733a2.068,2.068,0,0,0,3.838.005,8.122,8.122,0,0,0,.688-3.735,7.946,7.946,0,0,0-.688-3.7,2.077,2.077,0,0,0-3.833.005,7.891,7.891,0,0,0-.693,3.692,8.127,8.127,0,0,0,.688,3.73" transform="translate(18558 -13202.123)"/><path class="c" d="M645.9,166.349V155.128h-.176l-3.457,2.383v-2.744l3.643-2.51h2.939v14.092Z" transform="translate(18558 -13202.123)"/><path class="c" d="M656.317,153.019h2.842v2.666H661.4v2.236h-2.236v4.844a1.4,1.4,0,0,0,.337,1.035,1.457,1.457,0,0,0,1.059.332,7.653,7.653,0,0,0,.84-.039v2.168a7.453,7.453,0,0,1-1.426.127,4.5,4.5,0,0,1-2.807-.683,2.755,2.755,0,0,1-.845-2.266v-5.518h-1.68v-2.236h1.68Z" transform="translate(18558 -13202.123)"/><path class="c" d="M671.148,165.089a5.817,5.817,0,0,1-7.784,0,6.712,6.712,0,0,1,.01-8.247,5.776,5.776,0,0,1,7.764,0,6.712,6.712,0,0,1,.01,8.247m-3.892-.83a2.042,2.042,0,0,0,1.758-.864,5.017,5.017,0,0,0-.005-4.859,2.208,2.208,0,0,0-3.511,0,5.052,5.052,0,0,0-.005,4.859,2.042,2.042,0,0,0,1.763.864" transform="translate(18558 -13202.123)"/><path class="c" d="M683.86,167.667h-1.367v-1.22a5.974,5.974,0,0,1-3.6-1.221,3.6,3.6,0,0,1-1.313-2.881h2.793a1.707,1.707,0,0,0,.63,1.221,2.662,2.662,0,0,0,1.489.6v-3.632l-1.025-.245a5.091,5.091,0,0,1-2.686-1.411,3.589,3.589,0,0,1-.918-2.524,3.718,3.718,0,0,1,1.221-2.9,5.6,5.6,0,0,1,3.408-1.28v-1.328h1.367v1.328a5.478,5.478,0,0,1,3.262,1.3,3.715,3.715,0,0,1,1.25,2.8h-2.725a1.665,1.665,0,0,0-.517-1.162,2.166,2.166,0,0,0-1.27-.606v3.477l1.045.215q3.739.8,3.74,3.945a3.8,3.8,0,0,1-1.245,2.978,5.917,5.917,0,0,1-3.54,1.309ZM680.7,156.076a1.333,1.333,0,0,0,.459,1.03,2.79,2.79,0,0,0,1.338.591v-3.2a2.049,2.049,0,0,0-1.294.484,1.405,1.405,0,0,0-.5,1.1m5.176,6.4q0-1.329-2.012-1.7v3.4a2.475,2.475,0,0,0,1.48-.508,1.482,1.482,0,0,0,.532-1.191" transform="translate(18558 -13202.123)"/><path class="c" d="M690.082,156.476a4.225,4.225,0,0,1,1.426-3.311,5.371,5.371,0,0,1,3.711-1.269,5.476,5.476,0,0,1,3.6,1.147,3.665,3.665,0,0,1,1.392,2.964,4.235,4.235,0,0,1-.723,2.29,16.472,16.472,0,0,1-2.549,2.857l-2.7,2.568v.176h6.172v2.451H690.248v-2.061l4.6-4.5a17.373,17.373,0,0,0,1.982-2.168,2.5,2.5,0,0,0,.5-1.416,1.765,1.765,0,0,0-.62-1.392,2.586,2.586,0,0,0-3.252.068,2.094,2.094,0,0,0-.64,1.587v.059h-2.734Z" transform="translate(18558 -13202.123)"/><path class="c" d="M701.753,156.476a4.228,4.228,0,0,1,1.426-3.311,5.373,5.373,0,0,1,3.711-1.269,5.474,5.474,0,0,1,3.6,1.147,3.665,3.665,0,0,1,1.392,2.964,4.226,4.226,0,0,1-.723,2.29,16.384,16.384,0,0,1-2.549,2.857l-2.695,2.568v.176h6.172v2.451H701.919v-2.061l4.6-4.5a17.284,17.284,0,0,0,1.982-2.168,2.5,2.5,0,0,0,.5-1.416,1.762,1.762,0,0,0-.62-1.392,2.586,2.586,0,0,0-3.252.068,2.1,2.1,0,0,0-.64,1.587v.059h-2.734Z" transform="translate(18558 -13202.123)"/><path class="c" d="M723.115,164.742a5.268,5.268,0,0,1-8.213,0,8.876,8.876,0,0,1-1.488-5.463,8.775,8.775,0,0,1,1.488-5.435,5.295,5.295,0,0,1,8.21.005,10.69,10.69,0,0,1,0,10.893m-6.024-1.733a2.068,2.068,0,0,0,3.837.005,8.108,8.108,0,0,0,.688-3.735,7.933,7.933,0,0,0-.688-3.7,2.077,2.077,0,0,0-3.833.005,7.9,7.9,0,0,0-.693,3.692,8.112,8.112,0,0,0,.689,3.73" transform="translate(18558 -13202.123)"/><path class="c" d="M735.608,164.742a5.268,5.268,0,0,1-8.213,0,8.869,8.869,0,0,1-1.489-5.463,8.768,8.768,0,0,1,1.489-5.435,5.294,5.294,0,0,1,8.209.005,10.687,10.687,0,0,1,0,10.893m-6.025-1.733a2.068,2.068,0,0,0,3.838.005,8.122,8.122,0,0,0,.688-3.735,7.946,7.946,0,0,0-.688-3.7,2.077,2.077,0,0,0-3.833.005,7.891,7.891,0,0,0-.693,3.692,8.127,8.127,0,0,0,.688,3.73" transform="translate(18558 -13202.123)"/><path class="c" d="M748.1,164.742a5.268,5.268,0,0,1-8.213,0,8.869,8.869,0,0,1-1.489-5.463,8.769,8.769,0,0,1,1.489-5.435,5.294,5.294,0,0,1,8.209.005,10.687,10.687,0,0,1,0,10.893m-6.025-1.733a2.068,2.068,0,0,0,3.838.005,8.122,8.122,0,0,0,.688-3.735,7.946,7.946,0,0,0-.688-3.7,2.077,2.077,0,0,0-3.833.005,7.891,7.891,0,0,0-.693,3.692,8.127,8.127,0,0,0,.688,3.73" transform="translate(18558 -13202.123)"/></g><rect class="c" width="173.898" height="261.194" transform="translate(19139 -13022.352)"/><g transform="translate(1.902 3.663)"><path class="d" d="M616.376,227.393H607.1l18.091-18.677,13.184-16.553h9.3l-18.457,18.824Zm-.391-17.847a7.681,7.681,0,0,1-5.775-2.2,8.151,8.151,0,0,1-2.135-5.933,10.2,10.2,0,0,1,2.71-7.214,8.819,8.819,0,0,1,6.738-2.917,7.819,7.819,0,0,1,5.822,2.184,8.019,8.019,0,0,1,2.161,5.9,10.23,10.23,0,0,1-2.734,7.251,8.908,8.908,0,0,1-6.787,2.929m1.391-12.988a2.583,2.583,0,0,0-2.172,1.4,6.115,6.115,0,0,0-.9,3.382,3.755,3.755,0,0,0,.513,2.124,1.618,1.618,0,0,0,1.416.757,2.581,2.581,0,0,0,2.173-1.429,6.287,6.287,0,0,0,.9-3.429,3.656,3.656,0,0,0-.5-2.076,1.627,1.627,0,0,0-1.428-.732M637.005,228.3a7.707,7.707,0,0,1-5.774-2.184,8.107,8.107,0,0,1-2.136-5.921,10.235,10.235,0,0,1,2.71-7.239,8.822,8.822,0,0,1,6.738-2.917,7.822,7.822,0,0,1,5.823,2.184,8.023,8.023,0,0,1,2.161,5.9,10.2,10.2,0,0,1-2.747,7.251,8.918,8.918,0,0,1-6.775,2.929m1.392-12.988a2.584,2.584,0,0,0-2.173,1.416,6.178,6.178,0,0,0-.9,3.394,3.761,3.761,0,0,0,.5,2.111,1.618,1.618,0,0,0,1.429.745,2.553,2.553,0,0,0,2.16-1.429,6.352,6.352,0,0,0,.891-3.429,3.656,3.656,0,0,0-.5-2.076,1.6,1.6,0,0,0-1.4-.732" transform="translate(18558 -13202.123)"/><path class="d" d="M663.18,228.345q-6.1,0-9.631-3.772t-3.528-10.315a31.029,31.029,0,0,1,1.33-9.24A23.212,23.212,0,0,1,655,197.705a17.075,17.075,0,0,1,5.578-4.76,14.672,14.672,0,0,1,6.995-1.734q6.127,0,9.68,3.76t3.552,10.278a30.9,30.9,0,0,1-1.342,9.253,23.408,23.408,0,0,1-3.675,7.336,17.1,17.1,0,0,1-5.6,4.774,14.75,14.75,0,0,1-7.007,1.733m-4.15-13.5a8.773,8.773,0,0,0,1.135,4.834,3.578,3.578,0,0,0,3.162,1.733,5.512,5.512,0,0,0,4.138-2.319,17.3,17.3,0,0,0,3.149-6.213,28.109,28.109,0,0,0,1.185-8.216,8.527,8.527,0,0,0-1.148-4.785,3.647,3.647,0,0,0-3.2-1.709,5.484,5.484,0,0,0-4.126,2.308,17.129,17.129,0,0,0-3.125,6.176,28.121,28.121,0,0,0-1.172,8.191" transform="translate(18558 -13202.123)"/><path class="d" d="M683.838,228.2a4.94,4.94,0,0,1-3.577-1.306,4.23,4.23,0,0,1-1.355-3.162,4.748,4.748,0,0,1,1.343-3.467,4.8,4.8,0,0,1,3.589-1.367,4.936,4.936,0,0,1,3.576,1.307,4.231,4.231,0,0,1,1.356,3.161,4.748,4.748,0,0,1-1.343,3.467,4.806,4.806,0,0,1-3.589,1.367" transform="translate(18558 -13202.123)"/><path class="d" d="M721.926,214.771a12.916,12.916,0,0,1-1.917,6.884,13.485,13.485,0,0,1-5.249,4.908,15.372,15.372,0,0,1-7.36,1.782q-6.593,0-10.316-3.882t-3.723-10.791a28.8,28.8,0,0,1,1.282-8.691,22.821,22.821,0,0,1,3.65-7.154,16.765,16.765,0,0,1,5.725-4.895,15.5,15.5,0,0,1,7.215-1.721,13.961,13.961,0,0,1,9.24,3.039,9.744,9.744,0,0,1,3.7,7.7h-8.594a4.241,4.241,0,0,0-1.549-2.783,4.986,4.986,0,0,0-3.211-1.025,6.763,6.763,0,0,0-5.36,2.856,15.589,15.589,0,0,0-3.039,7.52l.464.024a10.069,10.069,0,0,1,3.7-3.185,10.623,10.623,0,0,1,4.847-1.112,10.113,10.113,0,0,1,10.5,10.523m-13.793-4.346a5.949,5.949,0,0,0-4.347,1.733,5.77,5.77,0,0,0-1.757,4.273,4.8,4.8,0,0,0,1.513,3.638,5.337,5.337,0,0,0,3.833,1.44,5.763,5.763,0,0,0,4.26-1.733,5.86,5.86,0,0,0,1.722-4.3,4.828,4.828,0,0,0-1.478-3.625,5.165,5.165,0,0,0-3.746-1.429" transform="translate(18558 -13202.123)"/></g></g><g transform="translate(-1)"><g transform="translate(12.325 2)"><path class="c" d="M785.952,96.868h-1.367v-1.22a5.977,5.977,0,0,1-3.6-1.221,3.607,3.607,0,0,1-1.313-2.881h2.793a1.715,1.715,0,0,0,.63,1.221,2.665,2.665,0,0,0,1.489.6V89.73l-1.025-.245a5.1,5.1,0,0,1-2.686-1.411,3.594,3.594,0,0,1-.918-2.524,3.721,3.721,0,0,1,1.221-2.9,5.6,5.6,0,0,1,3.408-1.28V80.042h1.367V81.37a5.473,5.473,0,0,1,3.262,1.3,3.711,3.711,0,0,1,1.25,2.8h-2.725a1.66,1.66,0,0,0-.517-1.162,2.163,2.163,0,0,0-1.27-.606v3.477L787,87.4q3.741.8,3.74,3.945a3.8,3.8,0,0,1-1.245,2.978,5.915,5.915,0,0,1-3.54,1.309Zm-3.164-11.591a1.336,1.336,0,0,0,.459,1.03,2.8,2.8,0,0,0,1.338.591v-3.2a2.051,2.051,0,0,0-1.294.484,1.408,1.408,0,0,0-.5,1.1m5.176,6.4q0-1.329-2.012-1.7v3.4a2.47,2.47,0,0,0,1.48-.508,1.479,1.479,0,0,0,.532-1.191" transform="translate(18558 -13202.123)"/><path class="c" d="M792.174,85.677a4.229,4.229,0,0,1,1.426-3.311,5.373,5.373,0,0,1,3.711-1.269,5.474,5.474,0,0,1,3.6,1.147,3.665,3.665,0,0,1,1.392,2.964,4.226,4.226,0,0,1-.723,2.29,16.386,16.386,0,0,1-2.549,2.857l-2.7,2.568V93.1h6.172V95.55H792.34V93.489l4.6-4.5a17.283,17.283,0,0,0,1.982-2.168,2.5,2.5,0,0,0,.5-1.416,1.762,1.762,0,0,0-.62-1.392,2.586,2.586,0,0,0-3.252.068,2.1,2.1,0,0,0-.64,1.587v.059h-2.734Z" transform="translate(18558 -13202.123)"/><path class="c" d="M803.846,85.677a4.225,4.225,0,0,1,1.426-3.311,5.371,5.371,0,0,1,3.711-1.269,5.476,5.476,0,0,1,3.6,1.147,3.665,3.665,0,0,1,1.392,2.964,4.235,4.235,0,0,1-.723,2.29,16.469,16.469,0,0,1-2.549,2.857l-2.7,2.568V93.1h6.172V95.55H804.012V93.489l4.6-4.5a17.363,17.363,0,0,0,1.982-2.168,2.5,2.5,0,0,0,.5-1.416,1.765,1.765,0,0,0-.62-1.392,2.586,2.586,0,0,0-3.252.068,2.1,2.1,0,0,0-.64,1.587v.059h-2.734Z" transform="translate(18558 -13202.123)"/><path class="c" d="M825.209,93.943a5.268,5.268,0,0,1-8.213,0,8.869,8.869,0,0,1-1.489-5.463A8.769,8.769,0,0,1,817,83.045a5.294,5.294,0,0,1,8.209.005,8.77,8.77,0,0,1,1.494,5.439,8.852,8.852,0,0,1-1.49,5.454m-6.025-1.733a2.068,2.068,0,0,0,3.838,0,8.121,8.121,0,0,0,.688-3.735,7.946,7.946,0,0,0-.688-3.7,2.077,2.077,0,0,0-3.833.005,7.89,7.89,0,0,0-.693,3.692,8.126,8.126,0,0,0,.688,3.73" transform="translate(18558 -13202.123)"/><path class="c" d="M837.7,93.943a5.268,5.268,0,0,1-8.213,0A8.876,8.876,0,0,1,828,88.48a8.775,8.775,0,0,1,1.489-5.435,5.294,5.294,0,0,1,8.209.005,8.769,8.769,0,0,1,1.494,5.439,8.846,8.846,0,0,1-1.49,5.454m-6.025-1.733a2.068,2.068,0,0,0,3.838,0,8.121,8.121,0,0,0,.688-3.735,7.946,7.946,0,0,0-.688-3.7,2.077,2.077,0,0,0-3.833.005,7.9,7.9,0,0,0-.693,3.692,8.127,8.127,0,0,0,.688,3.73" transform="translate(18558 -13202.123)"/><path class="c" d="M844.074,95.55V84.329H843.9l-3.457,2.383V83.968l3.643-2.51h2.939V95.55Z" transform="translate(18558 -13202.123)"/><path class="c" d="M854.5,82.22h2.842v2.666h2.236v2.236h-2.236v4.844A1.4,1.4,0,0,0,857.676,93a1.455,1.455,0,0,0,1.059.332,7.676,7.676,0,0,0,.84-.039v2.168a7.467,7.467,0,0,1-1.426.127,4.5,4.5,0,0,1-2.807-.683,2.752,2.752,0,0,1-.845-2.266V87.122h-1.68V84.886h1.68Z" transform="translate(18558 -13202.123)"/><path class="c" d="M869.327,94.29a5.817,5.817,0,0,1-7.784,0,6.712,6.712,0,0,1,.01-8.247,5.776,5.776,0,0,1,7.764,0,6.712,6.712,0,0,1,.01,8.247m-3.892-.83a2.045,2.045,0,0,0,1.758-.864,4.11,4.11,0,0,0,.625-2.437,4.064,4.064,0,0,0-.63-2.422,2.208,2.208,0,0,0-3.511,0,5.052,5.052,0,0,0-.005,4.859,2.04,2.04,0,0,0,1.763.864" transform="translate(18558 -13202.123)"/><path class="c" d="M882.038,96.868h-1.367v-1.22a5.977,5.977,0,0,1-3.6-1.221,3.607,3.607,0,0,1-1.313-2.881h2.793a1.715,1.715,0,0,0,.63,1.221,2.665,2.665,0,0,0,1.489.6V89.73l-1.025-.245a5.1,5.1,0,0,1-2.686-1.411,3.594,3.594,0,0,1-.918-2.524,3.721,3.721,0,0,1,1.221-2.9,5.6,5.6,0,0,1,3.408-1.28V80.042h1.367V81.37a5.473,5.473,0,0,1,3.262,1.3,3.711,3.711,0,0,1,1.25,2.8h-2.725a1.66,1.66,0,0,0-.517-1.162,2.163,2.163,0,0,0-1.27-.606v3.477l1.045.215q3.741.8,3.74,3.945a3.8,3.8,0,0,1-1.245,2.978,5.915,5.915,0,0,1-3.54,1.309Zm-3.164-11.591a1.336,1.336,0,0,0,.459,1.03,2.8,2.8,0,0,0,1.338.591v-3.2a2.051,2.051,0,0,0-1.294.484,1.408,1.408,0,0,0-.5,1.1m5.176,6.4q0-1.329-2.012-1.7v3.4a2.47,2.47,0,0,0,1.48-.508,1.479,1.479,0,0,0,.532-1.191" transform="translate(18558 -13202.123)"/><path class="c" d="M895.008,95.549V93.09h-6.894V90.482q1.65-3.116,5.576-9.024h4.131v9.18h1.845V93.09h-1.845v2.459Zm-4.248-4.98v.156h4.316V83.754h-.156q-2.256,3.369-4.16,6.815" transform="translate(18558 -13202.123)"/><path class="c" d="M906.319,95.911a5.568,5.568,0,0,1-3.726-1.226,4.131,4.131,0,0,1-1.518-3.139H903.8a2.094,2.094,0,0,0,.831,1.416,2.731,2.731,0,0,0,1.709.537,2.513,2.513,0,0,0,1.85-.7,2.487,2.487,0,0,0,.708-1.846,2.539,2.539,0,0,0-.713-1.875,2.483,2.483,0,0,0-1.836-.713,2.632,2.632,0,0,0-2.412,1.27H901.3l.7-8.174h8.857v2.451h-6.572l-.313,3.623h.176a3.386,3.386,0,0,1,2.988-1.377,4.374,4.374,0,0,1,3.286,1.328,4.691,4.691,0,0,1,1.285,3.4,4.753,4.753,0,0,1-1.485,3.637,5.48,5.48,0,0,1-3.906,1.392" transform="translate(18558 -13202.123)"/><path class="c" d="M922.594,93.943a5.268,5.268,0,0,1-8.213,0,8.869,8.869,0,0,1-1.489-5.463,8.769,8.769,0,0,1,1.489-5.435,5.294,5.294,0,0,1,8.209.005,8.77,8.77,0,0,1,1.494,5.439,8.853,8.853,0,0,1-1.49,5.454m-6.025-1.733a2.068,2.068,0,0,0,3.838,0,8.121,8.121,0,0,0,.688-3.735,7.946,7.946,0,0,0-.688-3.7,2.077,2.077,0,0,0-3.833.005,7.891,7.891,0,0,0-.693,3.692,8.127,8.127,0,0,0,.688,3.73" transform="translate(18558 -13202.123)"/><path class="c" d="M935.085,93.943a5.268,5.268,0,0,1-8.213,0,8.876,8.876,0,0,1-1.489-5.463,8.775,8.775,0,0,1,1.489-5.435,5.294,5.294,0,0,1,8.209.005,8.769,8.769,0,0,1,1.494,5.439,8.846,8.846,0,0,1-1.49,5.454M929.06,92.21a2.068,2.068,0,0,0,3.838,0,8.121,8.121,0,0,0,.688-3.735,7.946,7.946,0,0,0-.688-3.7,2.077,2.077,0,0,0-3.833.005,7.9,7.9,0,0,0-.693,3.692,8.127,8.127,0,0,0,.688,3.73" transform="translate(18558 -13202.123)"/><path class="c" d="M947.576,93.943a5.268,5.268,0,0,1-8.213,0,8.876,8.876,0,0,1-1.488-5.463,8.775,8.775,0,0,1,1.488-5.435,5.295,5.295,0,0,1,8.21.005,8.776,8.776,0,0,1,1.493,5.439,8.846,8.846,0,0,1-1.49,5.454m-6.024-1.733a2.068,2.068,0,0,0,3.837,0,8.108,8.108,0,0,0,.688-3.735,7.933,7.933,0,0,0-.688-3.7,2.077,2.077,0,0,0-3.833.005,7.9,7.9,0,0,0-.693,3.692,8.112,8.112,0,0,0,.689,3.73" transform="translate(18558 -13202.123)"/></g><g transform="translate(9.285)"><rect class="c" width="173.898" height="331.993" transform="translate(19338.715 -13093.149)"/><g transform="translate(1.346 3)"><path class="d" d="M816.656,157.172h-9.278l18.091-18.677,13.184-16.553h9.3L829.5,140.766Zm-.391-17.847a7.68,7.68,0,0,1-5.774-2.2,8.148,8.148,0,0,1-2.136-5.933,10.2,10.2,0,0,1,2.71-7.214,8.819,8.819,0,0,1,6.738-2.917,7.822,7.822,0,0,1,5.823,2.184,8.018,8.018,0,0,1,2.16,5.9,10.226,10.226,0,0,1-2.734,7.251,8.907,8.907,0,0,1-6.787,2.929m1.391-12.988a2.584,2.584,0,0,0-2.172,1.4,6.115,6.115,0,0,0-.9,3.382,3.755,3.755,0,0,0,.513,2.124,1.618,1.618,0,0,0,1.416.757,2.58,2.58,0,0,0,2.173-1.429,6.279,6.279,0,0,0,.9-3.429,3.665,3.665,0,0,0-.5-2.076,1.628,1.628,0,0,0-1.429-.732m19.629,31.738a7.706,7.706,0,0,1-5.773-2.184,8.1,8.1,0,0,1-2.137-5.921,10.235,10.235,0,0,1,2.71-7.239,8.822,8.822,0,0,1,6.738-2.917A7.824,7.824,0,0,1,844.647,142a8.022,8.022,0,0,1,2.16,5.9,10.2,10.2,0,0,1-2.746,7.251,8.92,8.92,0,0,1-6.776,2.929m1.392-12.988A2.585,2.585,0,0,0,836.5,146.5a6.178,6.178,0,0,0-.9,3.394,3.76,3.76,0,0,0,.5,2.111,1.617,1.617,0,0,0,1.428.745,2.555,2.555,0,0,0,2.161-1.429,6.352,6.352,0,0,0,.89-3.429,3.665,3.665,0,0,0-.5-2.076,1.6,1.6,0,0,0-1.4-.732" transform="translate(18558 -13202.123)"/><path class="d" d="M863.46,158.124q-6.1,0-9.63-3.772T850.3,144.037a31,31,0,0,1,1.331-9.24,23.232,23.232,0,0,1,3.65-7.313,17.08,17.08,0,0,1,5.579-4.76,14.668,14.668,0,0,1,6.994-1.734q6.128,0,9.681,3.76t3.551,10.278a30.864,30.864,0,0,1-1.342,9.253,23.426,23.426,0,0,1-3.674,7.336,17.1,17.1,0,0,1-5.6,4.774,14.746,14.746,0,0,1-7.007,1.733m-4.15-13.5a8.773,8.773,0,0,0,1.136,4.834,3.578,3.578,0,0,0,3.161,1.733,5.514,5.514,0,0,0,4.139-2.319,17.328,17.328,0,0,0,3.149-6.213,28.108,28.108,0,0,0,1.184-8.216,8.527,8.527,0,0,0-1.148-4.785,3.646,3.646,0,0,0-3.2-1.709,5.486,5.486,0,0,0-4.126,2.308,17.146,17.146,0,0,0-3.125,6.176,28.121,28.121,0,0,0-1.172,8.191" transform="translate(18558 -13202.123)"/><path class="d" d="M884.118,157.978a4.938,4.938,0,0,1-3.576-1.306,4.231,4.231,0,0,1-1.356-3.162,4.748,4.748,0,0,1,1.343-3.467,4.806,4.806,0,0,1,3.589-1.367,4.937,4.937,0,0,1,3.577,1.307,4.23,4.23,0,0,1,1.355,3.161,4.743,4.743,0,0,1-1.343,3.467,4.806,4.806,0,0,1-3.589,1.367" transform="translate(18558 -13202.123)"/><path class="d" d="M893.838,157.172l20.532-27.856.122-.489H897.769l1.465-6.884h26.025l-1.465,6.909-20.239,28.32Z" transform="translate(18558 -13202.123)"/></g></g></g><g transform="translate(6.001)"><rect class="c" width="173.898" height="124.378" transform="translate(18749 -12885.533)"/><g transform="translate(18563.967 -13198.608)"><path class="d" d="M222.312,364.938h-9.278l18.091-18.677,13.184-16.553h9.3l-18.457,18.824Zm-.391-17.847a7.681,7.681,0,0,1-5.774-2.2,8.148,8.148,0,0,1-2.136-5.933,10.2,10.2,0,0,1,2.71-7.214,8.819,8.819,0,0,1,6.738-2.917,7.823,7.823,0,0,1,5.823,2.184,8.022,8.022,0,0,1,2.16,5.9,10.225,10.225,0,0,1-2.734,7.251,8.907,8.907,0,0,1-6.787,2.929m1.391-12.988a2.584,2.584,0,0,0-2.172,1.4,6.115,6.115,0,0,0-.9,3.382,3.755,3.755,0,0,0,.513,2.124,1.618,1.618,0,0,0,1.416.757,2.581,2.581,0,0,0,2.173-1.429,6.279,6.279,0,0,0,.9-3.429,3.665,3.665,0,0,0-.5-2.076,1.628,1.628,0,0,0-1.429-.732m19.629,31.738a7.707,7.707,0,0,1-5.774-2.184,8.107,8.107,0,0,1-2.136-5.921,10.235,10.235,0,0,1,2.71-7.239,8.822,8.822,0,0,1,6.738-2.917,7.82,7.82,0,0,1,5.823,2.184,8.019,8.019,0,0,1,2.161,5.9,10.2,10.2,0,0,1-2.747,7.251,8.918,8.918,0,0,1-6.775,2.929m1.392-12.988a2.584,2.584,0,0,0-2.173,1.416,6.178,6.178,0,0,0-.9,3.394,3.76,3.76,0,0,0,.5,2.111,1.619,1.619,0,0,0,1.429.745,2.552,2.552,0,0,0,2.16-1.429,6.343,6.343,0,0,0,.891-3.429,3.665,3.665,0,0,0-.5-2.076,1.606,1.606,0,0,0-1.4-.732"/><path class="d" d="M269.116,365.89q-6.1,0-9.632-3.772T255.957,351.8a31,31,0,0,1,1.331-9.24,23.17,23.17,0,0,1,3.65-7.313,17.056,17.056,0,0,1,5.578-4.76,14.671,14.671,0,0,1,6.994-1.734q6.127,0,9.68,3.76t3.552,10.278a30.864,30.864,0,0,1-1.341,9.253,23.408,23.408,0,0,1-3.676,7.336,17.075,17.075,0,0,1-5.6,4.774,14.746,14.746,0,0,1-7.006,1.733m-4.15-13.5a8.782,8.782,0,0,0,1.134,4.834,3.581,3.581,0,0,0,3.163,1.733,5.51,5.51,0,0,0,4.138-2.319,17.3,17.3,0,0,0,3.148-6.213,28.043,28.043,0,0,0,1.185-8.216,8.519,8.519,0,0,0-1.148-4.785,3.644,3.644,0,0,0-3.2-1.709,5.484,5.484,0,0,0-4.125,2.308,17.13,17.13,0,0,0-3.125,6.176,28.121,28.121,0,0,0-1.172,8.191"/><path class="d" d="M289.773,365.744a4.942,4.942,0,0,1-3.577-1.306,4.23,4.23,0,0,1-1.355-3.162,4.748,4.748,0,0,1,1.343-3.467,4.8,4.8,0,0,1,3.589-1.367,4.938,4.938,0,0,1,3.577,1.307,4.23,4.23,0,0,1,1.355,3.161,4.744,4.744,0,0,1-1.343,3.467,4.806,4.806,0,0,1-3.589,1.367"/><path class="d" d="M315.167,364.938l1.22-5.713H299l1.489-7.836q5.886-8.007,17.774-21.68h12.866l-4.785,22.534h4.371l-1.466,6.982h-4.394l-1.221,5.713Zm-6.909-12.817-.074.439h9.863l3.491-16.455H321.1q-6.445,7.471-12.841,16.016"/></g><g transform="translate(6.43 -4)"><path class="c" d="M204.849,310.174h-1.367v-1.22a5.974,5.974,0,0,1-3.6-1.221,3.6,3.6,0,0,1-1.313-2.881h2.793a1.715,1.715,0,0,0,.63,1.221,2.662,2.662,0,0,0,1.489.6v-3.632l-1.025-.245a5.1,5.1,0,0,1-2.686-1.411,3.589,3.589,0,0,1-.918-2.524,3.721,3.721,0,0,1,1.221-2.9,5.6,5.6,0,0,1,3.408-1.28v-1.328h1.367v1.328a5.478,5.478,0,0,1,3.262,1.3,3.711,3.711,0,0,1,1.25,2.8h-2.725a1.665,1.665,0,0,0-.517-1.162,2.166,2.166,0,0,0-1.27-.606v3.477l1.045.215q3.741.8,3.74,3.945a3.8,3.8,0,0,1-1.245,2.978,5.917,5.917,0,0,1-3.54,1.309Zm-3.164-11.591a1.333,1.333,0,0,0,.459,1.03,2.79,2.79,0,0,0,1.338.591V297a2.051,2.051,0,0,0-1.294.484,1.408,1.408,0,0,0-.5,1.1m5.176,6.4q0-1.329-2.012-1.7v3.4a2.47,2.47,0,0,0,1.48-.508,1.479,1.479,0,0,0,.532-1.191" transform="translate(18558 -13202.123)"/><path class="c" d="M211.072,298.983a4.224,4.224,0,0,1,1.425-3.311,5.371,5.371,0,0,1,3.711-1.269,5.472,5.472,0,0,1,3.6,1.147,3.666,3.666,0,0,1,1.393,2.964,4.236,4.236,0,0,1-.724,2.29,16.386,16.386,0,0,1-2.549,2.857l-2.695,2.568v.176H221.4v2.451H211.237V306.8l4.6-4.5a17.369,17.369,0,0,0,1.982-2.168,2.5,2.5,0,0,0,.5-1.416,1.762,1.762,0,0,0-.62-1.392,2.586,2.586,0,0,0-3.252.068,2.1,2.1,0,0,0-.64,1.587v.059h-2.733Z" transform="translate(18558 -13202.123)"/><path class="c" d="M232.435,307.249a5.268,5.268,0,0,1-8.213,0,8.876,8.876,0,0,1-1.489-5.463,8.775,8.775,0,0,1,1.489-5.435,5.294,5.294,0,0,1,8.209,0,10.687,10.687,0,0,1,0,10.893m-6.025-1.733a2.068,2.068,0,0,0,3.838.005,8.121,8.121,0,0,0,.688-3.735,7.946,7.946,0,0,0-.688-3.7,2.077,2.077,0,0,0-3.833.005,7.891,7.891,0,0,0-.693,3.692,8.126,8.126,0,0,0,.688,3.73" transform="translate(18558 -13202.123)"/><path class="c" d="M244.926,307.249a5.268,5.268,0,0,1-8.213,0,8.876,8.876,0,0,1-1.489-5.463,8.775,8.775,0,0,1,1.489-5.435,5.294,5.294,0,0,1,8.209,0,10.687,10.687,0,0,1,0,10.893m-6.025-1.733a2.068,2.068,0,0,0,3.838.005,8.121,8.121,0,0,0,.688-3.735,7.946,7.946,0,0,0-.688-3.7,2.077,2.077,0,0,0-3.833.005,7.891,7.891,0,0,0-.693,3.692,8.126,8.126,0,0,0,.688,3.73" transform="translate(18558 -13202.123)"/><path class="c" d="M251.3,308.856V297.635h-.176l-3.457,2.383v-2.744l3.643-2.51h2.939v14.092Z" transform="translate(18558 -13202.123)"/><path class="c" d="M261.722,295.526h2.842v2.666H266.8v2.236h-2.236v4.844a1.4,1.4,0,0,0,.337,1.035,1.455,1.455,0,0,0,1.059.332,7.673,7.673,0,0,0,.84-.039v2.168a7.46,7.46,0,0,1-1.426.127,4.5,4.5,0,0,1-2.807-.683,2.755,2.755,0,0,1-.845-2.266v-5.518h-1.68v-2.236h1.68Z" transform="translate(18558 -13202.123)"/><path class="c" d="M276.553,307.6a5.817,5.817,0,0,1-7.784,0,6.712,6.712,0,0,1,.01-8.247,5.776,5.776,0,0,1,7.764,0,6.712,6.712,0,0,1,.01,8.247m-3.892-.83a2.045,2.045,0,0,0,1.758-.864,4.11,4.11,0,0,0,.625-2.437,4.064,4.064,0,0,0-.63-2.422,2.208,2.208,0,0,0-3.511,0,5.052,5.052,0,0,0-.005,4.859,2.042,2.042,0,0,0,1.763.864" transform="translate(18558 -13202.123)"/><path class="c" d="M289.265,310.174H287.9v-1.22a5.974,5.974,0,0,1-3.6-1.221,3.6,3.6,0,0,1-1.313-2.881h2.793a1.715,1.715,0,0,0,.63,1.221,2.662,2.662,0,0,0,1.489.6v-3.632l-1.025-.245a5.1,5.1,0,0,1-2.686-1.411,3.589,3.589,0,0,1-.918-2.524,3.721,3.721,0,0,1,1.221-2.9,5.6,5.6,0,0,1,3.408-1.28v-1.328h1.367v1.328a5.478,5.478,0,0,1,3.262,1.3,3.711,3.711,0,0,1,1.25,2.8h-2.725a1.665,1.665,0,0,0-.517-1.162,2.166,2.166,0,0,0-1.27-.606v3.477l1.045.215q3.741.8,3.74,3.945a3.8,3.8,0,0,1-1.245,2.978,5.917,5.917,0,0,1-3.54,1.309ZM286.1,298.583a1.333,1.333,0,0,0,.459,1.03,2.79,2.79,0,0,0,1.338.591V297a2.051,2.051,0,0,0-1.294.484,1.408,1.408,0,0,0-.5,1.1m5.176,6.4q0-1.329-2.012-1.7v3.4a2.47,2.47,0,0,0,1.48-.508,1.479,1.479,0,0,0,.532-1.191" transform="translate(18558 -13202.123)"/><path class="c" d="M305.281,308.07a7.972,7.972,0,0,1-8.233,0,3.52,3.52,0,0,1-1.571-2.978,3.425,3.425,0,0,1,.845-2.31,4.029,4.029,0,0,1,2.26-1.294v-.174a3.264,3.264,0,0,1-1.845-1.1,2.993,2.993,0,0,1-.694-1.963,3.316,3.316,0,0,1,1.44-2.769,6.825,6.825,0,0,1,7.363,0,3.316,3.316,0,0,1,1.442,2.769,2.987,2.987,0,0,1-.689,1.957,3.3,3.3,0,0,1-1.85,1.11v.174a3.833,3.833,0,0,1,2.259,1.246,3.432,3.432,0,0,1,.855,2.33,3.543,3.543,0,0,1-1.582,3m-6.01-1.685a3.261,3.261,0,0,0,3.784,0,2.041,2.041,0,0,0,0-3.134,3.256,3.256,0,0,0-3.784,0,2.05,2.05,0,0,0,0,3.134m.3-6.46a2.615,2.615,0,0,0,3.188,0,1.881,1.881,0,0,0,0-2.793,2.615,2.615,0,0,0-3.188,0,1.891,1.891,0,0,0,0,2.793" transform="translate(18558 -13202.123)"/><path class="c" d="M317.758,307.249a5.268,5.268,0,0,1-8.213,0,8.876,8.876,0,0,1-1.489-5.463,8.775,8.775,0,0,1,1.489-5.435,5.294,5.294,0,0,1,8.209,0,10.687,10.687,0,0,1,0,10.893m-6.025-1.733a2.068,2.068,0,0,0,3.838.005,8.121,8.121,0,0,0,.688-3.735,7.946,7.946,0,0,0-.688-3.7,2.077,2.077,0,0,0-3.833.005,7.891,7.891,0,0,0-.693,3.692,8.126,8.126,0,0,0,.688,3.73" transform="translate(18558 -13202.123)"/><path class="c" d="M330.249,307.249a5.268,5.268,0,0,1-8.213,0,8.876,8.876,0,0,1-1.489-5.463,8.775,8.775,0,0,1,1.489-5.435,5.294,5.294,0,0,1,8.209,0,10.687,10.687,0,0,1,0,10.893m-6.025-1.733a2.068,2.068,0,0,0,3.838.005,8.121,8.121,0,0,0,.688-3.735,7.946,7.946,0,0,0-.688-3.7,2.077,2.077,0,0,0-3.833.005,7.891,7.891,0,0,0-.693,3.692,8.127,8.127,0,0,0,.688,3.73" transform="translate(18558 -13202.123)"/><path class="c" d="M342.741,307.249a5.269,5.269,0,0,1-8.214,0,8.876,8.876,0,0,1-1.488-5.463,8.775,8.775,0,0,1,1.488-5.435,5.295,5.295,0,0,1,8.21,0,8.77,8.77,0,0,1,1.493,5.439,8.859,8.859,0,0,1-1.489,5.454m-6.025-1.733a2.068,2.068,0,0,0,3.837.005,8.108,8.108,0,0,0,.688-3.735,7.934,7.934,0,0,0-.688-3.7,2.077,2.077,0,0,0-3.833.005,7.9,7.9,0,0,0-.693,3.692,8.125,8.125,0,0,0,.689,3.73" transform="translate(18558 -13202.123)"/></g></g><rect class="c" width="173.903" height="400.778" transform="translate(19544 -13162.391)"/><g transform="translate(4.979 4)"><path class="d" d="M1018.3,87.793h-9.277l18.091-18.677L1040.3,52.563h9.3l-18.457,18.824Zm-.39-17.847a7.681,7.681,0,0,1-5.775-2.2A8.151,8.151,0,0,1,1010,61.816a10.2,10.2,0,0,1,2.71-7.214,8.819,8.819,0,0,1,6.738-2.917,7.819,7.819,0,0,1,5.822,2.184,8.019,8.019,0,0,1,2.161,5.9,10.23,10.23,0,0,1-2.734,7.251,8.909,8.909,0,0,1-6.787,2.929m1.391-12.988a2.583,2.583,0,0,0-2.172,1.4,6.115,6.115,0,0,0-.9,3.382,3.755,3.755,0,0,0,.513,2.124,1.618,1.618,0,0,0,1.416.757,2.581,2.581,0,0,0,2.173-1.429,6.287,6.287,0,0,0,.9-3.429,3.656,3.656,0,0,0-.5-2.076,1.627,1.627,0,0,0-1.428-.732M1038.929,88.7a7.707,7.707,0,0,1-5.774-2.184,8.107,8.107,0,0,1-2.136-5.921,10.235,10.235,0,0,1,2.71-7.239,8.822,8.822,0,0,1,6.738-2.917,7.822,7.822,0,0,1,5.823,2.184,8.023,8.023,0,0,1,2.161,5.9,10.2,10.2,0,0,1-2.747,7.251,8.918,8.918,0,0,1-6.775,2.929m1.392-12.988a2.584,2.584,0,0,0-2.173,1.416,6.179,6.179,0,0,0-.9,3.394,3.76,3.76,0,0,0,.5,2.111,1.618,1.618,0,0,0,1.429.745,2.553,2.553,0,0,0,2.16-1.429,6.352,6.352,0,0,0,.891-3.429,3.656,3.656,0,0,0-.5-2.076,1.6,1.6,0,0,0-1.4-.732" transform="translate(18558 -13202.123)"/><path class="d" d="M1065.1,88.745q-6.1,0-9.631-3.772t-3.528-10.315a31.029,31.029,0,0,1,1.33-9.24,23.212,23.212,0,0,1,3.651-7.313,17.077,17.077,0,0,1,5.578-4.76,14.672,14.672,0,0,1,6.995-1.734q6.127,0,9.68,3.76t3.552,10.278a30.9,30.9,0,0,1-1.342,9.253,23.408,23.408,0,0,1-3.675,7.336,17.094,17.094,0,0,1-5.6,4.774,14.749,14.749,0,0,1-7.007,1.733m-4.15-13.5a8.773,8.773,0,0,0,1.135,4.834,3.578,3.578,0,0,0,3.162,1.733,5.512,5.512,0,0,0,4.138-2.319,17.3,17.3,0,0,0,3.149-6.213,28.107,28.107,0,0,0,1.185-8.216,8.527,8.527,0,0,0-1.148-4.785,3.647,3.647,0,0,0-3.2-1.709,5.484,5.484,0,0,0-4.126,2.308,17.131,17.131,0,0,0-3.125,6.176,28.121,28.121,0,0,0-1.172,8.191" transform="translate(18558 -13202.123)"/><path class="d" d="M1085.761,88.6a4.94,4.94,0,0,1-3.577-1.306,4.231,4.231,0,0,1-1.355-3.162,4.748,4.748,0,0,1,1.343-3.467,4.8,4.8,0,0,1,3.589-1.367,4.936,4.936,0,0,1,3.576,1.307,4.231,4.231,0,0,1,1.356,3.161,4.747,4.747,0,0,1-1.343,3.467,4.806,4.806,0,0,1-3.589,1.367" transform="translate(18558 -13202.123)"/><path class="d" d="M1124.314,77.9a9.183,9.183,0,0,1-4.346,7.788,18.8,18.8,0,0,1-11.06,3.052,17.706,17.706,0,0,1-10.351-2.808,8.5,8.5,0,0,1-4.028-7.251,8.991,8.991,0,0,1,2.721-6.555,12.6,12.6,0,0,1,7.215-3.454l.1-.464a7.752,7.752,0,0,1-3.626-2.625,6.355,6.355,0,0,1-1.355-3.918,8.6,8.6,0,0,1,3.931-7.2,16.419,16.419,0,0,1,9.912-2.857,17.261,17.261,0,0,1,6.616,1.233,11.5,11.5,0,0,1,4.724,3.382,7.436,7.436,0,0,1,1.722,4.76,7.991,7.991,0,0,1-2.259,5.7,9.994,9.994,0,0,1-5.945,2.942l-.1.464a9.41,9.41,0,0,1,4.492,3.063,7.5,7.5,0,0,1,1.636,4.749m-14.453-5.3a6.129,6.129,0,0,0-4.237,1.514,4.863,4.863,0,0,0-1.7,3.784,4.043,4.043,0,0,0,1.477,3.247,5.8,5.8,0,0,0,3.87,1.245,6.217,6.217,0,0,0,4.259-1.489,4.761,4.761,0,0,0,1.7-3.735,4.126,4.126,0,0,0-1.5-3.284,5.754,5.754,0,0,0-3.869-1.282m-1.807-9.985a3.659,3.659,0,0,0,1.257,2.856,4.636,4.636,0,0,0,3.211,1.123,5.089,5.089,0,0,0,3.625-1.416,4.473,4.473,0,0,0,1.5-3.369,3.672,3.672,0,0,0-1.282-2.869,4.669,4.669,0,0,0-3.21-1.135,5.072,5.072,0,0,0-3.614,1.4,4.5,4.5,0,0,0-1.489,3.405" transform="translate(18558 -13202.123)"/></g><g transform="translate(1991.486 731.476)"><path class="c" d="M975.666,14.248a5.816,5.816,0,0,1-7.784,0,5.779,5.779,0,0,1-1.411-4.131A5.74,5.74,0,0,1,967.892,6a5.776,5.776,0,0,1,7.764,0,5.74,5.74,0,0,1,1.421,4.116,5.774,5.774,0,0,1-1.411,4.131m-3.892-.83a2.042,2.042,0,0,0,1.758-.864,4.1,4.1,0,0,0,.625-2.437,4.064,4.064,0,0,0-.63-2.422,2.208,2.208,0,0,0-3.511,0,4.093,4.093,0,0,0-.625,2.422,4.133,4.133,0,0,0,.62,2.437,2.042,2.042,0,0,0,1.763.864" transform="translate(16605.371 -13921)"/><path class="c" d="M978.192,15.508V4.737h2.754V6.455h.176A2.351,2.351,0,0,1,982.1,5.1a3.02,3.02,0,0,1,1.782-.537A3.508,3.508,0,0,1,985,4.7V7.285a3.921,3.921,0,0,0-1.348-.175,2.7,2.7,0,0,0-1.9.654,2.283,2.283,0,0,0-.718,1.777v5.967Z" transform="translate(16605.371 -13921)"/><path class="c" d="M992.412,12.441h2.646a3.745,3.745,0,0,1-1.636,2.417,5.761,5.761,0,0,1-3.286.884,5.007,5.007,0,0,1-3.838-1.47,5.76,5.76,0,0,1-1.377-4.1,5.929,5.929,0,0,1,1.387-4.15,5.5,5.5,0,0,1,7.505-.088,5.659,5.659,0,0,1,1.333,4v.869h-7.393v.146a2.765,2.765,0,0,0,.689,1.9,2.318,2.318,0,0,0,1.772.7,3.087,3.087,0,0,0,1.407-.288,1.617,1.617,0,0,0,.791-.825m-2.3-5.762a2.211,2.211,0,0,0-1.626.635,2.539,2.539,0,0,0-.718,1.679h4.59A2.509,2.509,0,0,0,991.7,7.3a2.124,2.124,0,0,0-1.6-.62" transform="translate(16605.371 -13921)"/><path class="c" d="M1001.037,2.177h2.842V4.843h2.236V7.079h-2.236v4.844a1.4,1.4,0,0,0,.337,1.035,1.457,1.457,0,0,0,1.059.332,7.65,7.65,0,0,0,.84-.039v2.168a7.452,7.452,0,0,1-1.426.127,4.5,4.5,0,0,1-2.807-.683,2.755,2.755,0,0,1-.845-2.266V7.079h-1.68V4.843h1.68Z" transform="translate(16605.371 -13921)"/><path class="c" d="M1007.376,15.508V.625h2.793V6.5h.176a3.014,3.014,0,0,1,1.225-1.45,3.777,3.777,0,0,1,2.027-.523,3.51,3.51,0,0,1,2.719,1.055,4.244,4.244,0,0,1,.972,2.988v6.934h-2.842V9.248a2.48,2.48,0,0,0-.508-1.689,1.859,1.859,0,0,0-1.474-.576,2.141,2.141,0,0,0-1.65.639,2.4,2.4,0,0,0-.6,1.7v6.182Z" transform="translate(16605.371 -13921)"/><path class="c" d="M1021.792,15.674a3.641,3.641,0,0,1-2.544-.889,3.021,3.021,0,0,1-.982-2.354,2.737,2.737,0,0,1,1.079-2.29,5.509,5.509,0,0,1,3.091-.952l2.607-.156V8.154a1.244,1.244,0,0,0-.468-1.04,2.153,2.153,0,0,0-1.348-.366q-1.582,0-1.943,1h-2.617a3.092,3.092,0,0,1,1.411-2.368,5.724,5.724,0,0,1,3.3-.874,5.067,5.067,0,0,1,3.3.957,3.289,3.289,0,0,1,1.167,2.7v7.354h-2.754V14.1h-.175a2.867,2.867,0,0,1-1.251,1.158,4.141,4.141,0,0,1-1.874.415m.937-2.139a2.483,2.483,0,0,0,1.65-.557,1.727,1.727,0,0,0,.664-1.377V10.81l-2.177.137q-1.816.128-1.817,1.3a1.114,1.114,0,0,0,.464.942,1.973,1.973,0,0,0,1.216.347" transform="translate(16605.371 -13921)"/><path class="c" d="M1029.439,15.508V4.737h2.754V6.465h.176a3.021,3.021,0,0,1,1.2-1.445,3.633,3.633,0,0,1,1.987-.518,3.5,3.5,0,0,1,2.735,1.05,4.319,4.319,0,0,1,.947,2.993v6.963h-2.842V9.219q0-2.266-1.982-2.266a1.98,1.98,0,0,0-1.558.64,2.462,2.462,0,0,0-.571,1.7v6.211Z" transform="translate(16605.371 -13921)"/><path class="c" d="M1050.974,16.826h-1.367v-1.22a5.976,5.976,0,0,1-3.6-1.221,3.608,3.608,0,0,1-1.313-2.881h2.793a1.714,1.714,0,0,0,.63,1.221,2.665,2.665,0,0,0,1.489.595V9.688l-1.025-.245a5.1,5.1,0,0,1-2.686-1.411,3.594,3.594,0,0,1-.918-2.524,3.721,3.721,0,0,1,1.221-2.9,5.6,5.6,0,0,1,3.408-1.28V0h1.367V1.328a5.473,5.473,0,0,1,3.262,1.3,3.711,3.711,0,0,1,1.25,2.8h-2.725a1.66,1.66,0,0,0-.517-1.162,2.163,2.163,0,0,0-1.27-.606V7.139l1.045.215q3.741.8,3.74,3.945a3.8,3.8,0,0,1-1.245,2.978,5.915,5.915,0,0,1-3.54,1.309ZM1047.81,5.235a1.336,1.336,0,0,0,.459,1.03,2.8,2.8,0,0,0,1.338.591v-3.2a2.051,2.051,0,0,0-1.294.484,1.408,1.408,0,0,0-.5,1.1m5.176,6.4q0-1.329-2.012-1.7v3.4a2.47,2.47,0,0,0,1.48-.508,1.479,1.479,0,0,0,.532-1.191" transform="translate(16605.371 -13921)"/><path class="c" d="M1063.944,15.507v-2.46h-6.894V10.439q1.65-3.115,5.576-9.023h4.131V10.6h1.845v2.452h-1.845v2.46Zm-4.248-4.98v.156h4.316V3.711h-.156q-2.256,3.369-4.16,6.816" transform="translate(16605.371 -13921)"/><path class="c" d="M1075.255,15.869a5.568,5.568,0,0,1-3.726-1.226,4.131,4.131,0,0,1-1.518-3.139h2.724a2.094,2.094,0,0,0,.831,1.416,2.73,2.73,0,0,0,1.709.537,2.513,2.513,0,0,0,1.85-.7,2.487,2.487,0,0,0,.708-1.846,2.539,2.539,0,0,0-.713-1.875,2.483,2.483,0,0,0-1.836-.713,2.632,2.632,0,0,0-2.412,1.27h-2.637l.7-8.174h8.857V3.867h-6.572l-.313,3.623h.176a3.385,3.385,0,0,1,2.988-1.377,4.374,4.374,0,0,1,3.286,1.328,4.691,4.691,0,0,1,1.285,3.4,4.753,4.753,0,0,1-1.485,3.637,5.48,5.48,0,0,1-3.906,1.392" transform="translate(16605.371 -13921)"/><path class="c" d="M1091.53,13.9a5.268,5.268,0,0,1-8.213,0,8.869,8.869,0,0,1-1.489-5.463A8.768,8.768,0,0,1,1083.317,3a5.294,5.294,0,0,1,8.209,0,8.77,8.77,0,0,1,1.494,5.439,8.853,8.853,0,0,1-1.49,5.454m-6.025-1.733a2.068,2.068,0,0,0,3.838.005,8.121,8.121,0,0,0,.688-3.735,7.946,7.946,0,0,0-.688-3.7,2.077,2.077,0,0,0-3.833,0,7.891,7.891,0,0,0-.693,3.692,8.127,8.127,0,0,0,.688,3.73" transform="translate(16605.371 -13921)"/><path class="c" d="M1104.021,13.9a5.268,5.268,0,0,1-8.213,0,8.876,8.876,0,0,1-1.489-5.463A8.775,8.775,0,0,1,1095.808,3a5.294,5.294,0,0,1,8.209,0,8.77,8.77,0,0,1,1.494,5.439,8.846,8.846,0,0,1-1.49,5.454M1098,12.168a2.068,2.068,0,0,0,3.838.005,8.121,8.121,0,0,0,.688-3.735,7.946,7.946,0,0,0-.688-3.7,2.077,2.077,0,0,0-3.833,0,7.9,7.9,0,0,0-.693,3.692,8.127,8.127,0,0,0,.688,3.73" transform="translate(16605.371 -13921)"/><path class="c" d="M1116.512,13.9a5.268,5.268,0,0,1-8.213,0,8.876,8.876,0,0,1-1.489-5.463A8.775,8.775,0,0,1,1108.3,3a5.294,5.294,0,0,1,8.209,0A8.77,8.77,0,0,1,1118,8.447a8.846,8.846,0,0,1-1.49,5.454m-6.025-1.733a2.068,2.068,0,0,0,3.838.005,8.12,8.12,0,0,0,.688-3.735,7.945,7.945,0,0,0-.688-3.7,2.077,2.077,0,0,0-3.833,0,7.9,7.9,0,0,0-.693,3.692,8.125,8.125,0,0,0,.688,3.73" transform="translate(16605.371 -13921)"/><path class="c" d="M952.877,15.508h-2.734V1.416h3.476l3.9,9.473h.175L961.6,1.416h3.467V15.508H962.33V6.084h-.156L958.59,14.7h-1.963l-3.594-8.613h-.156Z" transform="translate(16605.371 -13921)"/></g><rect class="c" width="173.898" height="65.059" transform="translate(18558 -12826.215)"/><g transform="translate(6.479 2.374)"><path class="d" d="M31.8,424.678H22.522L40.613,406,53.8,389.448h9.3L44.641,408.272Zm-.391-17.847a7.681,7.681,0,0,1-5.774-2.2A8.148,8.148,0,0,1,23.5,398.7a10.2,10.2,0,0,1,2.71-7.214,8.819,8.819,0,0,1,6.738-2.917,7.823,7.823,0,0,1,5.823,2.184,8.022,8.022,0,0,1,2.16,5.9A10.226,10.226,0,0,1,38.2,403.9a8.907,8.907,0,0,1-6.787,2.929M32.8,393.843a2.584,2.584,0,0,0-2.172,1.4,6.115,6.115,0,0,0-.9,3.382,3.755,3.755,0,0,0,.513,2.124,1.619,1.619,0,0,0,1.416.757,2.581,2.581,0,0,0,2.173-1.429,6.279,6.279,0,0,0,.9-3.429,3.665,3.665,0,0,0-.5-2.076,1.628,1.628,0,0,0-1.429-.732m19.629,31.738a7.707,7.707,0,0,1-5.774-2.184,8.107,8.107,0,0,1-2.136-5.921,10.235,10.235,0,0,1,2.71-7.239,8.822,8.822,0,0,1,6.738-2.917A7.82,7.82,0,0,1,59.79,409.5a8.019,8.019,0,0,1,2.161,5.9,10.2,10.2,0,0,1-2.747,7.251,8.918,8.918,0,0,1-6.775,2.929m1.392-12.988a2.584,2.584,0,0,0-2.173,1.416,6.178,6.178,0,0,0-.9,3.394,3.76,3.76,0,0,0,.5,2.111,1.619,1.619,0,0,0,1.429.745,2.552,2.552,0,0,0,2.16-1.429,6.344,6.344,0,0,0,.891-3.429,3.665,3.665,0,0,0-.5-2.076,1.606,1.606,0,0,0-1.4-.732" transform="translate(18558 -13202.123)"/><path class="d" d="M78.6,425.631q-6.1,0-9.631-3.772t-3.528-10.315a31,31,0,0,1,1.331-9.24,23.191,23.191,0,0,1,3.65-7.313A17.076,17.076,0,0,1,76,390.231a14.672,14.672,0,0,1,7-1.734q6.127,0,9.68,3.76t3.552,10.278a30.864,30.864,0,0,1-1.342,9.253,23.407,23.407,0,0,1-3.675,7.336,17.085,17.085,0,0,1-5.6,4.774,14.749,14.749,0,0,1-7.007,1.733m-4.15-13.5a8.773,8.773,0,0,0,1.135,4.834,3.579,3.579,0,0,0,3.162,1.733,5.51,5.51,0,0,0,4.138-2.319,17.3,17.3,0,0,0,3.149-6.213,28.075,28.075,0,0,0,1.185-8.216,8.527,8.527,0,0,0-1.148-4.785,3.646,3.646,0,0,0-3.2-1.709,5.484,5.484,0,0,0-4.126,2.308,17.146,17.146,0,0,0-3.125,6.176,28.122,28.122,0,0,0-1.172,8.191" transform="translate(18558 -13202.123)"/><path class="d" d="M99.261,425.484a4.942,4.942,0,0,1-3.577-1.306,4.23,4.23,0,0,1-1.355-3.162,4.748,4.748,0,0,1,1.343-3.467,4.8,4.8,0,0,1,3.589-1.367,4.938,4.938,0,0,1,3.577,1.307,4.23,4.23,0,0,1,1.355,3.161,4.743,4.743,0,0,1-1.343,3.467,4.806,4.806,0,0,1-3.589,1.367" transform="translate(18558 -13202.123)"/><path class="d" d="M119.015,409.664l1.294-6.2h4.468a6.708,6.708,0,0,0,4.211-1.185,3.872,3.872,0,0,0,1.526-3.234,3.359,3.359,0,0,0-1.343-2.783,5.585,5.585,0,0,0-3.54-1.05,5.647,5.647,0,0,0-3.32.989,5.154,5.154,0,0,0-1.978,2.7H112.2a12.188,12.188,0,0,1,4.822-7.592,15.381,15.381,0,0,1,9.363-2.808,14.667,14.667,0,0,1,9.07,2.674,8.334,8.334,0,0,1,1.123,12.707,9.255,9.255,0,0,1-5.994,2.881l-.073.488a8.146,8.146,0,0,1,4.6,2.588,7.186,7.186,0,0,1,1.6,4.785,9.319,9.319,0,0,1-1.855,5.652,12.18,12.18,0,0,1-5.164,3.943,18.667,18.667,0,0,1-7.41,1.416q-6.225,0-10.046-2.9a9.123,9.123,0,0,1-3.821-7.618,12.965,12.965,0,0,1,.147-1.733h8.349v.024a3.933,3.933,0,0,0,1.221,3.662,5.8,5.8,0,0,0,4.175,1.49,5.861,5.861,0,0,0,4.028-1.38,4.519,4.519,0,0,0,1.563-3.552,3.472,3.472,0,0,0-1.38-2.868,5.647,5.647,0,0,0-3.6-1.087Z" transform="translate(18558 -13202.123)"/></g><g transform="translate(60.001 -495.977)"><path class="c" d="M2.949,337.592v8.926a2.89,2.89,0,0,0,.776,2.129,2.931,2.931,0,0,0,2.173.781,2.944,2.944,0,0,0,2.183-.781,2.89,2.89,0,0,0,.776-2.129v-8.926h2.949v9.229A4.839,4.839,0,0,1,10.2,350.61a6.217,6.217,0,0,1-4.3,1.435,6.2,6.2,0,0,1-4.292-1.435A4.835,4.835,0,0,1,0,346.821v-9.229Z" transform="translate(18529 -12696)"/><path class="c" d="M19.982,340.737a3.889,3.889,0,0,1,3.222,1.474,7.716,7.716,0,0,1,.01,8.16,3.829,3.829,0,0,1-3.183,1.479,4.01,4.01,0,0,1-2-.478,2.92,2.92,0,0,1-1.25-1.338H16.6v5.224H13.761V340.913h2.754v1.767h.176A3.3,3.3,0,0,1,18,341.254a3.811,3.811,0,0,1,1.983-.517m-.967,8.74a2.131,2.131,0,0,0,1.8-.845,4.536,4.536,0,0,0-.005-4.668,2.305,2.305,0,0,0-3.574.01,4.451,4.451,0,0,0,0,4.653,2.13,2.13,0,0,0,1.787.85" transform="translate(18529 -12696)"/><path class="c" d="M30.257,338.354H33.1v2.666h2.236v2.236H33.1V348.1a1.4,1.4,0,0,0,.337,1.035,1.457,1.457,0,0,0,1.059.332,7.656,7.656,0,0,0,.84-.039V351.6a7.453,7.453,0,0,1-1.426.127,4.5,4.5,0,0,1-2.807-.683,2.755,2.755,0,0,1-.845-2.266v-5.518h-1.68V341.02h1.68Z" transform="translate(18529 -12696)"/><path class="c" d="M45.088,350.424a5.1,5.1,0,0,1-3.892,1.494,5.1,5.1,0,0,1-3.892-1.494,6.712,6.712,0,0,1,.01-8.247,5.093,5.093,0,0,1,3.882-1.5,5.093,5.093,0,0,1,3.882,1.5,6.712,6.712,0,0,1,.01,8.247m-3.892-.83a2.045,2.045,0,0,0,1.758-.864,4.11,4.11,0,0,0,.625-2.437,4.064,4.064,0,0,0-.63-2.422,2.208,2.208,0,0,0-3.511,0,5.052,5.052,0,0,0-.005,4.859,2.04,2.04,0,0,0,1.763.864" transform="translate(18529 -12696)"/><path class="c" d="M57.8,353H56.432v-1.22a5.977,5.977,0,0,1-3.6-1.221,3.607,3.607,0,0,1-1.312-2.881h2.792a1.709,1.709,0,0,0,.631,1.221,2.656,2.656,0,0,0,1.488.6v-3.632l-1.025-.245a5.092,5.092,0,0,1-2.685-1.411,3.585,3.585,0,0,1-.919-2.524,3.718,3.718,0,0,1,1.221-2.9,5.6,5.6,0,0,1,3.408-1.28v-1.328H57.8V337.5a5.484,5.484,0,0,1,3.263,1.3,3.715,3.715,0,0,1,1.25,2.8H59.586a1.665,1.665,0,0,0-.517-1.162,2.166,2.166,0,0,0-1.27-.606v3.477l1.045.215q3.74.8,3.74,3.945a3.8,3.8,0,0,1-1.244,2.978,5.923,5.923,0,0,1-3.541,1.309Zm-3.164-11.591a1.333,1.333,0,0,0,.459,1.03,2.8,2.8,0,0,0,1.338.591v-3.2a2.044,2.044,0,0,0-1.293.484,1.4,1.4,0,0,0-.5,1.1m5.177,6.4q0-1.329-2.013-1.7v3.4a2.47,2.47,0,0,0,1.48-.508,1.483,1.483,0,0,0,.533-1.191" transform="translate(18529 -12696)"/><path class="c" d="M64.021,341.811a4.228,4.228,0,0,1,1.426-3.311,5.373,5.373,0,0,1,3.711-1.269,5.474,5.474,0,0,1,3.6,1.147,3.665,3.665,0,0,1,1.392,2.964,4.226,4.226,0,0,1-.723,2.29,16.387,16.387,0,0,1-2.549,2.857l-2.695,2.568v.176h6.172v2.451H64.187v-2.061l4.6-4.5a17.288,17.288,0,0,0,1.982-2.168,2.5,2.5,0,0,0,.5-1.416,1.762,1.762,0,0,0-.62-1.392,2.586,2.586,0,0,0-3.252.068,2.1,2.1,0,0,0-.64,1.587v.059H64.021Z" transform="translate(18529 -12696)"/><path class="c" d="M85.384,350.077a5.268,5.268,0,0,1-8.213,0,8.876,8.876,0,0,1-1.489-5.463,8.775,8.775,0,0,1,1.489-5.435,5.294,5.294,0,0,1,8.209.005,10.687,10.687,0,0,1,0,10.893m-6.025-1.733a2.068,2.068,0,0,0,3.838.005,8.121,8.121,0,0,0,.688-3.735,7.946,7.946,0,0,0-.688-3.7,2.077,2.077,0,0,0-3.833.005,7.9,7.9,0,0,0-.693,3.692,8.126,8.126,0,0,0,.688,3.73" transform="translate(18529 -12696)"/><path class="c" d="M97.877,350.077a5.268,5.268,0,0,1-8.213,0,8.869,8.869,0,0,1-1.489-5.463,8.768,8.768,0,0,1,1.489-5.435,5.294,5.294,0,0,1,8.209.005,10.687,10.687,0,0,1,0,10.893m-6.025-1.733a2.068,2.068,0,0,0,3.838.005,8.121,8.121,0,0,0,.688-3.735,7.946,7.946,0,0,0-.688-3.7,2.077,2.077,0,0,0-3.833.005,7.891,7.891,0,0,0-.693,3.692,8.126,8.126,0,0,0,.688,3.73" transform="translate(18529 -12696)"/><path class="c" d="M110.368,350.077a5.268,5.268,0,0,1-8.213,0,8.869,8.869,0,0,1-1.489-5.463,8.768,8.768,0,0,1,1.489-5.435,5.294,5.294,0,0,1,8.209.005,10.687,10.687,0,0,1,0,10.893m-6.025-1.733a2.068,2.068,0,0,0,3.838.005,8.121,8.121,0,0,0,.688-3.735,7.946,7.946,0,0,0-.688-3.7,2.077,2.077,0,0,0-3.833.005,7.891,7.891,0,0,0-.693,3.692,8.126,8.126,0,0,0,.688,3.73" transform="translate(18529 -12696)"/></g></g></g></svg>