<svg xmlns="http://www.w3.org/2000/svg" width="441" height="82" viewBox="0 0 441 82"><defs><style>.a,.b{fill:#868686;}.a{opacity:0.2;}.c{fill:#c6c7c7;}.d{fill:#767676;}.e{fill:#a8a8a8;}.f{fill:#dfe1e3;}.g{fill:#ecf0f1;}.h{fill:#b57e73;}.i{fill:#fff;}.j{fill:#f8f8f8;}.k{fill:#ddeafb;}.l{fill:none;stroke:#767676;}</style></defs><g transform="translate(-358.42 -130.706)"><g transform="translate(358.42 130.706)"><rect class="a" width="441" height="82" rx="19"/></g><g transform="translate(386.215 143.786)"><g transform="translate(327)"><path class="b" d="M93.735,46.859a22.867,22.867,0,1,1-45.735,0q0-1,.086-1.988a22.868,22.868,0,0,1,45.649,1.988Z" transform="translate(-44.68 -23.99)"/><path class="c" d="M247.862,87.413A22.851,22.851,0,0,1,237,106.881l-5.043-5.548V93.379h-3.977L224,87.413l3.977-2.983h4.971l2.983-3.977-1.988-4.971,6.22-5.182A22.813,22.813,0,0,1,247.862,87.413Z" transform="translate(-198.531 -64.545)"/><path class="d" d="M296,400h7.954v9.942H296Z" transform="translate(-261.601 -352.894)"/><path class="e" d="M360,336h7.954v17.9H360Z" transform="translate(-317.588 -296.848)"/><path class="f" d="M424,256h7.954v27.839H424Z" transform="translate(-373.566 -226.79)"/><path class="c" d="M117.582,25.86,110.5,32.939V38.9l-5.965,3.977L100.561,38.9H95.59V34.928l-4.6-2.76a22.887,22.887,0,0,1,26.592-6.307Z" transform="translate(-82.327 -23.99)"/><path class="c" d="M67.885,200.948l-3.977,2.983v11.846A22.877,22.877,0,0,1,48,193.988q0-1,.086-1.988h5.88l2.983,3.977H64.9Z" transform="translate(-44.68 -170.888)"/><path class="f" d="M224,472h33.8v1.989H224Z" transform="translate(-198.422 -415.946)"/><path class="e" d="M33.942,257.988c0-1.1-2.226-1.988-4.971-1.988S24,256.89,24,257.988v24.856c0,1.1,2.226,1.988,4.971,1.988s4.971-.89,4.971-1.988Z" transform="translate(-23.662 -226.79)"/><ellipse class="f" cx="4.971" cy="1.988" rx="4.971" ry="1.988" transform="translate(0.338 29.036)"/><path class="e" d="M113.942,337.988c0-1.1-2.226-1.988-4.971-1.988s-4.971.89-4.971,1.988V352.9c0,1.1,2.226,1.989,4.971,1.989s4.971-.89,4.971-1.989Z" transform="translate(-93.64 -296.848)"/><ellipse class="f" cx="4.971" cy="1.988" rx="4.971" ry="1.988" transform="translate(10.361 39.048)"/><path class="e" d="M193.942,377.989c0-1.1-2.226-1.988-4.971-1.988s-4.971.89-4.971,1.988v9.942c0,1.1,2.226,1.988,4.971,1.988s4.971-.89,4.971-1.988Z" transform="translate(-163.619 -331.877)"/><ellipse class="f" cx="4.971" cy="1.988" rx="4.971" ry="1.988" transform="translate(20.381 44.054)"/><path class="d" d="M30.9,312a.991.991,0,0,1,.579,1.8,4.924,4.924,0,0,1-1.006.531,10.8,10.8,0,0,1-3.885.654,10.8,10.8,0,0,1-3.885-.654A4.924,4.924,0,0,1,21.7,313.8a.991.991,0,0,1,.579-1.8.972.972,0,0,1,.554.169,7.154,7.154,0,0,0,3.759.825,7.154,7.154,0,0,0,3.759-.825A.972.972,0,0,1,30.9,312Z" transform="translate(-21.283 -275.96)"/><path class="d" d="M224,336h1.989v1.988H224Z" transform="translate(-198.637 -296.962)"/><path class="d" d="M282.844,160h-3.977v1.988h1.577l-19.885,19.885H256v1.988h4.971a1,1,0,0,0,.7-.291l20.176-20.176v1.577h1.988v-3.977A.994.994,0,0,0,282.844,160Z" transform="translate(-226.445 -142.909)"/><g transform="translate(0 41.141)"><path class="d" d="M30.9,352a.991.991,0,0,1,.579,1.8,4.921,4.921,0,0,1-1.006.531,10.8,10.8,0,0,1-3.885.654,10.8,10.8,0,0,1-3.885-.654A4.921,4.921,0,0,1,21.7,353.8a.991.991,0,0,1,.579-1.8.974.974,0,0,1,.554.169,7.152,7.152,0,0,0,3.759.825,7.152,7.152,0,0,0,3.759-.825A.973.973,0,0,1,30.9,352Z" transform="translate(-21.283 -352)"/><path class="d" d="M30.9,392a.991.991,0,0,1,.579,1.8,4.928,4.928,0,0,1-1.006.531,10.8,10.8,0,0,1-3.885.654,10.8,10.8,0,0,1-3.885-.654A4.928,4.928,0,0,1,21.7,393.8a.991.991,0,0,1,.579-1.8.974.974,0,0,1,.554.169,7.152,7.152,0,0,0,3.759.825,7.152,7.152,0,0,0,3.759-.825A.974.974,0,0,1,30.9,392Z" transform="translate(-21.283 -387.029)"/><path class="d" d="M30.9,432a.992.992,0,0,1,.579,1.8,4.925,4.925,0,0,1-1.006.531,10.8,10.8,0,0,1-3.885.654,10.8,10.8,0,0,1-3.885-.654A4.925,4.925,0,0,1,21.7,433.8a.992.992,0,0,1,.579-1.8.974.974,0,0,1,.554.169,7.152,7.152,0,0,0,3.759.825,7.152,7.152,0,0,0,3.759-.825A.974.974,0,0,1,30.9,432Z" transform="translate(-21.283 -422.057)"/><path class="d" d="M110.9,392a.991.991,0,0,1,.579,1.8,4.928,4.928,0,0,1-1.006.531,11.873,11.873,0,0,1-7.77,0,4.928,4.928,0,0,1-1.006-.531.991.991,0,0,1,.579-1.8.974.974,0,0,1,.554.169,8.975,8.975,0,0,0,7.517,0A.974.974,0,0,1,110.9,392Z" transform="translate(-91.341 -387.029)"/><path class="d" d="M110.9,432a.992.992,0,0,1,.579,1.8,4.925,4.925,0,0,1-1.006.531,11.872,11.872,0,0,1-7.77,0,4.924,4.924,0,0,1-1.006-.531.992.992,0,0,1,.579-1.8.974.974,0,0,1,.554.169,8.975,8.975,0,0,0,7.517,0A.974.974,0,0,1,110.9,432Z" transform="translate(-91.341 -422.057)"/><path class="d" d="M190.9,432a.992.992,0,0,1,.579,1.8,4.925,4.925,0,0,1-1.006.531,11.871,11.871,0,0,1-7.77,0,4.926,4.926,0,0,1-1.006-.531.992.992,0,0,1,.579-1.8.974.974,0,0,1,.554.169,8.975,8.975,0,0,0,7.517,0A.974.974,0,0,1,190.9,432Z" transform="translate(-161.399 -422.057)"/><rect class="d" width="1.988" height="14.914" rx="0.994" transform="translate(9.286 0)"/><rect class="d" width="1.988" height="9.942" rx="0.994" transform="translate(19.228 4.971)"/></g></g><g transform="translate(168.001 0.002)"><path class="f" d="M55.451,31.076l-3.042.8a3.169,3.169,0,0,1-4.9,2.894l1.764,1.162a3.176,3.176,0,0,1,.834,4.521,3.263,3.263,0,0,1-4.426.708l-1.648-1.077a3.169,3.169,0,0,1,.813,4.521,3.274,3.274,0,0,1-4.426.687l-1.627-1.077a3.187,3.187,0,0,1,.813,4.531,3.28,3.28,0,0,1-4.447.687l-2.81-1.848-.687,1.035a3.183,3.183,0,0,1-4.384.887,3.084,3.084,0,0,1-.908-4.32l-.581.866a3.193,3.193,0,0,1-4.394.887,3.1,3.1,0,0,1-.908-4.331,3.175,3.175,0,0,1-4.383.9,3.095,3.095,0,0,1-.908-4.331,3.2,3.2,0,0,1-4.394.9,3.1,3.1,0,0,1-.908-4.331l1.352-2.039L7.127,31.129,7,24.675l1.965-7.394H16.19a3.791,3.791,0,0,0,2.429-.877l3.19-2.662a4.553,4.553,0,0,1,4.616-.729l2.176.866,5.957-1.711a4.263,4.263,0,0,1,3.158.327l7.764,4.447a2.549,2.549,0,0,0,1.3.349l6.845-.053a1.147,1.147,0,0,0,.011.19l1.954,6.19Z" transform="translate(-0.662 -12.005)"/><g transform="translate(8.714 0)"><path class="e" d="M32.92,42.732a3.1,3.1,0,0,1-.518,1.712L30.66,47.063a3.183,3.183,0,0,1-4.383.9,3.1,3.1,0,0,1-.908-4.331L27.1,41.01a3.193,3.193,0,0,1,4.394-.9,3.146,3.146,0,0,1,1.426,2.618Z" transform="translate(-8.372 -10.452)"/><path class="e" d="M28.512,38.652a3.1,3.1,0,0,1-.518,1.712l-.581.876-1.732,2.62-.581.866a3.193,3.193,0,0,1-4.394.9,3.1,3.1,0,0,1-.908-4.331l2.9-4.362a3.188,3.188,0,0,1,4.383-.9,3.146,3.146,0,0,1,1.426,2.618Z" transform="translate(-8.686 -10.682)"/><path class="e" d="M18.482,32.142a3.128,3.128,0,0,1-.518,1.722L15.07,38.226a3.2,3.2,0,0,1-4.394.9,3.108,3.108,0,0,1-.908-4.331l2.894-4.361a3.2,3.2,0,0,1,4.394-.908,3.148,3.148,0,0,1,1.426,2.62Z" transform="translate(-9.25 -11.048)"/><path class="e" d="M24.653,33.743a3.128,3.128,0,0,1-.518,1.722l-4.056,6.1a3.183,3.183,0,0,1-4.383.9,3.1,3.1,0,0,1-.908-4.331l4.056-6.105a3.2,3.2,0,0,1,4.383-.907A3.106,3.106,0,0,1,24.653,33.743Z" transform="translate(-8.968 -10.958)"/><path class="e" d="M54.7,31.076l-3.042.8A3.2,3.2,0,0,0,50.24,29.46l-15-9.137a2.914,2.914,0,0,0-3.053.021l-6.929,4.341a3.179,3.179,0,0,1-3.433,0,3.592,3.592,0,0,1-.5-.4,3.136,3.136,0,0,1-.232-4.225L25.259,15.4a4.331,4.331,0,0,1,2.081-1.373l.507-.148L33.8,12.169a4.263,4.263,0,0,1,3.158.327l7.764,4.447a2.549,2.549,0,0,0,1.3.349l6.845-.053a1.148,1.148,0,0,0,.011.19Z" transform="translate(-8.623 -12.005)"/><path class="e" d="M45.6,34.776a1.05,1.05,0,0,1-.579-.173l-3.732-2.449a1.057,1.057,0,0,1,1.162-1.766l3.73,2.453a1.056,1.056,0,0,1-.58,1.939Z" transform="translate(-7.474 -10.98)"/><path class="e" d="M42.33,39.8a1.056,1.056,0,0,1-.579-.173l-4.065-2.669A1.057,1.057,0,1,1,38.848,35.2l4.065,2.668a1.056,1.056,0,0,1-.581,1.939Z" transform="translate(-7.677 -10.71)"/><path class="e" d="M37.228,43.662a1.056,1.056,0,0,1-.593-.183l-1.355-.921a1.057,1.057,0,0,1,1.187-1.748l1.355.921a1.056,1.056,0,0,1-.595,1.931Z" transform="translate(-7.811 -10.394)"/></g><path class="g" d="M59.442,17.066V30.808a1.056,1.056,0,0,1-1.056,1.056H54.034a1.07,1.07,0,0,1-1.056-.919l-.011-.1L51.151,17.2a1.149,1.149,0,0,1-.011-.19,1.056,1.056,0,0,1,1.056-1h6.19a1.056,1.056,0,0,1,1.056,1.056Z" transform="translate(1.821 -11.779)"/><path class="d" d="M2.056,31.844H6.412a1.056,1.056,0,0,0,1.048-.917L9.291,17.2A1.056,1.056,0,0,0,8.244,16H2.056A1.056,1.056,0,0,0,1,17.056V30.788a1.056,1.056,0,0,0,1.056,1.056Z" transform="translate(-1 -11.78)"/><g transform="translate(17.575 44.827)"><g transform="translate(0 0)"><path class="b" d="M30.539,36H6a12.269,12.269,0,1,0,24.539,0Z" transform="translate(-5.528 -35.528)"/><path class="b" d="M23.432,46.382a12.208,12.208,0,0,0,6.416-1.811A12.226,12.226,0,0,0,33.341,36H11.307A12.272,12.272,0,0,0,23.432,46.382Z" transform="translate(-8.331 -35.528)"/><path class="c" d="M30.011,35H5.472A.472.472,0,0,0,5,35.472a12.741,12.741,0,0,0,25.483,0A.472.472,0,0,0,30.011,35ZM17.269,42.55v4.294l-.978-.673a12.968,12.968,0,0,1-3.523-3.621Zm-5.064-.944a12.975,12.975,0,0,1-1.529-5.663h6.593v5.663Zm6.008,5.237V42.55h4.5a12.974,12.974,0,0,1-3.523,3.621Zm0-5.237V35.944H24.8a12.975,12.975,0,0,1-1.528,5.663Zm-8.48-5.663a13.913,13.913,0,0,0,1.416,5.663H7.671a11.714,11.714,0,0,1-1.718-5.663ZM8.313,42.55h3.342a13.92,13.92,0,0,0,4.1,4.4l.286.2A11.8,11.8,0,0,1,8.313,42.55Zm11.127,4.6.286-.2a13.919,13.919,0,0,0,4.1-4.4h3.343A11.8,11.8,0,0,1,19.44,47.146Zm8.372-5.54H24.333a13.913,13.913,0,0,0,1.416-5.663h3.781A11.714,11.714,0,0,1,27.811,41.607Z" transform="translate(-5 -35)"/></g></g></g><g transform="translate(0 0.001)"><g transform="translate(18.946 0)"><path class="d" d="M157.746,57.78a2.126,2.126,0,0,1-2.126-2.126V48.278a2.972,2.972,0,0,0-2.968-2.968H141.016a2.972,2.972,0,0,0-2.968,2.968v7.377a2.126,2.126,0,0,1-4.251,0V48.278a7.228,7.228,0,0,1,7.22-7.22h11.636a7.228,7.228,0,0,1,7.22,7.22v7.377A2.126,2.126,0,0,1,157.746,57.78Z" transform="translate(-133.796 -41.058)"/></g><path class="f" d="M57.709,178.735H6.489A6.421,6.421,0,0,1,0,172.384V141.039a6.421,6.421,0,0,1,6.489-6.351h51.22a6.421,6.421,0,0,1,6.489,6.351v31.345A6.422,6.422,0,0,1,57.709,178.735Z" transform="translate(0 -120.694)"/><g transform="translate(0 13.28)"><path class="h" d="M57.709,134.688H6.489A6.421,6.421,0,0,0,0,141.039v7.9a6.421,6.421,0,0,0,6.489,6.351h51.22a6.421,6.421,0,0,0,6.489-6.351v-7.9a6.422,6.422,0,0,0-6.489-6.351Z" transform="translate(0 -133.974)"/><path class="d" d="M375.038,134.688h-5.756a6.352,6.352,0,0,1,6.351,6.351v31.344a6.351,6.351,0,0,1-6.351,6.351h5.756a6.351,6.351,0,0,0,6.351-6.351V141.039A6.351,6.351,0,0,0,375.038,134.688Z" transform="translate(-317.191 -133.974)"/><path class="i" d="M57.709,134.688H6.489A6.531,6.531,0,0,0,0,141.259v8.175a6.531,6.531,0,0,0,6.489,6.571h51.22a6.531,6.531,0,0,0,6.489-6.571v-8.175a6.531,6.531,0,0,0-6.489-6.571Z" transform="translate(0 -134.688)"/></g><path class="e" d="M54.664,155.292V141.039a6.362,6.362,0,0,0-6.371-6.351H6.372A6.362,6.362,0,0,0,0,141.039v7.9a6.362,6.362,0,0,0,6.372,6.351H54.664Z" transform="translate(0 -121.441)"/><path class="d" d="M356.536,134.688h-8.7a6.351,6.351,0,0,1,6.351,6.351v14.253h2.351a6.351,6.351,0,0,0,6.351-6.351v-7.9a6.351,6.351,0,0,0-6.351-6.351Z" transform="translate(-298.689 -121.441)"/><g transform="translate(8.616 27.419)"><path class="j" d="M66.638,248.589a3.917,3.917,0,0,1-3.917-3.917v-7.435a1.407,1.407,0,0,1,1.407-1.407h5.019a1.407,1.407,0,0,1,1.407,1.407v7.435A3.917,3.917,0,0,1,66.638,248.589Z" transform="translate(-62.721 -235.83)"/><path class="d" d="M62.722,265.566v4.758a3.917,3.917,0,0,0,7.833,0v-4.758Z" transform="translate(-62.722 -261.481)"/></g><g transform="translate(45.023 33.8)"><g transform="translate(0 0)"><path class="k" d="M290.239,246.674a12.2,12.2,0,0,0-8.89-11.743,12.126,12.126,0,0,0,0,23.486A12.2,12.2,0,0,0,290.239,246.674Z" transform="translate(-272.245 -234.552)"/><path class="b" d="M290.239,246.674a12.2,12.2,0,0,0-8.89-11.743,12.126,12.126,0,0,0,0,23.486A12.2,12.2,0,0,0,290.239,246.674Z" transform="translate(-272.245 -234.552)"/><path class="b" d="M363.672,231.186a12.134,12.134,0,0,0-3.2.428,12.125,12.125,0,0,1,0,23.388,12.123,12.123,0,1,0,3.2-23.815Z" transform="translate(-351.551 -231.186)"/></g><path class="c" d="M306.207,248.738a.744.744,0,0,0-.078-.032,23.067,23.067,0,0,0-4.745-.941,22.964,22.964,0,0,0,0-8.715,23.061,23.061,0,0,0,4.745-.941.731.731,0,0,0,.078-.032,12.125,12.125,0,0,0-.737-1.294,23.311,23.311,0,0,1-4.435.827c-1.084-3.79-3.214-6.313-5.719-6.313s-4.635,2.524-5.719,6.313a23.3,23.3,0,0,1-4.435-.827,12.115,12.115,0,0,0-.737,1.294.746.746,0,0,0,.078.032,23.063,23.063,0,0,0,4.745.941,22.971,22.971,0,0,0,0,8.715,23.063,23.063,0,0,0-4.745.941.72.72,0,0,0-.078.032,12.09,12.09,0,0,0,.737,1.294,23.314,23.314,0,0,1,4.435-.827c1.084,3.79,3.214,6.313,5.719,6.313s4.635-2.523,5.719-6.313a23.317,23.317,0,0,1,4.435.827A12.129,12.129,0,0,0,306.207,248.738Zm-11.623,5.188a5.305,5.305,0,0,1-2.679-2.8,12.993,12.993,0,0,1-.814-2.051c1.107-.082,2.283-.132,3.493-.147Zm0-6.469c-1.349.015-2.649.073-3.863.168a21.33,21.33,0,0,1,0-8.437c1.214.1,2.514.153,3.863.169Zm0-9.566c-1.21-.014-2.386-.065-3.493-.146a12.99,12.99,0,0,1,.814-2.051,5.305,5.305,0,0,1,2.679-2.8Zm1.467-5a5.305,5.305,0,0,1,2.679,2.8,12.973,12.973,0,0,1,.814,2.051c-1.107.082-2.283.132-3.493.146Zm2.679,18.233a5.306,5.306,0,0,1-2.679,2.8v-5c1.21.015,2.386.065,3.493.147A12.952,12.952,0,0,1,298.729,251.122Zm1.184-3.5c-1.214-.1-2.514-.153-3.863-.168v-8.1c1.349-.015,2.649-.073,3.863-.169a21.33,21.33,0,0,1,0,8.437Z" transform="translate(-283.195 -231.287)"/></g></g><line class="l" x2="72" transform="translate(82.5 29.501)"/><line class="l" x2="72" transform="translate(241.5 29.501)"/></g></g></svg>