<svg xmlns="http://www.w3.org/2000/svg" width="132.44" height="135" viewBox="0 0 132.44 135"><defs><style>.a{fill:#8188be;}.b{fill:#48508b;}.c{fill:#e3e7ff;}.d{fill:#363d71;}.d,.e,.f,.g{fill-rule:evenodd;}.e{fill:rgba(84,84,84,0.3);}.f{fill:#f49d3f;}.g{fill:rgba(219,219,219,0.44);}.h{fill:#3f4677;}.i{fill:#313766;}.j{fill:#656ca0;}</style></defs><g transform="translate(0 -9.736)"><path class="a" d="M40,159.3v25.686L23.371,173.431Z" transform="translate(-23.371 -114.935)"/><path class="b" d="M23.371,201.77,40,213.323v-5.271L26.783,198.87Z" transform="translate(-23.371 -143.252)"/><path class="c" d="M121.138,98.026l6.6-5.587a5.9,5.9,0,0,1,7.614,0l6.6,5.587L181.134,70.9V1.462A1.465,1.465,0,0,0,179.666,0H83.42a1.465,1.465,0,0,0-1.468,1.462V70.9Z" transform="translate(-65.323 9.736)"/><path class="b" d="M141.948,258.337l-6.6-5.587a5.9,5.9,0,0,0-7.614,0l-6.6,5.587L81.684,230.966l-.547,4.906,40,27.736,6.6-5.587a5.9,5.9,0,0,1,7.613,0l6.6,5.587,39.774-27.589-.1-5.22Z" transform="translate(-65.323 -166.355)"/><g transform="translate(29.793 20.039)"><path class="d" d="M33.239,3.267,49.672,20.754a10.346,10.346,0,0,1,0,13.989L33.173,52.3a8.906,8.906,0,0,1-13.147,0L3.593,34.813a10.346,10.346,0,0,1,0-13.989l16.5-17.557A8.906,8.906,0,0,1,33.239,3.267Z" transform="translate(-0.87 -0.37)"/><path class="e" d="M108.51,4.055l16.828,17.906a9.932,9.932,0,0,1,0,13.43L108.379,53.437a8.549,8.549,0,0,1-12.621,0L78.93,35.531a9.932,9.932,0,0,1,0-13.43L95.889,4.055A8.549,8.549,0,0,1,108.51,4.055Z" transform="translate(-69.303 -1.184)"/><path class="f" d="M185.324,5.913l16.5,17.557a10.346,10.346,0,0,1,0,13.989l-16.5,17.557a8.9,8.9,0,0,1-13.147,0l-16.5-17.557a10.346,10.346,0,0,1,0-13.989l16.5-17.557A8.906,8.906,0,0,1,185.324,5.913Z" transform="translate(-138.819 -2.755)"/><path class="g" d="M261.3,7.055l16.828,17.906a9.932,9.932,0,0,1,0,13.43L261.171,56.437a8.55,8.55,0,0,1-12.621,0L231.722,38.531a9.932,9.932,0,0,1,0-13.43L248.682,7.055A8.549,8.549,0,0,1,261.3,7.055Z" transform="translate(-207.891 -3.887)"/></g><path class="h" d="M98.091,322.129a5.886,5.886,0,0,0-7.607,0L29.929,373.446a5.855,5.855,0,0,0,4.006,1.582h120.7a5.855,5.855,0,0,0,4.006-1.582Z" transform="translate(-28.067 -230.292)"/><path class="i" d="M292.519,247.76l53.807,45.73a5.834,5.834,0,0,0,1.862-4.274v-80.13Z" transform="translate(-215.748 -150.336)"/><path class="i" d="M25.233,293.49,79.04,247.76,23.371,209.086v80.13A5.833,5.833,0,0,0,25.233,293.49Z" transform="translate(-23.371 -150.336)"/><path class="j" d="M25.3,384.688l61.053-51.853-.32-5.029L23.471,380.981a5.839,5.839,0,0,0,1.833,3.708Z" transform="translate(-23.443 -241.534)"/><path class="j" d="M345.671,384.639,285,333.1a6.273,6.273,0,0,0-3.883-1.146c-.423.045-1.054-.11-3.105,1.066-.287-.077-.025-2.353-.353-2.808-1.4-1.935,1.209-2.9,1.209-2.9a4.04,4.04,0,0,1,1.542-.587,9.185,9.185,0,0,1,2.122,0l1.366.411,1.4.839L347.5,380.931A5.84,5.84,0,0,1,345.671,384.639Z" transform="translate(-215.093 -241.485)"/><path class="a" d="M430.048,159.3v25.686l16.629-11.553Z" transform="translate(-314.237 -114.935)"/><path class="b" d="M430.047,208.052v5.271l16.629-11.553-3.412-2.9Z" transform="translate(-314.236 -143.252)"/></g></svg>