<svg xmlns="http://www.w3.org/2000/svg" width="229.7" height="54" viewBox="0 0 229.7 54"><defs><style>.a{fill:#363d71;font-size:22px;font-family:SFUIText-BoldItalic, SF UI Text;font-weight:700;font-style:italic;}.b{fill:#e4f2f9;}.c{fill:#77bee2;}.d{fill:#5f5f82;}.e{fill:#018273;}.f{fill:#fff;}</style></defs><g transform="translate(-887 -1902)"><text class="a" transform="translate(1040.7 1937)"><tspan x="-74.508" y="0">Review Order</tspan></text><g transform="translate(887 1902)"><path class="b" d="M148.557,0H126.34A5.164,5.164,0,0,0,121,4.967V49.033A5.164,5.164,0,0,0,126.34,54h31.117a5.164,5.164,0,0,0,5.34-4.967V13.245Z" transform="translate(-121)"/><path class="c" d="M390.432,0l.185,11.691a1.67,1.67,0,0,0,1.67,1.67h12.636Z" transform="translate(-362.927)"/><g transform="translate(7.802 19.94)"><path class="d" d="M217.166,275.34h-24.5a1.67,1.67,0,1,1,0-3.34h24.5a1.67,1.67,0,1,1,0,3.34Z" transform="translate(-191 -261.979)"/><path class="d" d="M217.166,185.34h-24.5a1.67,1.67,0,1,1,0-3.34h24.5a1.67,1.67,0,1,1,0,3.34Z" transform="translate(-191 -182)"/><path class="d" d="M217.166,365.34h-24.5a1.67,1.67,0,1,1,0-3.34h24.5a1.67,1.67,0,1,1,0,3.34Z" transform="translate(-191 -341.958)"/></g><path class="e" d="M9.45,258.9a8.45,8.45,0,1,1,8.45-8.45A8.46,8.46,0,0,1,9.45,258.9Z" transform="translate(36.1 -204.901)"/><path class="f" d="M77.862,335.276a.939.939,0,0,0-1.328,0l-3.718,3.718L71.6,337.78a.939.939,0,0,0-1.328,1.328l1.878,1.878a.939.939,0,0,0,1.328,0l4.382-4.382A.939.939,0,0,0,77.862,335.276Z" transform="translate(-28.202 -292.583)"/></g></g></svg>