<svg xmlns="http://www.w3.org/2000/svg" width="205" height="201" viewBox="0 0 205 201"><defs><style>.a{fill:#f5f5f5;}.b{fill:#fdbf00;}.c{fill:#ff9100;}.d{fill:#ffe9cb;}.e{fill:#ffd17b;}.f{fill:#00ab5e;}.g{fill:#008575;}</style></defs><g transform="translate(-192 -2354)"><g transform="translate(12)"><rect class="a" width="205" height="201" rx="19" transform="translate(180 2354)"/><g transform="translate(216 2346.667)"><circle class="b" cx="52.301" cy="52.301" r="52.301" transform="translate(0 55.333)"/><path class="c" d="M251.967,107.634a52.36,52.36,0,0,1-52.3,52.3V55.333a52.36,52.36,0,0,1,52.3,52.3Z" transform="translate(-147.365 0)"/><circle class="d" cx="44.183" cy="44.183" r="44.183" transform="translate(8.118 63.451)"/><path class="e" d="M243.85,130.506a44.233,44.233,0,0,1-44.183,44.183V86.323A44.233,44.233,0,0,1,243.85,130.506Z" transform="translate(-147.366 -22.872)"/><path class="b" d="M169.493,183.952c0,6.284-4.82,12.07-12.67,12.07v3.966a3.929,3.929,0,0,1-7.858,0v-3.966c-4.6,0-8.537-1.236-11.761-5.105a3.929,3.929,0,1,1,6.038-5.029,6.249,6.249,0,0,0,4.655,2.276h9.529a4.211,4.211,0,0,0,0-8.421h-9.063a12.081,12.081,0,0,1-12.068-12.068c0-6.135,4.665-12.068,12.67-12.068v-3.968a3.929,3.929,0,0,1,7.858,0v3.968a13.968,13.968,0,0,1,12,6.514l.047.073a3.929,3.929,0,0,1-6.622,4.23l-.045-.073a6.226,6.226,0,0,0-5.108-2.887h-8.738a4.209,4.209,0,0,0,0,8.419h9.063A12.081,12.081,0,0,1,169.493,183.952Z" transform="translate(-100.593 -68.18)"/><path class="c" d="M216.266,252.068c0,6.284-4.82,12.07-12.67,12.07V268.1a3.929,3.929,0,0,1-3.929,3.929V256.28H204.2a4.211,4.211,0,0,0,0-8.421h-4.532V240H204.2A12.081,12.081,0,0,1,216.266,252.068Z" transform="translate(-147.366 -136.295)"/><path class="c" d="M203.874,163.466h-4.207V147.71a3.931,3.931,0,0,1,3.929,3.929v3.968a13.968,13.968,0,0,1,12,6.514l.047.073a3.929,3.929,0,0,1-6.622,4.23l-.045-.073A6.226,6.226,0,0,0,203.874,163.466Z" transform="translate(-147.366 -68.18)"/><path class="f" d="M364.637,93.494l-22.952-32.66a2.748,2.748,0,0,0-4.5,0l-22.952,32.66a2.748,2.748,0,0,0,2.249,4.329h6.82a2.749,2.749,0,0,1,2.743,2.919l-3.485,56.4a2.75,2.75,0,0,0,2.746,2.916h28.257a2.75,2.75,0,0,0,2.746-2.916l-3.485-56.4a2.748,2.748,0,0,1,2.743-2.919h6.82A2.748,2.748,0,0,0,364.637,93.494Z" transform="translate(-231.552 -3.197)"/><path class="g" d="M437.066,93.494l-22.952-32.66a2.726,2.726,0,0,0-2.249-1.168v100.4h14.128a2.75,2.75,0,0,0,2.746-2.916l-3.485-56.4A2.748,2.748,0,0,1,428,97.823h6.82A2.748,2.748,0,0,0,437.066,93.494Z" transform="translate(-303.982 -3.197)"/></g></g></g></svg>