<svg xmlns="http://www.w3.org/2000/svg" width="351.932" height="358" viewBox="0 0 351.932 358"><defs><style>.a{fill:#f19b3e;}.b{fill:#e6bc6e;}.c{fill:#ffceb6;}.d{fill:#e27f9a;}.e{fill:#313766;}.f{fill:#222747;}.g{fill:#f29c3e;}.h{fill:#cc8335;}.i{fill:#ffd17b;}.j{fill:#f4ac1c;}.k{fill:#b36f42;}.l{fill:#ffd9c7;}.m{fill:#ffbfa1;}.n{fill:#bf6b82;}</style></defs><g transform="translate(-24 -24)"><path class="a" d="M40,272V441.9H76.407l18.2-127.424V441.9h42.475V272Z" transform="translate(-3.864 -59.898)"/><path class="b" d="M421.22,441.9V272H312V441.9h36.407l18.2-127.424L378.746,441.9Z" transform="translate(-69.559 -59.898)"/><path class="c" d="M254.576,108.136v30.339H224.237L197.3,160.925a34.046,34.046,0,0,1-43.074.425l-5.605-4.483-15.4-12.325v84.949H36.136V160.478A37.055,37.055,0,0,1,61.052,96h68.187a24.267,24.267,0,0,1,17.155,7.105l29.3,29.3L219.11,110.7a24.322,24.322,0,0,1,10.854-2.564Z" transform="translate(0 -17.39)"/><path class="c" d="M379.329,131.364V233.356H282.244V160.542L273.2,176.364l-5.014,8.768a35.491,35.491,0,0,1-57.2,6.136l-9.906-11.005L188.8,166.61l18.029-26.949,16.7,13.668L239.77,166.61l29.2-43.8A24.286,24.286,0,0,1,289.169,112h70.8a19.364,19.364,0,0,1,19.364,19.364Z" transform="translate(-39.803 -21.254)"/><path class="d" d="M397.912,131.364V233.356H300.827V160.542l-9.041,15.822L265.74,155.529l21.814-32.721A24.286,24.286,0,0,1,307.752,112h70.8a19.364,19.364,0,0,1,19.364,19.364Z" transform="translate(-58.386 -21.254)"/><path class="e" d="M167.026,123.737l-18.4,33.13-15.4-12.325v84.949H36.136V160.478A37.055,37.055,0,0,1,61.052,96h68.187a24.267,24.267,0,0,1,17.155,7.105Z" transform="translate(0 -17.39)"/><path class="f" d="M6.067,0a6.067,6.067,0,0,1,6.067,6.067V24.26A6.067,6.067,0,0,1,0,24.26V6.067A6.067,6.067,0,0,1,6.067,0Z" transform="matrix(0.614, -0.789, 0.789, 0.614, 50.583, 113.764)"/><rect class="f" width="12.136" height="23.215" rx="6.068" transform="translate(32.335 147.789) rotate(-50.598)"/><path class="g" d="M115.259,128l4.24,42.4-19.128-14.877L103.123,128Z" transform="translate(-18.446 -25.119)"/><path class="h" d="M102.068,122.2,96,110.068,108.133,104l12.137,6.067L114.2,122.2Z" transform="translate(-17.39 -19.322)"/><path class="i" d="M370.2,144l6.068,60.678-12.136,12.135L352,204.679,358.069,144Z" transform="translate(-79.221 -28.983)"/><path class="j" d="M358.069,138.2,352,126.069,364.136,120l12.136,6.068L370.2,138.2Z" transform="translate(-79.221 -23.186)"/><path class="c" d="M470.61,183.024v86.739a18.208,18.208,0,0,1-18.2,18.2H440.271V263.695l-8.548,4.27a5.57,5.57,0,0,1-7.122-8.07l9.6-14.4V184.814L426.657,167.2,416,142.339V112h13.342a24.275,24.275,0,0,1,22.805,15.969l9.217,25.353,7.782,21.4A24.208,24.208,0,0,1,470.61,183.024Z" transform="translate(-94.678 -21.254)"/><path class="d" d="M459.432,153.322,424.724,167.2l-10.657-24.863H408V112h19.409a24.275,24.275,0,0,1,22.805,15.969Z" transform="translate(-92.746 -21.254)"/><path class="f" d="M127.977,120.271a6.071,6.071,0,0,1-8.578,0l-15.693-15.685L88.013,120.271a6.066,6.066,0,0,1-8.578-8.578L95.119,96h17.164l15.693,15.693A6.07,6.07,0,0,1,127.977,120.271Z" transform="translate(-12.96 -17.39)"/><path class="c" d="M88,39.995l0,30.343a18.2,18.2,0,0,0,18.2,18.2h0a18.2,18.2,0,0,0,18.2-18.2l0-30.343Z" transform="translate(-15.457 -3.863)"/><path class="k" d="M98.632,42.2l1.777,1.777a14.649,14.649,0,0,0,10.358,4.291,18.2,18.2,0,0,0,18.2-18.2V24H98.682A16.906,16.906,0,0,0,83.561,48.467L86.5,54.339Z" transform="translate(-13.954 0)"/><path class="c" d="M183.163,148.018l-41.481,49.771A36.752,36.752,0,0,1,90.166,202.7L63.65,181.012l24.2-30.255,30.673,23.854L126.8,165.3,167.068,120l12.12,9.094,1.934,1.449a12.138,12.138,0,0,1,2.04,17.475Z" transform="translate(-9.576 -23.186)"/><path class="l" d="M179.306,134.279l10.461,6.974L178.452,156.34a12.136,12.136,0,0,1-16.44,2.816A9.836,9.836,0,0,1,159.6,145.07l6.382-8.509a9.836,9.836,0,0,1,13.325-2.282Z" transform="translate(-32.275 -26.236)"/><path class="m" d="M239.285,162.176l-.31.465-17.01-13.915a18.071,18.071,0,0,0-.536-12.388,6.165,6.165,0,0,0-10.623-1.316,5.866,5.866,0,0,0-.622,5.857,6.1,6.1,0,0,1,.449,1.7,6.017,6.017,0,0,1-1.363,4.589l-16.819,20.181a6.068,6.068,0,1,0,9.323,7.77l13.492-16.189,21.2,17.345a6.067,6.067,0,0,0,8.891-1.331l4.022-6.032a6.068,6.068,0,1,0-10.1-6.732Z" transform="translate(-40.345 -26.218)"/><path class="n" d="M383.977,136.271a6.071,6.071,0,0,1-8.578,0l-15.693-15.685-15.693,15.685a6.066,6.066,0,0,1-8.578-8.578L351.127,112h17.157l15.693,15.693A6.07,6.07,0,0,1,383.977,136.271Z" transform="translate(-74.79 -21.254)"/><path class="c" d="M344,55.995V86.338a18.2,18.2,0,1,0,36.407,0V55.995Z" transform="translate(-77.288 -7.728)"/><path class="k" d="M378.475,70.334,366.339,58.2A21.953,21.953,0,0,1,346.7,70.334h-4.635l-4.513-9.026a14.727,14.727,0,0,1,13.172-21.313h19.089a14.727,14.727,0,0,1,13.172,21.313Z" transform="translate(-75.356 -3.863)"/><path class="n" d="M411.642,159.811A6.068,6.068,0,1,1,422.8,155.03l5.875,13.708a6.068,6.068,0,1,1-11.155,4.781" transform="translate(-93.506 -30.759)"/></g></svg>