<svg width="40" height="40" viewBox="0 0 40 40" fill="none" xmlns="http://www.w3.org/2000/svg">
<path d="M16.6667 25H20C21 25 21.6667 24.3333 21.6667 23.3333C21.6667 22.3333 21 21.6666 20 21.6666H16.6667C15.6667 21.6666 15 22.3333 15 23.3333C15 24.3333 15.6667 25 16.6667 25ZM16.6667 30H23.3333C24.3333 30 25 29.3333 25 28.3333C25 27.3333 24.3333 26.6666 23.3333 26.6666H16.6667C15.6667 26.6666 15 27.3333 15 28.3333C15 29.3333 15.6667 30 16.6667 30Z" fill="#E6E6E6"/>
<path d="M14.0002 36.6666H26.0002C29.1668 36.6666 31.6668 34 31.6668 30.6666V15.6666C31.6668 15.6666 31.6668 15.6666 31.6668 15.5C31.6668 15.3333 31.6668 15.1666 31.5002 15V14.8333C31.5002 14.6666 31.3335 14.5 31.1668 14.3333L21.1668 3.66663C21.1668 3.66663 21.1668 3.66663 21.0002 3.66663C20.8335 3.49996 20.8335 3.49996 20.6668 3.33329H20.5002C20.3335 3.33329 20.1668 3.33329 20.0002 3.16663C20.0002 3.16663 20.0002 3.16663 19.8335 3.16663H14.0002C10.8335 3.33329 8.3335 5.99996 8.3335 9.33329V30.8333C8.3335 34 10.8335 36.6666 14.0002 36.6666ZM26.1668 14H21.6668V9.16663L26.1668 14ZM11.6668 9.33329C11.6668 7.83329 12.6668 6.66663 14.0002 6.66663H18.3335V15.6666C18.3335 16.6666 19.0002 17.3333 20.0002 17.3333H28.3335V30.6666C28.3335 32.1666 27.3335 33.3333 26.0002 33.3333H14.0002C12.6668 33.3333 11.6668 32.1666 11.6668 30.6666V9.33329Z" fill="#E6E6E6"/>
</svg>
