<svg width="40" height="40" viewBox="0 0 40 40" fill="none" xmlns="http://www.w3.org/2000/svg">
<path d="M19.3333 20.5L20 21.6666L20.6667 20.5C21.5 19.1666 22.5 18 24 17.1666L25 16.6666L23.8333 16C22.5 15.1666 21.3333 14.1666 20.5 12.6666L20 11.6666L19.3333 12.8333C18.5 14.1666 17.5 15.3333 16 16.1666L15 16.6666L16.1667 17.3333C17.5 18 18.6667 19.1666 19.3333 20.5Z" fill="#E6E6E6"/>
<path d="M30 21.5C30 21 30.1667 20.6667 30.5 20.3334C31.5 19.3334 32 18.1667 32 16.8334C32 15.5 31.5 14.3334 30.5 13.3334C30.1667 13 30 12.6667 30 12.1667V11.8334C30 9.16669 27.8333 6.83336 25 6.83336H24.6667C24.1667 6.83336 23.8333 6.66669 23.5 6.33336C21.6667 4.50003 18.3333 4.50003 16.5 6.50003C16.1667 6.83336 15.6667 7.00003 15.3333 7.00003H15C12.1667 7.00003 10 9.16669 10 12V12.3334C10 12.6667 9.83333 13 9.5 13.3334C8.5 14.3334 8 15.5 8 16.8334C8 18.1667 8.5 19.3334 9.5 20.3334C9.83333 20.6667 10 21.1667 10 21.5L4.5 27C4 27.5 3.83333 28 4 28.6667C4.16667 29.3334 4.66667 29.6667 5.33333 29.8334L10.1667 30.8334L11.1667 35.5C11.3333 36.1667 11.6667 36.6667 12.3333 36.8334H12.8333C13.3333 36.8334 13.6667 36.6667 14 36.3334L20 30.3334L26 36.3334C26.3333 36.6667 26.6667 36.8334 27.1667 36.8334H27.6667C28.3333 36.6667 28.6667 36.1667 28.8333 35.5L29.8333 30.8334L34.6667 29.8334C35.3333 29.6667 35.8333 29.3334 36 28.6667C36.1667 28 36 27.5 35.5 27L30 21.5ZM11.8333 15.6667C12.8333 14.8334 13.3333 13.5 13.3333 12.1667V11.8334C13.3333 11 14 10.1667 15 10.1667H15.3333C16.6667 10.1667 18 9.66669 18.8333 8.66669C19.5 8.00003 20.5 8.00003 21.1667 8.66669C22.1667 9.66669 23.3333 10.1667 24.6667 10.1667H25C26 10.1667 26.6667 10.8334 26.6667 11.8334V12.1667C26.6667 13.5 27.1667 14.6667 28.1667 15.6667C28.5 16 28.6667 16.3334 28.6667 16.8334C28.6667 17.3334 28.5 17.6667 28.1667 18C27.1667 19 26.6667 20.1667 26.6667 21.5V22C26.5 22.8334 25.8333 23.5 25 23.5H24.6667C23.3333 23.5 22 24 21.1667 25C21 25.1667 20.6667 25.3334 20.3333 25.5H19.5C19.3333 25.5 19 25.3334 18.8333 25.1667C17.8333 24.1667 16.6667 23.6667 15.3333 23.6667H15C14.1667 23.6667 13.5 23 13.3333 22.1667V21.6667C13.3333 20.3334 12.8333 19 11.8333 18.1667C11.5 17.8334 11.3333 17.5 11.3333 17C11.3333 16.5 11.5 16 11.8333 15.6667ZM13.8333 31.8334L13.3333 29C13.1667 28.3334 12.6667 27.8334 12 27.6667L9.16667 27.1667L11.1667 25L11.3333 25.1667L11.8333 25.6667C12 25.6667 12 25.8334 12.1667 25.8334C12.3333 26 12.5 26 12.6667 26.1667C12.8333 26.1667 12.8333 26.3334 13 26.3334C13.1667 26.5 13.5 26.5 13.6667 26.5C13.8333 26.5 13.8333 26.5 14 26.6667C14.3333 26.6667 14.6667 26.8334 15 26.8334H15.3333C15.8333 26.8334 16.1667 27 16.5 27.3334L17 27.8334L17.1667 28C17.3333 28 17.3333 28.1667 17.5 28.1667L13.8333 31.8334ZM28.1667 27.6667C27.5 27.8334 27 28.3334 26.8333 29L26.3333 31.8334L22.5 28.1667C22.8333 28 23.1667 27.6667 23.5 27.3334C23.8333 27 24.1667 26.8334 24.6667 26.8334H25C25.3333 26.8334 25.6667 26.8334 26 26.6667C26.1667 26.6667 26.1667 26.6667 26.3333 26.5C26.5 26.5 26.8333 26.3334 27 26.3334C27.1667 26.3334 27.1667 26.1667 27.3333 26.1667C27.5 26 27.6667 26 27.8333 25.8334C28 25.8334 28 25.6667 28.1667 25.6667L28.6667 25.1667L28.8333 25L31 27.1667L28.1667 27.6667Z" fill="#E6E6E6"/>
</svg>
