<svg xmlns="http://www.w3.org/2000/svg" width="133.131" height="32" viewBox="0 0 133.131 32"><defs><style>.a{fill:#00b67a;}.b{fill:#005128;}</style></defs><g transform="translate(0)"><path d="M107.113,36.228h13.469v2.507h-5.3V52.869h-2.907V38.735h-5.281ZM120,40.821h2.485v2.33h.045A2.917,2.917,0,0,1,123,42.2a3.679,3.679,0,0,1,.821-.843,3.636,3.636,0,0,1,1.065-.621,3.1,3.1,0,0,1,1.176-.244c.31,0,.533.022.643.022a1.936,1.936,0,0,0,.355.044v2.552a4.5,4.5,0,0,0-.577-.089,5.04,5.04,0,0,0-.577-.044,3.081,3.081,0,0,0-1.265.266,3.2,3.2,0,0,0-1.043.777,4.212,4.212,0,0,0-.71,1.287,5.435,5.435,0,0,0-.266,1.775V52.8H119.96Zm19.259,12.048h-2.618V51.183H136.6a3.715,3.715,0,0,1-1.464,1.464,3.864,3.864,0,0,1-1.975.555,4.393,4.393,0,0,1-3.439-1.176,5.142,5.142,0,0,1-1.065-3.55V40.821h2.663V48.21a3.15,3.15,0,0,0,.621,2.241,2.191,2.191,0,0,0,1.709.666,3.276,3.276,0,0,0,1.4-.266,2.413,2.413,0,0,0,.91-.688,2.7,2.7,0,0,0,.51-1.043,4.911,4.911,0,0,0,.156-1.309V40.821h2.663V52.869Zm4.526-3.861a2.1,2.1,0,0,0,.888,1.642,3.494,3.494,0,0,0,1.841.466,6.106,6.106,0,0,0,.844-.067,3.711,3.711,0,0,0,.887-.222,1.56,1.56,0,0,0,.688-.488,1.136,1.136,0,0,0,.244-.821,1.193,1.193,0,0,0-.377-.843,3.138,3.138,0,0,0-.888-.533,7.68,7.68,0,0,0-1.242-.333c-.466-.089-.932-.2-1.42-.311s-.976-.244-1.442-.4a4.129,4.129,0,0,1-1.242-.643,2.766,2.766,0,0,1-.865-1.021,3.187,3.187,0,0,1-.333-1.531,2.624,2.624,0,0,1,.488-1.642,3.541,3.541,0,0,1,1.221-1.065,5.539,5.539,0,0,1,1.642-.577,9.4,9.4,0,0,1,1.709-.155,7.636,7.636,0,0,1,1.775.2,4.484,4.484,0,0,1,1.531.643,3.517,3.517,0,0,1,1.132,1.154,3.994,3.994,0,0,1,.577,1.708h-2.773a1.708,1.708,0,0,0-.865-1.287,3.572,3.572,0,0,0-1.575-.333c-.178,0-.422.022-.666.044a3.919,3.919,0,0,0-.732.177,1.737,1.737,0,0,0-.577.377.889.889,0,0,0-.244.643.975.975,0,0,0,.333.777,3.015,3.015,0,0,0,.888.51,7.685,7.685,0,0,0,1.242.333c.466.089.954.2,1.442.311s.954.244,1.42.4a3.883,3.883,0,0,1,1.242.643,3.2,3.2,0,0,1,.888,1,3.065,3.065,0,0,1,.333,1.487,3.234,3.234,0,0,1-.488,1.819,4.145,4.145,0,0,1-1.265,1.22,6.267,6.267,0,0,1-1.731.688,9.294,9.294,0,0,1-1.886.222,7.952,7.952,0,0,1-2.108-.266,5.369,5.369,0,0,1-1.686-.777,3.725,3.725,0,0,1-1.11-1.309,4.277,4.277,0,0,1-.444-1.864h2.685v.022Zm8.765-8.188h2.019V37.182h2.663V40.8h2.4v1.975h-2.4v6.435a6.77,6.77,0,0,0,.045.732,1.529,1.529,0,0,0,.155.51.868.868,0,0,0,.378.311,1.978,1.978,0,0,0,.71.111,4.641,4.641,0,0,0,.555-.022,4.8,4.8,0,0,0,.554-.089v2.064c-.288.044-.577.067-.865.089a5.509,5.509,0,0,1-.865.044,5.731,5.731,0,0,1-1.686-.2,2.421,2.421,0,0,1-1-.577,2.061,2.061,0,0,1-.488-.954,7.575,7.575,0,0,1-.156-1.331V42.8h-2.019V40.821Zm8.942,0H164v1.642h.044a3.3,3.3,0,0,1,1.553-1.509,5.029,5.029,0,0,1,2.174-.466,5.469,5.469,0,0,1,2.485.51,4.662,4.662,0,0,1,1.753,1.376,5.742,5.742,0,0,1,1.043,2.041,8.971,8.971,0,0,1,.044,4.837,6.529,6.529,0,0,1-.954,2.019,4.716,4.716,0,0,1-1.619,1.4,4.79,4.79,0,0,1-2.308.533,6.767,6.767,0,0,1-1.153-.111,4.909,4.909,0,0,1-1.11-.333,3.986,3.986,0,0,1-.976-.6,3.385,3.385,0,0,1-.755-.843h-.044v6.013h-2.663V40.821Zm9.3,6.035a5.4,5.4,0,0,0-.222-1.575,4.024,4.024,0,0,0-.643-1.354,3.554,3.554,0,0,0-1.043-.954,2.837,2.837,0,0,0-1.442-.355,2.947,2.947,0,0,0-2.529,1.154,5.254,5.254,0,0,0-.843,3.106,5.759,5.759,0,0,0,.222,1.686,3.761,3.761,0,0,0,.666,1.331,3.175,3.175,0,0,0,1.065.888,3.01,3.01,0,0,0,1.443.333A2.954,2.954,0,0,0,169,50.739a3.583,3.583,0,0,0,1.043-.954,3.9,3.9,0,0,0,.577-1.354,7.6,7.6,0,0,0,.178-1.575Zm4.681-10.628h2.663v2.507h-2.663Zm0,4.593h2.663V52.869h-2.663Zm5.037-4.593h2.663V52.869h-2.663ZM191.3,53.2a6.342,6.342,0,0,1-2.574-.488,5.846,5.846,0,0,1-1.908-1.309,5.7,5.7,0,0,1-1.176-2.019,7.888,7.888,0,0,1-.422-2.552,7.2,7.2,0,0,1,.422-2.529,5.9,5.9,0,0,1,1.176-2.019,5.323,5.323,0,0,1,1.908-1.309,6.737,6.737,0,0,1,2.574-.488,6.341,6.341,0,0,1,2.574.488,5.521,5.521,0,0,1,1.908,1.309,5.7,5.7,0,0,1,1.176,2.019,7.753,7.753,0,0,1,.421,2.529,7.254,7.254,0,0,1-.421,2.552,6.279,6.279,0,0,1-1.176,2.019,5.318,5.318,0,0,1-1.908,1.309A6.654,6.654,0,0,1,191.3,53.2Zm0-2.108a3.07,3.07,0,0,0,1.531-.377,3.215,3.215,0,0,0,1.065-.976,4.188,4.188,0,0,0,.621-1.354,6.053,6.053,0,0,0,0-3.084,3.984,3.984,0,0,0-.621-1.353A3.376,3.376,0,0,0,192.828,43a3.131,3.131,0,0,0-1.531-.377,3.067,3.067,0,0,0-1.531.377,3.39,3.39,0,0,0-1.065.954,3.974,3.974,0,0,0-.621,1.353,6.054,6.054,0,0,0,0,3.084,3.975,3.975,0,0,0,.621,1.354,3.435,3.435,0,0,0,1.065.976A2.9,2.9,0,0,0,191.3,51.094Zm6.878-10.273h2.019V37.182h2.663V40.8h2.4v1.975h-2.4v6.435a6.926,6.926,0,0,0,.044.732,1.542,1.542,0,0,0,.156.51.869.869,0,0,0,.377.311,1.981,1.981,0,0,0,.71.111,4.628,4.628,0,0,0,.554-.022,4.788,4.788,0,0,0,.555-.089v2.064c-.289.044-.577.067-.865.089a5.516,5.516,0,0,1-.865.044,5.738,5.738,0,0,1-1.687-.2,2.428,2.428,0,0,1-1-.577,2.06,2.06,0,0,1-.488-.954,7.57,7.57,0,0,1-.156-1.331V42.8h-2.019V40.821Z" transform="translate(-72.121 -25.329)"/><path class="a" d="M74.885,26.321H62.7L58.954,15,55.182,26.321,43,26.3,52.852,33.3,49.08,44.626l9.852-7.005,9.852,7.005L65.033,33.3Z" transform="translate(-43 -15)"/><path class="b" d="M79.162,51.941l-.843-2.618-6.08,4.416Z" transform="translate(-56.285 -31.048)"/></g></svg>