<svg xmlns="http://www.w3.org/2000/svg" width="262.127" height="54.552" viewBox="0 0 262.127 54.552"><defs><style>.a{fill:#036cb5;}.b{fill:none;stroke:#737798;stroke-linecap:round;}.c{fill:#363d71;}.d{fill:#253b80;}.e{fill:#179bd7;}.f{fill:#222d65;}</style></defs><g transform="translate(-226.381 -2117.586)"><g transform="translate(226.381 2118)"><g transform="translate(0 0.087)"><path class="a" d="M739.114,54.039a14.289,14.289,0,0,1,6.412,1.522c.306.144.614.316.919.488l-1.338,1.235L743.1,55.131l-3.456,3.159-2.036-2.269-6.356,5.887,4.069,4.623-1.588,1.435,4.015,4.623-1.589,1.435L741.9,80.6l3.4-3.216,2.956,3.447a16.442,16.442,0,0,1-1.923,1.321,14.24,14.24,0,0,1-7.192,1.951,15.039,15.039,0,0,1-.028-30.064Zm-2.677,14.1,3.485-3.216,3.123,3.589-3.485,3.216Zm2.482,6.2,3.456-3.245,3.15,3.589L742.041,77.9Zm-4.961-12.319,3.484-3.216,3.122,3.589-3.485,3.216Zm6.383-1.723,2.593-2.412,2.342,2.671L742.683,63Zm4.628,11.056,2.592-2.412,2.342,2.7-2.593,2.414Zm2.286,5.428,2.593-2.413,2.34,2.671-2.592,2.44Zm1.059-12.406,1.728-1.608,1.561,1.781-1.728,1.608Zm-2.23-5.312,1.728-1.636,1.562,1.809-1.73,1.608Zm4.432,10.625,1.728-1.608,1.589,1.78-1.755,1.608ZM742.738,65.7l2.593-2.412,2.341,2.67-2.592,2.413Z" transform="translate(-694.098 -54.039)"/><g transform="translate(0 36.166)"><g transform="translate(0 0.918)"><path class="a" d="M73.146,96.29h-.131l-2.469,9.376H68.529L65.5,92.345h2.093l2.094,9.939h.131l2.43-9.939h1.664l2.6,9.939h.131l1.907-9.939h2.187l-3.03,13.32H75.688Z" transform="translate(-65.5 -92.345)"/></g><path class="a" d="M176.188,123.747h4.28c-.093-1.972-1.047-2.76-2.056-2.76-1.14,0-2.02.883-2.224,2.76m5.776,3.533v1.428a6.567,6.567,0,0,1-3.309.864c-3.14,0-4.43-1.954-4.43-4.922,0-2.857,1.439-4.923,4.243-4.923,2.336,0,3.777,1.523,3.777,4.584v.7H176.15c0,2.254.915,3.25,2.842,3.25a5.7,5.7,0,0,0,2.971-.976" transform="translate(-158.115 -115.18)"/><path class="a" d="M247.426,101.576a4.324,4.324,0,0,0,1.721.3c1.383,0,2.429-.865,2.429-3.908,0-2.386-.86-3.156-2.112-3.156a3.9,3.9,0,0,0-2.038.62Zm.02-7.533a5.607,5.607,0,0,1,2.523-.7c2.318,0,3.571,1.616,3.571,4.622,0,3.513-1.683,5.223-4.392,5.223a8.622,8.622,0,0,1-3.647-.922V89.158l1.945-.469Z" transform="translate(-218.829 -88.689)"/><path class="a" d="M320.226,105.4h.094l4-10.5h2.319v13.321H324.62V98.561h-.168l-3.814,9.657h-1.2l-3.815-9.432h-.168v9.432h-1.683V94.9h2.263Z" transform="translate(-276.962 -93.988)"/><path class="a" d="M419.651,124.65c0-2.536-1.027-3.606-2.3-3.606-1.233,0-2.3,1.07-2.3,3.606,0,2.574.973,3.606,2.3,3.606s2.3-1.032,2.3-3.606m-6.561,0c0-3.289,1.8-4.923,4.262-4.923s4.263,1.634,4.263,4.923c0,3.212-1.7,4.922-4.263,4.922s-4.262-1.71-4.262-4.922" transform="translate(-361.583 -115.18)"/><path class="a" d="M481.366,121.119a9.52,9.52,0,0,1,4.767-1.391c2.243,0,3.083.883,3.083,2.818v6.8h-1.943v-6.369c0-1.484-.728-1.747-1.682-1.747a5.14,5.14,0,0,0-2.28.677v7.439h-1.944v-8.228Z" transform="translate(-419.748 -115.18)"/><path class="a" d="M551.6,123.747h4.281c-.092-1.972-1.047-2.76-2.056-2.76-1.14,0-2.018.883-2.225,2.76m5.776,3.533v1.428a6.567,6.567,0,0,1-3.309.864c-3.139,0-4.43-1.954-4.43-4.922,0-2.857,1.439-4.923,4.243-4.923,2.338,0,3.778,1.523,3.778,4.584v.7h-6.1c0,2.254.916,3.25,2.842,3.25a5.694,5.694,0,0,0,2.971-.976" transform="translate(-477.793 -115.18)"/><path class="a" d="M618.4,119.728h2l-3.384,9.392c-.936,2.593-2.075,3.946-4.224,3.946v-1.539c1.272,0,2.056-1.015,2.505-2.406l-3.589-9.392h2.057l2.393,6.914h.112Z" transform="translate(-530.769 -115.18)"/></g></g><g transform="translate(92.288 0.087)"><path class="b" d="M-4723.929,4783.188c25.26-25.261,55.912-23.667,80.621,1.041" transform="translate(4723.929 -4764.957)"/><path class="c" d="M.647,6.492A.65.65,0,0,1,.259,5.324L3.018,3.246.259,1.169A.648.648,0,0,1,1.035.13l3.449,2.6a.651.651,0,0,1,0,1.039l-3.449,2.6A.642.642,0,0,1,.647,6.492Z" transform="translate(80.661 14.313) rotate(47)"/></g><g transform="translate(183.549 0.087)"><g transform="translate(0 33.81)"><path class="d" d="M44.752,6.749H38.859a.819.819,0,0,0-.809.691L35.666,22.552a.491.491,0,0,0,.486.567h2.814a.819.819,0,0,0,.809-.692l.643-4.076a.818.818,0,0,1,.808-.692h1.866c3.882,0,6.123-1.879,6.708-5.6a4.539,4.539,0,0,0-.751-3.8A5.468,5.468,0,0,0,44.752,6.749Zm.68,5.519c-.322,2.115-1.938,2.115-3.5,2.115h-.889l.624-3.949a.491.491,0,0,1,.485-.414h.408c1.064,0,2.068,0,2.587.607A1.964,1.964,0,0,1,45.432,12.268Z" transform="translate(-35.66 -6.748)"/><path class="d" d="M64.512,13.032H61.69a.492.492,0,0,0-.485.414l-.125.789-.2-.286c-.611-.887-1.973-1.183-3.333-1.183a6.49,6.49,0,0,0-6.3,5.675A5.327,5.327,0,0,0,52.3,22.778a4.416,4.416,0,0,0,3.555,1.436A5.4,5.4,0,0,0,59.761,22.6l-.126.784a.491.491,0,0,0,.484.569h2.542a.819.819,0,0,0,.809-.692L65,13.6A.489.489,0,0,0,64.512,13.032Zm-3.934,5.493a3.145,3.145,0,0,1-3.184,2.695,2.186,2.186,0,0,1-2.338-2.744,3.159,3.159,0,0,1,3.163-2.716,2.381,2.381,0,0,1,1.882.769A2.443,2.443,0,0,1,60.578,18.525Z" transform="translate(-37.202 -7.58)"/><path class="d" d="M81.986,13.075H79.15a.822.822,0,0,0-.678.359L74.561,19.2,72.9,13.659a.821.821,0,0,0-.786-.584H69.33a.491.491,0,0,0-.466.65l3.124,9.167-2.937,4.146a.491.491,0,0,0,.4.776h2.832a.817.817,0,0,0,.673-.352l9.432-13.615A.491.491,0,0,0,81.986,13.075Z" transform="translate(-38.959 -7.623)"/><path class="e" d="M93.533,6.749H87.639a.819.819,0,0,0-.808.691L84.447,22.552a.49.49,0,0,0,.484.567h3.025a.573.573,0,0,0,.565-.484l.676-4.284a.818.818,0,0,1,.808-.692h1.865c3.883,0,6.123-1.879,6.708-5.6a4.536,4.536,0,0,0-.752-3.8A5.462,5.462,0,0,0,93.533,6.749Zm.68,5.519c-.321,2.115-1.937,2.115-3.5,2.115h-.888l.625-3.949a.489.489,0,0,1,.484-.414h.408c1.063,0,2.068,0,2.587.607A1.964,1.964,0,0,1,94.213,12.268Z" transform="translate(-40.486 -6.748)"/><path class="e" d="M113.293,13.032h-2.82a.489.489,0,0,0-.484.414l-.125.789-.2-.286c-.611-.887-1.972-1.183-3.332-1.183a6.489,6.489,0,0,0-6.3,5.675,5.329,5.329,0,0,0,1.05,4.335,4.418,4.418,0,0,0,3.555,1.436,5.4,5.4,0,0,0,3.906-1.616l-.126.784a.491.491,0,0,0,.486.569h2.541a.819.819,0,0,0,.808-.692L113.78,13.6A.492.492,0,0,0,113.293,13.032Zm-3.934,5.493a3.144,3.144,0,0,1-3.184,2.695,2.186,2.186,0,0,1-2.338-2.744A3.16,3.16,0,0,1,107,15.76a2.381,2.381,0,0,1,1.882.769A2.43,2.43,0,0,1,109.359,18.525Z" transform="translate(-41.74 -7.58)"/><path class="e" d="M118.906,7.163l-2.419,15.389a.49.49,0,0,0,.484.567H119.4a.818.818,0,0,0,.809-.692L122.6,7.316a.491.491,0,0,0-.484-.568H119.39A.492.492,0,0,0,118.906,7.163Z" transform="translate(-44.026 -6.748)"/></g><g transform="translate(25.479)"><path class="d" d="M7.05,29.317l.5-3.341L6.43,25.949H1.061L4.792,1.294A.329.329,0,0,1,4.9,1.1a.3.3,0,0,1,.2-.076h9.053c3.006,0,5.08.652,6.163,1.938A4.482,4.482,0,0,1,21.3,4.89a7.249,7.249,0,0,1,.007,2.659l-.012.077v.68l.508.3a3.583,3.583,0,0,1,1.028.817,3.88,3.88,0,0,1,.834,1.949,8.586,8.586,0,0,1-.119,2.828,10.229,10.229,0,0,1-1.112,3.2,6.494,6.494,0,0,1-1.761,2.012A7.012,7.012,0,0,1,18.3,20.529a11.376,11.376,0,0,1-2.965.357h-.7a2.086,2.086,0,0,0-1.377.528,2.248,2.248,0,0,0-.718,1.336l-.053.3-.892,5.889-.041.216a.189.189,0,0,1-.056.126.146.146,0,0,1-.093.035Z" transform="translate(-0.037 -0.036)"/><path class="e" d="M22.461,7.667h0q-.041.259-.093.531c-1.194,6.13-5.278,8.247-10.5,8.247H9.217a1.29,1.29,0,0,0-1.275,1.093h0l-1.36,8.625L6.2,28.607a.68.68,0,0,0,.671.786h4.711a1.134,1.134,0,0,0,1.12-.956l.046-.239.887-5.629.057-.309a1.133,1.133,0,0,1,1.12-.957h.7c4.564,0,8.137-1.853,9.182-7.216.436-2.24.21-4.111-.944-5.426A4.5,4.5,0,0,0,22.461,7.667Z" transform="translate(-0.215 0.876)"/><path class="f" d="M21.275,7.136q-.274-.08-.564-.145t-.6-.113a14.752,14.752,0,0,0-2.341-.171h-7.1a1.131,1.131,0,0,0-1.119.957l-1.51,9.561-.043.279A1.29,1.29,0,0,1,9.28,16.412h2.656c5.217,0,9.3-2.119,10.5-8.247.036-.181.066-.358.093-.531a6.364,6.364,0,0,0-.982-.414C21.456,7.191,21.366,7.163,21.275,7.136Z" transform="translate(-0.279 0.17)"/><path class="d" d="M9.279,7.759a1.174,1.174,0,0,1,.629-.883A1.09,1.09,0,0,1,10.4,6.76h7.1a14.14,14.14,0,0,1,2.341.178q.307.051.6.118T21,7.208c.091.028.18.057.268.087a6.315,6.315,0,0,1,.982.432c.355-2.365,0-3.976-1.228-5.434C19.668.687,17.231,0,14.113,0H5.059A1.312,1.312,0,0,0,3.781,1.142L.01,26.1a.8.8,0,0,0,.767.939H6.366l1.4-9.3Z" transform="translate(0 0)"/></g></g></g></g></svg>