<svg xmlns="http://www.w3.org/2000/svg" width="116.618" height="32" viewBox="0 0 116.618 32">
  <g id="webmoney" transform="translate(0)">
    <path id="Path_13467" data-name="Path 13467" d="M16.16,0a16.38,16.38,0,0,1,7.107,1.619l1.018.53L22.8,3.464l-2.223-2.29L16.746,4.534,14.49,2.12,7.444,8.383,11.955,13.3,10.2,14.829l4.451,4.919-1.76,1.527,6.366,7L23.02,24.85l3.287,3.668a19.4,19.4,0,0,1-2.12,1.406A16.243,16.243,0,0,1,0,15.977,16.082,16.082,0,0,1,16.16,0ZM13.192,15l3.863-3.421L20.516,15.4l-3.863,3.421Zm2.751,6.6,3.831-3.452,3.492,3.817L19.4,25.384Zm-5.5-13.1L14.3,5.074l3.46,3.819L13.9,12.314Zm7.074-1.834L20.38,4.1l2.6,2.841-2.862,2.6Zm5.131,11.76,2.862-2.566,2.6,2.871-2.862,2.566ZM25.193,24.2l2.862-2.566,2.584,2.842-2.862,2.6Zm1.177-13.188L28.285,9.3l1.73,1.895L28.1,12.9ZM23.9,5.356l1.916-1.741,1.731,1.924L25.627,7.25Zm4.913,11.3,1.916-1.711,1.76,1.895-1.946,1.71Zm-8.621-4.246,2.862-2.566,2.6,2.841-2.862,2.566Zm19.98-4.277h1.552l2.424,9.27h.122l1.779-9.27h2.04L45.269,20.549H43.386L41.016,11.8h-.123l-2.3,8.744H36.708L33.872,8.126h1.953l1.953,9.27H37.9Zm10.394,7.135h3.992c-.087-1.839-.975-2.574-1.908-2.574-1.063,0-1.884.824-2.075,2.574m5.386,3.295V19.9a6.108,6.108,0,0,1-3.074.806c-2.928,0-4.131-1.823-4.131-4.591,0-2.664,1.342-4.591,3.958-4.591,2.179,0,3.522,1.421,3.522,4.276v.649H50.548c0,2.1.853,3.032,2.65,3.032a5.339,5.339,0,0,0,2.771-.912m4.318.742a4.057,4.057,0,0,0,1.605.282c1.29,0,2.266-.806,2.266-3.645,0-2.226-.8-2.944-1.97-2.944a3.636,3.636,0,0,0-1.9.578Zm.018-7.026a5.22,5.22,0,0,1,2.354-.649c2.163,0,3.331,1.505,3.331,4.311,0,3.287-1.569,4.871-4.1,4.871a8.047,8.047,0,0,1-3.4-.859V7.708l1.8-.438v4.983Zm13.914,8.269H73.1l-3.558-8.8H69.39v8.8H67.821V8.128h2.12l3.9,9.8h.087l3.732-9.8h2.163V20.553H77.922V11.538h-.157Zm13.291-4.44c0-2.364-.958-3.364-2.144-3.364-1.15,0-2.145,1-2.145,3.364,0,2.4.908,3.364,2.145,3.364s2.144-.963,2.144-3.364m-6.119,0c0-3.067,1.675-4.591,3.976-4.591s3.976,1.523,3.976,4.591c0,3-1.586,4.591-3.976,4.591s-3.976-1.6-3.976-4.591m9.306-3.3a8.879,8.879,0,0,1,4.446-1.3c2.092,0,2.875.824,2.875,2.629v6.344h-1.8v-5.94c0-1.384-.679-1.629-1.569-1.629a4.8,4.8,0,0,0-2.127.631v6.939h-1.8Zm11.159,2.451h3.993c-.085-1.839-.975-2.574-1.908-2.574-1.063,0-1.882.824-2.075,2.574m5.386,3.295v1.332a6.108,6.108,0,0,1-3.074.806c-2.926,0-4.131-1.823-4.131-4.591,0-2.664,1.342-4.591,3.958-4.591,2.18,0,3.523,1.421,3.523,4.276v.649h-5.685c0,2.1.854,3.032,2.65,3.032a5.342,5.342,0,0,0,2.771-.912m7.506-7.045h1.849l-3.156,8.76c-.873,2.417-1.936,3.679-3.94,3.679V22.516c1.187,0,1.908-.947,2.337-2.244l-3.348-8.76h1.908l2.232,6.448h.106Z" transform="translate(0)" fill="#106db3"/>
  </g>
</svg>
