<svg xmlns="http://www.w3.org/2000/svg" width="266.149" height="55" viewBox="0 0 266.149 55"><defs><style>.a{fill:#f1f1f9;stroke:#e8e8ef;}.b{fill:#9497b7;}.c{fill:#036cb5;}.d,.i{fill:#363d71;}.d,.e,.f,.g{fill-rule:evenodd;}.e{fill:rgba(84,84,84,0.3);}.f{fill:#f49d3f;}.g{fill:rgba(219,219,219,0.44);}.h{fill:none;stroke:#737798;stroke-linecap:round;}</style></defs><g transform="translate(-205.094 -2114.5)"><g transform="translate(205.714 2115.333)"><g transform="translate(-0.222 -0.333)"><path class="a" d="M60.154,164.526H6.431A6.463,6.463,0,0,1,0,158.031V117.021a6.463,6.463,0,0,1,6.431-6.5H60.154a6.463,6.463,0,0,1,6.431,6.5v41.009A6.463,6.463,0,0,1,60.154,164.526Z" transform="translate(0.102 -110.526)"/><path class="b" d="M12.436,164.268H6.079A6.28,6.28,0,0,1,0,157.8V116.989a6.28,6.28,0,0,1,6.079-6.464h6.357a6.28,6.28,0,0,0-6.079,6.464V157.8A6.28,6.28,0,0,0,12.436,164.268Z" transform="translate(0 -110.268)"/><path class="c" d="M742.559,54.039a17.66,17.66,0,0,1,7.927,1.882c.378.178.759.391,1.136.6l-1.654,1.527-2.48-2.664L743.215,59.3,740.7,56.489l-7.857,7.28,5.031,5.718-1.964,1.775,4.963,5.718-1.964,1.774,7.1,8.133,4.2-3.978,3.655,4.263a20.343,20.343,0,0,1-2.377,1.634,17.6,17.6,0,0,1-8.892,2.413c-9.961,0-18.058-8.344-18.058-18.606C724.5,62.42,732.6,54.039,742.559,54.039ZM739.25,71.476l4.308-3.978,3.861,4.439-4.309,3.977Zm3.068,7.671,4.273-4.013,3.895,4.439-4.309,3.978Zm-6.133-15.235,4.306-3.978,3.86,4.439-4.308,3.977Zm7.891-2.131,3.205-2.983,2.9,3.3-3.205,3.018ZM749.8,75.453,753,72.47l2.9,3.337-3.206,2.985Zm2.826,6.713,3.205-2.984,2.893,3.3-3.2,3.018Zm1.31-15.342,2.136-1.989,1.929,2.2-2.136,1.988Zm-2.757-6.57,2.137-2.024,1.931,2.237L753.1,62.455Zm5.479,13.14,2.136-1.989,1.964,2.2-2.17,1.988Zm-9.615-4.936,3.205-2.983,2.894,3.3-3.2,2.984Z" transform="translate(-709.251 -45.501)"/></g><g transform="translate(195.778 -0.333)"><path class="d" d="M31.86,3.2,47.593,20.263a10.241,10.241,0,0,1,0,13.653L31.8,51.05a8.417,8.417,0,0,1-12.587,0L3.477,33.984a10.241,10.241,0,0,1,0-13.653L19.273,3.2A8.417,8.417,0,0,1,31.86,3.2Z" transform="translate(-0.87 -0.37)"/><path class="e" d="M107.139,3.988,123.25,21.464a9.832,9.832,0,0,1,0,13.107L107.013,52.182a8.081,8.081,0,0,1-12.083,0L78.819,34.707a9.832,9.832,0,0,1,0-13.107L95.056,3.988A8.081,8.081,0,0,1,107.139,3.988Z" transform="translate(-69.601 -1.186)"/><path class="f" d="M183.945,5.844l15.8,17.134a10.241,10.241,0,0,1,0,13.653l-15.8,17.134a8.417,8.417,0,0,1-12.587,0l-15.8-17.134a10.242,10.242,0,0,1,0-13.653l15.8-17.134A8.417,8.417,0,0,1,183.945,5.844Z" transform="translate(-139.419 -2.761)"/><path class="g" d="M259.931,6.988l16.111,17.476a9.832,9.832,0,0,1,0,13.107L259.805,55.182a8.081,8.081,0,0,1-12.083,0L231.611,37.707a9.832,9.832,0,0,1,0-13.107L247.848,6.988A8.081,8.081,0,0,1,259.931,6.988Z" transform="translate(-208.795 -3.897)"/></g><g transform="translate(87.778 17.667)"><path class="h" d="M-4723.929,4782.291c21.732-5.293,52.074,20.665,45.275-1.71s13.736.709,40.705,1.8" transform="translate(4723.929 -4770.854)"/><path class="i" d="M.639,6.406A.641.641,0,0,1,.255,5.253L2.978,3.2.255,1.153A.64.64,0,0,1,1.021.128l3.4,2.562a.642.642,0,0,1,0,1.025l-3.4,2.562A.634.634,0,0,1,.639,6.406Z" transform="translate(82.615 8.005) rotate(8)"/></g></g></g></svg>