<svg xmlns="http://www.w3.org/2000/svg" viewBox="0 0 2000 1250" width="2000" height="1250" preserveAspectRatio="xMidYMid meet" style="width: 100%; height: 100%; transform: translate3d(0px, 0px, 0px); content-visibility: visible;"><defs><clipPath id="__lottie_element_60"><rect width="2000" height="1250" x="0" y="0"></rect></clipPath></defs><g clip-path="url(#__lottie_element_60)"><g transform="matrix(0.28147411346435547,0.5524240732192993,-0.5524240732192993,0.28147411346435547,1019.6604614257812,593.3911743164062)" opacity="1" style="display: block;"><g opacity="1" transform="matrix(1,0,0,1,0,0)"><path stroke-linecap="round" stroke-linejoin="round" fill-opacity="0" stroke="rgb(255,255,255)" stroke-opacity="1" stroke-width="74" d=" M-210,54 C-210,54 197,54 197,54"></path></g></g><g transform="matrix(-0.1915905475616455,0.5896550416946411,-0.5896550416946411,-0.1915905475616455,1114.86474609375,611.6021118164062)" opacity="1" style="display: block;"><g opacity="1" transform="matrix(1,0,0,1,0,0)"><path stroke-linecap="round" stroke-linejoin="round" fill-opacity="0" stroke="rgb(255,255,255)" stroke-opacity="1" stroke-width="74" d=" M8,54 C8,54 197,54 197,54"></path></g></g><g transform="matrix(0.5896550416946411,0.1915905475616455,-0.1915905475616455,0.5896550416946411,939.4638061523438,647.8336181640625)" opacity="1" style="display: block;"><g opacity="1" transform="matrix(1,0,0,1,0,0)"><path stroke-linecap="round" stroke-linejoin="round" fill-opacity="0" stroke="rgb(255,255,255)" stroke-opacity="1" stroke-width="74" d=" M8,54 C8,54 197,54 197,54"></path></g></g><g transform="matrix(4.886209964752197,0,0,4.886209964752197,385.10467529296875,827.0784912109375)" opacity="1" style="display: block;"><g opacity="1" transform="matrix(1,0,0,1,0,0)"><g opacity="1" transform="matrix(1,0,0,1,0,0)"><path fill="rgb(214,214,214)" fill-opacity="1" d=" M92.9000015258789,26.56999969482422 C92.1500015258789,31.389999389648438 88.4800033569336,31.389999389648438 84.93000030517578,31.389999389648438 C84.93000030517578,31.389999389648438 82.9000015258789,31.389999389648438 82.9000015258789,31.389999389648438 C82.9000015258789,31.389999389648438 84.33000183105469,22.389999389648438 84.33000183105469,22.389999389648438 C84.33000183105469,22.389999389648438 84.31999969482422,22.389999389648438 84.31999969482422,22.389999389648438 C84.4000015258789,21.850000381469727 84.87999725341797,21.440000534057617 85.43000030517578,21.440000534057617 C85.43000030517578,21.440000534057617 86.36000061035156,21.440000534057617 86.36000061035156,21.440000534057617 C88.77999877929688,21.440000534057617 91.06999969482422,21.440000534057617 92.25,22.81999969482422 C92.94999694824219,23.639999389648438 93.16000366210938,24.8700008392334 92.88999938964844,26.56999969482422 C92.88999938964844,26.56999969482422 92.9000015258789,26.56999969482422 92.9000015258789,26.56999969482422z M91.3499984741211,13.989999771118164 C91.3499984741211,13.989999771118164 77.91999816894531,13.989999771118164 77.91999816894531,13.989999771118164 C77,13.989999771118164 76.20999908447266,14.649999618530273 76.06999969482422,15.5600004196167 C76.06999969482422,15.5600004196167 70.63999938964844,50 70.63999938964844,50 C70.58999633789062,50.290000915527344 70.66999816894531,50.599998474121094 70.83999633789062,50.84000015258789 C71.0199966430664,51.08000183105469 71.27999877929688,51.2400016784668 71.56999969482422,51.279998779296875 C71.62999725341797,51.290000915527344 71.69000244140625,51.290000915527344 71.75,51.279998779296875 C71.75,51.279998779296875 78.16999816894531,51.279998779296875 78.16999816894531,51.279998779296875 C78.16999816894531,51.279998779296875 78.16000366210938,51.279998779296875 78.16000366210938,51.279998779296875 C79.08000183105469,51.279998779296875 79.87000274658203,50.61000061035156 80.01000213623047,49.70000076293945 C80.01000213623047,49.70000076293945 81.47000122070312,40.41999816894531 81.47000122070312,40.41999816894531 C81.61000061035156,39.5099983215332 82.4000015258789,38.84000015258789 83.31999969482422,38.84000015258789 C83.31999969482422,38.84000015258789 87.55999755859375,38.84000015258789 87.55999755859375,38.84000015258789 C96.41000366210938,38.84000015258789 101.5199966430664,34.560001373291016 102.86000061035156,26.09000015258789 C103.45999908447266,22.3799991607666 102.86000061035156,19.459999084472656 101.13999938964844,17.420000076293945 C99.2300033569336,15.170000076293945 95.83999633789062,13.989999771118164 91.3499984741211,13.989999771118164 C91.3499984741211,13.989999771118164 91.3499984741211,13.989999771118164 91.3499984741211,13.989999771118164z"></path></g><g opacity="1" transform="matrix(1,0,0,1,0,0)"><path fill="rgb(214,214,214)" fill-opacity="1" d=" M122.75,38.91999816894531 C122.75,38.91999816894531 122.75,38.93000030517578 122.75,38.93000030517578 C122.2300033569336,42.52000045776367 119.12000274658203,45.150001525878906 115.5,45.06999969482422 C112.76000213623047,45.36000061035156 110.30999755859375,43.36000061035156 110.0199966430664,40.630001068115234 C109.95999908447266,40.02000045776367 110.0199966430664,39.400001525878906 110.18000030517578,38.810001373291016 C110.69000244140625,35.22999954223633 113.76000213623047,32.58000183105469 117.37999725341797,32.619998931884766 C119,32.529998779296875 120.58000183105469,33.18000030517578 121.66999816894531,34.380001068115234 C122.68000030517578,35.66999816894531 123.06999969482422,37.33000183105469 122.75,38.93000030517578 C122.75,38.93000030517578 122.75,38.91999816894531 122.75,38.91999816894531z M131.75,26.40999984741211 C131.75,26.40999984741211 125.31999969482422,26.40999984741211 125.31999969482422,26.40999984741211 C124.7699966430664,26.40999984741211 124.30000305175781,26.809999465942383 124.20999908447266,27.350000381469727 C124.20999908447266,27.350000381469727 123.91999816894531,29.149999618530273 123.91999816894531,29.149999618530273 C123.91999816894531,29.149999618530273 123.47000122070312,28.5 123.47000122070312,28.5 C122.08000183105469,26.479999542236328 118.97000122070312,25.799999237060547 115.87999725341797,25.799999237060547 C108.7699966430664,25.799999237060547 102.70999908447266,31.190000534057617 101.5199966430664,38.7400016784668 C100.83999633789062,42.220001220703125 101.70999908447266,45.83000183105469 103.91000366210938,48.61000061035156 C105.87000274658203,50.91999816894531 108.69000244140625,51.88999938964844 112.0199966430664,51.88999938964844 C112.0199966430664,51.88999938964844 112.01000213623047,51.88999938964844 112.01000213623047,51.88999938964844 C115.3499984741211,51.93000030517578 118.56999969482422,50.59000015258789 120.91000366210938,48.209999084472656 C120.91000366210938,48.209999084472656 120.62999725341797,50 120.62999725341797,50 C120.54000091552734,50.61000061035156 120.94999694824219,51.18000030517578 121.55999755859375,51.279998779296875 C121.55999755859375,51.279998779296875 127.5,51.279998779296875 127.5,51.279998779296875 C128.4199981689453,51.279998779296875 129.1999969482422,50.61000061035156 129.33999633789062,49.70000076293945 C129.33999633789062,49.70000076293945 132.82000732421875,27.690000534057617 132.82000732421875,27.690000534057617 C132.9199981689453,27.079999923706055 132.5,26.510000228881836 131.88999938964844,26.40999984741211 C131.88999938964844,26.40999984741211 131.75,26.40999984741211 131.75,26.40999984741211z"></path></g><g opacity="1" transform="matrix(1,0,0,1,0,0)"><path fill="rgb(214,214,214)" fill-opacity="1" d=" M166.3000030517578,26.40999984741211 C166.3000030517578,26.40999984741211 159.8300018310547,26.40999984741211 159.8300018310547,26.40999984741211 C159.2100067138672,26.40999984741211 158.63999938964844,26.709999084472656 158.2899932861328,27.229999542236328 C158.2899932861328,27.229999542236328 149.3699951171875,40.36000061035156 149.3699951171875,40.36000061035156 C149.3699951171875,40.36000061035156 145.6199951171875,27.75 145.6199951171875,27.75 C145.6199951171875,27.75 145.6199951171875,27.739999771118164 145.6199951171875,27.739999771118164 C145.3800048828125,26.950000762939453 144.66000366210938,26.420000076293945 143.83999633789062,26.40999984741211 C143.83999633789062,26.40999984741211 137.47999572753906,26.40999984741211 137.47999572753906,26.40999984741211 C136.86000061035156,26.40999984741211 136.36000061035156,26.899999618530273 136.36000061035156,27.520000457763672 C136.36000061035156,27.639999389648438 136.3800048828125,27.770000457763672 136.4199981689453,27.889999389648438 C136.4199981689453,27.889999389648438 143.5,48.75 143.5,48.75 C143.5,48.75 136.80999755859375,58.20000076293945 136.80999755859375,58.20000076293945 C136.80999755859375,58.20000076293945 136.82000732421875,58.20000076293945 136.82000732421875,58.20000076293945 C136.55999755859375,58.540000915527344 136.52000427246094,59.0099983215332 136.7100067138672,59.38999938964844 C136.91000366210938,59.77000045776367 137.3000030517578,60 137.72999572753906,60 C137.72999572753906,60 144.17999267578125,60 144.17999267578125,60 C144.77999877929688,59.9900016784668 145.33999633789062,59.689998626708984 145.67999267578125,59.20000076293945 C145.67999267578125,59.20000076293945 167.25,28.170000076293945 167.25,28.170000076293945 C167.60000610351562,27.65999984741211 167.47000122070312,26.969999313354492 166.97000122070312,26.610000610351562 C166.77000427246094,26.469999313354492 166.5399932861328,26.40999984741211 166.3000030517578,26.40999984741211 C166.3000030517578,26.40999984741211 166.3000030517578,26.40999984741211 166.3000030517578,26.40999984741211z"></path></g><g opacity="1" transform="matrix(1,0,0,1,0,0)"><path fill="rgb(255,255,255)" fill-opacity="1" d=" M189.50999450683594,26.56999969482422 C188.75999450683594,31.389999389648438 185.08999633789062,31.389999389648438 181.52999877929688,31.389999389648438 C181.52999877929688,31.389999389648438 179.5,31.389999389648438 179.5,31.389999389648438 C179.5,31.389999389648438 180.92999267578125,22.389999389648438 180.92999267578125,22.389999389648438 C180.92999267578125,22.389999389648438 180.92999267578125,22.389999389648438 180.92999267578125,22.389999389648438 C181.02000427246094,21.84000015258789 181.49000549316406,21.440000534057617 182.0399932861328,21.440000534057617 C182.0399932861328,21.440000534057617 183,21.440000534057617 183,21.440000534057617 C185.4199981689453,21.440000534057617 187.7100067138672,21.440000534057617 188.88999938964844,22.81999969482422 C189.58999633789062,23.639999389648438 189.80999755859375,24.8700008392334 189.5399932861328,26.56999969482422 C189.5399932861328,26.56999969482422 189.50999450683594,26.56999969482422 189.50999450683594,26.56999969482422z M187.9600067138672,13.989999771118164 C187.9600067138672,13.989999771118164 174.52000427246094,13.989999771118164 174.52000427246094,13.989999771118164 C173.61000061035156,13.989999771118164 172.8300018310547,14.649999618530273 172.69000244140625,15.5600004196167 C172.69000244140625,15.5600004196167 167.25,50 167.25,50 C167.1999969482422,50.290000915527344 167.27999877929688,50.59000015258789 167.4499969482422,50.83000183105469 C167.6300048828125,51.06999969482422 167.8800048828125,51.22999954223633 168.1699981689453,51.279998779296875 C168.22999572753906,51.290000915527344 168.2899932861328,51.290000915527344 168.35000610351562,51.279998779296875 C168.35000610351562,51.279998779296875 175.25,51.279998779296875 175.25,51.279998779296875 C175.88999938964844,51.279998779296875 176.44000244140625,50.810001373291016 176.5399932861328,50.18000030517578 C176.5399932861328,50.18000030517578 178.07000732421875,40.43000030517578 178.07000732421875,40.43000030517578 C178.2100067138672,39.52000045776367 179,38.849998474121094 179.9199981689453,38.849998474121094 C179.9199981689453,38.849998474121094 184.16000366210938,38.849998474121094 184.16000366210938,38.849998474121094 C193.00999450683594,38.849998474121094 198.1199951171875,34.58000183105469 199.4600067138672,26.100000381469727 C200.05999755859375,22.399999618530273 199.4600067138672,19.479999542236328 197.74000549316406,17.43000030517578 C195.83999633789062,15.170000076293945 192.4600067138672,13.989999771118164 187.9600067138672,13.989999771118164 C187.9600067138672,13.989999771118164 187.9600067138672,13.989999771118164 187.9600067138672,13.989999771118164z"></path></g><g opacity="1" transform="matrix(1,0,0,1,0,0)"><path fill="rgb(255,255,255)" fill-opacity="1" d=" M219.52000427246094,38.93000030517578 C219,42.52000045776367 215.8800048828125,45.15999984741211 212.25,45.06999969482422 C210.6199951171875,45.25 209,44.599998474121094 207.92999267578125,43.349998474121094 C206.8699951171875,42.099998474121094 206.5,40.400001525878906 206.92999267578125,38.810001373291016 C207.42999267578125,35.22999954223633 210.50999450683594,32.58000183105469 214.1300048828125,32.619998931884766 C215.75,32.529998779296875 217.32000732421875,33.18000030517578 218.41000366210938,34.380001068115234 C219.42999267578125,35.65999984741211 219.85000610351562,37.31999969482422 219.52000427246094,38.93000030517578 C219.52000427246094,38.93000030517578 219.52000427246094,38.93000030517578 219.52000427246094,38.93000030517578z M228.47999572753906,26.40999984741211 C228.47999572753906,26.40999984741211 222.0500030517578,26.40999984741211 222.0500030517578,26.40999984741211 C221.5,26.40999984741211 221.0399932861328,26.809999465942383 220.9499969482422,27.350000381469727 C220.9499969482422,27.350000381469727 220.66000366210938,29.149999618530273 220.66000366210938,29.149999618530273 C220.66000366210938,29.149999618530273 220.2100067138672,28.5 220.2100067138672,28.5 C218.82000732421875,26.479999542236328 215.7100067138672,25.799999237060547 212.6199951171875,25.799999237060547 C205.50999450683594,25.799999237060547 199.4499969482422,31.190000534057617 198.25999450683594,38.7400016784668 C197.5800018310547,42.220001220703125 198.4499969482422,45.83000183105469 200.66000366210938,48.61000061035156 C202.6199951171875,50.91999816894531 205.42999267578125,51.88999938964844 208.77000427246094,51.88999938964844 C208.77000427246094,51.88999938964844 208.75999450683594,51.88999938964844 208.75999450683594,51.88999938964844 C212.10000610351562,51.91999816894531 215.32000732421875,50.59000015258789 217.66000366210938,48.209999084472656 C217.66000366210938,48.209999084472656 217.3699951171875,50 217.3699951171875,50 C217.27999877929688,50.61000061035156 217.69000244140625,51.18000030517578 218.3000030517578,51.279998779296875 C218.3000030517578,51.279998779296875 224.25,51.279998779296875 224.25,51.279998779296875 C225.1699981689453,51.279998779296875 225.9499969482422,50.61000061035156 226.08999633789062,49.70000076293945 C226.08999633789062,49.70000076293945 229.57000732421875,27.690000534057617 229.57000732421875,27.690000534057617 C229.6199951171875,27.389999389648438 229.5399932861328,27.09000015258789 229.36000061035156,26.850000381469727 C229.17999267578125,26.610000610351562 228.9199981689453,26.459999084472656 228.6199951171875,26.40999984741211 C228.6199951171875,26.40999984741211 228.47999572753906,26.40999984741211 228.47999572753906,26.40999984741211z"></path></g><g opacity="1" transform="matrix(1,0,0,1,0,0)"><g opacity="1" transform="matrix(1,0,0,1,0,0)"><path fill="rgb(255,255,255)" fill-opacity="1" d=" M236.05999755859375,14.930000305175781 C236.05999755859375,14.930000305175781 230.5500030517578,50 230.5500030517578,50 C230.5,50.290000915527344 230.57000732421875,50.599998474121094 230.75,50.84000015258789 C230.9199981689453,51.08000183105469 231.19000244140625,51.2400016784668 231.47999572753906,51.279998779296875 C231.5399932861328,51.290000915527344 231.60000610351562,51.290000915527344 231.66000366210938,51.279998779296875 C231.66000366210938,51.279998779296875 237.1999969482422,51.279998779296875 237.1999969482422,51.279998779296875 C238.1199951171875,51.279998779296875 238.89999389648438,50.61000061035156 239.0399932861328,49.70000076293945 C239.0399932861328,49.70000076293945 244.5,15.289999961853027 244.5,15.289999961853027 C244.5500030517578,15 244.47999572753906,14.6899995803833 244.3000030517578,14.449999809265137 C244.1300048828125,14.210000038146973 243.86000061035156,14.039999961853027 243.57000732421875,14 C243.57000732421875,14 237.19000244140625,14 237.19000244140625,14 C236.63999938964844,13.989999771118164 236.16000366210938,14.380000114440918 236.05999755859375,14.930000305175781 C236.05999755859375,14.930000305175781 236.05999755859375,14.930000305175781 236.05999755859375,14.930000305175781z"></path></g></g><g opacity="1" transform="matrix(1,0,0,1,0,0)"><path fill="rgb(38,58,127)" fill-opacity="1" d=" M14.25,57.9900016784668 C14.25,57.9900016784668 15.279999732971191,51.400001525878906 15.279999732971191,51.400001525878906 C15.279999732971191,51.400001525878906 13.029999732971191,51.349998474121094 13.029999732971191,51.349998474121094 C13.029999732971191,51.349998474121094 2.0899999141693115,51.349998474121094 2.0899999141693115,51.349998474121094 C2.0899999141693115,51.349998474121094 9.680000305175781,2.7799999713897705 9.680000305175781,2.7799999713897705 C9.699999809265137,2.630000114440918 9.770000457763672,2.5 9.890000343322754,2.4000000953674316 C10,2.299999952316284 10.149999618530273,2.25 10.289999961853027,2.25 C10.289999961853027,2.25 28.719999313354492,2.25 28.719999313354492,2.25 C34.83000183105469,2.25 39.04999923706055,3.5299999713897705 41.25,6.070000171661377 C42.22999954223633,7.150000095367432 42.91999816894531,8.449999809265137 43.2599983215332,9.869999885559082 C43.599998474121094,11.600000381469727 43.599998474121094,13.390000343322754 43.2599983215332,15.119999885559082 C43.2599983215332,15.119999885559082 43.2599983215332,16.610000610351562 43.2599983215332,16.610000610351562 C43.2599983215332,16.610000610351562 44.29999923706055,17.200000762939453 44.29999923706055,17.200000762939453 C45.09000015258789,17.610000610351562 45.79999923706055,18.149999618530273 46.38999938964844,18.809999465942383 C47.29999923706055,19.90999984741211 47.88999938964844,21.239999771118164 48.08000183105469,22.649999618530273 C48.31999969482422,24.510000228881836 48.2400016784668,26.389999389648438 47.84000015258789,28.219999313354492 C47.45000076293945,30.43000030517578 46.689998626708984,32.56999969482422 45.59000015258789,34.529998779296875 C44.68000030517578,36.08000183105469 43.459999084472656,37.43000030517578 42,38.47999954223633 C40.540000915527344,39.5 38.900001525878906,40.2400016784668 37.16999816894531,40.66999816894531 C35.209999084472656,41.15999984741211 33.189998626708984,41.400001525878906 31.170000076293945,41.380001068115234 C31.170000076293945,41.380001068115234 29.690000534057617,41.380001068115234 29.690000534057617,41.380001068115234 C27.559999465942383,41.38999938964844 25.75,42.939998626708984 25.43000030517578,45.04999923706055 C25.43000030517578,45.04999923706055 25.329999923706055,45.63999938964844 25.329999923706055,45.63999938964844 C25.329999923706055,45.63999938964844 23.510000228881836,57.25 23.510000228881836,57.25 C23.510000228881836,57.25 23.43000030517578,57.66999816894531 23.43000030517578,57.66999816894531 C23.420000076293945,57.7599983215332 23.3799991607666,57.849998474121094 23.309999465942383,57.90999984741211 C23.260000228881836,57.95000076293945 23.190000534057617,57.9900016784668 23.1200008392334,57.9900016784668 C23.1200008392334,57.9900016784668 14.25,57.9900016784668 14.25,57.9900016784668z"></path></g><g opacity="1" transform="matrix(1,0,0,1,0,0)"><path fill="rgb(255,255,255)" fill-opacity="1" d=" M45.22999954223633,15.430000305175781 C45.16999816894531,15.779999732971191 45.11000061035156,16.18000030517578 45.040000915527344,16.520000457763672 C42.59000015258789,29.09000015258789 34.220001220703125,33.439998626708984 23.520000457763672,33.439998626708984 C23.520000457763672,33.439998626708984 18.059999465942383,33.439998626708984 18.059999465942383,33.439998626708984 C16.75,33.439998626708984 15.640000343322754,34.400001525878906 15.4399995803833,35.689998626708984 C15.4399995803833,35.689998626708984 12.649999618530273,53.369998931884766 12.649999618530273,53.369998931884766 C12.649999618530273,53.369998931884766 11.859999656677246,58.38999938964844 11.859999656677246,58.38999938964844 C11.800000190734863,58.7599983215332 11.890000343322754,59.13999938964844 12.109999656677246,59.439998626708984 C12.329999923706055,59.7400016784668 12.65999984741211,59.95000076293945 13.029999732971191,60 C13.100000381469727,60.0099983215332 13.180000305175781,60.0099983215332 13.25,60 C13.25,60 22.90999984741211,60 22.90999984741211,60 C24.049999237060547,60 25.020000457763672,59.16999816894531 25.200000762939453,58.040000915527344 C25.200000762939453,58.040000915527344 25.299999237060547,57.54999923706055 25.299999237060547,57.54999923706055 C25.299999237060547,57.54999923706055 27.110000610351562,46 27.110000610351562,46 C27.110000610351562,46 27.229999542236328,45.380001068115234 27.229999542236328,45.380001068115234 C27.40999984741211,44.25 28.389999389648438,43.40999984741211 29.530000686645508,43.40999984741211 C29.530000686645508,43.40999984741211 30.979999542236328,43.40999984741211 30.979999542236328,43.40999984741211 C40.34000015258789,43.40999984741211 47.66999816894531,39.61000061035156 49.810001373291016,28.610000610351562 C50.70000076293945,24 50.25,20.18000030517578 47.869998931884766,17.479999542236328 C47.119998931884766,16.639999389648438 46.22999954223633,15.949999809265137 45.22999954223633,15.430000305175781 C45.22999954223633,15.430000305175781 45.22999954223633,15.430000305175781 45.22999954223633,15.430000305175781z"></path></g><g opacity="1" transform="matrix(1,0,0,1,0,0)"><path fill="rgb(214,214,214)" fill-opacity="1" d=" M43.07099914550781,13.640000343322754 C42.683998107910156,13.520999908447266 42.297000885009766,13.413000106811523 41.86899948120117,13.315999984741211 C41.441001892089844,13.218999862670898 41.05400085449219,13.144000053405762 40.61600112915039,13.067999839782715 C40.61600112915039,13.067999839782715 40.61600112915039,13.067999839782715 40.61600112915039,13.067999839782715 C38.97600173950195,12.79800033569336 37.314998626708984,12.668999671936035 35.665000915527344,12.680000305175781 C35.665000915527344,12.680000305175781 20.709999084472656,12.680000305175781 20.709999084472656,12.680000305175781 C19.538999557495117,12.680000305175781 18.530000686645508,13.595999717712402 18.347000122070312,14.826000213623047 C18.347000122070312,14.826000213623047 15.137999534606934,36.19300079345703 15.137999534606934,36.19300079345703 C15.137999534606934,36.19300079345703 15.045999526977539,36.819000244140625 15.045999526977539,36.819000244140625 C15.260000228881836,35.41699981689453 16.584999084472656,34.73699951171875 17.909000396728516,34.73699951171875 C17.909000396728516,34.73699951171875 23.511999130249023,34.73699951171875 23.511999130249023,34.73699951171875 C34.52399826049805,34.73699951171875 42.979000091552734,29.645999908447266 45.505001068115234,15.947999954223633 C45.505001068115234,15.947999954223633 45.505001068115234,15.947999954223633 45.505001068115234,15.947999954223633 C45.59700012207031,15.505999565124512 45.59700012207031,14.925000190734863 45.617000579833984,14.482999801635742 C44.96500015258789,14.159000396728516 44.32400131225586,14.006999969482422 43.63100051879883,13.802000045776367 C43.63100051879883,13.802000045776367 43.07099914550781,13.640000343322754 43.07099914550781,13.640000343322754z"></path></g><g opacity="1" transform="matrix(1,0,0,1,0,0)"><path fill="rgb(214,214,214)" fill-opacity="1" d=" M18.969999313354492,15.329999923706055 C19.1299991607666,14.210000038146973 20.079999923706055,13.369999885559082 21.219999313354492,13.359999656677246 C21.219999313354492,13.359999656677246 35.7599983215332,13.359999656677246 35.7599983215332,13.359999656677246 C37.36000061035156,13.34000015258789 38.959999084472656,13.460000038146973 40.54999923706055,13.710000038146973 C40.959999084472656,13.779999732971191 41.369998931884766,13.859999656677246 41.7599983215332,13.949999809265137 C42.150001525878906,14.039999961853027 42.5099983215332,14.140000343322754 42.91999816894531,14.25 C42.91999816894531,14.25 43.459999084472656,14.420000076293945 43.459999084472656,14.420000076293945 C43.459999084472656,14.420000076293945 43.459999084472656,14.40999984741211 43.459999084472656,14.40999984741211 C44.15999984741211,14.640000343322754 44.83000183105469,14.930000305175781 45.470001220703125,15.270000457763672 C46.220001220703125,10.59000015258789 45.470001220703125,7.409999847412109 42.959999084472656,4.53000020980835 C40.20000076293945,1.3600000143051147 35.25,0 28.84000015258789,0 C28.84000015258789,0 10.34000015258789,0 10.34000015258789,0 C9.029999732971191,0 7.929999828338623,0.9599999785423279 7.730000019073486,2.25 C7.730000019073486,2.25 0,51.56999969482422 0,51.56999969482422 C-0.07000000029802322,51.9900016784668 0.03999999910593033,52.43000030517578 0.28999999165534973,52.77000045776367 C0.5400000214576721,53.11000061035156 0.9200000166893005,53.34000015258789 1.340000033378601,53.400001525878906 C1.4199999570846558,53.40999984741211 1.5099999904632568,53.40999984741211 1.590000033378601,53.400001525878906 C1.590000033378601,53.400001525878906 13.010000228881836,53.400001525878906 13.010000228881836,53.400001525878906 C13.010000228881836,53.400001525878906 15.880000114440918,35.029998779296875 15.880000114440918,35.029998779296875 C15.880000114440918,35.029998779296875 18.969999313354492,15.329999923706055 18.969999313354492,15.329999923706055z"></path></g></g></g><g transform="matrix(4.620510101318359,0,0,4.620510101318359,93.72100830078125,81.10899353027344)" opacity="1" style="display: block;"><g opacity="1" transform="matrix(1,0,0,1,0,0)"><g opacity="1" transform="matrix(1,0,0,1,0,0)"><path fill="rgb(255,255,255)" fill-opacity="1" d=" M237.75,23.25 C237.75,23.25 243.1699981689453,18.440000534057617 243.1699981689453,18.440000534057617 C243.1699981689453,18.440000534057617 248.0800018310547,23.770000457763672 248.0800018310547,23.770000457763672 C248.0800018310547,23.770000457763672 242.64999389648438,28.579999923706055 242.64999389648438,28.579999923706055 C242.64999389648438,28.579999923706055 237.75,23.25 237.75,23.25z M254.08999633789062,31.25 C254.08999633789062,31.25 257.7099914550781,28.040000915527344 257.7099914550781,28.040000915527344 C257.7099914550781,28.040000915527344 261,31.56999969482422 261,31.56999969482422 C261,31.56999969482422 257.32000732421875,34.790000915527344 257.32000732421875,34.790000915527344 C257.32000732421875,34.790000915527344 254.08999633789062,31.25 254.08999633789062,31.25z M244.82000732421875,10.039999961853027 C244.82000732421875,10.039999961853027 248.39999389648438,6.75 248.39999389648438,6.75 C248.39999389648438,6.75 251.6699981689453,10.359999656677246 251.6699981689453,10.359999656677246 C251.6699981689453,10.359999656677246 248.0500030517578,13.569999694824219 248.0500030517578,13.569999694824219 C248.0500030517578,13.569999694824219 244.82000732421875,10.039999961853027 244.82000732421875,10.039999961853027z M249.47999572753906,20.639999389648438 C249.47999572753906,20.639999389648438 253.08999633789062,17.43000030517578 253.08999633789062,17.43000030517578 C253.08999633789062,17.43000030517578 256.3399963378906,21 256.3399963378906,21 C256.3399963378906,21 252.75,24.18000030517578 252.75,24.18000030517578 C252.75,24.18000030517578 249.47999572753906,20.639999389648438 249.47999572753906,20.639999389648438z M247.22999572753906,45.38999938964844 C247.22999572753906,45.38999938964844 252.66000366210938,40.56999969482422 252.66000366210938,40.56999969482422 C252.66000366210938,40.56999969482422 257.55999755859375,45.90999984741211 257.55999755859375,45.90999984741211 C257.55999755859375,45.90999984741211 252.13999938964844,50.77000045776367 252.13999938964844,50.77000045776367 C252.13999938964844,50.77000045776367 247.22999572753906,45.38999938964844 247.22999572753906,45.38999938964844z M242.4499969482422,34.560001373291016 C242.4499969482422,34.560001373291016 247.8699951171875,29.75 247.8699951171875,29.75 C247.8699951171875,29.75 252.75,35.130001068115234 252.75,35.130001068115234 C252.75,35.130001068115234 247.32000732421875,39.95000076293945 247.32000732421875,39.95000076293945 C247.32000732421875,39.95000076293945 242.4499969482422,34.560001373291016 242.4499969482422,34.560001373291016z M232.75999450683594,12.5 C232.75999450683594,12.5 238.17999267578125,7.679999828338623 238.17999267578125,7.679999828338623 C238.17999267578125,7.679999828338623 243.08999633789062,13.010000228881836 243.08999633789062,13.010000228881836 C243.08999633789062,13.010000228881836 237.66000366210938,17.8799991607666 237.66000366210938,17.8799991607666 C237.66000366210938,17.8799991607666 232.75999450683594,12.5 232.75999450683594,12.5z M219.39999389648438,15.930000305175781 C219.39999389648438,15.930000305175781 226.6999969482422,9.510000228881836 226.6999969482422,9.510000228881836 C226.6999969482422,9.510000228881836 233.25,16.68000030517578 233.25,16.68000030517578 C233.25,16.68000030517578 225.9499969482422,23.09000015258789 225.9499969482422,23.09000015258789 C225.9499969482422,23.09000015258789 219.39999389648438,15.930000305175781 219.39999389648438,15.930000305175781z M229.7899932861328,40.5 C229.7899932861328,40.5 237,34.040000915527344 237,34.040000915527344 C237,34.040000915527344 243.58999633789062,41.209999084472656 243.58999633789062,41.209999084472656 C243.58999633789062,41.209999084472656 236.3000030517578,47.630001068115234 236.3000030517578,47.630001068115234 C236.3000030517578,47.630001068115234 229.7899932861328,40.5 229.7899932861328,40.5z M224.58999633789062,28.139999389648438 C224.58999633789062,28.139999389648438 231.88999938964844,21.75 231.88999938964844,21.75 C231.88999938964844,21.75 238.4199981689453,28.90999984741211 238.4199981689453,28.90999984741211 C238.4199981689453,28.90999984741211 231.1300048828125,35.34000015258789 231.1300048828125,35.34000015258789 C231.1300048828125,35.34000015258789 224.58999633789062,28.139999389648438 224.58999633789062,28.139999389648438z M230.19000244140625,0 C234.8300018310547,0 239.4199981689453,1.0399999618530273 243.61000061035156,3.0399999618530273 C244.25,3.3299999237060547 244.89999389648438,3.6700000762939453 245.5399932861328,4.019999980926514 C245.5399932861328,4.019999980926514 242.74000549316406,6.480000019073486 242.74000549316406,6.480000019073486 C242.74000549316406,6.480000019073486 238.5399932861328,2.180000066757202 238.5399932861328,2.180000066757202 C238.5399932861328,2.180000066757202 231.3000030517578,8.479999542236328 231.3000030517578,8.479999542236328 C231.3000030517578,8.479999542236328 227.0399932861328,3.9800000190734863 227.0399932861328,3.9800000190734863 C227.0399932861328,3.9800000190734863 213.75,15.699999809265137 213.75,15.699999809265137 C213.75,15.699999809265137 222.27000427246094,24.93000030517578 222.27000427246094,24.93000030517578 C222.27000427246094,24.93000030517578 218.9499969482422,27.790000915527344 218.9499969482422,27.790000915527344 C218.9499969482422,27.790000915527344 227.33999633789062,37.02000045776367 227.33999633789062,37.02000045776367 C227.33999633789062,37.02000045776367 224.02000427246094,39.880001068115234 224.02000427246094,39.880001068115234 C224.02000427246094,39.880001068115234 236.02000427246094,53.0099983215332 236.02000427246094,53.0099983215332 C236.02000427246094,53.0099983215332 243.1300048828125,46.59000015258789 243.1300048828125,46.59000015258789 C243.1300048828125,46.59000015258789 249.32000732421875,53.470001220703125 249.32000732421875,53.470001220703125 C249.32000732421875,53.470001220703125 249.32000732421875,53.470001220703125 249.32000732421875,53.470001220703125 C248.0399932861328,54.439998626708984 246.6999969482422,55.31999969482422 245.3000030517578,56.11000061035156 C240.69000244140625,58.65999984741211 235.52000427246094,60 230.25,60 C213.3800048828125,60 199.6699981689453,46.5 199.6699981689453,30 C199.6699981689453,13.5 213.3300018310547,0 230.19000244140625,0 C230.19000244140625,0 230.19000244140625,0 230.19000244140625,0z"></path></g><g opacity="1" transform="matrix(1,0,0,1,0,0)"><path fill="rgb(255,255,255)" fill-opacity="1" d=" M16,20.6200008392334 C16,20.6200008392334 15.75,20.6200008392334 15.75,20.6200008392334 C15.75,20.6200008392334 10.5600004196167,40.25 10.5600004196167,40.25 C10.5600004196167,40.25 6.340000152587891,40.25 6.340000152587891,40.25 C6.340000152587891,40.25 0,12.369999885559082 0,12.369999885559082 C0,12.369999885559082 4.380000114440918,12.369999885559082 4.380000114440918,12.369999885559082 C4.380000114440918,12.369999885559082 8.770000457763672,33.16999816894531 8.770000457763672,33.16999816894531 C8.770000457763672,33.16999816894531 9.039999961853027,33.16999816894531 9.039999961853027,33.16999816894531 C9.039999961853027,33.16999816894531 14.119999885559082,12.369999885559082 14.119999885559082,12.369999885559082 C14.119999885559082,12.369999885559082 17.610000610351562,12.369999885559082 17.610000610351562,12.369999885559082 C17.610000610351562,12.369999885559082 23.049999237060547,33.16999816894531 23.049999237060547,33.16999816894531 C23.049999237060547,33.16999816894531 23.31999969482422,33.16999816894531 23.31999969482422,33.16999816894531 C23.31999969482422,33.16999816894531 27.309999465942383,12.369999885559082 27.309999465942383,12.369999885559082 C27.309999465942383,12.369999885559082 31.889999389648438,12.369999885559082 31.889999389648438,12.369999885559082 C31.889999389648438,12.369999885559082 25.549999237060547,40.25 25.549999237060547,40.25 C25.549999237060547,40.25 21.31999969482422,40.25 21.31999969482422,40.25 C21.31999969482422,40.25 16,20.6200008392334 16,20.6200008392334z"></path></g><g opacity="1" transform="matrix(1,0,0,1,0,0)"><path fill="rgb(255,255,255)" fill-opacity="1" d=" M49.540000915527344,35.77000045776367 C49.540000915527344,35.77000045776367 49.540000915527344,38.77000045776367 49.540000915527344,38.77000045776367 C47.43000030517578,39.97999954223633 45.040000915527344,40.599998474121094 42.61000061035156,40.58000183105469 C36.040000915527344,40.58000183105469 33.34000015258789,36.5 33.34000015258789,30.290000915527344 C33.34000015258789,24.290000915527344 36.34000015258789,19.979999542236328 42.220001220703125,19.979999542236328 C47.11000061035156,19.979999542236328 50.119998931884766,23.15999984741211 50.119998931884766,29.56999969482422 C50.119998931884766,29.56999969482422 50.119998931884766,31.030000686645508 50.119998931884766,31.030000686645508 C50.119998931884766,31.030000686645508 37.380001068115234,31.030000686645508 37.380001068115234,31.030000686645508 C37.380001068115234,35.75 39.290000915527344,37.83000183105469 43.31999969482422,37.83000183105469 C43.31999969482422,37.83000183105469 43.31999969482422,37.83000183105469 43.31999969482422,37.83000183105469 C45.540000915527344,37.75 47.709999084472656,37.040000915527344 49.54999923706055,35.790000915527344 M37.45000076293945,28.3799991607666 C37.45000076293945,28.3799991607666 46.45000076293945,28.3799991607666 46.45000076293945,28.3799991607666 C46.25,24.260000228881836 44.25,22.610000610351562 42.13999938964844,22.610000610351562 C39.75,22.610000610351562 37.91999816894531,24.450000762939453 37.4900016784668,28.3799991607666"></path></g><g opacity="1" transform="matrix(1,0,0,1,0,0)"><path fill="rgb(255,255,255)" fill-opacity="1" d=" M59.29999923706055,21.670000076293945 C60.90999984741211,20.780000686645508 62.709999084472656,20.280000686645508 64.55000305175781,20.209999084472656 C69.4000015258789,20.209999084472656 72.05000305175781,23.600000381469727 72.05000305175781,29.889999389648438 C72.05000305175781,37.2400016784668 68.5199966430664,40.810001373291016 62.86000061035156,40.810001373291016 C62.86000061035156,40.810001373291016 62.86000061035156,40.81999969482422 62.86000061035156,40.81999969482422 C60.189998626708984,40.75 57.58000183105469,40.08000183105469 55.20000076293945,38.869998931884766 C55.20000076293945,38.869998931884766 55.20000076293945,11.430000305175781 55.20000076293945,11.430000305175781 C55.20000076293945,11.430000305175781 59.25,10.449999809265137 59.25,10.449999809265137 C59.25,10.449999809265137 59.25,21.649999618530273 59.25,21.649999618530273 C59.25,21.649999618530273 59.29999923706055,21.670000076293945 59.29999923706055,21.670000076293945z M59.25,37.41999816894531 C60.38999938964844,37.869998931884766 61.619998931884766,38.09000015258789 62.849998474121094,38.04999923706055 C65.73999786376953,38.04999923706055 67.94000244140625,36.2400016784668 67.94000244140625,29.8700008392334 C67.94000244140625,24.8700008392334 66.13999938964844,23.260000228881836 63.52000045776367,23.260000228881836 C63.52000045776367,23.260000228881836 63.52000045776367,23.270000457763672 63.52000045776367,23.270000457763672 C62.0099983215332,23.299999237060547 60.529998779296875,23.739999771118164 59.25,24.559999465942383 C59.25,24.559999465942383 59.25,37.41999816894531 59.25,37.41999816894531z"></path></g><g opacity="1" transform="matrix(1,0,0,1,0,0)"><path fill="rgb(255,255,255)" fill-opacity="1" d=" M89.63999938964844,34.34000015258789 C89.63999938964844,34.34000015258789 89.83999633789062,34.34000015258789 89.83999633789062,34.34000015258789 C89.83999633789062,34.34000015258789 98.20999908447266,12.350000381469727 98.20999908447266,12.350000381469727 C98.20999908447266,12.350000381469727 103.05999755859375,12.350000381469727 103.05999755859375,12.350000381469727 C103.05999755859375,12.350000381469727 103.05999755859375,40.2400016784668 103.05999755859375,40.2400016784668 C103.05999755859375,40.2400016784668 98.83999633789062,40.2400016784668 98.83999633789062,40.2400016784668 C98.83999633789062,40.2400016784668 98.83999633789062,19.989999771118164 98.83999633789062,19.989999771118164 C98.83999633789062,19.989999771118164 98.4800033569336,19.989999771118164 98.4800033569336,19.989999771118164 C98.4800033569336,19.989999771118164 90.5,40.2400016784668 90.5,40.2400016784668 C90.5,40.2400016784668 88,40.2400016784668 88,40.2400016784668 C88,40.2400016784668 80.01000213623047,20.489999771118164 80.01000213623047,20.489999771118164 C80.01000213623047,20.489999771118164 79.66000366210938,20.489999771118164 79.66000366210938,20.489999771118164 C79.66000366210938,20.489999771118164 79.66000366210938,40.22999954223633 79.66000366210938,40.22999954223633 C79.66000366210938,40.22999954223633 76.12999725341797,40.22999954223633 76.12999725341797,40.22999954223633 C76.12999725341797,40.22999954223633 76.12999725341797,12.350000381469727 76.12999725341797,12.350000381469727 C76.12999725341797,12.350000381469727 80.87000274658203,12.350000381469727 80.87000274658203,12.350000381469727 C80.87000274658203,12.350000381469727 89.63999938964844,34.34000015258789 89.63999938964844,34.34000015258789z"></path></g><g opacity="1" transform="matrix(1,0,0,1,0,0)"><path fill="rgb(255,255,255)" fill-opacity="1" d=" M106.58999633789062,30.270000457763672 C106.58999633789062,23.3799991607666 110.33999633789062,19.959999084472656 115.51000213623047,19.959999084472656 C120.68000030517578,19.959999084472656 124.44000244140625,23.389999389648438 124.44000244140625,30.270000457763672 C124.44000244140625,37.02000045776367 120.87000274658203,40.56999969482422 115.51000213623047,40.56999969482422 C110.1500015258789,40.56999969482422 106.58999633789062,36.9900016784668 106.58999633789062,30.270000457763672 M120.33000183105469,30.270000457763672 C120.33000183105469,24.959999084472656 118.16999816894531,22.719999313354492 115.51000213623047,22.719999313354492 C112.8499984741211,22.719999313354492 110.69999694824219,24.969999313354492 110.69999694824219,30.270000457763672 C110.69999694824219,35.56999969482422 112.7300033569336,37.81999969482422 115.51000213623047,37.81999969482422 C118.27999877929688,37.81999969482422 120.33000183105469,35.65999984741211 120.33000183105469,30.270000457763672"></path></g><g opacity="1" transform="matrix(1,0,0,1,0,0)"><path fill="rgb(255,255,255)" fill-opacity="1" d=" M127.5,22.8799991607666 C130.50999450683594,21.040000915527344 133.9499969482422,20.030000686645508 137.47999572753906,19.959999084472656 C142.17999267578125,19.959999084472656 143.92999267578125,21.809999465942383 143.92999267578125,25.860000610351562 C143.92999267578125,25.860000610351562 143.92999267578125,40.11000061035156 143.92999267578125,40.11000061035156 C143.92999267578125,40.11000061035156 139.86000061035156,40.11000061035156 139.86000061035156,40.11000061035156 C139.86000061035156,40.11000061035156 139.86000061035156,26.770000457763672 139.86000061035156,26.770000457763672 C139.86000061035156,23.65999984741211 138.36000061035156,23.110000610351562 136.33999633789062,23.110000610351562 C134.66000366210938,23.200000762939453 133.02999877929688,23.690000534057617 131.57000732421875,24.520000457763672 C131.57000732421875,24.520000457763672 131.57000732421875,40.099998474121094 131.57000732421875,40.099998474121094 C131.57000732421875,40.099998474121094 127.5,40.099998474121094 127.5,40.099998474121094 C127.5,40.099998474121094 127.5,22.850000381469727 127.5,22.850000381469727 C127.5,22.850000381469727 127.5,22.8799991607666 127.5,22.8799991607666z"></path></g><g opacity="1" transform="matrix(1,0,0,1,0,0)"><path fill="rgb(255,255,255)" fill-opacity="1" d=" M164.66000366210938,35.77000045776367 C164.66000366210938,35.77000045776367 164.66000366210938,38.77000045776367 164.66000366210938,38.77000045776367 C164.66000366210938,38.77000045776367 164.66000366210938,38.77000045776367 164.66000366210938,38.77000045776367 C162.5500030517578,39.97999954223633 160.1699981689453,40.599998474121094 157.74000549316406,40.58000183105469 C151.1699981689453,40.58000183105469 148.47000122070312,36.5 148.47000122070312,30.290000915527344 C148.47000122070312,24.290000915527344 151.47000122070312,19.979999542236328 157.35000610351562,19.979999542236328 C162.24000549316406,19.979999542236328 165.25,23.15999984741211 165.25,29.56999969482422 C165.25,29.56999969482422 165.25,31.030000686645508 165.25,31.030000686645508 C165.25,31.030000686645508 152.5,31.030000686645508 152.5,31.030000686645508 C152.5,35.75 154.4199981689453,37.83000183105469 158.4499969482422,37.83000183105469 C160.6699981689453,37.7400016784668 162.8300018310547,37.029998779296875 164.6699981689453,35.779998779296875 M152.5800018310547,28.3799991607666 C152.5800018310547,28.3799991607666 161.52999877929688,28.3799991607666 161.52999877929688,28.3799991607666 C161.3300018310547,24.260000228881836 159.33999633789062,22.610000610351562 157.22999572753906,22.610000610351562 C154.83999633789062,22.610000610351562 153.00999450683594,24.450000762939453 152.5800018310547,28.3799991607666"></path></g><g opacity="1" transform="matrix(1,0,0,1,0,0)"><path fill="rgb(255,255,255)" fill-opacity="1" d=" M181.5,19.959999084472656 C181.5,19.959999084472656 185.69000244140625,19.959999084472656 185.69000244140625,19.959999084472656 C185.69000244140625,19.959999084472656 178.61000061035156,39.619998931884766 178.61000061035156,39.619998931884766 C176.64999389648438,45.04999923706055 174.25999450683594,47.869998931884766 169.75999450683594,47.869998931884766 C169.75999450683594,47.869998931884766 169.75999450683594,44.63999938964844 169.75999450683594,44.63999938964844 C172.4199981689453,44.63999938964844 174.05999755859375,42.52000045776367 175.00999450683594,39.61000061035156 C175.00999450683594,39.61000061035156 167.50999450683594,19.959999084472656 167.50999450683594,19.959999084472656 C167.50999450683594,19.959999084472656 171.82000732421875,19.959999084472656 171.82000732421875,19.959999084472656 C171.82000732421875,19.959999084472656 176.8300018310547,34.43000030517578 176.8300018310547,34.43000030517578 C176.8300018310547,34.43000030517578 177.05999755859375,34.43000030517578 177.05999755859375,34.43000030517578 C177.05999755859375,34.43000030517578 181.5,19.959999084472656 181.5,19.959999084472656z"></path></g></g></g></g></svg>