<svg width="41" height="40" viewBox="0 0 41 40" fill="none" xmlns="http://www.w3.org/2000/svg">
<path d="M27.1668 3.33337H13.8335C8.3335 3.33337 3.8335 7.83337 3.8335 13.3334V26.6667C3.8335 32.1667 8.3335 36.6667 13.8335 36.6667H27.1668C32.6668 36.6667 37.1668 32.1667 37.1668 26.6667V13.3334C37.1668 7.83337 32.6668 3.33337 27.1668 3.33337ZM33.8335 26.6667C33.8335 30.3334 30.8335 33.3334 27.1668 33.3334H13.8335C10.1668 33.3334 7.16683 30.3334 7.16683 26.6667V13.3334C7.16683 9.66671 10.1668 6.66671 13.8335 6.66671H27.1668C30.8335 6.66671 33.8335 9.66671 33.8335 13.3334V26.6667Z" fill="#E0790B"/>
<path d="M16.8332 12.3333C16.4998 12 15.9998 11.6666 15.4998 11.6666C14.9998 11.6666 14.4998 12 14.1665 12.3333C14.1665 12.3333 14.1665 12.3333 13.9998 12.3333L10.6665 17.3333C10.1665 18.1666 10.3332 19.1666 11.1665 19.6666C11.9998 20.1666 12.9998 20 13.4998 19.1666L13.8332 18.8333V26.6666C13.8332 27.6666 14.4998 28.3333 15.4998 28.3333C16.4998 28.3333 17.1665 27.6666 17.1665 26.6666V18.8333L17.4998 19.3333C17.8332 19.8333 18.3332 20 18.8332 20C19.1665 20 19.4998 19.8333 19.8332 19.6666C20.6665 19.1666 20.8332 18.1666 20.3332 17.3333L16.8332 12.3333ZM27.4998 20.6666L27.1665 21.1666V13.3333C27.1665 12.3333 26.4998 11.6666 25.4998 11.6666C24.4998 11.6666 23.8332 12.3333 23.8332 13.3333V21.1666L23.4998 20.6666C22.9998 19.8333 21.9998 19.6666 21.1665 20.1666C20.3332 20.6666 20.1665 21.6666 20.6665 22.5L23.9998 27.5L24.1665 27.6666C24.3332 27.8333 24.4998 27.8333 24.6665 28C24.6665 28 24.6665 28 24.8332 28C24.9998 28 25.1665 28.1666 25.3332 28.1666C25.4998 28.1666 25.6665 28.1666 25.8332 28C25.8332 28 25.8332 28 25.9998 28C26.1665 28 26.3332 27.8333 26.4998 27.6666L26.6665 27.5L29.9998 22.5C30.4998 21.6666 30.3332 20.6666 29.4998 20.1666C28.9998 19.8333 27.9998 20 27.4998 20.6666Z" fill="#E0790B"/>
</svg>
